<svg xmlns="http://www.w3.org/2000/svg" xmlns:xlink="http://www.w3.org/1999/xlink" viewBox="0 0 1005.64 707.12"><defs><style>.cls-1{fill:url(#linear-gradient);}.cls-2{fill:url(#linear-gradient-2);}.cls-3{fill:url(#linear-gradient-3);}.cls-4{fill:none;}.cls-5{isolation:isolate;}.cls-6{mask:url(#mask);}.cls-10,.cls-11,.cls-12,.cls-17,.cls-19,.cls-20,.cls-203,.cls-204,.cls-21,.cls-7{mix-blend-mode:multiply;}.cls-8{fill:url(#linear-gradient-4);}.cls-9{fill:url(#linear-gradient-5);}.cls-10{fill:url(#linear-gradient-6);}.cls-11,.cls-12,.cls-15,.cls-16,.cls-19,.cls-20{opacity:0.3;}.cls-11{fill:url(#linear-gradient-7);}.cls-12{fill:url(#linear-gradient-8);}.cls-13{fill:url(#linear-gradient-9);}.cls-14{fill:url(#linear-gradient-10);}.cls-102,.cls-103,.cls-104,.cls-110,.cls-111,.cls-116,.cls-117,.cls-15,.cls-16,.cls-18,.cls-192,.cls-193,.cls-206,.cls-207,.cls-208,.cls-209,.cls-211,.cls-27,.cls-33,.cls-34{mix-blend-mode:screen;}.cls-15{fill:url(#New_Gradient_Swatch_17);}.cls-16{fill:url(#New_Gradient_Swatch_17-2);}.cls-17{fill:url(#linear-gradient-11);}.cls-18{fill:url(#New_Gradient_Swatch_17-3);}.cls-19{fill:url(#linear-gradient-12);}.cls-20{fill:url(#linear-gradient-13);}.cls-21{opacity:0.2;fill:url(#linear-gradient-14);}.cls-22{fill:url(#linear-gradient-15);}.cls-23{fill:url(#linear-gradient-16);}.cls-24{fill:url(#linear-gradient-17);}.cls-25{fill:url(#linear-gradient-18);}.cls-26{fill:url(#linear-gradient-19);}.cls-28{fill:url(#linear-gradient-20);}.cls-29{fill:#282425;}.cls-30{fill:url(#linear-gradient-21);}.cls-31{fill:url(#radial-gradient);}.cls-32{fill:#c4c3c2;}.cls-33{fill:url(#New_Gradient_Swatch_17-4);}.cls-34{opacity:0.5;fill:url(#New_Gradient_Swatch_17-5);}.cls-35{fill:#d1d3d4;}.cls-36{fill:#d2d4d5;}.cls-37{fill:#d3d4d5;}.cls-38{fill:#d3d5d6;}.cls-39{fill:#d4d6d7;}.cls-40{fill:#d5d7d8;}.cls-41{fill:#d6d7d8;}.cls-42{fill:#d6d8d9;}.cls-43{fill:#d7d9da;}.cls-44{fill:#d8d9da;}.cls-45{fill:#d9dadb;}.cls-46{fill:#d9dbdc;}.cls-47{fill:#dadcdc;}.cls-48{fill:#dbdcdd;}.cls-49{fill:#dcddde;}.cls-50{fill:#dcdedf;}.cls-51{fill:#dddfdf;}.cls-52{fill:#dedfe0;}.cls-53{fill:#dfe0e1;}.cls-54{fill:#dfe1e1;}.cls-55{fill:#e0e1e2;}.cls-56{fill:#e1e2e3;}.cls-57{fill:#e2e3e4;}.cls-58{fill:#e2e4e4;}.cls-59{fill:#e3e4e5;}.cls-60{fill:#e4e5e6;}.cls-61{fill:#e5e6e6;}.cls-62{fill:#e5e6e7;}.cls-63{fill:#e6e7e8;}.cls-64{fill:#e7e8e8;}.cls-65{fill:#e8e9e9;}.cls-66{fill:#e8e9ea;}.cls-67{fill:#e9eaeb;}.cls-68{fill:#eaebeb;}.cls-69{fill:#ebecec;}.cls-70{fill:#ebeced;}.cls-71{fill:#eceded;}.cls-72{fill:#edeeee;}.cls-73{fill:#eeeeef;}.cls-74{fill:#eeefef;}.cls-75{fill:#eff0f0;}.cls-76{fill:#f0f1f1;}.cls-77{fill:#f1f1f2;}.cls-78{fill:#f1f2f2;}.cls-79{fill:#f2f3f3;}.cls-80{fill:#f3f3f4;}.cls-81{fill:#f4f4f4;}.cls-82{fill:#f4f5f5;}.cls-83{fill:#f5f6f6;}.cls-84{fill:#f6f6f7;}.cls-85{fill:#f7f7f7;}.cls-86{fill:#f7f8f8;}.cls-87{fill:#f8f9f9;}.cls-88{fill:#f9f9f9;}.cls-89{fill:#fafafa;}.cls-90{fill:#fafbfb;}.cls-91{fill:#fbfbfb;}.cls-92{fill:#fcfcfc;}.cls-93{fill:#fdfdfd;}.cls-94{fill:#fdfefe;}.cls-95{fill:#fefefe;}.cls-96{fill:#fff;}.cls-97{mask:url(#mask-2);}.cls-98{fill:#414042;}.cls-99{fill:url(#linear-gradient-22);}.cls-100{fill:url(#linear-gradient-23);}.cls-101{fill:url(#linear-gradient-24);}.cls-102,.cls-103,.cls-104{opacity:0.8;}.cls-102{fill:url(#linear-gradient-25);}.cls-103{fill:url(#linear-gradient-26);}.cls-104{fill:url(#linear-gradient-27);}.cls-105{fill:#3c4254;opacity:0.81;}.cls-106{fill:url(#linear-gradient-28);}.cls-107{fill:url(#linear-gradient-29);}.cls-108{fill:url(#linear-gradient-30);}.cls-109{fill:url(#linear-gradient-31);}.cls-110{fill:url(#linear-gradient-32);}.cls-111{fill:url(#linear-gradient-33);}.cls-112{fill:#231f20;}.cls-113{fill:url(#linear-gradient-34);}.cls-114{fill:url(#linear-gradient-35);}.cls-115{fill:url(#linear-gradient-36);}.cls-116{fill:url(#linear-gradient-37);}.cls-117{fill:url(#linear-gradient-38);}.cls-118{fill:#808285;}.cls-119{fill:url(#linear-gradient-39);}.cls-120{fill:url(#linear-gradient-40);}.cls-121{fill:url(#radial-gradient-2);}.cls-122{clip-path:url(#clip-path);}.cls-123,.cls-124,.cls-125,.cls-126,.cls-127,.cls-128,.cls-129,.cls-130,.cls-131,.cls-132,.cls-133,.cls-134,.cls-135,.cls-136,.cls-137,.cls-138,.cls-139,.cls-140,.cls-141,.cls-142,.cls-143,.cls-144,.cls-145,.cls-146,.cls-147,.cls-148,.cls-149,.cls-150,.cls-151,.cls-152,.cls-153,.cls-154,.cls-155,.cls-156,.cls-157,.cls-158,.cls-159,.cls-160,.cls-161,.cls-162,.cls-163,.cls-164,.cls-165,.cls-166,.cls-167,.cls-168,.cls-169,.cls-170,.cls-171,.cls-172,.cls-173,.cls-174,.cls-175,.cls-176,.cls-177,.cls-178,.cls-179,.cls-180,.cls-181,.cls-182,.cls-183,.cls-184{fill:#bcbec0;}.cls-124{opacity:0.98;}.cls-125{opacity:0.97;}.cls-126{opacity:0.95;}.cls-127{opacity:0.93;}.cls-128{opacity:0.92;}.cls-129{opacity:0.9;}.cls-130{opacity:0.89;}.cls-131{opacity:0.87;}.cls-132{opacity:0.85;}.cls-133{opacity:0.84;}.cls-134{opacity:0.82;}.cls-135{opacity:0.8;}.cls-136{opacity:0.79;}.cls-137{opacity:0.77;}.cls-138{opacity:0.75;}.cls-139{opacity:0.74;}.cls-140{opacity:0.72;}.cls-141{opacity:0.7;}.cls-142{opacity:0.69;}.cls-143{opacity:0.67;}.cls-144{opacity:0.66;}.cls-145{opacity:0.64;}.cls-146{opacity:0.62;}.cls-147{opacity:0.61;}.cls-148{opacity:0.59;}.cls-149{opacity:0.57;}.cls-150{opacity:0.56;}.cls-151{opacity:0.54;}.cls-152{opacity:0.52;}.cls-153{opacity:0.51;}.cls-154{opacity:0.49;}.cls-155{opacity:0.48;}.cls-156{opacity:0.46;}.cls-157{opacity:0.44;}.cls-158{opacity:0.43;}.cls-159{opacity:0.41;}.cls-160{opacity:0.39;}.cls-161{opacity:0.38;}.cls-162{opacity:0.36;}.cls-163{opacity:0.34;}.cls-164{opacity:0.33;}.cls-165{opacity:0.31;}.cls-166{opacity:0.3;}.cls-167{opacity:0.28;}.cls-168{opacity:0.26;}.cls-169{opacity:0.25;}.cls-170{opacity:0.23;}.cls-171{opacity:0.21;}.cls-172{opacity:0.2;}.cls-173{opacity:0.18;}.cls-174{opacity:0.16;}.cls-175{opacity:0.15;}.cls-176{opacity:0.13;}.cls-177{opacity:0.11;}.cls-178{opacity:0.1;}.cls-179{opacity:0.08;}.cls-180{opacity:0.07;}.cls-181{opacity:0.05;}.cls-182{opacity:0.03;}.cls-183{opacity:0.02;}.cls-184{opacity:0;}.cls-185{mask:url(#mask-3);}.cls-186{fill:#1a233a;}.cls-187{fill:url(#linear-gradient-41);}.cls-188{fill:url(#linear-gradient-42);}.cls-189{fill:url(#linear-gradient-43);}.cls-190{fill:url(#linear-gradient-44);}.cls-191{fill:url(#linear-gradient-45);}.cls-192{fill:url(#linear-gradient-46);}.cls-193{fill:url(#linear-gradient-47);}.cls-194{fill:url(#linear-gradient-48);}.cls-195{fill:url(#linear-gradient-49);}.cls-196{fill:url(#linear-gradient-50);}.cls-197{fill:url(#linear-gradient-51);}.cls-198{fill:url(#linear-gradient-52);}.cls-199{fill:url(#linear-gradient-53);}.cls-200{fill:url(#linear-gradient-54);}.cls-201{fill:url(#radial-gradient-3);}.cls-202{fill:url(#linear-gradient-55);}.cls-203{fill:url(#linear-gradient-56);}.cls-204{fill:url(#linear-gradient-57);}.cls-205{fill:url(#linear-gradient-58);}.cls-206{fill:url(#linear-gradient-59);}.cls-207{fill:url(#linear-gradient-60);}.cls-208{fill:url(#linear-gradient-61);}.cls-209{fill:url(#linear-gradient-62);}.cls-210{fill:url(#linear-gradient-63);}.cls-211{fill:url(#New_Gradient_Swatch_17-6);}.cls-212{fill:url(#New_Gradient_Swatch_17-7);}.cls-213{filter:url(#luminosity-invert);}</style><linearGradient id="linear-gradient" x1="1004.83" y1="677.08" x2="1004.83" y2="509.82" gradientUnits="userSpaceOnUse"><stop offset="0.08" stop-color="#fff"/><stop offset="0.16" stop-color="#efefef"/><stop offset="0.31" stop-color="#c6c6c6"/><stop offset="0.53" stop-color="#828282"/><stop offset="0.8" stop-color="#272727"/><stop offset="0.91"/></linearGradient><linearGradient id="linear-gradient-2" x1="688.41" y1="672.09" x2="688.41" y2="421.44" gradientUnits="userSpaceOnUse"><stop offset="0.01" stop-color="#fff"/><stop offset="0.1" stop-color="#f5f5f5"/><stop offset="0.24" stop-color="#dbdbdb"/><stop offset="0.42" stop-color="#b0b0b0"/><stop offset="0.63" stop-color="#757575"/><stop offset="0.87" stop-color="#2b2b2b"/><stop offset="1"/></linearGradient><linearGradient id="linear-gradient-3" x1="1302.56" y1="687.75" x2="1302.56" y2="442.32" gradientUnits="userSpaceOnUse"><stop offset="0" stop-color="#fff"/><stop offset="0.1" stop-color="#fafafa"/><stop offset="0.22" stop-color="#ededed"/><stop offset="0.34" stop-color="#d6d6d6"/><stop offset="0.46" stop-color="#b6b6b6"/><stop offset="0.59" stop-color="#8d8d8d"/><stop offset="0.72" stop-color="#5b5b5b"/><stop offset="0.85" stop-color="#212121"/><stop offset="0.92"/></linearGradient><filter id="luminosity-invert" filterUnits="userSpaceOnUse" color-interpolation-filters="sRGB"><feColorMatrix values="-1 0 0 0 1 0 -1 0 0 1 0 0 -1 0 1 0 0 0 1 0"/></filter><mask id="mask" x="264.44" y="587.21" width="268.12" height="98.43" maskUnits="userSpaceOnUse"><g class="cls-213"><g transform="translate(-606.33)"><rect class="cls-1" x="870.77" y="587.21" width="268.12" height="89.88"/></g></g></mask><linearGradient id="linear-gradient-4" x1="864.77" y1="15485.63" x2="1139.97" y2="15485.63" gradientTransform="matrix(1, 0, 0, -1, 0, 16074.28)" gradientUnits="userSpaceOnUse"><stop offset="0" stop-color="#676770"/><stop offset="0.03" stop-color="#76767e"/><stop offset="0.07" stop-color="#9c9da1"/><stop offset="0.1" stop-color="#b3b4b6"/><stop offset="0.23" stop-color="#cbccce"/><stop offset="0.4" stop-color="#e7e8e8"/><stop offset="0.5" stop-color="#f1f2f2"/><stop offset="0.63" stop-color="#d9dada"/><stop offset="0.8" stop-color="#bdbec0"/><stop offset="0.9" stop-color="#b3b4b6"/><stop offset="1" stop-color="#676770"/></linearGradient><linearGradient id="linear-gradient-5" x1="1004.9" y1="15492.56" x2="1004.9" y2="15387.41" gradientTransform="matrix(1, 0, 0, -1, 0, 16074.28)" gradientUnits="userSpaceOnUse"><stop offset="0" stop-color="#94969a"/><stop offset="0.03" stop-color="#a4a6a9"/><stop offset="0.14" stop-color="#dee0e0"/><stop offset="0.2" stop-color="#f5f6f6"/><stop offset="0.46" stop-color="#dfe0e1"/><stop offset="0.79" stop-color="#c9cbcc"/><stop offset="1" stop-color="#c1c3c5"/></linearGradient><linearGradient id="linear-gradient-6" x1="1004.83" y1="15487.15" x2="1004.83" y2="15485.54" gradientTransform="matrix(1, 0, 0, -1, 0, 16074.28)" gradientUnits="userSpaceOnUse"><stop offset="0" stop-color="#939598"/><stop offset="0.11" stop-color="#a6a7aa"/><stop offset="0.36" stop-color="#cccdcf"/><stop offset="0.59" stop-color="#e8e8e9"/><stop offset="0.79" stop-color="#f9f9f9"/><stop offset="0.95" stop-color="#fff"/></linearGradient><linearGradient id="linear-gradient-7" x1="884.94" y1="15485.63" x2="898.58" y2="15485.63" gradientTransform="matrix(1, 0, 0, -1, 0, 16074.28)" gradientUnits="userSpaceOnUse"><stop offset="0" stop-color="#939598"/><stop offset="0.15" stop-color="#a7a8ab"/><stop offset="0.53" stop-color="#d6d7d8"/><stop offset="0.83" stop-color="#f4f4f4"/><stop offset="1" stop-color="#fff"/></linearGradient><linearGradient id="linear-gradient-8" x1="12443.04" y1="15485.63" x2="12456.68" y2="15485.63" gradientTransform="translate(13567.9 16074.28) rotate(180)" xlink:href="#linear-gradient-7"/><linearGradient id="linear-gradient-9" x1="864.77" y1="585.85" x2="1139.97" y2="585.85" gradientTransform="matrix(1, 0, 0, 1, 0, 0)" xlink:href="#linear-gradient-4"/><linearGradient id="linear-gradient-10" x1="1004.9" y1="591.51" x2="1004.9" y2="503.21" gradientUnits="userSpaceOnUse"><stop offset="0.01" stop-color="#e7e8e9"/><stop offset="0.08" stop-color="#e1e2e4"/><stop offset="0.17" stop-color="#d2d3d5"/><stop offset="0.19" stop-color="#dcddde"/><stop offset="0.22" stop-color="#eeeff0"/><stop offset="0.24" stop-color="#f5f6f6"/><stop offset="0.39" stop-color="#ebecec"/><stop offset="0.76" stop-color="#d5d6d8"/><stop offset="1" stop-color="#cdced0"/></linearGradient><linearGradient id="New_Gradient_Swatch_17" x1="905.08" y1="525.21" x2="905.08" y2="594.18" gradientUnits="userSpaceOnUse"><stop offset="0.05"/><stop offset="0.5" stop-color="#fff"/><stop offset="0.95"/></linearGradient><linearGradient id="New_Gradient_Swatch_17-2" x1="14058.59" y1="525.21" x2="14058.59" y2="594.18" gradientTransform="matrix(-1, 0, 0, 1, 15163.31, 0)" xlink:href="#New_Gradient_Swatch_17"/><linearGradient id="linear-gradient-11" x1="1004.83" y1="587.37" x2="1004.83" y2="585.76" gradientTransform="matrix(1, 0, 0, 1, 0, 0)" xlink:href="#linear-gradient-6"/><linearGradient id="New_Gradient_Swatch_17-3" x1="864.77" y1="584.65" x2="1139.97" y2="584.65" xlink:href="#New_Gradient_Swatch_17"/><linearGradient id="linear-gradient-12" x1="884.94" y1="585.85" x2="898.58" y2="585.85" gradientTransform="matrix(1, 0, 0, 1, 0, 0)" xlink:href="#linear-gradient-7"/><linearGradient id="linear-gradient-13" x1="12443.04" y1="585.85" x2="12456.68" y2="585.85" gradientTransform="matrix(-1, 0, 0, 1, 13567.9, 0)" xlink:href="#linear-gradient-7"/><linearGradient id="linear-gradient-14" x1="1004.89" y1="503.98" x2="1004.89" y2="529.99" gradientUnits="userSpaceOnUse"><stop offset="0.04" stop-color="#939598"/><stop offset="0.2" stop-color="#b8babc"/><stop offset="0.35" stop-color="#d7d8d9"/><stop offset="0.51" stop-color="#edeeee"/><stop offset="0.65" stop-color="#fafbfb"/><stop offset="0.79" stop-color="#fff"/></linearGradient><linearGradient id="linear-gradient-15" x1="1004.89" y1="6.95" x2="1004.89" y2="440.67" gradientUnits="userSpaceOnUse"><stop offset="0" stop-color="#58595b"/><stop offset="0.15" stop-color="#afafb0"/><stop offset="0.28" stop-color="#fff"/><stop offset="0.31" stop-color="#e3e2e2"/><stop offset="0.37" stop-color="#a9a7a8"/><stop offset="0.43" stop-color="#797777"/><stop offset="0.49" stop-color="#545151"/><stop offset="0.54" stop-color="#393536"/><stop offset="0.58" stop-color="#292526"/><stop offset="0.62" stop-color="#231f20"/></linearGradient><linearGradient id="linear-gradient-16" x1="78.35" y1="33.36" x2="718.77" y2="33.36" gradientUnits="userSpaceOnUse"><stop offset="0" stop-color="#58595b"/><stop offset="0.5" stop-color="#808285"/><stop offset="1" stop-color="#414042"/></linearGradient><linearGradient id="linear-gradient-17" x1="78.35" y1="410.38" x2="718.77" y2="410.38" xlink:href="#linear-gradient-16"/><linearGradient id="linear-gradient-18" x1="79.25" y1="30.08" x2="79.25" y2="419.9" gradientUnits="userSpaceOnUse"><stop offset="0" stop-color="#58595b"/><stop offset="0.5" stop-color="#808285"/><stop offset="1" stop-color="#58595b"/></linearGradient><linearGradient id="linear-gradient-19" x1="717.84" y1="30.08" x2="717.84" y2="419.93" xlink:href="#linear-gradient-18"/><linearGradient id="linear-gradient-20" x1="1191.16" y1="-105.87" x2="1263.75" y2="440.93" gradientUnits="userSpaceOnUse"><stop offset="0.06" stop-color="#e6e7e8"/><stop offset="0.1" stop-color="#cecfd0"/><stop offset="0.25" stop-color="#868687"/><stop offset="0.37" stop-color="#4c4d4d"/><stop offset="0.48" stop-color="#232323"/><stop offset="0.57" stop-color="#090909"/><stop offset="0.62"/></linearGradient><linearGradient id="linear-gradient-21" x1="1001.68" y1="13.22" x2="1007.81" y2="17.21" gradientUnits="userSpaceOnUse"><stop offset="0" stop-color="#58595b"/><stop offset="0.1" stop-color="#555557"/><stop offset="0.19" stop-color="#4a4a4c"/><stop offset="0.29" stop-color="#393738"/><stop offset="0.37" stop-color="#231f20"/><stop offset="0.39" stop-color="#272324"/><stop offset="0.4" stop-color="#312e2f"/><stop offset="0.42" stop-color="#434143"/><stop offset="0.43" stop-color="#5d5c5e"/><stop offset="0.45" stop-color="#7d7e80"/><stop offset="0.46" stop-color="#939598"/><stop offset="0.46" stop-color="#919396"/><stop offset="0.48" stop-color="#7c7e80"/><stop offset="0.5" stop-color="#6c6d6f"/><stop offset="0.52" stop-color="#606264"/><stop offset="0.56" stop-color="#5a5b5d"/><stop offset="0.66" stop-color="#58595b"/><stop offset="0.78" stop-color="#464546"/><stop offset="0.9" stop-color="#393536"/><stop offset="1" stop-color="#343031"/></linearGradient><radialGradient id="radial-gradient" cx="1004.96" cy="84.9" r="2.8" gradientTransform="translate(0 -70.28) scale(1 1.01)" gradientUnits="userSpaceOnUse"><stop offset="0.15" stop-color="#2b3990"/><stop offset="0.63" stop-color="#131940"/><stop offset="1"/></radialGradient><linearGradient id="New_Gradient_Swatch_17-4" x1="48.35" y1="444.03" x2="748.77" y2="444.03" xlink:href="#New_Gradient_Swatch_17"/><linearGradient id="New_Gradient_Swatch_17-5" x1="654.96" y1="497.5" x2="1354.84" y2="497.5" xlink:href="#New_Gradient_Swatch_17"/><mask id="mask-2" x="-4.05" y="577.69" width="172.25" height="129.42" maskUnits="userSpaceOnUse"><g class="cls-213"><g transform="translate(-606.33)"><rect class="cls-2" x="602.29" y="577.69" width="172.25" height="94.39"/></g></g></mask><linearGradient id="linear-gradient-22" x1="618.1" y1="15121.19" x2="618.1" y2="15466.41" gradientTransform="matrix(1, 0, 0, -1, 0, 16074.28)" gradientUnits="userSpaceOnUse"><stop offset="0"/><stop offset="0.06" stop-color="#343434"/><stop offset="0.12" stop-color="#696969"/><stop offset="0.18" stop-color="#979797"/><stop offset="0.25" stop-color="#bcbcbc"/><stop offset="0.31" stop-color="#dadada"/><stop offset="0.38" stop-color="#eee"/><stop offset="0.44" stop-color="#fbfbfb"/><stop offset="0.5" stop-color="#fff"/><stop offset="0.56" stop-color="#fbfbfb"/><stop offset="0.62" stop-color="#eee"/><stop offset="0.69" stop-color="#dadada"/><stop offset="0.75" stop-color="#bcbcbc"/><stop offset="0.82" stop-color="#979797"/><stop offset="0.88" stop-color="#696969"/><stop offset="0.94" stop-color="#343434"/><stop offset="1"/></linearGradient><linearGradient id="linear-gradient-23" x1="13212.55" y1="15121.19" x2="13212.55" y2="15466.41" gradientTransform="translate(13971.19 16074.28) rotate(180)" xlink:href="#linear-gradient-22"/><linearGradient id="linear-gradient-24" x1="13200.39" y1="101.23" x2="13363.94" y2="101.23" gradientTransform="matrix(-1, 0, 0, 1, 13971.19, 503.83)" gradientUnits="userSpaceOnUse"><stop offset="0"/><stop offset="0.5" stop-color="#fff"/><stop offset="0.95"/></linearGradient><linearGradient id="linear-gradient-25" x1="619" y1="15057.57" x2="619" y2="15538.38" gradientTransform="matrix(1, 0, 0, -1, 0, 16074.28)" gradientUnits="userSpaceOnUse"><stop offset="0" stop-color="#231f20"/><stop offset="0.5" stop-color="#808285"/><stop offset="1" stop-color="#231f20"/></linearGradient><linearGradient id="linear-gradient-26" x1="12759.09" y1="15057.57" x2="12759.09" y2="15538.38" gradientTransform="translate(13516.54 16074.28) rotate(180)" xlink:href="#linear-gradient-25"/><linearGradient id="linear-gradient-27" x1="12869.06" y1="47.31" x2="13030.95" y2="47.31" gradientTransform="matrix(-1, 0, 0, 1, 13638.3, 557.14)" gradientUnits="userSpaceOnUse"><stop offset="0"/><stop offset="0.02" stop-color="#070707"/><stop offset="0.17" stop-color="#2f2f30"/><stop offset="0.3" stop-color="#4b4c4e"/><stop offset="0.42" stop-color="#5d5e60"/><stop offset="0.5" stop-color="#636466"/><stop offset="0.59" stop-color="#57585a"/><stop offset="0.75" stop-color="#39393b"/><stop offset="0.97" stop-color="#080808"/><stop offset="1"/></linearGradient><linearGradient id="linear-gradient-28" x1="618.05" y1="287.08" x2="618.05" y2="579.75" gradientTransform="matrix(1, 0, 0, 1, 0, 0)" xlink:href="#linear-gradient-22"/><linearGradient id="linear-gradient-29" x1="13212.6" y1="287.08" x2="13212.6" y2="579.75" gradientTransform="matrix(-1, 0, 0, 1, 13971.19, 0)" xlink:href="#linear-gradient-22"/><linearGradient id="linear-gradient-30" x1="13200.44" y1="14989.87" x2="13363.99" y2="14989.87" gradientTransform="translate(13971.19 15570.45) rotate(180)" xlink:href="#linear-gradient-24"/><linearGradient id="linear-gradient-31" x1="606" y1="286.3" x2="769.54" y2="286.3" gradientTransform="matrix(1, 0, 0, 1, 0, 0)" xlink:href="#linear-gradient-24"/><linearGradient id="linear-gradient-32" x1="12759.14" y1="234.83" x2="12759.14" y2="639.83" gradientTransform="matrix(-1, 0, 0, 1, 13516.54, 0)" xlink:href="#linear-gradient-25"/><linearGradient id="linear-gradient-33" x1="-208.93" y1="234.83" x2="-208.93" y2="639.83" gradientTransform="translate(827.87)" xlink:href="#linear-gradient-25"/><linearGradient id="linear-gradient-34" x1="-722.41" y1="1454.6" x2="-707.17" y2="1454.6" gradientTransform="matrix(0, 1, 1, 0, -847.66, 1060.21)" gradientUnits="userSpaceOnUse"><stop offset="0" stop-color="#414042"/><stop offset="0.02" stop-color="#575758"/><stop offset="0.07" stop-color="#7d7d7f"/><stop offset="0.12" stop-color="#9e9e9f"/><stop offset="0.17" stop-color="#b8b9ba"/><stop offset="0.23" stop-color="#cdcdce"/><stop offset="0.3" stop-color="#dbdcdd"/><stop offset="0.38" stop-color="#e3e4e5"/><stop offset="0.5" stop-color="#e6e7e8"/><stop offset="0.6" stop-color="#e3e4e5"/><stop offset="0.68" stop-color="#d9dadb"/><stop offset="0.75" stop-color="#c9c9ca"/><stop offset="0.81" stop-color="#b1b2b3"/><stop offset="0.88" stop-color="#939395"/><stop offset="0.94" stop-color="#6e6e70"/><stop offset="1" stop-color="#434244"/><stop offset="1" stop-color="#414042"/></linearGradient><linearGradient id="linear-gradient-35" x1="14151.37" y1="14206.35" x2="14183.94" y2="14206.35" gradientTransform="matrix(0, -1, -1, 0, 14976.15, 14521.74)" xlink:href="#linear-gradient-34"/><linearGradient id="linear-gradient-36" x1="-704.93" y1="1454.6" x2="-689.69" y2="1454.6" xlink:href="#linear-gradient-34"/><linearGradient id="linear-gradient-37" x1="607.54" y1="285.61" x2="769.43" y2="285.61" gradientTransform="matrix(1, 0, 0, 1, 0, 0)" xlink:href="#linear-gradient-27"/><linearGradient id="linear-gradient-38" x1="12869.11" y1="14935.96" x2="13031" y2="14935.96" gradientTransform="translate(13638.3 15517.14) rotate(180)" xlink:href="#linear-gradient-27"/><linearGradient id="linear-gradient-39" x1="72.56" y1="288.84" x2="91.52" y2="288.84" gradientUnits="userSpaceOnUse"><stop offset="0"/><stop offset="0.09" stop-color="#0f0e0f"/><stop offset="0.22" stop-color="#1d1c1e"/><stop offset="0.32" stop-color="#222123"/><stop offset="1"/></linearGradient><linearGradient id="linear-gradient-40" x1="12953.17" y1="15275.9" x2="12955.12" y2="15275.9" gradientTransform="translate(13654.31 15564.73) rotate(180)" gradientUnits="userSpaceOnUse"><stop offset="0" stop-color="#6d6e71"/><stop offset="0.41" stop-color="#494749"/><stop offset="0.79" stop-color="#2d2a2b"/><stop offset="1" stop-color="#231f20"/></linearGradient><radialGradient id="radial-gradient-2" cx="700.18" cy="288.86" r="0.98" gradientUnits="userSpaceOnUse"><stop offset="0" stop-color="#2b3990"/><stop offset="0.57" stop-color="#131940"/><stop offset="1"/></radialGradient><clipPath id="clip-path" transform="translate(-606.33)"><path class="cls-4" d="M744.2,286.3H728.35v2.85c0,5.73-3.49,8.56-9.22,8.56H657.41c-5.74,0-9.23-2.83-9.23-8.56V286.3H632.53A12.68,12.68,0,0,0,619.84,299V569.16a12.69,12.69,0,0,0,12.69,12.69H744.2a12.69,12.69,0,0,0,12.69-12.69V299A12.68,12.68,0,0,0,744.2,286.3Z"/></clipPath><mask id="mask-3" x="373.43" y="598.28" width="645.59" height="97.75" maskUnits="userSpaceOnUse"><g class="cls-213"><g transform="translate(-606.33)"><rect class="cls-3" x="979.77" y="598.28" width="645.59" height="89.47"/></g></g></mask><linearGradient id="linear-gradient-41" x1="1059.23" y1="15440.1" x2="1541.49" y2="15440.1" gradientTransform="matrix(1, 0, 0, -1, -606.33, 16074.28)" xlink:href="#linear-gradient-16"/><linearGradient id="linear-gradient-42" x1="1059.9" y1="15042.12" x2="1059.9" y2="15449.81" gradientTransform="matrix(1, 0, 0, -1, -606.33, 16074.28)" xlink:href="#linear-gradient-18"/><linearGradient id="linear-gradient-43" x1="1540.81" y1="15042.12" x2="1540.81" y2="15449.81" gradientTransform="matrix(1, 0, 0, -1, -606.33, 16074.28)" xlink:href="#linear-gradient-18"/><linearGradient id="linear-gradient-44" x1="1300.36" y1="15475.86" x2="1300.36" y2="15469.27" gradientTransform="matrix(1, 0, 0, -1, 0, 16074.28)" gradientUnits="userSpaceOnUse"><stop offset="0" stop-color="#58595b"/><stop offset="0.01" stop-color="#595a5c"/><stop offset="0.24" stop-color="#818285"/><stop offset="0.46" stop-color="#9e9fa2"/><stop offset="0.65" stop-color="#b0b1b4"/><stop offset="0.78" stop-color="#b6b7ba"/><stop offset="1" stop-color="#9c9da0"/></linearGradient><linearGradient id="linear-gradient-45" x1="978.02" y1="15465.5" x2="1624.33" y2="15465.5" gradientTransform="matrix(1, 0, 0, -1, 0, 16074.28)" gradientUnits="userSpaceOnUse"><stop offset="0" stop-color="#464650"/><stop offset="0.08" stop-color="#b3b4b6"/><stop offset="0.1" stop-color="#bebfc1"/><stop offset="0.13" stop-color="#d4d5d7"/><stop offset="0.17" stop-color="#e1e2e4"/><stop offset="0.2" stop-color="#e6e7e8"/><stop offset="0.48" stop-color="#f0f1f1"/><stop offset="0.5" stop-color="#f1f2f2"/><stop offset="0.78" stop-color="#e7e8e9"/><stop offset="0.8" stop-color="#e6e7e8"/><stop offset="0.84" stop-color="#dcddde"/><stop offset="0.9" stop-color="#c0c1c3"/><stop offset="0.92" stop-color="#b3b4b6"/><stop offset="0.96" stop-color="#7c7c82"/><stop offset="0.98" stop-color="#55555e"/><stop offset="1" stop-color="#464650"/></linearGradient><linearGradient id="linear-gradient-46" x1="991.36" y1="15465.5" x2="1008" y2="15465.5" gradientTransform="matrix(1, 0, 0, -1, -606.33, 16074.28)" gradientUnits="userSpaceOnUse"><stop offset="0.04"/><stop offset="0.08" stop-color="#0e0e0e"/><stop offset="0.15" stop-color="#333"/><stop offset="0.24" stop-color="#6f6f70"/><stop offset="0.36" stop-color="#c0c1c2"/><stop offset="0.41" stop-color="#e6e7e8"/><stop offset="0.45" stop-color="#cbcccd"/><stop offset="0.55" stop-color="#8e8f90"/><stop offset="0.65" stop-color="#5c5c5c"/><stop offset="0.74" stop-color="#343434"/><stop offset="0.83" stop-color="#171818"/><stop offset="0.9" stop-color="#060606"/><stop offset="0.95"/></linearGradient><linearGradient id="linear-gradient-47" x1="11914.42" y1="15465.5" x2="11931.07" y2="15465.5" gradientTransform="translate(12917.47 16074.28) rotate(180)" xlink:href="#linear-gradient-46"/><linearGradient id="linear-gradient-48" x1="1256.21" y1="15464.45" x2="1344.72" y2="15464.45" gradientTransform="matrix(1, 0, 0, -1, 0, 16074.28)" gradientUnits="userSpaceOnUse"><stop offset="0.01" stop-color="#231f20"/><stop offset="0.1" stop-color="#a7a9ac"/><stop offset="0.19" stop-color="#c1c2c5"/><stop offset="0.3" stop-color="#d5d7d8"/><stop offset="0.4" stop-color="#e2e3e4"/><stop offset="0.5" stop-color="#e6e7e8"/><stop offset="0.58" stop-color="#e2e3e4"/><stop offset="0.66" stop-color="#d5d7d8"/><stop offset="0.74" stop-color="#c1c2c4"/><stop offset="0.82" stop-color="#a4a6a8"/><stop offset="0.9" stop-color="#808285"/><stop offset="0.99"/></linearGradient><linearGradient id="linear-gradient-49" x1="452.9" y1="264.87" x2="935.12" y2="264.87" xlink:href="#linear-gradient-16"/><linearGradient id="linear-gradient-50" x1="452.9" y1="562.44" x2="935.12" y2="562.44" xlink:href="#linear-gradient-16"/><linearGradient id="linear-gradient-51" x1="453.56" y1="262.33" x2="453.56" y2="569.92" xlink:href="#linear-gradient-18"/><linearGradient id="linear-gradient-52" x1="934.46" y1="262.33" x2="934.46" y2="569.92" xlink:href="#linear-gradient-18"/><linearGradient id="linear-gradient-53" x1="1436.44" y1="161.18" x2="1492.75" y2="585.28" xlink:href="#linear-gradient-20"/><linearGradient id="linear-gradient-54" x1="1298.01" y1="252.22" x2="1302.49" y2="255.14" xlink:href="#linear-gradient-21"/><radialGradient id="radial-gradient-3" cx="1300.41" cy="321.24" r="2.06" xlink:href="#radial-gradient"/><linearGradient id="linear-gradient-55" x1="1300.36" y1="598.21" x2="1300.36" y2="591.63" gradientTransform="matrix(1, 0, 0, 1, 0, 0)" xlink:href="#linear-gradient-44"/><linearGradient id="linear-gradient-56" x1="989.37" y1="594.71" x2="1027.87" y2="594.71" gradientTransform="matrix(1, 0, 0, 1, 0, 0)" xlink:href="#linear-gradient-7"/><linearGradient id="linear-gradient-57" x1="11956.55" y1="594.71" x2="11995.05" y2="594.71" gradientTransform="matrix(-1, 0, 0, 1, 13567.9, 0)" xlink:href="#linear-gradient-7"/><linearGradient id="linear-gradient-58" x1="978.02" y1="587.86" x2="1624.33" y2="587.86" gradientTransform="matrix(1, 0, 0, 1, 0, 0)" xlink:href="#linear-gradient-45"/><linearGradient id="linear-gradient-59" x1="385.03" y1="587.86" x2="401.67" y2="587.86" gradientTransform="matrix(1, 0, 0, 1, 0, 0)" xlink:href="#linear-gradient-46"/><linearGradient id="linear-gradient-60" x1="11914.42" y1="587.86" x2="11931.07" y2="587.86" gradientTransform="matrix(-1, 0, 0, 1, 12917.47, 0)" xlink:href="#linear-gradient-46"/><linearGradient id="linear-gradient-61" x1="991.34" y1="584.96" x2="1610.99" y2="584.96" gradientTransform="matrix(1, 0, 0, 1, 0, 0)" xlink:href="#linear-gradient-22"/><linearGradient id="linear-gradient-62" x1="991.34" y1="590.76" x2="1610.99" y2="590.76" gradientTransform="matrix(1, 0, 0, 1, 0, 0)" xlink:href="#linear-gradient-22"/><linearGradient id="linear-gradient-63" x1="1256.21" y1="586.8" x2="1344.72" y2="586.8" gradientUnits="userSpaceOnUse"><stop offset="0.01" stop-color="#231f20"/><stop offset="0.1" stop-color="#a7a9ac"/><stop offset="0.19" stop-color="#c1c2c5"/><stop offset="0.3" stop-color="#d5d7d8"/><stop offset="0.4" stop-color="#e2e3e4"/><stop offset="0.5" stop-color="#e6e7e8"/><stop offset="0.57" stop-color="#e2e3e4"/><stop offset="0.65" stop-color="#d5d7d8"/><stop offset="0.74" stop-color="#c1c2c4"/><stop offset="0.82" stop-color="#a4a6a8"/><stop offset="0.9" stop-color="#808285"/><stop offset="0.99"/></linearGradient><linearGradient id="New_Gradient_Swatch_17-6" x1="1260.75" y1="584.57" x2="1339.84" y2="584.57" xlink:href="#New_Gradient_Swatch_17"/><linearGradient id="New_Gradient_Swatch_17-7" x1="1260.33" y1="587.06" x2="1340.33" y2="587.06" xlink:href="#New_Gradient_Swatch_17"/></defs><title>122</title><g class="cls-5"><g id="Layer_2" data-name="Layer 2"><g id="Layer_1-2" data-name="Layer 1"><g class="cls-6"><g class="cls-7"><path class="cls-8" d="M1125.07,590.05c0-1.41-.65-2.8-3.57-2.8H887.85c-2.92,0-3.13,1.39-3.13,2.8Z" transform="translate(-606.33)"/><path class="cls-9" d="M925.15,685.64s-5.44-69.2-8.09-80.72c-.68-3-2.67-7.75-8.16-9.12s-22.85-5.57-24.18-5.74l0-.37h240.3l0,.37c-1.33.17-18.7,4.36-24.19,5.74s-7.47,6.16-8.16,9.12c-2.64,11.52-8.07,80.72-8.07,80.72Z" transform="translate(-606.33)"/><path class="cls-10" d="M887.85,587.25H1121.5c1.91,0,2.84.6,3.26,1.4H884.91C885.2,587.85,885.94,587.25,887.85,587.25Z" transform="translate(-606.33)"/><path class="cls-11" d="M899.68,590.05h-15c0-1.41.21-2.8,3.13-2.8h11.83Z" transform="translate(-606.33)"/><path class="cls-12" d="M1110.12,590.05h15c0-1.41-.65-2.8-3.57-2.8h-11.38Z" transform="translate(-606.33)"/></g></g><path class="cls-13" d="M1125.07,584.45c0,1.41-.65,2.8-3.57,2.8H887.85c-2.92,0-3.13-1.39-3.13-2.8Z" transform="translate(-606.33)"/><path class="cls-14" d="M925.15,504.25s-5.44,53.82-8.09,65.34c-.68,2.95-2.67,7.74-8.16,9.12s-22.85,5.55-24.18,5.73l0,.37h240.3l0-.37c-1.33-.18-18.7-4.35-24.19-5.73s-7.47-6.17-8.16-9.12c-2.64-11.52-8.07-65.34-8.07-65.34Z" transform="translate(-606.33)"/><path class="cls-15" d="M909.77,578.71c4.77-1.38,7-6.15,7.64-9.11,2.56-11.52,8-65.35,8-65.35h-.29s-5.44,53.82-8.09,65.34c-.68,2.95-2.67,7.74-8.16,9.12s-22.85,5.55-24.18,5.73l0,.37h.91l0-.37C887,584.26,904.35,580.28,909.77,578.71Z" transform="translate(-606.33)"/><path class="cls-16" d="M1100,578.71c-4.77-1.38-7-6.15-7.65-9.11-2.56-11.52-8-65.35-8-65.35h.29s5.43,53.82,8.07,65.34c.69,2.95,2.68,7.74,8.16,9.12s22.86,5.55,24.19,5.73l0,.37h-.92l0-.37C1122.82,584.26,1105.44,580.28,1100,578.71Z" transform="translate(-606.33)"/><path class="cls-17" d="M887.85,587.25H1121.5c1.91,0,2.84-.6,3.26-1.4H884.91C885.2,586.65,885.94,587.25,887.85,587.25Z" transform="translate(-606.33)"/><path class="cls-18" d="M1125.05,584.85c0-.13,0-.27,0-.4H884.72c0,.13,0,.27,0,.4Z" transform="translate(-606.33)"/><path class="cls-19" d="M899.68,584.45h-15c0,1.41.21,2.8,3.13,2.8h11.83Z" transform="translate(-606.33)"/><path class="cls-20" d="M1110.12,584.45h15c0,1.41-.65,2.8-3.57,2.8h-11.38Z" transform="translate(-606.33)"/><path class="cls-21" d="M1087.58,529.84c-1.64-13.6-2.93-25.59-2.93-25.59H925.15s-1.3,12-2.94,25.59Z" transform="translate(-606.33)"/><path class="cls-22" d="M1338.32,0H670.64a15.79,15.79,0,0,0-15.95,16.07V489.39a16.14,16.14,0,0,0,15.76,15.86h668.92c8.59,0,15.73-7.48,15.73-15.37V16C1355.1,7,1347.49,0,1338.32,0ZM1325.1,411.31l-640.42,0V32.46H1325.1Z" transform="translate(-606.33)"/><path d="M1338.84,1H671A15.32,15.32,0,0,0,655.7,16.35V488.86A15.32,15.32,0,0,0,671,504.25h667.89a15.31,15.31,0,0,0,15.24-15.39V16.35A15.31,15.31,0,0,0,1338.84,1ZM1325.1,411.31l-640.42,0V32.46H1325.1Z" transform="translate(-606.33)"/><polygon class="cls-23" points="718.77 32.46 78.35 32.46 80.15 34.27 716.92 34.27 718.77 32.46"/><polygon class="cls-24" points="716.92 409.46 80.15 409.46 78.35 411.27 718.77 411.31 716.92 409.46"/><polygon class="cls-25" points="80.15 409.46 80.15 34.27 78.35 32.46 78.35 411.27 80.15 409.46"/><polygon class="cls-26" points="716.92 34.27 716.92 409.46 718.77 411.31 718.77 32.46 716.92 34.27"/><g class="cls-27"><path class="cls-28" d="M1354.08,411.31v-395A15.31,15.31,0,0,0,1338.84,1H1058.51l10.31,31.49H1325.1V411.31Z" transform="translate(-606.33)"/></g><path class="cls-29" d="M1001.37,15.31a3.53,3.53,0,1,1,3.54,3.56A3.54,3.54,0,0,1,1001.37,15.31Z" transform="translate(-606.33)"/><path class="cls-30" d="M1001.91,15.31a3,3,0,1,1,3,3A3,3,0,0,1,1001.91,15.31Z" transform="translate(-606.33)"/><path class="cls-31" d="M1007.35,15.31a2.45,2.45,0,1,1-2.45-2.46A2.46,2.46,0,0,1,1007.35,15.31Z" transform="translate(-606.33)"/><path class="cls-32" d="M654.69,443.38V490.1A15.35,15.35,0,0,0,670,505.54h669.77a15.4,15.4,0,0,0,15.35-15.44V443.38Z" transform="translate(-606.33)"/><rect class="cls-33" x="48.35" y="443.38" width="700.42" height="1.29"/><path class="cls-34" d="M1339.49,504.42H670.25a14.69,14.69,0,0,1-15.29-15v.65a15.35,15.35,0,0,0,15.29,15.44h669.24a15.41,15.41,0,0,0,15.35-15.44v-.65A14.74,14.74,0,0,1,1339.49,504.42Z" transform="translate(-606.33)"/><g class="cls-7"><rect class="cls-35" x="76.5" y="34.27" width="640.41" height="378.85"/><rect class="cls-36" x="76.77" y="34.58" width="639.89" height="378.24"/><rect class="cls-37" x="77.03" y="34.88" width="639.36" height="377.64"/><rect class="cls-38" x="77.3" y="35.18" width="638.83" height="377.03"/><rect class="cls-39" x="77.56" y="35.48" width="638.3" height="376.42"/><rect class="cls-40" x="77.82" y="35.79" width="637.77" height="375.82"/><rect class="cls-41" x="78.09" y="36.09" width="637.24" height="375.21"/><rect class="cls-42" x="78.35" y="36.39" width="636.72" height="374.61"/><rect class="cls-43" x="78.62" y="36.7" width="636.19" height="374"/><rect class="cls-44" x="78.88" y="37" width="635.66" height="373.39"/><rect class="cls-45" x="79.14" y="37.3" width="635.13" height="372.79"/><rect class="cls-46" x="79.41" y="37.6" width="634.6" height="372.18"/><rect class="cls-47" x="79.67" y="37.91" width="634.07" height="371.58"/><rect class="cls-48" x="79.94" y="38.21" width="633.55" height="370.97"/><rect class="cls-49" x="80.2" y="38.51" width="633.02" height="370.37"/><rect class="cls-50" x="80.46" y="38.82" width="632.49" height="369.76"/><rect class="cls-51" x="80.73" y="39.12" width="631.96" height="369.15"/><rect class="cls-52" x="80.99" y="39.42" width="631.43" height="368.55"/><rect class="cls-53" x="81.26" y="39.72" width="630.9" height="367.94"/><rect class="cls-54" x="81.52" y="40.03" width="630.38" height="367.34"/><rect class="cls-55" x="81.78" y="40.33" width="629.85" height="366.73"/><rect class="cls-56" x="82.05" y="40.63" width="629.32" height="366.12"/><rect class="cls-57" x="82.31" y="40.94" width="628.79" height="365.52"/><rect class="cls-58" x="82.58" y="41.24" width="628.26" height="364.91"/><rect class="cls-59" x="82.84" y="41.54" width="627.73" height="364.31"/><rect class="cls-60" x="83.1" y="41.85" width="627.21" height="363.7"/><rect class="cls-61" x="83.37" y="42.15" width="626.68" height="363.09"/><rect class="cls-62" x="83.63" y="42.45" width="626.15" height="362.49"/><rect class="cls-63" x="83.9" y="42.75" width="625.62" height="361.88"/><rect class="cls-64" x="84.16" y="43.06" width="625.09" height="361.28"/><rect class="cls-65" x="84.42" y="43.36" width="624.56" height="360.67"/><rect class="cls-66" x="84.69" y="43.66" width="624.04" height="360.07"/><rect class="cls-67" x="84.95" y="43.97" width="623.51" height="359.46"/><rect class="cls-68" x="85.22" y="44.27" width="622.98" height="358.85"/><rect class="cls-69" x="85.48" y="44.57" width="622.45" height="358.25"/><rect class="cls-70" x="85.74" y="44.87" width="621.92" height="357.64"/><rect class="cls-71" x="86.01" y="45.18" width="621.39" height="357.04"/><rect class="cls-72" x="86.27" y="45.48" width="620.87" height="356.43"/><rect class="cls-73" x="86.54" y="45.78" width="620.34" height="355.82"/><rect class="cls-74" x="86.8" y="46.09" width="619.81" height="355.22"/><rect class="cls-75" x="87.07" y="46.39" width="619.28" height="354.61"/><rect class="cls-76" x="87.33" y="46.69" width="618.75" height="354.01"/><rect class="cls-77" x="87.59" y="46.99" width="618.22" height="353.4"/><rect class="cls-78" x="87.86" y="47.3" width="617.7" height="352.79"/><rect class="cls-79" x="88.12" y="47.6" width="617.17" height="352.19"/><rect class="cls-80" x="88.39" y="47.9" width="616.64" height="351.58"/><rect class="cls-81" x="88.65" y="48.21" width="616.11" height="350.98"/><rect class="cls-82" x="88.91" y="48.51" width="615.58" height="350.37"/><rect class="cls-83" x="89.18" y="48.81" width="615.05" height="349.77"/><rect class="cls-84" x="89.44" y="49.12" width="614.53" height="349.16"/><rect class="cls-85" x="89.71" y="49.42" width="614" height="348.55"/><rect class="cls-86" x="89.97" y="49.72" width="613.47" height="347.95"/><rect class="cls-87" x="90.23" y="50.02" width="612.94" height="347.34"/><rect class="cls-88" x="90.5" y="50.33" width="612.41" height="346.74"/><rect class="cls-89" x="90.76" y="50.63" width="611.88" height="346.13"/><rect class="cls-90" x="91.03" y="50.93" width="611.36" height="345.52"/><rect class="cls-91" x="91.29" y="51.24" width="610.83" height="344.92"/><rect class="cls-92" x="91.55" y="51.54" width="610.3" height="344.31"/><rect class="cls-93" x="91.82" y="51.84" width="609.77" height="343.71"/><rect class="cls-94" x="92.08" y="52.14" width="609.24" height="343.1"/><rect class="cls-95" x="92.35" y="52.45" width="608.71" height="342.49"/><rect class="cls-96" x="92.61" y="52.75" width="608.19" height="341.89"/></g><g class="cls-97"><path class="cls-98" d="M746,595.67H630.86c-12,0-20.52,8.57-20.52,20.53v90.92H620.7V618.24a12.54,12.54,0,0,1,12.54-12.54H743.6a12.53,12.53,0,0,1,12.54,12.54v88.88H766.5V616.2C766.5,604.24,758,595.67,746,595.67Z" transform="translate(-606.33)"/><g class="cls-27"><path class="cls-99" d="M609.38,707.12V617.58c0-10.64,8.72-19.68,18.4-22.78a23.93,23.93,0,0,0-19.35,23.36v89Z" transform="translate(-606.33)"/></g><g class="cls-27"><path class="cls-100" d="M767.37,617.58v89.54h.94v-89A23.93,23.93,0,0,0,749,594.8C758.64,597.9,767.37,606.94,767.37,617.58Z" transform="translate(-606.33)"/></g><g class="cls-27"><path class="cls-101" d="M632.47,593.76H744.38c13.09,0,23.74,9.81,23.74,21.89v.72c0-12.07-10.65-21.67-23.74-21.67H632.47c-13.1,0-23.75,9.6-23.75,21.67v-.72C608.72,603.57,619.37,593.76,632.47,593.76Z" transform="translate(-606.33)"/></g><path class="cls-102" d="M615.76,707.12V616.19c0-7.61,3.47-14.82,9.75-17.5a17.86,17.86,0,0,0-13,17.5v90.93Z" transform="translate(-606.33)"/><path class="cls-103" d="M760.7,616.19v90.93H764V616.19a17.85,17.85,0,0,0-13-17.5C757.23,601.37,760.7,608.58,760.7,616.19Z" transform="translate(-606.33)"/><path class="cls-104" d="M743.67,601.37H633.16c-6.7,0-13.34,3.52-16.22,9a17,17,0,0,1,16.22-11.88H743.67a17,17,0,0,1,16.22,11.89C757,604.89,750.37,601.37,743.67,601.37Z" transform="translate(-606.33)"/><g class="cls-7"><polygon class="cls-98" points="91.29 592.82 72.88 592.82 73.19 594.13 91 594.13 91.29 592.82"/></g><path class="cls-105" d="M744.64,604.45H632.21a12.78,12.78,0,0,0-12.78,12.78v89.89h138V617.23A12.77,12.77,0,0,0,744.64,604.45Z" transform="translate(-606.33)"/></g><path class="cls-96" d="M766.45,568.3A21.65,21.65,0,0,1,744.79,590H632a21.66,21.66,0,0,1-21.66-21.66V298.5A21.66,21.66,0,0,1,632,276.84H744.79a21.65,21.65,0,0,1,21.66,21.66Z" transform="translate(-606.33)"/><path d="M766.45,569.45c0,12-8.55,20.51-20.52,20.51H630.81c-12,0-20.52-8.55-20.52-20.51V297.36c0-12,8.55-20.52,20.52-20.52H745.93c12,0,20.52,8.56,20.52,20.52Z" transform="translate(-606.33)"/><g class="cls-27"><path class="cls-106" d="M609.33,568.06V298.43c0-11.63,8.72-19.68,18.4-22.78A23.92,23.92,0,0,0,608.38,299V567.47a23.91,23.91,0,0,0,19.35,23.36C618.05,587.74,609.33,578.7,609.33,568.06Z" transform="translate(-606.33)"/></g><g class="cls-27"><path class="cls-107" d="M767.32,568.06V298.43c0-11.63-8.73-19.68-18.4-22.78A23.92,23.92,0,0,1,768.26,299V567.47a23.91,23.91,0,0,1-19.34,23.36C758.59,587.74,767.32,578.7,767.32,568.06Z" transform="translate(-606.33)"/></g><g class="cls-27"><path class="cls-108" d="M632.42,591.88H744.33c13.09,0,23.74-9.81,23.74-21.88v-.72c0,12.06-10.65,21.66-23.74,21.66H632.42c-13.1,0-23.75-9.6-23.75-21.66V570C608.67,582.07,619.32,591.88,632.42,591.88Z" transform="translate(-606.33)"/></g><g class="cls-27"><path class="cls-109" d="M744.33,275H632.42c-13.1,0-23.75,9.82-23.75,21.88v.73c0-12.06,10.65-21.66,23.75-21.66H744.33c13.09,0,23.74,9.6,23.74,21.66v-.73C768.07,284.81,757.42,275,744.33,275Z" transform="translate(-606.33)"/></g><path class="cls-110" d="M761.17,569.46V297.17c0-7.62-4-14.82-10.27-17.51a17.88,17.88,0,0,1,13,17.51V569.46a17.85,17.85,0,0,1-13,17.49C757.18,584.27,761.17,577.07,761.17,569.46Z" transform="translate(-606.33)"/><path class="cls-111" d="M615.17,569.46V297.17c0-7.62,4-14.82,10.27-17.51a17.89,17.89,0,0,0-13,17.51V569.46a17.85,17.85,0,0,0,13,17.49C619.17,584.27,615.17,577.07,615.17,569.46Z" transform="translate(-606.33)"/><path class="cls-112" d="M607,353.19a.69.69,0,0,0,.64-.69V338.33a.69.69,0,0,0-.64-.69h0a.7.7,0,0,0-.65.69V352.5a.7.7,0,0,0,.65.69Z" transform="translate(-606.33)"/><path class="cls-113" d="M606.94,353a.61.61,0,0,0,.6-.62v-14a.61.61,0,0,0-.6-.62h0a.62.62,0,0,0-.61.62v14a.62.62,0,0,0,.61.62Z" transform="translate(-606.33)"/><path class="cls-112" d="M769.75,337.64a.68.68,0,0,0-.64.69v31.51a.68.68,0,0,0,.64.69h0a.68.68,0,0,0,.63-.69V338.33a.68.68,0,0,0-.63-.69Z" transform="translate(-606.33)"/><path class="cls-114" d="M769.8,337.8a.61.61,0,0,0-.6.62v31.34a.62.62,0,0,0,.6.62h0a.62.62,0,0,0,.61-.62V338.42a.61.61,0,0,0-.61-.62Z" transform="translate(-606.33)"/><path class="cls-112" d="M607,370.68a.7.7,0,0,0,.64-.7V355.8a.69.69,0,0,0-.64-.68h0a.7.7,0,0,0-.65.68V370a.71.71,0,0,0,.65.7Z" transform="translate(-606.33)"/><path class="cls-115" d="M606.94,370.52a.62.62,0,0,0,.6-.63v-14a.61.61,0,0,0-.6-.62h0a.62.62,0,0,0-.61.62v14a.63.63,0,0,0,.61.63Z" transform="translate(-606.33)"/><path class="cls-116" d="M633.11,282.11H743.62c6.7,0,13.34,3.94,16.22,9.45a17,17,0,0,0-16.22-11.9H633.11a17,17,0,0,0-16.22,11.9C619.77,286.05,626.41,282.11,633.11,282.11Z" transform="translate(-606.33)"/><path class="cls-117" d="M743.62,585H633.11a19.08,19.08,0,0,1-16.22-9.73,17,17,0,0,0,16.22,11.89H743.62a17,17,0,0,0,16.22-11.89A19.08,19.08,0,0,1,743.62,585Z" transform="translate(-606.33)"/><g class="cls-7"><rect class="cls-118" x="1.09" y="316.21" width="2.86" height="2.03"/><rect class="cls-118" x="160.12" y="316.21" width="2.86" height="2.03"/><rect class="cls-118" x="1.09" y="548.68" width="2.86" height="2.03"/><rect class="cls-118" x="160.12" y="548.68" width="2.86" height="2.03"/><polygon class="cls-98" points="91.24 592.82 72.83 592.82 73.14 591.52 90.95 591.52 91.24 592.82"/></g><path class="cls-98" d="M73.25,287.72H90.82a1,1,0,0,1,1,1V289a1,1,0,0,1-1,1H73.26a1,1,0,0,1-1-1v-.29A1,1,0,0,1,73.25,287.72Z"/><path class="cls-119" d="M73.26,288H90.82a.7.7,0,0,1,.7.7V289a.69.69,0,0,1-.69.69H73.26a.7.7,0,0,1-.7-.7v-.29a.69.69,0,0,1,.69-.69Z"/><path class="cls-120" d="M699.18,288.84a1,1,0,1,1,1,1A1,1,0,0,1,699.18,288.84Z" transform="translate(-606.33)"/><path class="cls-121" d="M701,288.84a.85.85,0,1,1-.85-.85A.85.85,0,0,1,701,288.84Z" transform="translate(-606.33)"/><g class="cls-7"><path class="cls-123" d="M732.19,284.44H716.34v2.85c0,5.73-3.49,8.56-9.23,8.56H645.39c-5.73,0-9.23-2.83-9.23-8.56v-2.85H620.51a12.69,12.69,0,0,0-12.69,12.69V567.29A12.7,12.7,0,0,0,620.51,580H732.19a12.69,12.69,0,0,0,12.69-12.7V297.13A12.68,12.68,0,0,0,732.19,284.44Z" transform="translate(-606.33)"/><path class="cls-124" d="M620.51,284.53s10.48,0,10.51,0,5.1,0,5.12.07,0,2.83,0,2.84c0,3.53,1.39,6,3.79,7.28a11.4,11.4,0,0,0,5.51,1.21h55.66s6.08,0,6.1,0c4.23,0,7.21-1.65,8.51-4.74a10.36,10.36,0,0,0,.74-3.83s0-2.81,0-2.8h4c.08,0,11.82.05,11.82.13a12.71,12.71,0,0,1,12.48,12.77V567a12.71,12.71,0,0,1-12.48,12.77c0,.07-11.09.13-11.16.13H620.51a12.57,12.57,0,0,1-10.85-6.22,12.78,12.78,0,0,1-1.76-6.5V297.25a12.86,12.86,0,0,1,1.75-6.49A12.56,12.56,0,0,1,620.51,284.53Z" transform="translate(-606.33)"/><path class="cls-125" d="M620.52,284.61s10.46,0,10.51,0,5.05.08,5.09.14,0,2.81,0,2.84c.06,3.51,1.44,5.93,3.86,7.23a11.58,11.58,0,0,0,5.52,1.19h55.71c.08,0,6,0,6.09-.07,4.21-.1,7.16-1.76,8.47-4.81a10.37,10.37,0,0,0,.8-3.79s.06-2.75.09-2.75l4,0c.15,0,11.76.12,11.76.26,6.78,0,12.27,6.05,12.27,12.85v269c0,6.79-5.49,12.84-12.27,12.84,0,.15-11,.26-11.11.26H620.52a12.45,12.45,0,0,1-10.81-6.25,13,13,0,0,1-1.72-6.49V297.36a13,13,0,0,1,1.71-6.48A12.46,12.46,0,0,1,620.52,284.61Z" transform="translate(-606.33)"/><path class="cls-126" d="M620.52,284.7s10.44,0,10.52,0,5,.11,5.06.21,0,2.79.08,2.83c.09,3.49,1.48,5.91,3.93,7.18a11.86,11.86,0,0,0,5.52,1.17h55.75c.12,0,6,0,6.09-.11,4.19-.14,7.1-1.86,8.43-4.88a10.49,10.49,0,0,0,.86-3.73s.1-2.7.14-2.7l4,0c.21,0,11.69.18,11.69.39,6.67,0,12.06,6.24,12.06,12.92V566.42c0,6.67-5.39,12.92-12.06,12.92,0,.21-10.85.39-11.06.39h-101a12.32,12.32,0,0,1-10.75-6.28,13.2,13.2,0,0,1-1.7-6.5V297.48a13.09,13.09,0,0,1,1.69-6.48A12.31,12.31,0,0,1,620.52,284.7Z" transform="translate(-606.33)"/><path class="cls-127" d="M620.52,284.79s10.43-.05,10.53,0,4.94.15,5,.28.06,2.77.11,2.82c.11,3.47,1.52,5.88,4,7.13a12,12,0,0,0,5.53,1.15H701.5c.17,0,6-.06,6.09-.15,4.17-.19,7-2,8.4-4.94a11,11,0,0,0,.91-3.68c.06,0,.13-2.66.19-2.65l4,0c.28,0,11.62.23,11.62.52,6.56,0,11.86,6.43,11.86,13V566.12c0,6.56-5.3,13-11.86,13,0,.29-10.72.52-11,.52H620.52a12.2,12.2,0,0,1-10.7-6.31,13.36,13.36,0,0,1-1.67-6.49V297.59a13.34,13.34,0,0,1,1.66-6.48A12.23,12.23,0,0,1,620.52,284.79Z" transform="translate(-606.33)"/><path class="cls-128" d="M620.53,284.88s10.4-.06,10.53,0,4.89.18,5,.35.09,2.75.14,2.81c.15,3.45,1.58,5.85,4.06,7.08a12.23,12.23,0,0,0,5.53,1.13h55.84c.21,0,6-.08,6.08-.19,4.16-.23,7-2.06,8.37-5a11.06,11.06,0,0,0,1-3.63c.08,0,.16-2.61.24-2.61s4,.06,4,.06c.36,0,11.56.29,11.56.64,6.44,0,11.65,6.62,11.65,13.08V565.83c0,6.45-5.21,13.07-11.65,13.07,0,.36-10.6.65-11,.65H620.53a12.12,12.12,0,0,1-10.66-6.33,13.66,13.66,0,0,1-1.64-6.5v-269a13.66,13.66,0,0,1,1.63-6.48A12.09,12.09,0,0,1,620.53,284.88Z" transform="translate(-606.33)"/><path class="cls-129" d="M620.53,285s10.39-.07,10.54,0,4.84.23,5,.42.11,2.74.17,2.82c.17,3.42,1.62,5.81,4.12,7a12.61,12.61,0,0,0,5.54,1.11h55.89c.24,0,5.93-.09,6.07-.22,4.14-.29,7-2.17,8.34-5.08a11.1,11.1,0,0,0,1-3.57c.1,0,.2-2.57.3-2.56s4,.06,4,.06c.43,0,11.49.35,11.49.78,6.33,0,11.45,6.81,11.45,13.15V565.54c0,6.33-5.12,13.15-11.45,13.15,0,.43-10.46.77-10.89.77H620.53a12,12,0,0,1-10.61-6.36,13.83,13.83,0,0,1-1.61-6.49V297.82a13.9,13.9,0,0,1,1.6-6.48A12,12,0,0,1,620.53,285Z" transform="translate(-606.33)"/><path class="cls-130" d="M620.54,285.05s10.36-.08,10.55,0,4.78.26,4.92.49.12,2.71.19,2.81c.21,3.4,1.67,5.79,4.19,7a12.84,12.84,0,0,0,5.55,1.09h55.93c.29,0,5.9-.11,6.07-.26,4.12-.33,6.91-2.27,8.3-5.14a11.14,11.14,0,0,0,1.07-3.53c.12,0,.24-2.51.35-2.5s4,.07,4,.07c.5,0,11.43.41,11.43.91,6.21,0,11.23,7,11.23,13.22V565.25c0,6.21-5,13.22-11.23,13.22,0,.5-10.34.91-10.84.91H620.54A11.9,11.9,0,0,1,610,573a14,14,0,0,1-1.58-6.5V297.94a14,14,0,0,1,1.57-6.48A11.88,11.88,0,0,1,620.54,285.05Z" transform="translate(-606.33)"/><path class="cls-131" d="M620.54,285.14s10.35-.1,10.56,0,4.73.29,4.89.56c.07.11.14,2.69.22,2.8.23,3.38,1.71,5.76,4.25,6.92a13.07,13.07,0,0,0,5.56,1.07h56c.33,0,5.88-.12,6.07-.3,4.1-.38,6.86-2.37,8.27-5.2a12,12,0,0,0,1.12-3.48c.14,0,.27-2.47.4-2.46.29,0,4,.09,4,.09.57,0,11.37.46,11.37,1,6.09,0,11,7.19,11,13.29V565c0,6.1-4.93,13.3-11,13.3,0,.58-10.22,1-10.79,1H620.54A11.79,11.79,0,0,1,610,572.87a14.22,14.22,0,0,1-1.55-6.49V298.05a14.3,14.3,0,0,1,1.54-6.48A11.77,11.77,0,0,1,620.54,285.14Z" transform="translate(-606.33)"/><path class="cls-132" d="M620.54,285.22s10.33-.1,10.57,0,4.68.34,4.86.64c.07.12.15,2.67.25,2.79.26,3.36,1.75,5.73,4.31,6.87a13.31,13.31,0,0,0,5.57,1.05h56c.37,0,5.84-.14,6.06-.33a9.89,9.89,0,0,0,8.23-5.28,12,12,0,0,0,1.18-3.42c.15,0,.3-2.42.44-2.41.34,0,4,.09,4,.09.65,0,11.3.53,11.3,1.17,6,0,10.82,7.38,10.82,13.37v264.9c0,6-4.84,13.37-10.82,13.37,0,.65-10.09,1.17-10.73,1.17H620.54a11.65,11.65,0,0,1-10.46-6.45,14.59,14.59,0,0,1-1.52-6.49V298.16a14.5,14.5,0,0,1,1.51-6.47A11.69,11.69,0,0,1,620.54,285.22Z" transform="translate(-606.33)"/><path class="cls-133" d="M620.55,285.31s10.31-.12,10.57,0,4.62.37,4.83.7c.08.14.17,2.66.27,2.79.29,3.34,1.81,5.7,4.38,6.83a13.93,13.93,0,0,0,5.58,1h56.06a53.46,53.46,0,0,0,6.06-.37,10.15,10.15,0,0,0,8.2-5.34,12.6,12.6,0,0,0,1.23-3.37c.17,0,.34-2.38.49-2.36.38,0,4,.1,4,.1.72,0,11.24.58,11.24,1.3,5.86,0,10.61,7.57,10.61,13.45V564.37c0,5.87-4.75,13.45-10.61,13.45,0,.72-10,1.29-10.68,1.29H620.55a11.55,11.55,0,0,1-10.41-6.47,14.75,14.75,0,0,1-1.5-6.49V298.28a14.73,14.73,0,0,1,1.49-6.48A11.57,11.57,0,0,1,620.55,285.31Z" transform="translate(-606.33)"/><path class="cls-134" d="M620.55,285.4s10.29-.13,10.58,0,4.57.41,4.8.77c.09.15.19,2.64.3,2.78.32,3.32,1.85,5.68,4.44,6.78a14.15,14.15,0,0,0,5.58,1h56.11a48.61,48.61,0,0,0,6-.41,10.35,10.35,0,0,0,8.17-5.4,13,13,0,0,0,1.29-3.32c.18,0,.37-2.33.54-2.31.41,0,4,.11,4,.11.79,0,11.17.64,11.17,1.43,5.75,0,10.41,7.76,10.41,13.52V564.08c0,5.75-4.66,13.52-10.41,13.52,0,.79-9.83,1.43-10.62,1.43H620.55a11.44,11.44,0,0,1-10.36-6.51,15,15,0,0,1-1.47-6.49V298.39a15,15,0,0,1,1.46-6.47A11.46,11.46,0,0,1,620.55,285.4Z" transform="translate(-606.33)"/><path class="cls-135" d="M620.55,285.49s10.28-.15,10.59,0,4.52.44,4.77.84c.09.16.2,2.61.33,2.77.34,3.3,1.89,5.65,4.5,6.73a14.43,14.43,0,0,0,5.59,1h56.16c.49,0,5.76-.19,6-.46a10.57,10.57,0,0,0,8.13-5.47,13.46,13.46,0,0,0,1.35-3.27c.2,0,.4-2.28.59-2.26.45.05,4,.13,4,.13.85,0,11.1.69,11.1,1.55,5.64,0,10.19,8,10.19,13.6V563.78c0,5.64-4.55,13.6-10.19,13.6,0,.87-9.71,1.56-10.57,1.56H620.55a11.37,11.37,0,0,1-10.31-6.53,15.35,15.35,0,0,1-1.43-6.49V298.51a15.45,15.45,0,0,1,1.42-6.48A11.36,11.36,0,0,1,620.55,285.49Z" transform="translate(-606.33)"/><path class="cls-136" d="M620.56,285.57s10.25-.15,10.59,0,4.47.49,4.74.92c.1.17.22,2.59.35,2.76.38,3.28,1.94,5.62,4.57,6.68a15,15,0,0,0,5.6,1h56.2c.53,0,5.73-.21,6-.49a10.88,10.88,0,0,0,8.1-5.54,14.86,14.86,0,0,0,1.4-3.22c.22,0,.44-2.23.64-2.21.48.05,4,.13,4,.13.93,0,11,.76,11,1.69,5.52,0,10,8.14,10,13.67V563.49c0,5.53-4.46,13.68-10,13.68,0,.93-9.59,1.68-10.52,1.68H620.56a11.27,11.27,0,0,1-10.27-6.56,15.59,15.59,0,0,1-1.4-6.48V298.62a15.73,15.73,0,0,1,1.39-6.47A11.29,11.29,0,0,1,620.56,285.57Z" transform="translate(-606.33)"/><path class="cls-137" d="M620.56,285.66s10.24-.17,10.61,0,4.41.52,4.69,1c.12.19.24,2.58.39,2.76.4,3.26,2,5.59,4.64,6.63a15.13,15.13,0,0,0,5.6,1h56.24c.58,0,5.7-.22,6-.53a11.15,11.15,0,0,0,8.06-5.6,15.27,15.27,0,0,0,1.46-3.17c.23,0,.47-2.19.69-2.16.52.05,4,.14,4,.14,1,0,11,.81,11,1.82,5.41,0,9.78,8.33,9.78,13.75v262c0,5.41-4.37,13.75-9.78,13.75,0,1-9.46,1.82-10.46,1.82H620.56a11.15,11.15,0,0,1-10.21-6.59,15.85,15.85,0,0,1-1.38-6.49v-267a15.93,15.93,0,0,1,1.37-6.48A11.16,11.16,0,0,1,620.56,285.66Z" transform="translate(-606.33)"/><path class="cls-138" d="M620.57,285.75s10.21-.18,10.61,0c.24.11,4.36.55,4.66,1.05.13.2.26,2.56.41,2.76.44,3.24,2,5.56,4.71,6.57,1.1.62,4,.93,5.61.93h56.29c.61,0,5.67-.24,6-.57a11.43,11.43,0,0,0,8-5.67,16.59,16.59,0,0,0,1.51-3.11c.25,0,.5-2.14.74-2.12.56.06,4,.16,4,.16,1.07,0,10.91.87,10.91,1.95,5.29,0,9.57,8.52,9.57,13.82V562.91c0,5.29-4.28,13.82-9.57,13.82,0,1.08-9.34,1.95-10.41,1.95H620.57a11.06,11.06,0,0,1-10.17-6.62c-.86-1.43-1.35-4.69-1.35-6.48V298.85c0-1.79.49-5,1.34-6.47A11.08,11.08,0,0,1,620.57,285.75Z" transform="translate(-606.33)"/><path class="cls-139" d="M620.57,285.83s10.2-.19,10.62,0c.26.12,4.3.6,4.63,1.13.13.21.28,2.54.44,2.75.46,3.22,2.08,5.53,4.77,6.52,1.08.6,4,.91,5.62.91H703c.65,0,5.64-.25,6-.61a11.74,11.74,0,0,0,8-5.73,18,18,0,0,0,1.57-3.06c.26,0,.53-2.09.78-2.07.6.06,4,.16,4,.16,1.14,0,10.85.94,10.85,2.08,5.17,0,9.36,8.72,9.36,13.9v260.8c0,5.18-4.19,13.9-9.36,13.9,0,1.15-9.22,2.08-10.36,2.08H620.57A11,11,0,0,1,610.45,572c-.84-1.41-1.32-4.73-1.32-6.49V299c0-1.75.48-5.08,1.31-6.48A11,11,0,0,1,620.57,285.83Z" transform="translate(-606.33)"/><path class="cls-140" d="M620.57,285.92s10.18-.2,10.63,0c.28.13,4.25.63,4.6,1.2.14.22.29,2.51.47,2.74.49,3.2,2.12,5.5,4.83,6.47,1,.59,4,.89,5.63.89H703.1c.7,0,5.62-.27,6-.64a12.1,12.1,0,0,0,8-5.8,19.37,19.37,0,0,0,1.62-3c.28,0,.57-2,.83-2,.64.06,4,.17,4,.17,1.22,0,10.78,1,10.78,2.21,5.06,0,9.15,8.9,9.15,14V562.32c0,5.07-4.09,14-9.15,14,0,1.22-9.08,2.2-10.3,2.2H620.57a10.88,10.88,0,0,1-10.07-6.67c-.81-1.37-1.28-4.77-1.28-6.48V299.08c0-1.71.46-5.1,1.28-6.47A10.87,10.87,0,0,1,620.57,285.92Z" transform="translate(-606.33)"/><path class="cls-141" d="M620.58,286s10.16-.22,10.63,0c.29.13,4.2.67,4.57,1.26.15.24.31,2.5.49,2.74.53,3.18,2.17,5.47,4.9,6.42,1,.58,4.1.87,5.63.87h56.43c.73,0,5.58-.28,6-.68a12.42,12.42,0,0,0,7.93-5.87,20.93,20.93,0,0,0,1.68-3c.3,0,.6-2,.88-2,.67.07,4,.19,4,.19,1.29,0,10.72,1.05,10.72,2.34,4.94,0,8.94,9.09,8.94,14V562c0,5-4,14.05-8.94,14.05,0,1.29-9,2.34-10.25,2.34H620.58a10.79,10.79,0,0,1-10-6.71c-.8-1.34-1.26-4.8-1.26-6.48v-266c0-1.68.45-5.14,1.25-6.48A10.79,10.79,0,0,1,620.58,286Z" transform="translate(-606.33)"/><path class="cls-142" d="M620.58,286.1s10.14-.23,10.64,0c.31.14,4.15.7,4.54,1.33.15.25.32,2.48.52,2.73.55,3.16,2.22,5.45,5,6.37,1,.57,4.14.85,5.64.85h56.47c.78,0,5.56-.3,6-.72a12.76,12.76,0,0,0,7.89-5.93,24.32,24.32,0,0,0,1.74-2.91c.31,0,.63-1.95.93-1.92.71.07,4,.2,4,.2,1.36,0,10.65,1.1,10.65,2.46,4.83,0,8.74,9.29,8.74,14.13V561.74c0,4.83-3.91,14.12-8.74,14.12,0,1.37-8.83,2.47-10.19,2.47H620.58a10.69,10.69,0,0,1-10-6.73c-.78-1.31-1.23-4.85-1.23-6.48V299.31c0-1.63.45-5.17,1.22-6.47A10.7,10.7,0,0,1,620.58,286.1Z" transform="translate(-606.33)"/><path class="cls-143" d="M620.58,286.18s10.13-.24,10.65,0c.33.15,4.1.75,4.51,1.41.16.26.34,2.46.55,2.72.58,3.14,2.26,5.42,5,6.32,1,.55,4.19.83,5.65.83h56.51c.82,0,5.53-.31,6-.75a13.25,13.25,0,0,0,7.86-6,27.35,27.35,0,0,0,1.79-2.86c.33,0,.67-1.9,1-1.87.75.07,4,.2,4,.2,1.43,0,10.59,1.17,10.59,2.6,4.71,0,8.53,9.48,8.53,14.2V561.44c0,4.72-3.82,14.21-8.53,14.21,0,1.43-8.71,2.59-10.14,2.59h-104a10.6,10.6,0,0,1-9.92-6.76c-.76-1.27-1.2-4.88-1.2-6.48V299.42c0-1.59.44-5.19,1.2-6.47A10.6,10.6,0,0,1,620.58,286.18Z" transform="translate(-606.33)"/><path class="cls-144" d="M620.59,286.27s10.1-.25,10.65,0c.35.16,4,.78,4.48,1.48.17.28.36,2.44.57,2.71.61,3.12,2.31,5.39,5.09,6.27,1,.54,4.23.81,5.66.81h56.55c.86,0,5.51-.33,6-.79a13.64,13.64,0,0,0,7.82-6.06c.63-.93,1.32-1.83,1.85-2.81.34,0,.7-1.86,1-1.83.78.08,4,.22,4,.22,1.51,0,10.53,1.22,10.53,2.73,4.6,0,8.32,9.66,8.32,14.27V561.15c0,4.61-3.72,14.28-8.32,14.28,0,1.51-8.59,2.72-10.09,2.72H620.59a10.5,10.5,0,0,1-9.87-6.78c-.75-1.25-1.18-4.92-1.18-6.48V299.54c0-1.56.43-5.23,1.17-6.47A10.52,10.52,0,0,1,620.59,286.27Z" transform="translate(-606.33)"/><path class="cls-145" d="M620.59,286.36s10.09-.27,10.67,0c.36.16,4,.81,4.43,1.54.18.3.38,2.42.61,2.71.64,3.1,2.35,5.37,5.15,6.22.94.53,4.28.79,5.67.79h56.6c.9,0,5.47-.34,6-.83,3.85-1.05,6.18-3.81,7.79-6.13.63-.92,1.34-1.79,1.9-2.76.36,0,.73-1.8,1.08-1.77.82.08,4,.23,4,.23,1.57,0,10.45,1.28,10.45,2.85,4.49,0,8.11,9.86,8.11,14.35v257.3c0,4.49-3.62,14.35-8.11,14.35,0,1.58-8.46,2.86-10,2.86H620.59a10.42,10.42,0,0,1-9.82-6.82c-.73-1.21-1.14-5-1.14-6.48V299.65c0-1.51.41-5.25,1.13-6.47A10.44,10.44,0,0,1,620.59,286.36Z" transform="translate(-606.33)"/><path class="cls-146" d="M620.6,286.44s10.06-.27,10.67,0c.37.18,3.93.86,4.4,1.62.19.31.4,2.4.64,2.71.66,3.07,2.39,5.33,5.21,6.16.92.51,4.32.77,5.68.77h56.64c.94,0,5.44-.36,6-.87,3.83-1.09,6.13-3.91,7.75-6.19.65-.91,1.38-1.77,2-2.71.38,0,.77-1.76,1.12-1.72.86.08,4,.23,4,.23,1.64,0,10.39,1.34,10.39,3,4.37,0,7.9,10.05,7.9,14.43V560.57c0,4.37-3.53,14.42-7.9,14.42,0,1.66-8.33,3-10,3H620.6a10.34,10.34,0,0,1-9.78-6.84c-.71-1.19-1.11-5-1.11-6.48V299.77c0-1.48.4-5.29,1.1-6.47A10.35,10.35,0,0,1,620.6,286.44Z" transform="translate(-606.33)"/><path class="cls-147" d="M620.6,286.53s10-.29,10.68,0c.39.18,3.88.89,4.37,1.69.2.32.42,2.38.66,2.7.7,3.05,2.45,5.3,5.28,6.11.89.5,4.36.75,5.69.75H704c1,0,5.42-.37,6-.9,3.83-1.15,6.1-4,7.73-6.26.65-.9,1.4-1.75,2-2.66.39,0,.8-1.71,1.17-1.68.9.09,4,.25,4,.25,1.72,0,10.32,1.4,10.32,3.12,4.26,0,7.7,10.24,7.7,14.5V560.27c0,4.26-3.44,14.51-7.7,14.51,0,1.72-8.2,3.11-9.92,3.11H620.6a10.26,10.26,0,0,1-9.73-6.87c-.68-1.15-1.08-5-1.08-6.48V299.88c0-1.44.39-5.31,1.08-6.46A10.26,10.26,0,0,1,620.6,286.53Z" transform="translate(-606.33)"/><path class="cls-148" d="M620.6,286.62s10-.3,10.69,0c.41.19,3.83.93,4.34,1.76.21.33.43,2.36.69,2.69.72,3,2.49,5.27,5.35,6.06.86.49,4.4.73,5.68.73h56.74c1,0,5.38-.39,6-.94,3.81-1.19,6-4.12,7.69-6.33.66-.89,1.44-1.71,2.07-2.6.41,0,.83-1.67,1.22-1.63.93.09,4,.26,4,.26,1.79,0,10.26,1.45,10.26,3.25,4.14,0,7.49,10.42,7.49,14.57V560c0,4.14-3.35,14.58-7.49,14.58,0,1.8-8.08,3.24-9.87,3.24H620.6a10.15,10.15,0,0,1-9.67-6.9c-.67-1.12-1.06-5.07-1.06-6.47V300c0-1.4.38-5.35,1-6.47A10.18,10.18,0,0,1,620.6,286.62Z" transform="translate(-606.33)"/><path class="cls-149" d="M620.61,286.71s10-.32,10.69,0c.43.19,3.78,1,4.31,1.82.21.35.45,2.34.71,2.69.76,3,2.54,5.25,5.42,6,.84.48,4.44.71,5.69.71h56.78c1.06,0,5.36-.4,6-1,3.79-1.24,6-4.22,7.66-6.39.67-.88,1.46-1.69,2.12-2.55.43,0,.86-1.62,1.27-1.58,1,.09,4,.27,4,.27,1.86,0,10.2,1.51,10.2,3.37,4,0,7.28,10.62,7.28,14.65v255c0,4-3.26,14.65-7.28,14.65,0,1.87-8,3.38-9.82,3.38h-105a10.08,10.08,0,0,1-9.63-6.93c-.65-1.09-1-5.11-1-6.47V300.11c0-1.36.38-5.38,1-6.46A10.1,10.1,0,0,1,620.61,286.71Z" transform="translate(-606.33)"/><path class="cls-150" d="M620.61,286.79s10-.32,10.7,0c.44.2,3.73,1,4.28,1.9.22.36.46,2.32.74,2.68.78,3,2.58,5.22,5.48,6,.81.46,4.49.69,5.7.69h56.82c1.11,0,5.33-.42,6-1,3.77-1.29,6-4.33,7.62-6.46.68-.88,1.5-1.66,2.18-2.51.44,0,.9-1.57,1.32-1.52,1,.09,4,.27,4,.27,1.93,0,10.13,1.57,10.13,3.51,3.91,0,7.07,10.81,7.07,14.73V559.4c0,3.91-3.16,14.73-7.07,14.73,0,1.94-7.83,3.5-9.76,3.5H620.61a10,10,0,0,1-9.58-7c-.63-1.06-1-5.14-1-6.47v-264c0-1.33.36-5.41,1-6.47A10,10,0,0,1,620.61,286.79Z" transform="translate(-606.33)"/><path class="cls-151" d="M620.61,286.88s10-.34,10.71,0c.46.21,3.68,1,4.25,2,.23.37.48,2.3.77,2.67.81,3,2.62,5.19,5.54,5.92.79.44,4.53.66,5.71.66h56.87c1.14,0,5.3-.43,6-1.05,3.75-1.34,5.91-4.43,7.58-6.53.7-.86,1.53-1.63,2.24-2.45.46,0,.93-1.52,1.37-1.48,1,.1,4,.29,4,.29,2,0,10.07,1.63,10.07,3.64,3.79,0,6.86,11,6.86,14.8V559.1c0,3.8-3.07,14.81-6.86,14.81,0,2-7.71,3.63-9.71,3.63H620.61a9.93,9.93,0,0,1-9.53-7c-.61-1-1-5.19-1-6.47V300.34c0-1.28.35-5.44,1-6.46A9.94,9.94,0,0,1,620.61,286.88Z" transform="translate(-606.33)"/><path class="cls-152" d="M620.62,287s10-.35,10.72,0c.47.21,3.61,1.07,4.21,2,.23.38.5,2.28.79,2.66.84,2.95,2.68,5.16,5.61,5.87.77.43,4.57.64,5.72.64h56.91c1.19,0,5.27-.45,6-1.09,3.73-1.38,5.86-4.52,7.55-6.59.7-.86,1.56-1.61,2.29-2.4.47,0,1-1.47,1.42-1.43,1.08.1,4,.3,4,.3,2.08,0,10,1.69,10,3.76,3.68,0,6.66,11.19,6.66,14.88v253.2c0,3.68-3,14.88-6.66,14.88,0,2.09-7.57,3.76-9.65,3.76H620.62a9.84,9.84,0,0,1-9.48-7c-.6-1-.94-5.22-.94-6.47V300.46c0-1.25.34-5.47.93-6.47A9.86,9.86,0,0,1,620.62,287Z" transform="translate(-606.33)"/><path class="cls-153" d="M620.62,287.05s9.94-.36,10.73,0c.49.23,3.56,1.12,4.18,2.11.24.4.51,2.27.82,2.66.87,2.93,2.72,5.14,5.67,5.82.74.41,4.62.62,5.73.62h57c1.23,0,5.25-.46,6-1.13,3.71-1.43,5.81-4.62,7.51-6.65.71-.85,1.59-1.58,2.35-2.35.49,0,1-1.43,1.46-1.38,1.12.1,4,.3,4,.3,2.15,0,9.94,1.75,9.94,3.9,3.57,0,6.45,11.38,6.45,14.95V558.52c0,3.57-2.88,15-6.45,15,0,2.16-7.45,3.9-9.6,3.9H620.62a9.77,9.77,0,0,1-9.43-7c-.58-1-.91-5.26-.91-6.47V300.57c0-1.21.33-5.5.9-6.46A9.8,9.8,0,0,1,620.62,287.05Z" transform="translate(-606.33)"/><path class="cls-154" d="M620.63,287.14s9.91-.37,10.73,0c.5.23,3.51,1.15,4.14,2.18.26.41.54,2.24.86,2.65.89,2.91,2.76,5.11,5.73,5.77.72.4,4.66.6,5.73.6h57c1.26,0,5.21-.48,5.95-1.16,3.7-1.48,5.78-4.73,7.49-6.73a32.26,32.26,0,0,1,2.4-2.29c.51,0,1-1.38,1.51-1.34,1.16.12,4.05.32,4.05.32,2.21,0,9.87,1.81,9.87,4,3.45,0,6.24,11.57,6.24,15v252c0,3.45-2.79,15-6.24,15,0,2.23-7.33,4-9.55,4H620.63a9.7,9.7,0,0,1-9.39-7.07c-.56-.93-.88-5.3-.88-6.47V300.68c0-1.16.32-5.53.88-6.46A9.71,9.71,0,0,1,620.63,287.14Z" transform="translate(-606.33)"/><path class="cls-155" d="M620.63,287.23s9.9-.39,10.74,0c.52.24,3.46,1.19,4.11,2.25.27.42.55,2.22.88,2.65.93,2.88,2.81,5.07,5.8,5.71.7.39,4.71.58,5.74.58H705c1.31,0,5.18-.49,5.95-1.2,3.68-1.53,5.73-4.83,7.45-6.79a27.43,27.43,0,0,1,2.46-2.25c.52,0,1.06-1.33,1.56-1.28,1.2.12,4,.33,4,.33,2.29,0,9.8,1.86,9.8,4.15,3.34,0,6,11.77,6,15.11V557.93c0,3.34-2.7,15.11-6,15.11,0,2.3-7.2,4.15-9.49,4.15H620.63a9.61,9.61,0,0,1-9.33-7.09c-.54-.91-.85-5.34-.85-6.47V300.8c0-1.13.3-5.56.84-6.46A9.63,9.63,0,0,1,620.63,287.23Z" transform="translate(-606.33)"/><path class="cls-156" d="M620.63,287.32s9.88-.4,10.75,0c.54.24,3.41,1.22,4.08,2.32.27.43.57,2.2.91,2.64,1,2.86,2.85,5,5.86,5.66.67.38,4.75.56,5.75.56h57.09c1.35,0,5.16-.51,5.95-1.24,3.66-1.57,5.69-4.93,7.42-6.85a23.57,23.57,0,0,1,2.5-2.2c.55,0,1.1-1.28,1.62-1.23,1.23.12,4.05.34,4.05.34,2.36,0,9.74,1.92,9.74,4.28,3.22,0,5.82,11.95,5.82,15.18V557.64c0,3.22-2.6,15.18-5.82,15.18,0,2.37-7.08,4.29-9.44,4.29H620.63a9.54,9.54,0,0,1-9.28-7.13c-.52-.87-.82-5.38-.82-6.47V300.91c0-1.09.3-5.59.81-6.46A9.57,9.57,0,0,1,620.63,287.32Z" transform="translate(-606.33)"/><path class="cls-157" d="M620.64,287.4s9.86-.41,10.75,0c.56.26,3.36,1.27,4.05,2.39.28.46.59,2.19.93,2.64,1,2.84,2.91,5,5.93,5.61.65.36,4.8.54,5.76.54H705.2c1.39,0,5.12-.53,5.94-1.28,3.64-1.62,5.64-5,7.38-6.92a21.66,21.66,0,0,1,2.56-2.14c.56,0,1.14-1.24,1.67-1.19,1.27.13,4,.35,4,.35,2.43,0,9.67,2,9.67,4.42,3.11,0,5.62,12.14,5.62,15.25V557.35c0,3.11-2.51,15.26-5.62,15.26,0,2.44-6.94,4.41-9.38,4.41H620.64a9.48,9.48,0,0,1-9.24-7.16c-.5-.84-.79-5.41-.79-6.46V301c0-1,.29-5.62.79-6.46A9.48,9.48,0,0,1,620.64,287.4Z" transform="translate(-606.33)"/><path class="cls-158" d="M620.64,287.49s9.84-.42,10.76,0c.58.26,3.31,1.3,4,2.46.29.47.6,2.17,1,2.63,1,2.82,3,5,6,5.56.63.35,4.84.52,5.77.52h57.18c1.43,0,5.1-.54,5.94-1.31,3.62-1.67,5.6-5.14,7.35-7a18.68,18.68,0,0,1,2.61-2.09c.58,0,1.17-1.19,1.72-1.14,1.3.13,4,.36,4,.36,2.5,0,9.61,2,9.61,4.55,3,0,5.41,12.33,5.41,15.32v249.7c0,3-2.42,15.33-5.41,15.33,0,2.51-6.82,4.54-9.33,4.54H620.64a9.4,9.4,0,0,1-9.19-7.18c-.48-.81-.76-5.45-.76-6.47V301.14c0-1,.28-5.65.76-6.46A9.41,9.41,0,0,1,620.64,287.49Z" transform="translate(-606.33)"/><path class="cls-159" d="M620.64,287.58s9.83-.44,10.77,0c.59.27,3.25,1.33,4,2.53.29.48.62,2.14,1,2.62,1,2.8,3,5,6.06,5.51.6.34,4.87.5,5.77.5h57.22c1.48,0,5.07-.56,5.94-1.35,3.6-1.72,5.55-5.23,7.31-7.05a17,17,0,0,1,2.67-2c.6,0,1.2-1.15,1.77-1.09l4,.37c2.58,0,9.55,2.09,9.55,4.67,2.87,0,5.2,12.53,5.2,15.41v249.1c0,2.88-2.33,15.41-5.2,15.41,0,2.59-6.7,4.67-9.28,4.67H620.64a9.31,9.31,0,0,1-9.13-7.21c-.47-.78-.74-5.49-.74-6.46V301.26c0-1,.27-5.68.73-6.46A9.34,9.34,0,0,1,620.64,287.58Z" transform="translate(-606.33)"/><path class="cls-160" d="M620.65,287.66s9.8-.44,10.78,0c.6.28,3.19,1.38,4,2.61.3.49.63,2.12,1,2.61,1.08,2.78,3,4.93,6.13,5.46.57.32,4.92.48,5.78.48h57.27c1.51,0,5-.57,5.92-1.39,3.6-1.76,5.51-5.33,7.28-7.12a16.31,16.31,0,0,1,2.73-2c.61,0,1.24-1.09,1.81-1l4.06.38c2.65,0,9.48,2.16,9.48,4.81,2.76,0,5,12.71,5,15.48V556.47c0,2.76-2.24,15.48-5,15.48,0,2.66-6.57,4.81-9.22,4.81h-107a9.26,9.26,0,0,1-9.09-7.24c-.45-.75-.7-5.53-.7-6.46V301.37c0-.93.25-5.71.69-6.46A9.3,9.3,0,0,1,620.65,287.66Z" transform="translate(-606.33)"/><path class="cls-161" d="M620.65,287.75s9.79-.45,10.79,0c.62.29,3.14,1.41,3.92,2.67.31.51.65,2.11,1,2.61,1.1,2.76,3.08,4.91,6.19,5.41.55.31,5,.47,5.78.47h57.32c1.55,0,5-.6,5.92-1.43,3.58-1.82,5.47-5.44,7.25-7.19a15,15,0,0,1,2.78-1.94c.63,0,1.27-1.05,1.86-1l4.06.39c2.72,0,9.42,2.21,9.42,4.94,2.64,0,4.78,12.9,4.78,15.55V556.18c0,2.65-2.14,15.56-4.78,15.56,0,2.73-6.45,4.93-9.17,4.93H620.65a9.2,9.2,0,0,1-9-7.27c-.43-.71-.67-5.56-.67-6.46V301.49c0-.9.24-5.75.67-6.46A9.2,9.2,0,0,1,620.65,287.75Z" transform="translate(-606.33)"/><path class="cls-162" d="M620.66,287.84s9.76-.47,10.79,0c.64.29,3.09,1.45,3.89,2.74.31.52.67,2.09,1.07,2.6,1.13,2.74,3.13,4.88,6.25,5.36.53.3,5,.45,5.79.45h57.36c1.6,0,5-.61,5.92-1.47,3.56-1.86,5.42-5.54,7.21-7.25a13.77,13.77,0,0,1,2.84-1.89c.64,0,1.3-1,1.91-.94l4.06.4c2.79,0,9.36,2.27,9.36,5.06,2.53,0,4.57,13.1,4.57,15.63V555.89c0,2.53-2,15.63-4.57,15.63,0,2.8-6.33,5.06-9.12,5.06H620.66a9.13,9.13,0,0,1-9-7.29c-.4-.69-.64-5.61-.64-6.46V301.6c0-.86.23-5.77.64-6.46A9.14,9.14,0,0,1,620.66,287.84Z" transform="translate(-606.33)"/><path class="cls-163" d="M620.66,287.93s9.75-.48,10.8,0c.65.29,3,1.48,3.85,2.81.33.53.69,2.07,1.1,2.59,1.16,2.72,3.18,4.85,6.32,5.31.5.29,5,.43,5.8.43h57.4c1.64,0,5-.63,5.92-1.51,3.54-1.91,5.38-5.63,7.18-7.32a13.23,13.23,0,0,1,2.89-1.83c.66,0,1.34-1,2-.89,1.49.14,4.06.41,4.06.41,2.87,0,9.29,2.32,9.29,5.19,2.42,0,4.37,13.29,4.37,15.7V555.59c0,2.42-2,15.71-4.37,15.71,0,2.88-6.19,5.19-9.06,5.19H620.66a9.06,9.06,0,0,1-8.94-7.32c-.39-.65-.62-5.64-.62-6.46v-261c0-.81.23-5.8.61-6.45A9.08,9.08,0,0,1,620.66,287.93Z" transform="translate(-606.33)"/><path class="cls-164" d="M620.66,288s9.73-.49,10.81,0c.67.31,3,1.53,3.82,2.89.34.54.71,2,1.13,2.59,1.19,2.69,3.22,4.81,6.38,5.25a39.53,39.53,0,0,0,5.81.41h57.45c1.68,0,4.92-.64,5.91-1.55,3.52-2,5.34-5.73,7.14-7.38a12.69,12.69,0,0,1,2.95-1.79c.68,0,1.37-.9,2-.84l4.07.42c2.93,0,9.22,2.39,9.22,5.33,2.3,0,4.16,13.47,4.16,15.78V555.3c0,2.3-1.86,15.79-4.16,15.79,0,2.94-6.07,5.32-9,5.32H620.66a9,9,0,0,1-8.89-7.36c-.37-.62-.59-5.67-.59-6.45V301.83c0-.78.22-5.83.59-6.46A9,9,0,0,1,620.66,288Z" transform="translate(-606.33)"/><path class="cls-165" d="M620.67,288.1s9.71-.5,10.81,0a10.27,10.27,0,0,1,3.79,2.95c.35.56.72,2,1.15,2.59,1.22,2.67,3.27,4.79,6.45,5.2a41.4,41.4,0,0,0,5.82.39h57.49c1.72,0,4.9-.66,5.91-1.58,3.5-2,5.29-5.84,7.11-7.45a11.84,11.84,0,0,1,3-1.74c.69,0,1.4-.85,2.06-.79,1.56.15,4.07.43,4.07.43,3,0,9.15,2.45,9.15,5.46,2.19,0,4,13.66,4,15.85V555c0,2.19-1.77,15.86-4,15.86,0,3-5.94,5.45-9,5.45H620.67a8.94,8.94,0,0,1-8.85-7.38c-.35-.59-.55-5.72-.55-6.46V301.94c0-.73.2-5.86.55-6.45A9,9,0,0,1,620.67,288.1Z" transform="translate(-606.33)"/><path class="cls-166" d="M620.67,288.19s9.69-.52,10.82,0a10.19,10.19,0,0,1,3.76,3c.35.57.74,2,1.18,2.58,1.25,2.65,3.32,4.76,6.51,5.15a43.2,43.2,0,0,0,5.83.37H706.3c1.76,0,4.87-.67,5.9-1.62,3.49-2.05,5.26-5.93,7.08-7.52a11.6,11.6,0,0,1,3.06-1.68c.71,0,1.43-.81,2.11-.74,1.6.15,4.07.44,4.07.44,3.07,0,9.09,2.5,9.09,5.58,2.07,0,3.74,13.86,3.74,15.93v245c0,2.07-1.67,15.93-3.74,15.93,0,3.09-5.82,5.58-8.9,5.58h-108a8.86,8.86,0,0,1-8.79-7.41c-.34-.56-.53-5.75-.53-6.45V302.06c0-.7.19-5.9.52-6.46A8.89,8.89,0,0,1,620.67,288.19Z" transform="translate(-606.33)"/><path class="cls-167" d="M620.67,288.27s9.68-.52,10.84,0a10.43,10.43,0,0,1,3.72,3.1c.36.58.76,2,1.21,2.57,1.27,2.63,3.36,4.73,6.57,5.1a47.21,47.21,0,0,0,5.83.35h57.59c1.8,0,4.84-.69,5.89-1.66,3.47-2.1,5.21-6,7-7.58a11.15,11.15,0,0,1,3.12-1.63c.72,0,1.47-.76,2.15-.7,1.65.16,4.08.45,4.08.45,3.15,0,9,2.57,9,5.72,2,0,3.53,14.05,3.53,16V554.42c0,2-1.58,16-3.53,16,0,3.17-5.7,5.71-8.85,5.71H620.67a8.81,8.81,0,0,1-8.74-7.43c-.32-.53-.5-5.79-.5-6.46V302.17c0-.66.18-5.92.5-6.45A8.82,8.82,0,0,1,620.67,288.27Z" transform="translate(-606.33)"/><path class="cls-168" d="M620.68,288.36s9.65-.54,10.84,0a10.38,10.38,0,0,1,3.69,3.17c.37.59.77,2,1.23,2.56,1.31,2.61,3.41,4.7,6.64,5.05a49.65,49.65,0,0,0,5.84.33h57.63c1.84,0,4.81-.7,5.89-1.69,3.45-2.15,5.17-6.14,7-7.65a10.82,10.82,0,0,1,3.17-1.58c.74,0,1.5-.72,2.2-.65,1.68.16,4.08.46,4.08.46,3.22,0,9,2.62,9,5.85,1.84,0,3.33,14.23,3.33,16.08V554.13c0,1.84-1.49,16.09-3.33,16.09,0,3.23-5.57,5.84-8.79,5.84H620.68a8.75,8.75,0,0,1-8.7-7.47c-.3-.5-.47-5.83-.47-6.45V302.29c0-.62.17-6,.47-6.45A8.76,8.76,0,0,1,620.68,288.36Z" transform="translate(-606.33)"/><path class="cls-169" d="M620.68,288.45s9.64-.55,10.85,0a10.4,10.4,0,0,1,3.66,3.23c.37.62.79,1.95,1.26,2.56,1.33,2.59,3.45,4.68,6.7,5a54.89,54.89,0,0,0,5.85.3h57.67c1.89,0,4.79-.72,5.89-1.73,3.43-2.2,5.12-6.23,7-7.72a10.71,10.71,0,0,1,3.23-1.53c.76,0,1.53-.66,2.25-.59,1.72.16,4.08.47,4.08.47,3.29,0,8.9,2.68,8.9,6,1.72,0,3.12,14.43,3.12,16.16V553.84c0,1.73-1.4,16.16-3.12,16.16,0,3.31-5.44,6-8.74,6H620.68a8.69,8.69,0,0,1-8.65-7.49c-.28-.47-.44-5.87-.44-6.46V302.4c0-.58.16-6,.44-6.45A8.71,8.71,0,0,1,620.68,288.45Z" transform="translate(-606.33)"/><path class="cls-170" d="M620.69,288.54s9.61-.57,10.85,0a10.38,10.38,0,0,1,3.63,3.3,26.53,26.53,0,0,0,1.29,2.55c1.36,2.57,3.49,4.65,6.76,5,.34.18,5.36.28,5.86.28H706.8c1.92,0,4.75-.73,5.88-1.77,3.41-2.24,5.08-6.33,6.94-7.78a10.35,10.35,0,0,1,3.28-1.48c.77,0,1.57-.62,2.3-.55,1.75.17,4.08.49,4.08.49,3.37,0,8.83,2.73,8.83,6.1,1.61,0,2.92,14.62,2.92,16.23V553.55c0,1.61-1.31,16.23-2.92,16.23,0,3.38-5.31,6.1-8.68,6.1H620.69a8.62,8.62,0,0,1-8.6-7.52,52.17,52.17,0,0,1-.41-6.45V302.52a52.19,52.19,0,0,1,.4-6.45A8.65,8.65,0,0,1,620.69,288.54Z" transform="translate(-606.33)"/><path class="cls-171" d="M620.69,288.62s9.6-.57,10.86,0a10.5,10.5,0,0,1,3.59,3.38c.4.64.83,1.91,1.32,2.54,1.39,2.55,3.55,4.62,6.84,4.91.31.17,5.39.26,5.86.26h57.76c2,0,4.73-.75,5.88-1.81,3.39-2.29,5-6.42,6.9-7.84a10.2,10.2,0,0,1,3.34-1.43c.79,0,1.6-.57,2.35-.5,1.79.17,4.08.49,4.08.49,3.44,0,8.77,2.8,8.77,6.24,1.49,0,2.7,14.8,2.7,16.3V553.25c0,1.5-1.21,16.32-2.7,16.32,0,3.45-5.19,6.22-8.63,6.22H620.69a8.56,8.56,0,0,1-8.55-7.54,56.87,56.87,0,0,1-.38-6.45V302.63a56.73,56.73,0,0,1,.38-6.45A8.59,8.59,0,0,1,620.69,288.62Z" transform="translate(-606.33)"/><path class="cls-172" d="M620.69,288.71s9.58-.59,10.87,0a10.6,10.6,0,0,1,3.56,3.45c.4.65.85,1.89,1.35,2.54,1.42,2.52,3.59,4.58,6.9,4.85.28.16,5.44.24,5.87.24H707a10.11,10.11,0,0,0,5.88-1.84c3.37-2.34,5-6.53,6.87-7.91a9.71,9.71,0,0,1,3.39-1.38c.8,0,1.63-.53,2.4-.45,1.83.17,4.08.5,4.08.5,3.51,0,8.71,2.85,8.71,6.36,1.38,0,2.49,15,2.49,16.38V553c0,1.38-1.11,16.39-2.49,16.39,0,3.52-5.07,6.36-8.58,6.36H620.69a8.53,8.53,0,0,1-8.5-7.58,61.82,61.82,0,0,1-.35-6.45V302.75a61.82,61.82,0,0,1,.35-6.45A8.53,8.53,0,0,1,620.69,288.71Z" transform="translate(-606.33)"/><path class="cls-173" d="M620.7,288.8s9.56-.6,10.87,0a10.56,10.56,0,0,1,3.53,3.51,27.48,27.48,0,0,0,1.38,2.54c1.44,2.5,3.63,4.56,7,4.8.26.15,5.48.22,5.88.22h57.85A9.9,9.9,0,0,0,713,298c3.37-2.39,5-6.62,6.84-8a9.81,9.81,0,0,1,3.45-1.32,24.55,24.55,0,0,1,2.45-.41c1.86.18,4.08.52,4.08.52,3.58,0,8.64,2.91,8.64,6.49,1.27,0,2.29,15.19,2.29,16.46V552.67c0,1.26-1,16.46-2.29,16.46,0,3.59-4.94,6.49-8.52,6.49H620.7a8.47,8.47,0,0,1-8.46-7.61c-.2-.34-.32-6-.32-6.44V302.86c0-.43.12-6.11.32-6.45A8.48,8.48,0,0,1,620.7,288.8Z" transform="translate(-606.33)"/><path class="cls-174" d="M620.7,288.89s9.54-.62,10.88,0a10.68,10.68,0,0,1,3.5,3.58c.42.68.88,1.85,1.4,2.53,1.48,2.48,3.68,4.53,7,4.75.24.13,5.53.2,5.88.2h57.9a9.65,9.65,0,0,0,5.86-1.92c3.35-2.43,4.91-6.72,6.81-8a9.71,9.71,0,0,1,3.5-1.28c.84,0,1.7-.43,2.49-.35,1.91.19,4.1.53,4.1.53,3.65,0,8.57,3,8.57,6.62,1.15,0,2.08,15.38,2.08,16.53V552.38c0,1.15-.93,16.53-2.08,16.53,0,3.67-4.82,6.62-8.47,6.62H620.7a8.4,8.4,0,0,1-8.4-7.63c-.19-.31-.3-6.06-.3-6.45V303c0-.38.11-6.13.3-6.44A8.41,8.41,0,0,1,620.7,288.89Z" transform="translate(-606.33)"/><path class="cls-175" d="M620.7,289s9.53-.62,10.9,0a10.86,10.86,0,0,1,3.46,3.66c.43.69.89,1.83,1.43,2.52,1.5,2.46,3.72,4.5,7.09,4.7.22.12,5.57.18,5.89.18h57.94a9.58,9.58,0,0,0,5.86-1.95c3.33-2.49,4.87-6.82,6.77-8.11a9.38,9.38,0,0,1,3.56-1.23c.85,0,1.73-.38,2.54-.3,1.94.19,4.1.53,4.1.53,3.72,0,8.5,3,8.5,6.76,1,0,1.88,15.56,1.88,16.6V552.08c0,1-.84,16.62-1.88,16.62,0,3.73-4.68,6.75-8.41,6.75H620.7a8.36,8.36,0,0,1-8.35-7.67c-.17-.28-.26-6.09-.26-6.44V303.09c0-.35.09-6.17.26-6.45A8.37,8.37,0,0,1,620.7,289Z" transform="translate(-606.33)"/><path class="cls-176" d="M620.71,289.06s9.5-.64,10.9,0a11,11,0,0,1,3.43,3.73c.43.7.91,1.81,1.45,2.51,1.54,2.45,3.78,4.47,7.16,4.65.19.11,5.62.16,5.9.16h58a9.36,9.36,0,0,0,5.85-2c3.31-2.53,4.83-6.92,6.73-8.18a9.59,9.59,0,0,1,3.62-1.17c.87,0,1.76-.34,2.59-.26,2,.2,4.1.55,4.1.55,3.79,0,8.44,3.08,8.44,6.88.92,0,1.66,15.76,1.66,16.68V551.79c0,.92-.74,16.69-1.66,16.69,0,3.81-4.56,6.88-8.35,6.88H620.71a8.31,8.31,0,0,1-8.31-7.69c-.15-.25-.23-6.14-.23-6.45v-258c0-.31.08-6.19.23-6.44A8.32,8.32,0,0,1,620.71,289.06Z" transform="translate(-606.33)"/><path class="cls-177" d="M620.71,289.15s9.49-.65,10.91,0a11.11,11.11,0,0,1,3.4,3.79,28.36,28.36,0,0,0,1.48,2.51c1.57,2.43,3.82,4.45,7.22,4.6.17.09,5.66.14,5.91.14h58a9.22,9.22,0,0,0,5.85-2c3.29-2.58,4.78-7,6.7-8.24a9.37,9.37,0,0,1,3.67-1.12,24.44,24.44,0,0,1,2.64-.21c2,.2,4.1.56,4.1.56,3.86,0,8.38,3.14,8.38,7,.8,0,1.45,15.95,1.45,16.76V551.5c0,.8-.65,16.76-1.45,16.76,0,3.88-4.44,7-8.3,7h-110a8.24,8.24,0,0,1-8.25-7.72c-.13-.22-.21-6.17-.21-6.44V303.32c0-.27.07-6.23.2-6.45A8.27,8.27,0,0,1,620.71,289.15Z" transform="translate(-606.33)"/><path class="cls-178" d="M620.72,289.23s9.46-.66,10.91,0c.9.41,2.24,2,3.37,3.87a27.69,27.69,0,0,0,1.51,2.5c1.59,2.41,3.86,4.42,7.28,4.55.15.08,5.7.12,5.92.12h58.07a9,9,0,0,0,5.85-2.07c3.27-2.62,4.74-7.11,6.66-8.3a9.28,9.28,0,0,1,3.73-1.07,24.85,24.85,0,0,1,2.69-.16c2,.2,4.1.56,4.1.56,3.94,0,8.31,3.21,8.31,7.15.69,0,1.25,16.14,1.25,16.83v238c0,.69-.56,16.84-1.25,16.84,0,4-4.31,7.13-8.24,7.13H620.72a8.2,8.2,0,0,1-8.21-7.74c-.11-.19-.18-6.21-.18-6.45V303.43c0-.23.07-6.26.18-6.44A8.21,8.21,0,0,1,620.72,289.23Z" transform="translate(-606.33)"/><path class="cls-179" d="M620.72,289.32s9.45-.67,10.92,0c.92.42,2.19,2.08,3.34,3.94a27.86,27.86,0,0,0,1.53,2.49c1.63,2.39,3.91,4.39,7.35,4.5.12.07,5.75.1,5.93.1h58.12a8.9,8.9,0,0,0,5.83-2.1c3.26-2.68,4.71-7.21,6.64-8.38a9.59,9.59,0,0,1,3.78-1,25.46,25.46,0,0,1,2.74-.1c2.09.2,4.1.57,4.1.57,4,0,8.25,3.26,8.25,7.27.57,0,1,16.33,1,16.91V550.91c0,.58-.47,16.92-1,16.92,0,4-4.19,7.27-8.19,7.27H620.72a8.16,8.16,0,0,1-8.16-7.78c-.09-.15-.15-6.25-.15-6.44V303.55c0-.2.06-6.29.15-6.45A8.16,8.16,0,0,1,620.72,289.32Z" transform="translate(-606.33)"/><path class="cls-180" d="M620.72,289.41s9.43-.69,10.93,0c.93.42,2.14,2.11,3.3,4a28.34,28.34,0,0,0,1.57,2.48c1.65,2.37,4,4.36,7.41,4.45.1.06,5.79.08,5.93.08H708a8.73,8.73,0,0,0,5.83-2.14c3.24-2.72,4.66-7.3,6.6-8.44a9.35,9.35,0,0,1,3.84-1c.93,0,1.9-.14,2.79-.06,2.12.21,4.1.59,4.1.59,4.08,0,8.18,3.32,8.18,7.4.46,0,.84,16.52.84,17V550.62c0,.46-.38,17-.84,17,0,4.1-4.06,7.4-8.13,7.4H620.72a8.1,8.1,0,0,1-8.11-7.8c-.07-.13-.11-6.29-.11-6.45V303.66c0-.15,0-6.32.11-6.44A8.12,8.12,0,0,1,620.72,289.41Z" transform="translate(-606.33)"/><path class="cls-181" d="M620.73,289.5s9.41-.7,10.93,0c1,.43,2.09,2.15,3.27,4.07a28.94,28.94,0,0,0,1.6,2.49c1.68,2.34,4,4.33,7.47,4.39.08,0,5.84.06,5.94.06h58.21a8.64,8.64,0,0,0,5.83-2.18c3.22-2.77,4.62-7.4,6.57-8.5a9.41,9.41,0,0,1,3.89-.92,24.33,24.33,0,0,1,2.83,0c2.17.21,4.11.6,4.11.6,4.15,0,8.12,3.37,8.12,7.53.35,0,.62,16.71.62,17.06V550.33c0,.34-.27,17.06-.62,17.06,0,4.17-3.93,7.53-8.08,7.53H620.73a8,8,0,0,1-8.06-7.83c-.06-.09-.09-6.32-.09-6.44V303.78c0-.12,0-6.35.09-6.45A8,8,0,0,1,620.73,289.5Z" transform="translate(-606.33)"/><path class="cls-182" d="M620.73,289.58s9.39-.71,10.95,0c1,.44,2,2.19,3.23,4.15a27.63,27.63,0,0,0,1.62,2.48c1.71,2.32,4.05,4.3,7.55,4.34,0,0,5.87,0,5.94,0h58.25a8.48,8.48,0,0,0,5.83-2.22c3.2-2.81,4.57-7.49,6.53-8.57a9.48,9.48,0,0,1,4-.86,25,25,0,0,1,2.88,0c2.21.21,4.11.6,4.11.6,4.23,0,8.06,3.44,8.06,7.66.23,0,.41,16.91.41,17.14V550c0,.23-.18,17.14-.41,17.14a8,8,0,0,1-8,7.65H620.73a8,8,0,0,1-8-7.86c0-.06-.06-6.36-.06-6.43V303.89c0-.08,0-6.38.06-6.44A8,8,0,0,1,620.73,289.58Z" transform="translate(-606.33)"/><path class="cls-183" d="M620.73,289.67s9.38-.72,11,0c1,.45,2,2.23,3.2,4.22a27.22,27.22,0,0,0,1.65,2.47c1.74,2.3,4.09,4.27,7.61,4.29,0,0,5.91,0,6,0h58.3a8.41,8.41,0,0,0,5.82-2.25c3.18-2.87,4.53-7.59,6.5-8.64a9.35,9.35,0,0,1,4-.81,25.92,25.92,0,0,1,2.94.08c2.24.22,4.12.62,4.12.62a8,8,0,0,1,8,7.79c.12,0,.21,17.09.21,17.21V549.74c0,.12-.09,17.22-.21,17.22a8,8,0,0,1-8,7.79h-111a8,8,0,0,1-8-7.89s0-6.4,0-6.44V304s0-6.42,0-6.45A8,8,0,0,1,620.73,289.67Z" transform="translate(-606.33)"/><path class="cls-184" d="M620.74,574.66a7.92,7.92,0,0,1-7.92-7.92V297.68a7.93,7.93,0,0,1,7.92-7.92s9.35-.74,11,0c2.53,1.15,4.61,11,12.52,11h64.3c7.9,0,9.4-9.5,12.28-11,3.36-1.73,11.16,0,11.16,0a7.93,7.93,0,0,1,7.92,7.92V566.74a7.92,7.92,0,0,1-7.92,7.92Z" transform="translate(-606.33)"/></g><g class="cls-7"><rect class="cls-35" x="452.9" y="264.22" width="482.26" height="298.93"/><rect class="cls-36" x="453.15" y="264.39" width="481.77" height="298.59"/><rect class="cls-37" x="453.4" y="264.56" width="481.27" height="298.25"/><rect class="cls-38" x="453.64" y="264.73" width="480.77" height="297.92"/><rect class="cls-39" x="453.89" y="264.89" width="480.28" height="297.58"/><rect class="cls-40" x="454.14" y="265.06" width="479.78" height="297.25"/><rect class="cls-41" x="454.39" y="265.23" width="479.29" height="296.91"/><rect class="cls-42" x="454.64" y="265.4" width="478.79" height="296.57"/><rect class="cls-43" x="454.88" y="265.57" width="478.3" height="296.24"/><rect class="cls-44" x="455.13" y="265.73" width="477.8" height="295.9"/><rect class="cls-45" x="455.38" y="265.9" width="477.31" height="295.57"/><rect class="cls-46" x="455.63" y="266.07" width="476.81" height="295.23"/><rect class="cls-47" x="455.87" y="266.24" width="476.32" height="294.89"/><rect class="cls-48" x="456.12" y="266.41" width="475.82" height="294.56"/><rect class="cls-49" x="456.37" y="266.57" width="475.33" height="294.22"/><rect class="cls-50" x="456.62" y="266.74" width="474.83" height="293.89"/><rect class="cls-51" x="456.86" y="266.91" width="474.33" height="293.55"/><rect class="cls-52" x="457.11" y="267.08" width="473.84" height="293.21"/><rect class="cls-53" x="457.36" y="267.25" width="473.34" height="292.88"/><rect class="cls-54" x="457.61" y="267.42" width="472.85" height="292.54"/><rect class="cls-55" x="457.85" y="267.58" width="472.35" height="292.2"/><rect class="cls-56" x="458.1" y="267.75" width="471.86" height="291.87"/><rect class="cls-57" x="458.35" y="267.92" width="471.36" height="291.53"/><rect class="cls-58" x="458.6" y="268.09" width="470.87" height="291.2"/><rect class="cls-59" x="458.84" y="268.26" width="470.37" height="290.86"/><rect class="cls-60" x="459.09" y="268.42" width="469.88" height="290.52"/><rect class="cls-61" x="459.34" y="268.59" width="469.38" height="290.19"/><rect class="cls-62" x="459.59" y="268.76" width="468.89" height="289.85"/><rect class="cls-63" x="459.83" y="268.93" width="468.39" height="289.52"/><rect class="cls-64" x="460.08" y="269.1" width="467.89" height="289.18"/><rect class="cls-65" x="460.33" y="269.26" width="467.4" height="288.84"/><rect class="cls-66" x="460.58" y="269.43" width="466.9" height="288.51"/><rect class="cls-67" x="460.83" y="269.6" width="466.41" height="288.17"/><rect class="cls-68" x="461.07" y="269.77" width="465.91" height="287.84"/><rect class="cls-69" x="461.32" y="269.94" width="465.42" height="287.5"/><rect class="cls-70" x="461.57" y="270.1" width="464.92" height="287.16"/><rect class="cls-71" x="461.82" y="270.27" width="464.43" height="286.83"/><rect class="cls-72" x="462.06" y="270.44" width="463.93" height="286.49"/><rect class="cls-73" x="462.31" y="270.61" width="463.44" height="286.16"/><rect class="cls-74" x="462.56" y="270.78" width="462.94" height="285.82"/><rect class="cls-75" x="462.81" y="270.94" width="462.45" height="285.48"/><rect class="cls-76" x="463.05" y="271.11" width="461.95" height="285.15"/><rect class="cls-77" x="463.3" y="271.28" width="461.45" height="284.81"/><rect class="cls-78" x="463.55" y="271.45" width="460.96" height="284.48"/><rect class="cls-79" x="463.8" y="271.62" width="460.46" height="284.14"/><rect class="cls-80" x="464.04" y="271.78" width="459.97" height="283.8"/><rect class="cls-81" x="464.29" y="271.95" width="459.47" height="283.47"/><rect class="cls-82" x="464.54" y="272.12" width="458.98" height="283.13"/><rect class="cls-83" x="464.79" y="272.29" width="458.48" height="282.8"/><rect class="cls-84" x="465.03" y="272.46" width="457.99" height="282.46"/><rect class="cls-85" x="465.28" y="272.63" width="457.49" height="282.12"/><rect class="cls-86" x="465.53" y="272.79" width="457" height="281.79"/><rect class="cls-87" x="465.78" y="272.96" width="456.5" height="281.45"/><rect class="cls-88" x="466.03" y="273.13" width="456.01" height="281.12"/><rect class="cls-89" x="466.27" y="273.3" width="455.51" height="280.78"/><rect class="cls-90" x="466.52" y="273.47" width="455.02" height="280.44"/><rect class="cls-91" x="466.77" y="273.63" width="454.52" height="280.11"/><rect class="cls-92" x="467.02" y="273.8" width="454.02" height="279.77"/><rect class="cls-93" x="467.26" y="273.97" width="453.53" height="279.44"/><rect class="cls-94" x="467.51" y="274.14" width="453.03" height="279.1"/><rect class="cls-95" x="467.76" y="274.31" width="452.54" height="278.76"/><rect class="cls-96" x="468.01" y="274.47" width="452.04" height="278.43"/></g><g class="cls-185"><g class="cls-7"><rect class="cls-186" x="452.9" y="633.49" width="482.26" height="62.54"/><path d="M1059.23,696V633.49h482.26V696h14.91V617.9a11.24,11.24,0,0,0-11.18-11.29H1055.51a11.23,11.23,0,0,0-11.18,11.29V696Z" transform="translate(-606.33)"/><polygon class="cls-187" points="933.8 634.86 454.23 634.86 452.9 633.49 935.16 633.49 933.8 634.86"/><polygon class="cls-188" points="454.23 696.03 454.23 634.86 452.9 633.49 452.9 696.03 454.23 696.03"/><polygon class="cls-189" points="935.16 696.03 935.16 633.49 933.8 634.86 933.8 696.03 935.16 696.03"/><path class="cls-190" d="M1612,605.55c0-4-11.94-7.23-20.19-7.23H1008.93c-8.24,0-20.17,3.23-20.17,7.23Z" transform="translate(-606.33)"/><path class="cls-191" d="M1612,605.26H988.76v6.33a.72.72,0,0,0,.72.72h621.77a.7.7,0,0,0,.72-.72Z" transform="translate(-606.33)"/><rect class="cls-192" x="385.3" y="605.26" width="16.05" height="7.05"/><rect class="cls-193" x="986.72" y="605.26" width="16.05" height="7.05"/><path class="cls-194" d="M1340.33,612.31c0-2.11-1.89-4.95-6.11-4.95h-68.53c-4.22,0-5.36,2.84-5.36,4.95Z" transform="translate(-606.33)"/></g></g><path d="M1545.22,243.24H1055.51a11.22,11.22,0,0,0-11.18,11.27V578.75A11.24,11.24,0,0,0,1055.51,590h489.71a11.24,11.24,0,0,0,11.18-11.29V254.51A11.22,11.22,0,0,0,1545.22,243.24Zm-3.73,319.91H1059.23V264.21h482.26Z" transform="translate(-606.33)"/><polygon class="cls-195" points="935.12 264.21 452.9 264.21 454.23 265.54 933.8 265.54 935.12 264.21"/><polygon class="cls-196" points="933.8 561.77 454.23 561.77 452.9 563.12 935.12 563.12 933.8 561.77"/><polygon class="cls-197" points="454.23 561.77 454.23 265.54 452.9 264.21 452.9 563.12 454.23 561.77"/><polygon class="cls-198" points="933.8 265.54 933.8 561.77 935.12 563.12 935.12 264.21 933.8 265.54"/><g class="cls-27"><path class="cls-199" d="M1556.4,563.15V254.51a11.22,11.22,0,0,0-11.18-11.27H1339.67l7.59,21h194.23V563.15Z" transform="translate(-606.33)"/></g><path class="cls-200" d="M1298.17,253.75a2.19,2.19,0,1,1,2.2,2.22A2.22,2.22,0,0,1,1298.17,253.75Z" transform="translate(-606.33)"/><path class="cls-201" d="M1302.16,253.75a1.79,1.79,0,1,1-1.79-1.81A1.8,1.8,0,0,1,1302.16,253.75Z" transform="translate(-606.33)"/><path class="cls-202" d="M1612,591.1c0,4-11.94,7.22-20.19,7.22H1008.93c-8.24,0-20.17-3.23-20.17-7.22Z" transform="translate(-606.33)"/><path class="cls-203" d="M1031,591.1H988.76c0,4,11.93,7.22,20.17,7.22H1031Z" transform="translate(-606.33)"/><path class="cls-204" d="M1569.74,591.1H1612c0,4-11.94,7.22-20.19,7.22h-22Z" transform="translate(-606.33)"/><path class="cls-205" d="M1612,591.39H988.76V585a.71.71,0,0,1,.72-.71h621.77a.7.7,0,0,1,.72.71Z" transform="translate(-606.33)"/><rect class="cls-206" x="385.3" y="584.33" width="16.05" height="7.06"/><rect class="cls-207" x="986.72" y="584.33" width="16.05" height="7.06"/><path class="cls-208" d="M1611.25,584.33H989.48a.71.71,0,0,0-.72.71v.55a.72.72,0,0,1,.72-.72h621.77a.7.7,0,0,1,.72.72V585A.7.7,0,0,0,1611.25,584.33Z" transform="translate(-606.33)"/><path class="cls-209" d="M988.76,591.39h622.49a.7.7,0,0,0,.72-.72v-.54a.71.71,0,0,1-.72.72H988.76Z" transform="translate(-606.33)"/><path class="cls-210" d="M1340.33,584.33c0,2.1-1.89,4.95-6.11,4.95h-68.53c-4.22,0-5.36-2.85-5.36-4.95Z" transform="translate(-606.33)"/><path class="cls-211" d="M1340.4,584.81a.85.85,0,0,1-.07-.48h-80a1,1,0,0,0,.14.48Z" transform="translate(-606.33)"/><g class="cls-27"><path class="cls-212" d="M1334.22,589.28h-68.53c-4.22,0-5.36-2.85-5.36-4.95,0,2.61,1.14,5.45,5.36,5.45h68.53c4.22,0,6.11-2.84,6.11-5.45C1340.33,586.43,1338.44,589.28,1334.22,589.28Z" transform="translate(-606.33)"/></g></g></g></g></svg>