<svg id="Layer_1" data-name="Layer 1" xmlns="http://www.w3.org/2000/svg" viewBox="0 0 102.72 102.73"><defs><style>.cls-1{fill:#1a233a;}.cls-2{fill:#eb962b;}</style></defs><title>Untitled-2</title><path class="cls-1" d="M100.79,57.73h-.47a1.9,1.9,0,0,1-1.89-1.9V54.25q0-20.65,0-41.3c0-6.48-2.13-8.61-8.58-8.61H13c-6.65,0-8.69,2.07-8.7,8.75V71.45a1.89,1.89,0,0,1-1.89,1.89H2.15a1.9,1.9,0,0,1-1.9-1.88c0-11.12-.42-57.73.15-63S5.66.07,11.41,0c9-.06,18,0,27,0H90c8.53,0,12.71,4.15,12.71,12.63q0,21.08,0,42.16c0,.37,0,.73,0,1.11A1.9,1.9,0,0,1,100.79,57.73Z"/><path class="cls-1" d="M1.9,81.55h.53a1.91,1.91,0,0,1,1.9,1.9c0,2.62,0,5.15,0,7.68C4.4,96,6.7,98.39,11.56,98.39q39.86,0,79.72,0c4.66,0,7-2.41,7.1-7.11.08-3.06.08-26,.11-29.08a3.5,3.5,0,0,1,.24-.49h1.93a1.89,1.89,0,0,1,1.89,1.88c.06,7,.34,26.66-.11,30.26-.67,5.47-5.29,8.86-11.29,8.87q-23.24,0-46.46,0-16.35,0-32.69,0c-7.62,0-11.95-4.3-12-11.85C0,88.43,0,86,0,83.45A1.91,1.91,0,0,1,1.9,81.55Z"/><rect class="cls-1" x="8.67" y="17.37" width="85.28" height="3.79" rx="1.9" ry="1.9"/><rect class="cls-1" x="11.53" y="8.04" width="5.63" height="5.5" rx="2.74" ry="2.74"/><rect class="cls-1" x="23.86" y="7.86" width="5.65" height="5.61" rx="2.74" ry="2.74"/><rect class="cls-1" x="86.76" y="7.96" width="5.61" height="5.65" rx="2.74" ry="2.74"/><path class="cls-1" d="M81.33,51.81h-3c0-1.87,0-3.63,0-5.39-.07-3.53-1.7-5.16-5.18-5.16H25.31c-3.37,0-5.08,1.64-5.11,5,0,5.74,0,11.49,0,17.23,0,3.55,1.76,5.24,5.36,5.24H69v2.91c-.67,0-1.39.1-2.11.1q-20.52,0-41,0c-5.77,0-8.74-3-8.75-8.68,0-5.54,0-11.08,0-16.62,0-5.15,3.16-8.33,8.31-8.34q23.79,0,47.59,0c5.22,0,8.28,3.11,8.32,8.31C81.34,48.18,81.33,49.94,81.33,51.81Z"/><path class="cls-1" d="M92.8,72.12a3.8,3.8,0,0,1-3.22,1.94,6.63,6.63,0,0,1-1,0h0v.12c0,1.51,0,2.93,0,4.38a4.53,4.53,0,0,1-1.2,3.65,4.18,4.18,0,0,1-3,1.09l-.51,0a30.12,30.12,0,0,0-4,0,4.21,4.21,0,0,1-3.25-1A4.33,4.33,0,0,1,75.39,79c0-1.57,0-3.15,0-4.81V74.1c-.36,0-.71,0-1.08,0a3.73,3.73,0,0,1-3.16-2,3.46,3.46,0,0,1,.29-3.45c2.31-3.83,4.76-7.76,7.5-12a3.54,3.54,0,0,1,3-1.82h0a3.71,3.71,0,0,1,3.1,1.91c2.66,4.12,5.08,8,7.39,11.81A3.62,3.62,0,0,1,92.8,72.12Z"/><path class="cls-1" d="M29.36,56.62v7.29h-3c0-4.83-.11-9.6.05-14.36.08-2.13,1.93-3.6,4.22-3.73,1.9-.1,3.82-.09,5.74,0,3.31.07,5.14,1.73,5.22,5,.12,4.3,0,8.61,0,13.11H38.51V56.62Zm8.92-3.29c.58-4.15.25-4.55-3.52-4.55-1.16,0-2.32,0-3.47,0s-1.93.59-1.93,1.88v2.65Z"/><path class="cls-1" d="M56.9,55c0,1.5.06,3,0,4.51a4.56,4.56,0,0,1-4.73,4.61c-1.85,0-3.69,0-5.54,0a1.77,1.77,0,0,1-2-2q0-7.17,0-14.35a1.8,1.8,0,0,1,2.06-2c1.92,0,3.83,0,5.74.06a4.47,4.47,0,0,1,4.47,4.44c.1,1.56,0,3.14,0,4.71Zm-9.08,6.09h4c1.39,0,2-.74,2-2.05,0-2.72,0-5.45,0-8.18a1.83,1.83,0,0,0-2-2c-1.28,0-2.56,0-4,0Z"/><path class="cls-1" d="M60,55c0-2.39,0-4.78,0-7.17,0-1.45.65-2.13,2.11-2.1,1.84,0,3.68,0,5.52.06a4.4,4.4,0,0,1,4.53,4.55q.12,4.61,0,9.21a4.38,4.38,0,0,1-4.56,4.51c-1.84.07-3.69,0-5.53,0-1.48,0-2.1-.67-2.08-2.12C60,59.66,60,57.34,60,55Zm3.17-5.94v12c1.37,0,2.59,0,3.81,0,1.58,0,2.22-.75,2.19-2.27s0-3.28,0-4.92c0-5.37-.31-5.63-5.74-5C63.35,48.87,63.3,49,63.14,49.08Z"/><path class="cls-2" d="M87.61,71.17c-.31,0-.62,0-.94,0s-.61,0-1.17.08c0,1.75,0,4.5,0,6.24,0,1.53-.47,2.29-2,2.17a23.79,23.79,0,0,0-3.27,0c-1.28.08-1.79-.57-1.78-1.87,0-1.82,0-4.63,0-6.64-.86,0-1.52,0-2.17,0-1.16-.13-1.63-.91-1-2Q78,64.3,81,59.49c.65-1.07,1.52-.94,2.12.07q2.87,4.74,5.6,9.56C89.3,70.24,88.83,71,87.61,71.17Z"/></svg>