<svg id="Layer_1" data-name="Layer 1" xmlns="http://www.w3.org/2000/svg" viewBox="0 0 102.83 131.74"><defs><style>.cls-1{fill:#1a233a;}.cls-2{fill:#eb962b;}</style></defs><title>Untitled-2</title><path class="cls-1" d="M92.48.05C89,0,85.61,0,82.18,0,60.12,0,38.06,0,16,.06,9.7.07,5.33,4.38,5.31,10.25S9.58,20.39,15.85,20.63c.79,0,1.59,0,2.45,0a2.28,2.28,0,0,1,2.29,2.27c0,6.25.09,12.24-.1,18.21a8.07,8.07,0,0,1-2,4.76c-4.17,4.48-8.6,8.71-12.93,13C2.33,62.19.24,66,.21,70.67.1,89.79.07,108.9,0,128c0,2.58,1.18,3.74,3.83,3.73q21.89-.09,43.75,0c2.9,0,4-1.29,3.93-4,0-3.67-.21-7.37.11-11a5.73,5.73,0,0,1,2.32-3.88,25.66,25.66,0,0,0,12.41-17A38.81,38.81,0,0,0,67,91.1a2.26,2.26,0,0,1,2.26-2H82c5.26,0,5.58-.31,5.58-5.66q0-29,0-58.09V22.91a2.27,2.27,0,0,1,2.3-2.27c1,0,1.9,0,2.81,0,6-.31,10.2-4.62,10.16-10.37S98.52.24,92.48.05ZM20.35,13.19a2.27,2.27,0,0,1-2,2.26c-2.63.29-5.22.37-6.91-2.32a6.42,6.42,0,0,1-.14-5.42c1.57-2.89,4.21-2.7,7-2.5a2.28,2.28,0,0,1,2.1,2.27Zm8.11-7.77H54a2.27,2.27,0,0,1,2.27,2.27v37a2.27,2.27,0,0,1-3.23,2.06c-7.09-3.29-11.46-2-17.79,4.35-1.69,1.72-3.35,3.48-5.17,5.42a2.27,2.27,0,0,1-3.93-1.55V7.69A2.27,2.27,0,0,1,28.46,5.42Zm28,69.09v6.83a2.28,2.28,0,0,1-2.28,2.27H47.08A2.28,2.28,0,0,1,45.5,79.7l7.08-6.82A2.27,2.27,0,0,1,56.43,74.51Zm-6.54,34.36c-2.63,1.17-3.75,2.67-3.61,5.56.16,3.16.09,6.34.06,9.62a2.28,2.28,0,0,1-2.27,2.25H7.44A2.27,2.27,0,0,1,5.17,124V95.56c0-7.23.07-14.46,0-21.68a15.66,15.66,0,0,1,5.19-12.43c2.1-1.93,4-4,6.1-6.08a2.27,2.27,0,0,1,3.85,1.33c.48,3.7,1,7.32-1.19,10.84a1.86,1.86,0,0,0,0,1.33,2.27,2.27,0,0,0,2.4,1.76A3.08,3.08,0,0,0,23.35,70C28.68,65,33.81,59.72,39,54.54a23.31,23.31,0,0,1,3.29-2.92c3.68-2.44,7.62-1.95,10.26,1.14a7.65,7.65,0,0,1-.34,10.37c-4.38,4.62-8.88,9.15-13.52,13.51C35.45,79.72,34.3,83,35.46,87.48c1.61,6.23-.12,11.87-4.49,16.64-1.25,1.36-3,2.73-1,4.61,2.15,2.06,3.55,0,4.87-1.32a22.88,22.88,0,0,0,6.38-15.89,2.3,2.3,0,0,1,2.28-2.26H59.25a2.3,2.3,0,0,1,2.28,2.38A18.88,18.88,0,0,1,49.89,108.87Zm19.6-25.12h-5.1a2.28,2.28,0,0,1-2.27-2.28V7.71a2.27,2.27,0,0,1,2.27-2.27h5.1a2.26,2.26,0,0,1,2.27,2.27V81.47A2.27,2.27,0,0,1,69.49,83.75Zm10.32,0h0a2.27,2.27,0,0,1-2.27-2.28V7.69a2.27,2.27,0,0,1,2.27-2.27h0a2.27,2.27,0,0,1,2.27,2.27V81.47A2.27,2.27,0,0,1,79.81,83.75Zm8.06-70.66V7.58a2.28,2.28,0,0,1,2.21-2.27c5.32-.11,7.56,1.45,7.57,5s-2.22,5.14-7.56,5A2.27,2.27,0,0,1,87.87,13.09Z"/><rect class="cls-2" x="62.12" y="5.43" width="9.64" height="78.31" rx="2.27" ry="2.27"/><rect class="cls-2" x="77.54" y="5.42" width="4.54" height="78.32" rx="2.27" ry="2.27"/><rect class="cls-1" x="32.66" y="9.86" width="5.75" height="28.33" rx="2.88" ry="2.88"/><rect class="cls-1" x="43.33" y="9.86" width="5.75" height="17.58" rx="2.88" ry="2.88"/><rect class="cls-1" x="43.33" y="31.02" width="5.75" height="5.75" rx="2.88" ry="2.88"/></svg>