<svg id="Layer_1" data-name="Layer 1" xmlns="http://www.w3.org/2000/svg" viewBox="0 0 102.72 102.73"><defs><style>.cls-1{fill:#1a233a;}.cls-2{fill:#eb962b;}</style></defs><title>Untitled-2</title><path class="cls-1" d="M100.79,57.73h-.47a1.9,1.9,0,0,1-1.89-1.9V54.25q0-20.65,0-41.3c0-6.48-2.13-8.61-8.58-8.61H13c-6.65,0-8.69,2.07-8.7,8.75V71.45a1.89,1.89,0,0,1-1.89,1.89H2.15a1.9,1.9,0,0,1-1.9-1.88c0-11.12-.42-57.73.15-63S5.66.07,11.41,0c9-.06,18,0,27,0H90c8.53,0,12.71,4.15,12.71,12.63q0,21.08,0,42.16c0,.37,0,.73,0,1.11A1.9,1.9,0,0,1,100.79,57.73Z"/><path class="cls-1" d="M100.71,61.72h-.21a2.05,2.05,0,0,0-2,1.85v.49c0,6.37,0,24.53-.09,27.23-.11,4.7-2.44,7.1-7.1,7.11q-39.86,0-79.73,0C6.7,98.38,4.4,96,4.34,91.12c0-2.53,0-5.06,0-7.67a1.9,1.9,0,0,0-1.9-1.9H1.9A1.9,1.9,0,0,0,0,83.45c0,2.54,0,5,0,7.42,0,7.55,4.36,11.84,12,11.85q16.35,0,32.7,0,23.24,0,46.46,0c6,0,10.62-3.39,11.29-8.86.45-3.56.18-22.87.11-30Z"/><rect class="cls-1" x="8.67" y="17.37" width="85.28" height="3.79" rx="1.9" ry="1.9"/><rect class="cls-1" x="10.96" y="8.83" width="3.89" height="3.8" rx="1.9" ry="1.9"/><rect class="cls-1" x="19.48" y="8.71" width="3.9" height="3.88" rx="1.9" ry="1.9"/><rect class="cls-1" x="87.89" y="8.76" width="3.87" height="3.9" rx="1.9" ry="1.9"/><path class="cls-1" d="M102.55,63.81a2,2,0,0,1-4.08.24v-.49a2.05,2.05,0,0,1,2-1.85h.21A2.09,2.09,0,0,1,102.55,63.81Z"/><path class="cls-1" d="M53.84,88.32H48.78c-.06,0-.11-.07-.17-.08-.3-.08-.61-.14-.9-.24a5,5,0,0,1-2.44-1.78,5.17,5.17,0,0,1-1.09-3.13c0-.36,0-.73,0-1.09a.27.27,0,0,0-.22-.31c-.34-.12-.68-.22-1-.36-.75-.31-1.49-.65-2.22-1a.23.23,0,0,0-.32.05l-.74.74A5.27,5.27,0,0,1,36,82.69a5,5,0,0,1-3.58-1.33c-.94-.87-1.84-1.8-2.75-2.71a5.28,5.28,0,0,1-1.55-2.92,5,5,0,0,1,.82-3.86,13.94,13.94,0,0,1,1.36-1.52.29.29,0,0,0,.06-.39c-.33-.72-.65-1.45-1-2.18-.14-.32-.24-.66-.36-1a.29.29,0,0,0-.35-.24c-.29,0-.58,0-.87,0a5.12,5.12,0,0,1-2.08-.38,5.35,5.35,0,0,1-3.25-4,.64.64,0,0,0-.08-.19V56.88a.71.71,0,0,0,.08-.18A4.44,4.44,0,0,1,23,55.15a5.25,5.25,0,0,1,4.51-2.86c.4,0,.81,0,1.22,0a.24.24,0,0,0,.27-.18l.15-.41a21.44,21.44,0,0,1,1.22-2.88.21.21,0,0,0-.05-.3l-.64-.64A5.26,5.26,0,0,1,28,44.08a5,5,0,0,1,1.34-3.58c.91-1,1.85-1.9,2.8-2.83a5.19,5.19,0,0,1,3.61-1.53,5,5,0,0,1,3.26,1,18.23,18.23,0,0,1,1.37,1.27.25.25,0,0,0,.32,0l2.49-1.09c.25-.1.51-.17.75-.25a.26.26,0,0,0,.21-.29c0-.3,0-.59,0-.89a5.33,5.33,0,0,1,4.43-5.37c.06,0,.11,0,.17-.08h5.06a.76.76,0,0,0,.18.09,5,5,0,0,1,2.22.93,5.28,5.28,0,0,1,2.1,3.28,10.11,10.11,0,0,1,.09,2,.33.33,0,0,0,.27.36,22.09,22.09,0,0,1,3.22,1.34.19.19,0,0,0,.27,0c.23-.24.46-.47.7-.7a5.21,5.21,0,0,1,3.75-1.6,4.93,4.93,0,0,1,3.55,1.31c1,.92,1.93,1.88,2.88,2.84A5.35,5.35,0,0,1,73.71,47a10.32,10.32,0,0,1-1.4,1.55.25.25,0,0,0,0,.35q.49,1.09,1,2.19c.14.33.25.67.36,1,.06.17.14.26.34.25a10.59,10.59,0,0,1,1.26,0,5.11,5.11,0,0,1,3.57,1.64,5.19,5.19,0,0,1,1.39,2.78c0,.05,0,.11.08.16v5.06a1.4,1.4,0,0,0-.09.17c-.08.3-.14.61-.24.9a5,5,0,0,1-1.75,2.42A5.14,5.14,0,0,1,75,66.54c-.34,0-.68,0-1,0a.3.3,0,0,0-.35.27A22,22,0,0,1,72.24,70a.21.21,0,0,0,.05.29L73,71a5.25,5.25,0,0,1,1.57,3.7,5,5,0,0,1-1.34,3.61c-.95,1-1.93,2-2.92,2.93a5.1,5.1,0,0,1-3.49,1.43,5.18,5.18,0,0,1-3.64-1.33c-.34-.31-.66-.64-1-1a.22.22,0,0,0-.32,0l-.24.12-1.93.84c-.35.14-.7.25-1.06.37a.29.29,0,0,0-.23.33c0,.43,0,.86,0,1.28a5.05,5.05,0,0,1-1.3,3.2A5.16,5.16,0,0,1,54,88.24,1.19,1.19,0,0,0,53.84,88.32ZM25.78,59.4h0c0,.62,0,1.25,0,1.88a1.79,1.79,0,0,0,.39,1.11,1.9,1.9,0,0,0,1.56.77h2.43a1.74,1.74,0,0,1,1.7,1.28c.21.71.43,1.41.68,2.11a16.59,16.59,0,0,0,1.33,2.83,3.09,3.09,0,0,1,.34.85,1.65,1.65,0,0,1-.52,1.49c-.59.59-1.18,1.16-1.75,1.76a1.89,1.89,0,0,0,0,2.64c.88.91,1.78,1.79,2.67,2.67a1.75,1.75,0,0,0,1.08.5,1.93,1.93,0,0,0,1.65-.6c.56-.56,1.11-1.12,1.68-1.67a1.72,1.72,0,0,1,2.18-.27c.62.35,1.26.67,1.9,1,.49.22,1,.41,1.49.59s.84.27,1.25.41a4.86,4.86,0,0,1,1,.4,1.59,1.59,0,0,1,.73,1.45c0,.86,0,1.72,0,2.58a1.88,1.88,0,0,0,1.83,1.77h3.8a1.69,1.69,0,0,0,.92-.28A1.88,1.88,0,0,0,55.05,83c0-.8,0-1.61,0-2.42a1.71,1.71,0,0,1,1.26-1.69c.71-.22,1.42-.44,2.13-.69a18.73,18.73,0,0,0,2.8-1.31,3.26,3.26,0,0,1,.89-.36,1.6,1.6,0,0,1,1.47.52c.59.58,1.16,1.18,1.76,1.75a1.91,1.91,0,0,0,2.65,0c.9-.88,1.78-1.78,2.67-2.67a1.81,1.81,0,0,0,.5-1.08,1.93,1.93,0,0,0-.6-1.65l-1.67-1.68a1.68,1.68,0,0,1-.35-2c.41-.78.84-1.56,1.18-2.37s.59-1.63.88-2.44a5.27,5.27,0,0,1,.39-1,1.63,1.63,0,0,1,1.45-.73c.86,0,1.73,0,2.59,0a1.9,1.9,0,0,0,1.77-1.82c0-.2,0-.41,0-.61,0-1.06,0-2.12,0-3.18a1.9,1.9,0,0,0-1.29-1.75,3.15,3.15,0,0,0-.74-.11H72.45a1.73,1.73,0,0,1-1.71-1.31c-.18-.65-.37-1.3-.61-1.93a19.48,19.48,0,0,0-1.4-3,2.58,2.58,0,0,1-.33-.83,1.63,1.63,0,0,1,.52-1.49c.58-.58,1.17-1.15,1.73-1.74a1.9,1.9,0,0,0,0-2.65C69.81,41.8,68.91,40.92,68,40a1.78,1.78,0,0,0-1.08-.5,1.94,1.94,0,0,0-1.65.6c-.55.57-1.11,1.13-1.67,1.68a1.61,1.61,0,0,1-1.75.44,5.82,5.82,0,0,1-.9-.45,18.18,18.18,0,0,0-2.54-1.16c-.56-.2-1.13-.37-1.69-.56a4.75,4.75,0,0,1-.93-.37,1.66,1.66,0,0,1-.75-1.47c0-.83,0-1.67,0-2.51a1.89,1.89,0,0,0-1.89-1.84H49.46a1.84,1.84,0,0,0-1.31.55,1.87,1.87,0,0,0-.59,1.41q0,1.2,0,2.4A1.74,1.74,0,0,1,46.29,40c-.8.25-1.6.51-2.39.79A15.05,15.05,0,0,0,41.37,42a2.57,2.57,0,0,1-.91.37A1.76,1.76,0,0,1,39,41.79c-.58-.58-1.15-1.17-1.75-1.73a1.89,1.89,0,0,0-2.63,0c-.91.89-1.81,1.79-2.69,2.7a1.88,1.88,0,0,0-.29,2.18,3.23,3.23,0,0,0,.46.59c.58.61,1.2,1.17,1.76,1.8a1.54,1.54,0,0,1,.21,1.8c-.4.81-.85,1.6-1.2,2.42S32.27,53.14,32,54c-.1.26-.15.54-.27.79a1.67,1.67,0,0,1-1.56.92H27.78a1.84,1.84,0,0,0-.9.18,1.94,1.94,0,0,0-1.1,1.83C25.79,58.25,25.78,58.82,25.78,59.4Z"/><path class="cls-2" d="M25.78,59.4c0-.58,0-1.15,0-1.72a1.94,1.94,0,0,1,1.1-1.83,1.84,1.84,0,0,1,.9-.18h2.38a1.67,1.67,0,0,0,1.56-.92c.12-.25.17-.53.27-.79.28-.81.53-1.64.87-2.44s.8-1.61,1.2-2.42a1.54,1.54,0,0,0-.21-1.8c-.56-.63-1.18-1.19-1.76-1.8a3.23,3.23,0,0,1-.46-.59,1.88,1.88,0,0,1,.29-2.18c.88-.91,1.78-1.81,2.69-2.7a1.89,1.89,0,0,1,2.63,0c.6.56,1.17,1.15,1.75,1.73a1.76,1.76,0,0,0,1.47.55,2.57,2.57,0,0,0,.91-.37,15.05,15.05,0,0,1,2.53-1.21c.79-.28,1.59-.54,2.39-.79a1.74,1.74,0,0,0,1.27-1.72q0-1.2,0-2.4a1.87,1.87,0,0,1,.59-1.41,1.84,1.84,0,0,1,1.31-.55h3.69A1.89,1.89,0,0,1,55,35.73c0,.84,0,1.68,0,2.51a1.66,1.66,0,0,0,.75,1.47,4.75,4.75,0,0,0,.93.37c.56.19,1.13.36,1.69.56A18.18,18.18,0,0,1,61,41.8a5.82,5.82,0,0,0,.9.45,1.61,1.61,0,0,0,1.75-.44c.56-.55,1.12-1.11,1.67-1.68a1.94,1.94,0,0,1,1.65-.6A1.78,1.78,0,0,1,68,40c.9.89,1.8,1.77,2.68,2.68a1.9,1.9,0,0,1,0,2.65c-.56.59-1.15,1.16-1.73,1.74a1.63,1.63,0,0,0-.52,1.49,2.58,2.58,0,0,0,.33.83,19.48,19.48,0,0,1,1.4,3c.24.63.43,1.28.61,1.93a1.73,1.73,0,0,0,1.71,1.31H74.8a3.15,3.15,0,0,1,.74.11,1.9,1.9,0,0,1,1.29,1.75c0,1.06,0,2.12,0,3.18,0,.2,0,.41,0,.61a1.9,1.9,0,0,1-1.77,1.82c-.86,0-1.73,0-2.59,0a1.63,1.63,0,0,0-1.45.73,5.27,5.27,0,0,0-.39,1c-.29.81-.54,1.65-.88,2.44S69,68.9,68.57,69.68a1.68,1.68,0,0,0,.35,2l1.67,1.68a1.93,1.93,0,0,1,.6,1.65,1.81,1.81,0,0,1-.5,1.08c-.89.89-1.77,1.79-2.67,2.67a1.91,1.91,0,0,1-2.65,0c-.6-.57-1.17-1.17-1.76-1.75a1.6,1.6,0,0,0-1.47-.52,3.26,3.26,0,0,0-.89.36,18.73,18.73,0,0,1-2.8,1.31c-.71.25-1.42.47-2.13.69a1.71,1.71,0,0,0-1.26,1.69c0,.81,0,1.62,0,2.42a1.88,1.88,0,0,1-.92,1.68,1.69,1.69,0,0,1-.92.28h-3.8a1.88,1.88,0,0,1-1.83-1.77c0-.86,0-1.72,0-2.58a1.59,1.59,0,0,0-.73-1.45,4.86,4.86,0,0,0-1-.4c-.41-.14-.84-.26-1.25-.41s-1-.37-1.49-.59c-.64-.31-1.28-.63-1.9-1A1.72,1.72,0,0,0,39,77c-.57.55-1.12,1.11-1.68,1.67a1.93,1.93,0,0,1-1.65.6,1.75,1.75,0,0,1-1.08-.5c-.89-.88-1.79-1.76-2.67-2.67a1.89,1.89,0,0,1,0-2.64c.57-.6,1.16-1.17,1.75-1.76a1.65,1.65,0,0,0,.52-1.49,3.09,3.09,0,0,0-.34-.85,16.59,16.59,0,0,1-1.33-2.83c-.25-.7-.47-1.4-.68-2.11a1.74,1.74,0,0,0-1.7-1.28H27.74a1.9,1.9,0,0,1-1.56-.77,1.79,1.79,0,0,1-.39-1.11c0-.63,0-1.26,0-1.88Zm38.1,0A12.58,12.58,0,1,0,51.31,72,12.59,12.59,0,0,0,63.88,59.41Z"/><path class="cls-1" d="M63.88,59.41A12.58,12.58,0,1,1,51.3,46.83,12.58,12.58,0,0,1,63.88,59.41Zm-21.76,0a9.19,9.19,0,1,0,9.18-9.19A9.19,9.19,0,0,0,42.12,59.41Z"/></svg>