<svg id="Layer_1" data-name="Layer 1" xmlns="http://www.w3.org/2000/svg" viewBox="0 0 68.59 97.06"><defs><style>.cls-1{fill:#1a233a;}.cls-2{fill:#eb962b;}</style></defs><title>Untitled-2</title><path class="cls-1" d="M34.25,0C41.68,0,49.11.1,56.54,0,58.67,0,60,.58,61,2.13c.68,1.12,1.52,2.17,2.29,3.25,5.54,7.76,5.58,7.76,5.24,16.68-.14,3.58-2.07,6.36-6,7.88-1.55.61-2,1.3-2,2.67.07,11.55,0,44.87,0,56.42,0,5.51-2.91,8-9.38,8q-16.92,0-33.82,0c-6.51,0-9.41-2.45-9.41-8,0-11.56,0-44.87,0-56.43C8,31.3,7.65,30.57,6.06,30c-3.92-1.51-5.84-4.29-6-7.87C0,19.36,0,16.63.08,13.9a4.59,4.59,0,0,1,.84-2.35C3.18,8.28,5.59,5.08,7.83,1.8A4.15,4.15,0,0,1,11.7,0C19.22.07,26.73,0,34.25,0ZM18.56,28.22a42.28,42.28,0,0,0-4,2.09A2.6,2.6,0,0,0,13.32,32c-.06,12,0,45.86,0,57.91,0,1.84,1.08,2.69,3.22,2.69H52.09c2.16,0,3.18-.91,3.18-2.74,0-12,0-45.85-.06-57.9a2.22,2.22,0,0,0-1.05-1.62c-1.32-.82-2.8-1.45-4.27-2.18-5.21,3.77-10.48,3.59-15.63-.05C28.41,31.86,24.67,31.86,18.56,28.22ZM63.12,15.67H5.43c0,2.37-.11,4.61,0,6.83s2.17,3.77,4.68,4a5.27,5.27,0,0,0,5.4-3c.23-.59.07-1.37.48-1.81C16.67,21,17.64,20,18.48,20s1.78.94,2.5,1.61c.33.31.19.95.33,1.42a5.11,5.11,0,0,0,5.26,3.44c2.5-.08,4.59-1.57,4.94-3.75.23-1.46.71-2.76,2.65-2.8,2.11-.05,2.63,1.27,2.88,2.82.35,2.19,2.45,3.67,5,3.73A5.15,5.15,0,0,0,47.25,23c.1-.33,0-.79.24-1,.81-.75,1.74-2,2.6-2s1.76,1.25,2.53,2c.28.28.17.81.31,1.21a5.26,5.26,0,0,0,5.5,3.18c2.5-.22,4.53-1.86,4.66-4S63.12,18,63.12,15.67ZM7.5,10.89H61C59.67,9,58.59,7.26,57.23,5.7a3.92,3.92,0,0,0-2.55-1.19q-20.4-.12-40.82,0a3.56,3.56,0,0,0-2.3.84C10.13,7,9,8.87,7.5,10.89Z"/><path class="cls-2" d="M63.12,15.67c0,2.35.1,4.58,0,6.8s-2.16,3.78-4.66,4a5.26,5.26,0,0,1-5.5-3.18c-.14-.4,0-.93-.31-1.21-.77-.79-1.66-2-2.53-2s-1.79,1.21-2.6,2c-.24.22-.14.68-.24,1A5.15,5.15,0,0,1,42,26.48c-2.51-.06-4.61-1.54-5-3.73-.25-1.55-.77-2.87-2.88-2.82-1.94,0-2.42,1.34-2.65,2.8-.35,2.18-2.44,3.67-4.94,3.75A5.11,5.11,0,0,1,21.31,23c-.14-.47,0-1.11-.33-1.42C20.26,21,19.33,20,18.48,20S16.67,21,16,21.65c-.41.44-.25,1.22-.48,1.81a5.27,5.27,0,0,1-5.4,3c-2.51-.2-4.55-1.82-4.68-4s0-4.46,0-6.83Z"/><path class="cls-1" d="M34.12,88.19c-1,0-2.19.29-2.93-.08-.92-.45-1.94-1.41-2-2.21-.05-.62,1.19-1.77,2-1.9a19.52,19.52,0,0,1,5.91,0c.91.14,2.29,1.35,2.21,2-.11.81-1.28,1.74-2.27,2.2-.76.36-1.94.07-2.94.07Z"/></svg>