<svg id="Layer_1" data-name="Layer 1" xmlns="http://www.w3.org/2000/svg" viewBox="0 0 75.52 94.4"><defs><style>.cls-1{fill:#1a233a;}.cls-2{fill:#eb962b;}</style></defs><title>Untitled-2</title><path class="cls-1" d="M58,21.91a12.44,12.44,0,0,1-.2,2.21l-.25,1.39H43.67V9.33h1.7A12.6,12.6,0,0,1,58,21.91Z"/><path class="cls-1" d="M75.39,74.13a1.33,1.33,0,0,0-2.52,0,1.54,1.54,0,0,0,0,.3c-.13,4.74-.15,9.49,0,14.23.06,2.3-.78,3.07-3.07,3.06-19.6-.06-39.19,0-58.79,0-.53,0-1.16.16-1.55-.09C8.81,91.2,8,90.57,8,90c0-1,0-2,0-3,0-4.12,0-8.26,0-12.38H8v-7c0-2.63,0-5.27,0-7.9V53c0-2.72,0-5.43,0-8.14H8V38.69c-.07-2.9,0-5.8,0-8.7H8V24.25c-.1-3,0-6.07,0-9.1H8V10.26a3,3,0,0,1,0-.86c.07-1.05,0-2.11,0-3.17,0-3.48,0-3.49,3.51-3.49H68.91c3.84,0,3.85,0,3.85,3.78q0,29.54,0,59.05a8,8,0,0,0,.12,2.35,1.7,1.7,0,0,0,1.22,1,1.87,1.87,0,0,0,1.28-1,4.75,4.75,0,0,0,.11-1.82q0-30.45,0-60.9C75.49,1.41,74.08,0,70.25,0Q56.68,0,43.1,0,26.62,0,10.15,0c-3.54,0-5,1.43-5.06,4.91,0,1.32-.06,2.64,0,3.95a3,3,0,0,1-1.79,3.29c-4.41,2.41-4.29,8.11,0,10.69,2.46,1.46,2.43,2.59-.11,4.12a6.13,6.13,0,0,0,.1,10.79c2.39,1.4,2.44,2.63.13,3.94A6.42,6.42,0,0,0,.11,47.32a5.92,5.92,0,0,0,3.26,5.31c2.39,1.35,2.4,2.61.06,4-4.37,2.55-4.49,8.18-.25,10.78C5.84,69,5.84,70,3.2,71.63-.67,74-1.22,79.44,2.63,81.68,5.14,83.14,5.18,84.82,5.09,87c0,1,0,1.93,0,2.9.14,2.86,1.61,4.45,4.43,4.45q30.72,0,61.43,0c3,0,4.5-1.6,4.53-4.62,0-5.09.07-10.19,0-15.29A1.26,1.26,0,0,0,75.39,74.13ZM4.94,20.05a.06.06,0,0,1-.09.05c-2.56-1.5-2.63-3.36,0-5.37a.06.06,0,0,1,.1,0ZM4.88,35.21c-2.63-2.08-2.61-3.83,0-5.65Zm-.07,15c-2.54-2.3-2.54-3.68,0-5.91ZM4.91,65c-2.67-2.26-2.61-4,0-5.72Zm0,14.53c-2.63-1.56-2.65-3.49,0-5.39Z"/><rect class="cls-1" x="18.49" y="62.16" width="43.03" height="2.75" rx="1.38" ry="1.38"/><rect class="cls-1" x="18.49" y="55" width="43.03" height="2.75" rx="1.38" ry="1.38"/><rect class="cls-1" x="18.49" y="68.91" width="43.03" height="2.75" rx="1.38" ry="1.38"/><rect class="cls-1" x="18.49" y="75.48" width="29.99" height="2.75" rx="1.38" ry="1.38"/><path class="cls-2" d="M55.48,21.45a9,9,0,0,1-.15,1.65H46v-11A9.44,9.44,0,0,1,55.48,21.45Z"/><path class="cls-1" d="M40.1,30.22V16.47H38.63A15.23,15.23,0,1,0,53.85,31.7V30.22Zm-3-10.71V31.19l-8.77,7.28a12.27,12.27,0,0,1,8.77-19ZM38.63,44a12.26,12.26,0,0,1-8.33-3.26l9.08-7.54H50.82A12.29,12.29,0,0,1,38.63,44Z"/></svg>