<svg id="Layer_1" data-name="Layer 1" xmlns="http://www.w3.org/2000/svg" viewBox="0 0 134.86 134.9"><defs><style>.cls-1{fill:#1a233a;}.cls-2{fill:#eb962b;}</style></defs><title>Untitled-2</title><path class="cls-1" d="M130.84,121.25c-3.85.13-7.7,0-11.67,0V74.14c.62,0,1.1,0,1.58,0,8.43-.3,12.95-6.12,11.16-14.38q-1.22-5.49-2.39-11C127.86,41,127.88,41,120,40.48c-.22,0-.42-.21-.81-.43,0-.87-.14-1.85-.15-2.83-.08-5.68-.07-5.68-5.89-5.68H99a24.11,24.11,0,0,1-.15-2.48,10.17,10.17,0,0,1,.28-1.71c7.42-.73,6.36-.28,6.45-7.17.07-5.4-.07-10.8,0-16.19.06-2.92-1.07-4-4-4Q67.4.12,33.12,0c-3,0-4,1.26-3.89,4.08.12,5.4,0,10.79,0,16.19.08,6.45-1,6.6,6,7,.19,0,.38.28.8.59-.08,1.05-.18,2.23-.28,3.72-5.65,0-11,.06-16.4,0-2.51-.05-3.77.84-3.57,3.51.14,1.7,0,3.44,0,5.54a26.78,26.78,0,0,1-4.05,0c-3.71-.62-5.1,1.16-5.71,4.59-1,5.29-2.36,10.51-3.37,15.8a11.57,11.57,0,0,0,.17,5.14c1.88,6.27,6.66,8.32,12.79,8.09v47.11c-2.82,0-5.2,0-7.59,0-9,0-8-.4-8,8.18,0,5.39,0,5.39,5.49,5.39q60.06,0,120.1,0c10.44,0,9.07,1.45,9.24-9.59C134.92,122.29,133.7,121.17,130.84,121.25Zm-6.78-75.94c1.3,5.75,2.65,11.3,3.8,16.92a6.27,6.27,0,0,1-5.4,7.25,6.52,6.52,0,0,1-7.7-5.45c-.86-6.05-1.35-12.15-2.05-18.72ZM105.62,89.09c0-2.52-1-3.81-3.48-3.81h-20c-2.86,0-3.54,1.58-3.51,4.13.08,9.17,0,18.33,0,27.49v4.21H20.5c-.08-1.11-.23-2.18-.23-3.25,0-14.31-.06-28.61,0-42.92,0-1.65.79-3.29,1.27-5.22,9,5.79,12.19,5.78,18.86.44,7.27,5.4,10.84,5.4,18.09,0,7.14,5.4,11.27,5.4,17.2.48,3.38,1.24,6.44,3.21,9.51,3.26s6.21-1.82,10-3.06c6.88,4.67,9.93,4.69,17.7-1,.6,1.35,1.63,2.58,1.63,3.82.1,15.68.07,31.35.07,47.33h-9V109C105.6,102.39,105.54,95.73,105.62,89.09Zm-4.79,1v31H83.51v-31ZM24.91,62.48c.42-5.59,1.16-11.16,1.82-17.15H40.14c-.73,6.55-1.23,12.87-2.22,19.12-.56,3.56-3.8,5.5-7.22,5.08A6.36,6.36,0,0,1,24.91,62.48Zm18,.54c.37-5.83,1.13-11.65,1.75-17.68H56c0,6.41.21,12.65-.1,18.86-.17,3.42-3.57,5.67-7,5.36A6.26,6.26,0,0,1,42.92,63Zm17.8-17.58H74c0,6.22.21,12.34-.1,18.42-.18,3.59-3.26,5.84-6.73,5.75A6.6,6.6,0,0,1,60.77,63C60.57,57.26,60.72,51.51,60.72,45.44Zm18.12-.14H90.18c.63,6.07,1.4,12,1.76,18,.2,3.5-2.67,6.1-6.16,6.3S79.07,67.4,78.92,64C78.65,57.87,78.84,51.74,78.84,45.3Zm15.88,0h13.41c.64,6.13,1.47,12.17,1.82,18.22.18,3.28-2.64,5.73-6,6.05a6.34,6.34,0,0,1-7-5.35C95.94,58,95.45,51.83,94.72,45.27Zm-60.67-23V4.7h66.69V22.29Zm60,5v4.05H40.79V27.29Zm-73.62,9h93.94v4.06H20.45ZM11.81,69.37a6.33,6.33,0,0,1-4.69-7.73C8.3,56.27,9.53,50.93,10.8,45.27H22.18C21.39,52,20.89,58.52,19.76,65,19.14,68.49,15.27,70.24,11.81,69.37Zm118.32,60.76H4.71v-4.08H130.13Z"/><path class="cls-2" d="M10.79,45.27H22.17C21.38,52,20.89,58.52,19.75,65c-.62,3.53-4.48,5.29-7.94,4.41a6.31,6.31,0,0,1-4.68-7.73C8.29,56.28,9.52,50.93,10.79,45.27Z"/><path class="cls-2" d="M112.71,45.32h11.34c1.31,5.73,2.66,11.3,3.82,16.91a6.28,6.28,0,0,1-5.42,7.25A6.49,6.49,0,0,1,114.77,64C113.91,58,113.41,51.87,112.71,45.32Z"/><path class="cls-2" d="M44.67,45.35H56c0,6.41.22,12.65-.09,18.86-.16,3.41-3.57,5.66-7,5.36A6.25,6.25,0,0,1,42.92,63C43.29,57.19,44.05,51.37,44.67,45.35Z"/><path class="cls-2" d="M78.85,45.3H90.18c.62,6.07,1.4,12,1.75,18,.21,3.49-2.66,6.1-6.15,6.31S79.07,67.4,78.92,64C78.65,57.88,78.85,51.75,78.85,45.3Z"/><path class="cls-1" d="M66.28,85.28H32.86c-2.42,0-3.65,1.07-3.62,3.66q.12,9.94,0,19.9c0,2.6,1,3.62,3.57,3.57,5.39-.06,10.77,0,16.16,0,5.64,0,11.27,0,16.91,0,2.4,0,3.83-.72,3.83-3.37,0-6.77,0-13.52,0-20.29C69.71,86.42,68.58,85.28,66.28,85.28Zm-1.46,22.25H34V90h30.8Z"/></svg>