<svg id="Layer_1" data-name="Layer 1" xmlns="http://www.w3.org/2000/svg" viewBox="0 0 135.29 133.21"><defs><style>.cls-1{fill:#1a233a;}.cls-2{fill:#eb962b;}</style></defs><title>Untitled-2</title><path class="cls-1" d="M69,99.81a.26.26,0,0,0-.21.43,31.55,31.55,0,0,1,3.45,4.07,7.48,7.48,0,0,1-6.84,11.36c-4-.26-8-1.36-12.77-2.31a.26.26,0,0,0-.22.45c1.66,1.34,2.87,2.29,4,3.28,3.22,2.76,4,6.79,1.91,9.94-2.23,3.4-6.31,4.35-10.13,2.13s-7.63-4.75-11.89-7.42c.16,1,.22,1.6.33,2.15.84,4.17-1,7.67-4.68,8.92-3.48,1.18-6.89-.32-8.85-4.1-2.8-5.41-5.68-10.79-8.14-16.36a12.73,12.73,0,0,0-7.33-7.23c-2.48-1-4.8-2.39-7.42-3.74a.25.25,0,0,1-.11-.32l1.65-3.52a.25.25,0,0,1,.33-.11c4.29,2.13,8.39,4,12.33,6.24a7.82,7.82,0,0,1,2.7,3.23c3.23,6.23,6.33,12.53,9.47,18.81.93,1.86,2.12,4,4.37,2.35.85-.62.78-3.26.34-4.75-.67-2.25-2.19-4.23-3-6.46a2.59,2.59,0,0,1-.15-.93,2.51,2.51,0,0,1,2.94-2.52,2.55,2.55,0,0,1,.88.3c5.78,3.5,11.46,7.17,17.16,10.81,1.86,1.19,4,2.62,5.27-.14.47-1.08-.83-3.61-2-4.64-3.72-3.19-7.86-5.88-11.66-9a2.71,2.71,0,0,1-.54-.62,2.51,2.51,0,0,1,1.8-3.78,2.47,2.47,0,0,1,.86,0c6.74,1.38,13.44,3,20.13,4.59,2.56.62,5.07.87,5.69-2.3.56-2.87-1.69-3.75-4.12-4.25-7.39-1.53-14.78-3.07-22.13-4.81a4.75,4.75,0,0,1-1.72-.9,2,2,0,0,1,0-3.13,4.6,4.6,0,0,1,1.85-1c5-1.14,10.14-2,15.24-2.8,2.52-.42,4.43-1.45,4.14-4.3s-2.59-3.36-5-3.17c-6.21.48-12.4,1.08-18.62,1.46-1.17.08-3-.26-3.42-1s.09-2.52.72-3.5c2.17-3.33,4.79-6.38,6.77-9.8a3.22,3.22,0,0,0,.38-1.54,3,3,0,0,0-3.5-3.08,3.26,3.26,0,0,0-1.47.57c-4.08,3.17-7.78,6.82-11.8,10.07-1.08.88-3,1.74-4.14,1.34-7.11-2.6-14.11-5.54-21.4-8.48A.25.25,0,0,1,.2,70l1.34-3.64a.26.26,0,0,1,.33-.15L14.08,71a.26.26,0,0,0,.36-.29C12.51,60.11,10.53,50.07,9,40a12.16,12.16,0,0,1,1.43-7.07c3.44-5.62,7.24-11,11.19-16.3a9,9,0,0,1,5-3.34C49.68,8.81,72.88,4.61,96,.22c3.63-.69,5.24.13,5.88,4,2,12.15,4.44,24.23,6.64,36.35,1.28,7,2.46,7.73,8.85,5.19,5.2-2.07,10.4-4.12,15.76-6.24a.26.26,0,0,1,.33.13c.53,1.17,1,2.14,1.58,3.52a.29.29,0,0,1-.15.39c-7.53,3-14.85,6-22.28,8.69-.83.31-2.41-.75-3.35-1.53-3.86-3.22-7.49-6.75-11.48-9.8A5.88,5.88,0,0,0,95,40.05a2.11,2.11,0,0,0-2.36,2.07A5.53,5.53,0,0,0,93.1,45c1.88,3.33,4.44,6.27,6.53,9.49.63,1,1.21,2.71.76,3.46S98.15,59.12,97,59c-6.08-.39-12.15-1-18.22-1.5-2.55-.21-5,0-5.43,3.14s2,3.93,4.5,4.38C82.93,66,88,66.79,93.07,68a3.87,3.87,0,0,1,1.66,1A2,2,0,0,1,94.6,72a4,4,0,0,1-1.44.74C86.08,74.41,79,75.89,71.83,77.44c-.78.17-1.79.12-2.27.6-.27.28-.52.56-.77.86a3.38,3.38,0,0,0,1.37,5.37,1.86,1.86,0,0,0,.92.1c6.38-1.11,12.66-2.77,19-4.24a10.87,10.87,0,0,1,3.1-.62c1,.08,2.58.44,2.91,1.14a3.28,3.28,0,0,1-1,2.93c-4,3.24-8.35,6.12-12.28,9.47-1.19,1-2.46,3.62-2,4.65,1.3,2.68,3.52,1.2,5.35,0,5.49-3.48,10.93-7,16.48-10.39a4.59,4.59,0,0,1,1.66-.56A2.29,2.29,0,0,1,107,88.73a5.26,5.26,0,0,1,0,1.68c-.46,2.46-1.49,4.81-1.92,7.28l-.06.42a1.84,1.84,0,0,0,3.4,1.18l2.07-3.88c2.31-4.32,4.35-8.77,6.42-13.21A13.27,13.27,0,0,1,124.39,75c2.86-1.15,5.56-2.69,8.62-4.22a.27.27,0,0,1,.34.1l1.82,3.23a.26.26,0,0,1-.09.34A12.86,12.86,0,0,1,132.4,76c-7.7,2.36-12.08,7.84-14.93,15.09a123.58,123.58,0,0,1-6,12.11c-1.85,3.54-5.09,4.88-8.21,3.6-3-1.21-4.18-4.21-3.24-8,.34-1.38.76-2.74,1.36-4.82a.26.26,0,0,0-.39-.3c-4.52,2.85-8.43,5.33-12.34,7.78a10.14,10.14,0,0,1-11.82-.78C75.28,99.36,72.27,100,69,99.81Zm-9.64-70a.27.27,0,0,0-.21.3c1.5,8.25,2.77,16.14,4.43,23.95.71,3.37-.39,4.59-3.54,5.08-4.77.74-9.5,1.73-14.81,2.73a.26.26,0,0,0-.13.44c7.17,7.46-.3,12.27-3.21,18.14a.27.27,0,0,0,.26.38L61.8,79.63a.24.24,0,0,0,.21-.16c3.32-8.45,12.07-5.75,18.47-8.76a.26.26,0,0,0-.07-.49c-1.29-.28-2.46-.56-3.64-.78-5.64-1.06-8.58-4.54-8-9.48.58-4.71,4.67-7.4,10.29-6.87,4.55.43,9.11.77,14.35,1.2a.28.28,0,0,0,.24-.43c-1.64-2.35-3-4.25-4.28-6.16-3.16-4.56-3.07-8.5.24-11.38s7-2.43,11.05,1c.75.63,1.52,1.22,2.67,2.12a.25.25,0,0,0,.4-.25C101.81,28.8,100,19.08,98.18,9.37a.24.24,0,0,0-.45-.07c-4,6.63-12.3,10.9-9.5,20.37A.25.25,0,0,1,88,30l-3.54.44a.25.25,0,0,1-.27-.18l-1.41-4.58a.25.25,0,0,0-.29-.18Zm-46,8.5a.25.25,0,0,0-.2.3c2.06,11.12,4,21.69,6,32.22.7,3.62,2.68,4.25,5.41,1.93,2.41-2.06,4.65-4.33,7.17-6.24,3-2.27,6.2-4.26,10-6.84a.25.25,0,0,0,.1-.23c-1.38-7.42-3-16.16-4.69-25.26a.25.25,0,0,0-.29-.2Zm41-7.6L41.78,33.08a.25.25,0,0,0-.2.3c1.47,7.89,2.9,15.54,4.38,23.47a.25.25,0,0,0,.3.2L58.79,54.7a.27.27,0,0,0,.21-.3c-1.48-8-2.89-15.57-4.35-23.48A.28.28,0,0,0,54.33,30.7ZM15.81,32.76a.27.27,0,0,0,.27.41c7.46-1.34,13.88-2.48,20.29-3.68a2.81,2.81,0,0,0,1.64-1c3.2-4.54,6.34-9.12,9.89-14.27a.26.26,0,0,0-.26-.41c-7.07,1.34-13.36,2.5-19.62,3.75a4.6,4.6,0,0,0-2.66,1.33C22.32,23.13,19.42,27.47,15.81,32.76ZM93.53,5.39C86,6.75,79.62,7.9,73.22,9.11a3.32,3.32,0,0,0-1.82,1.18c-3.11,4.42-6.16,8.89-9.68,14a.27.27,0,0,0,.27.41c7.37-1.37,13.91-2.56,20.43-3.83a3.34,3.34,0,0,0,1.86-1.29c3-4.26,5.94-8.58,9.52-13.79A.27.27,0,0,0,93.53,5.39ZM44.27,27.47a.26.26,0,0,0,.26.41,48.63,48.63,0,0,0,4.84-.8c2.12-.54,5-.64,6.13-2,3.51-4.21,6.41-8.93,9.88-14a.26.26,0,0,0-.26-.41c-2.49.42-4.31.63-6.06,1.1s-4.22.8-5.24,2.08C50.5,18,47.64,22.53,44.27,27.47ZM82.09,86.88l-15.55,2.7a.28.28,0,0,0-.19.16c-1.9,4.61-2,4.64-11.51,7.66a7.68,7.68,0,0,0,3.49.46c3.26-.52,6.5-1.83,9.72-1.73,6.63.22,9.54-4.76,14.24-8.81A.25.25,0,0,0,82.09,86.88Z"/><path class="cls-2" d="M54.65,30.92C56.11,38.83,57.52,46.4,59,54.4a.27.27,0,0,1-.21.3L46.26,57.05a.25.25,0,0,1-.3-.2c-1.48-7.93-2.91-15.58-4.38-23.47a.25.25,0,0,1,.2-.3L54.33,30.7A.28.28,0,0,1,54.65,30.92Z"/><path class="cls-2" d="M44.53,27.88a.26.26,0,0,1-.26-.41c3.37-4.94,6.23-9.49,9.55-13.66,1-1.28,3.41-1.58,5.24-2.08s3.57-.68,6.06-1.1a.26.26,0,0,1,.26.41C61.91,16.1,59,20.82,55.5,25c-1.18,1.41-4,1.51-6.13,2A48.63,48.63,0,0,1,44.53,27.88Z"/></svg>