<svg xmlns="http://www.w3.org/2000/svg" xmlns:xlink="http://www.w3.org/1999/xlink" viewBox="0 0 2041.93 1006.32"><defs><style>.cls-1{opacity:0.5;}.cls-2,.cls-6{opacity:0.15;}.cls-2{fill:url(#linear-gradient);}.cls-3{fill:url(#linear-gradient-2);}.cls-4{fill:url(#linear-gradient-3);}.cls-5{fill:url(#linear-gradient-4);}.cls-6{fill:url(#linear-gradient-5);}.cls-7{fill:url(#linear-gradient-6);}</style><linearGradient id="linear-gradient" x1="4.16" y1="916.35" x2="914.44" y2="916.35" gradientUnits="userSpaceOnUse"><stop offset="0" stop-color="#fff"/><stop offset="0.07" stop-color="#fcfcfc"/><stop offset="0.57" stop-color="#efefef"/><stop offset="1" stop-color="#eaeaea"/></linearGradient><linearGradient id="linear-gradient-2" x1="1041.5" y1="288.76" x2="2041.93" y2="288.76" xlink:href="#linear-gradient"/><linearGradient id="linear-gradient-3" x1="1341.17" y1="109.01" x2="2041.93" y2="109.01" xlink:href="#linear-gradient"/><linearGradient id="linear-gradient-4" y1="502.12" x2="2037.77" y2="502.12" gradientUnits="userSpaceOnUse"><stop offset="0" stop-color="#eaeaea"/><stop offset="0.77" stop-color="#fff"/></linearGradient><linearGradient id="linear-gradient-5" x1="348.56" y1="375.98" x2="2041.93" y2="375.98" xlink:href="#linear-gradient"/><linearGradient id="linear-gradient-6" x1="4.16" y1="800.03" x2="1845.07" y2="800.03" xlink:href="#linear-gradient"/></defs><title>background-1</title><g id="Layer_2" data-name="Layer 2"><g id="Layer_1-2" data-name="Layer 1"><g class="cls-1"><path class="cls-2" d="M788.77,839.31c-35.1-13.16-76.27-14.93-115.3-11.24-110.1,10.41-202.81,59.56-301.3,93.21C268.49,956.71,150.85,969.44,38.53,950.7c-11.5-1.92-23.07-4.27-34.37-7.16v62.78H914.44c-21.31-17.06-37.78-37.45-47.54-59.53C848.24,904.56,849.75,862.19,788.77,839.31Z"/><path class="cls-3" d="M1057.38,136.1c26.06,37,80.2,58.19,133.59,71.63,67.76,17.07,139,25.24,207.8,39.88S1536,284.52,1584,323.81c58.41,47.84,79.46,114.81,131.85,166.32,80.62,79.26,211.39,100.69,326.1,75V184.68a170.88,170.88,0,0,1-23.12,10.76c-85.24,32.31-199.76,25.88-275.72-15.49-35.44-19.29-64.22-45.79-107.3-56-29.73-7-62.25-5.28-93.8-5-54,.5-111.55-4.55-153.17-27.55-37.39-20.65-56.77-56-43.44-87.18.3-.72.65-1.43,1-2.14H1081.85a155.64,155.64,0,0,0-25.51,32.19C1037.34,66.44,1035.44,105,1057.38,136.1Z"/><path class="cls-4" d="M1388.82,91.4c41.62,23,99.16,28.05,153.17,27.55,31.55-.29,64.07-2.06,93.8,5,43.08,10.22,71.86,36.72,107.3,56,76,41.37,190.48,47.8,275.72,15.49a170.88,170.88,0,0,0,23.12-10.76V2.08H1346.37c-.34.71-.69,1.42-1,2.14C1332.05,35.38,1351.43,70.75,1388.82,91.4Z"/><path class="cls-5" d="M1914,746.75c-130.71,4.14-274.08-9.18-365.91-78.07-65.18-48.9-93.35-117.61-137-178.21S1292.86,371,1200,373.09c-67.49,1.5-124.69,34.65-183.45,59.23-93.49,39.11-204.32,58.61-310.05,44.53s-204.45-64.41-248.15-137c-61-101.24-12.2-229.42-95-321.79A175.31,175.31,0,0,0,344.4,0H0V711a486.56,486.56,0,0,0,138,42.79c127.76,19.79,244.64-7.57,344.3-66.64,54.49-32.29,107.93-68,174-84.8,78.73-20.08,167.7-10.35,242.14,17.25S1034,691.28,1085.2,739.85c40.35,38.31,75.59,80.07,123.84,113,146.38,100,352.27,9.46,514.87,75.49,45.68,18.55,80.59,48.1,117,75.89h196.86V747.79C1997.77,743.35,1954.75,745.46,1914,746.75Z"/><path class="cls-6" d="M1715.83,490.13c-52.39-51.51-73.44-118.48-131.85-166.32-48-39.29-116.41-61.56-185.21-76.2s-140-22.81-207.8-39.88c-53.39-13.44-107.53-34.66-133.59-71.63-21.94-31.13-20-69.66-1-101.83a155.64,155.64,0,0,1,25.51-32.19H348.56a175.12,175.12,0,0,1,18.94,18.1c82.83,92.38,34.05,220.55,95,321.8,43.7,72.54,142.43,122.87,248.15,137s216.55-5.42,310.05-44.53c58.76-24.58,116-57.73,183.44-59.23,92.84-2.07,167.46,56.77,211.12,117.38s71.81,129.3,137,178.21c91.82,68.89,235.2,82.21,365.91,78.07,40.71-1.29,83.73-3.4,123.73,1V565.15C1927.22,590.82,1796.45,569.39,1715.83,490.13Z"/><path class="cls-7" d="M1728.06,930.44c-162.59-66-368.48,24.48-514.87-75.49-48.24-33-83.48-74.71-123.83-113-51.17-48.58-112.41-92.7-186.85-120.3s-163.42-37.32-242.14-17.24c-66,16.84-119.47,52.51-174,84.8-99.67,59.07-216.55,86.42-344.3,66.64A486.56,486.56,0,0,1,4.16,713v230.5c11.3,2.89,22.87,5.24,34.37,7.16,112.32,18.74,230,6,333.64-29.42,98.49-33.65,191.2-82.8,301.3-93.21,39-3.69,80.2-1.92,115.3,11.24,61,22.88,59.47,65.25,78.13,107.48,9.76,22.08,26.23,42.47,47.54,59.53h930.63C1808.65,978.54,1773.74,949,1728.06,930.44Z"/></g></g></g></svg>