<svg id="Layer_1" data-name="Layer 1" xmlns="http://www.w3.org/2000/svg" viewBox="0 0 122.38 122.38"><defs><style>.cls-1{fill:#eb962b;}.cls-2{fill:#1a233a;}</style></defs><title>Untitled-2</title><path class="cls-1" d="M15.58,4.21v70.5L4,76V72.81c0-19.47.22-38.94-.09-58.4C3.75,4.17,6.9,3.43,15.58,4.21Z"/><path class="cls-1" d="M45.21,28.21V66.58c-9.48,0-17.6-9.14-17.49-19.47C27.81,37.12,36.07,28.07,45.21,28.21Z"/><path class="cls-2" d="M106.45,31.8v3.6H75.26V31.8Z"/><path class="cls-2" d="M79.12,27.43V24h27.36v3.42Z"/><path class="cls-2" d="M71.29,47.55V66.86h43V47.55ZM110.36,63H75.27V51.47h35.09Z"/><path class="cls-2" d="M102.83,71.37V82.64h11.49V71.37Zm7.91,7.81h-4.47V74.71h4.47Z"/><path class="cls-2" d="M88.5,71.37V82.64H100V71.37Zm7.91,7.81H91.94V74.71h4.47Z"/><path class="cls-2" d="M74.16,71.37V82.64H85.65V71.37Zm7.91,7.81H77.6V74.71h4.47Z"/><path class="cls-2" d="M102.76,85.87V97.14h11.49V85.87Zm7.91,7.81H106.2V89.21h4.47Z"/><path class="cls-2" d="M88.43,85.87V97.14H99.92V85.87Zm7.91,7.81H91.87V89.21h4.47Z"/><path class="cls-2" d="M74.09,85.87V97.14H85.58V85.87ZM82,93.68H77.53V89.21H82Z"/><path class="cls-2" d="M102.69,100.37v11.27h11.49V100.37Zm7.91,7.81h-4.47v-4.47h4.47Z"/><path class="cls-2" d="M88.36,100.37v11.27H99.85V100.37Zm7.91,7.81H91.8v-4.47h4.47Z"/><path class="cls-2" d="M74,100.37v11.27H85.51V100.37Zm7.91,7.81H77.46v-4.47h4.47Z"/><path class="cls-1" d="M75.27,63V51.46h35.09V63Z"/><path class="cls-2" d="M114.45,38.9V15.6H19.65V0H11.94C3.74,0,0,3.7,0,11.82Q0,47.36,0,82.89C0,91.1,3.63,94.7,11.9,94.7H63.23c0,7.09,0,13.57,0,20.05,0,5.69,1.92,7.61,7.56,7.62q21.69,0,43.39,0c6.34,0,8.2-1.83,8.2-8.06V49.06C122.38,41.49,122,41,114.45,38.9ZM15.58,4.21v70.5L4,76V72.81c0-19.47.22-38.94-.09-58.4C3.75,4.17,6.9,3.43,15.58,4.21ZM63,90.57c-1.08.09-2,.23-2.84.23-16.4,0-32.8,0-49.2,0-3.18,0-5.62-1.1-6.7-4.2C3,82.93,5.64,79.29,9.82,79c3.15-.18,6.32,0,9.77,0V20H110.4V39.3c-1,.08-2,.23-2.92.23-11.62,0-23.24,0-34.85,0-1.88,0-3-.39-3.91-2.3C62.49,24.72,47.88,20.05,36,26.63A23.64,23.64,0,0,0,27.35,60c7.12,11.51,22,14.44,33.75,6.65.46-.3.93-.58,1.92-1.19ZM45.21,28.21V66.58c-9.48,0-17.6-9.14-17.49-19.47C27.81,37.12,36.07,28.07,45.21,28.21ZM63.39,58.79a12.72,12.72,0,0,1-3.87,4.3l0,0h0c-2.3,1.73-5.62,2.88-10,3.61V49.59H63.39Zm1-13.47H49.56V28.23c5.41,0,12.16,3.91,14.63,8.71l.08.14C67.31,42.05,65.36,44.51,64.4,45.32Zm50,73.12q-21.67-.21-43.35,0c-3,0-4-.91-4-3.92q.14-33.62,0-67.24c0-2.77.88-3.88,3.71-3.87q22,.12,44,0c2.63,0,3.62.94,3.6,3.61-.1,11.38,0,22.76,0,34.14,0,11-.09,22.07.05,33.11C118.47,117.32,117.62,118.48,114.39,118.44Z"/></svg>