<svg id="Layer_1" data-name="Layer 1" xmlns="http://www.w3.org/2000/svg" viewBox="0 0 140.74 140.67"><defs><style>.cls-1{fill:#1a233a;}.cls-2{fill:#f29120;}</style></defs><title>Untitled-2</title><path class="cls-1" d="M40.81,103.34H59.09c.11-1.24.27-2.26.27-3.27,0-11.49,0-23,0-35-5.06,0-41.18.19-45.84-.12-1.41-.1-3.73-1.44-3.91-2.51-.45-2.68,2-2.88,4-2.88,5.23,0,41.9.06,47.14,0,3.07-.05,4.19,1.42,4.16,4.32-.07,5.5,0,11,0,16.5V85l13.35-2.93C67.7,73.72,70,62.67,70.93,52.31c.8-8.5,9-14.57,17.83-14.59s16.89,5.92,18,14.42a65.23,65.23,0,0,1-.14,18.72c-.64,4-3.76,7.49-5.89,11.43,3.08.72,6.85,1.44,10.5,2.53,2.21.66,4.82,1.41,6.24,3,2.91,3.27,6.34,3.53,10.2,3.35,3.14-.15,6.28,0,9.43,0s4.3,2.2,3.17,6.59a72.91,72.91,0,0,0-.09,35.41c1.24,5,.4,7.55-3.27,7.51s-7.07,0-10.61,0H6.53c-6.44,0-6.47,0-6.47-6.26,0-11.4-1.1-10.24,10.36-10.26h4.76c.28-5.69,3.09-9.34,9-10.14v-4.9c-6.39,0-12.63,0-18.87,0a5.19,5.19,0,0,1-5.19-5.19c0-13.1.09-26.2-.07-39.3,0-3.76,1.31-5.2,5-5.07,5.1.18,10.22-.15,15.31.19,1.34.09,2.57,1.83,3.85,2.81-1.26.86-2.48,2.37-3.78,2.45-4.79.29-9.62.11-14.63.11v38.21h18.5c0-4,0-8,0-12,.06-6,3.05-9.52,8-9.62s8.42,3.62,8.51,9.62C40.86,95.2,40.81,99.11,40.81,103.34ZM100,124V97.28c0-5.85.29-6.13,6.29-6.13h5l.1-.74L98,87.47c-1.84,4.94-3.39,9.65-5.38,14.16a9.77,9.77,0,0,1-1.23,2A3.34,3.34,0,0,1,86,103.5a9.44,9.44,0,0,1-1-1.68,120.88,120.88,0,0,1-4.42-11.74C80,88,78.94,87.63,76.9,88c-12,2-12,2-12,14.18,0,.26,0,.52,0,.78,0,5.59,0,5.61-5.53,6.56V124Zm35,6H5.73v5H135ZM76.32,63.29C74.88,72,79.63,78.83,87.64,79.52c8.22.7,13.82-5.1,14.29-14,.22-4.12-2.4-5.12-4.89-7-2.67-2-4,.16-5.75,1.13a15.24,15.24,0,0,1-3.89,1.76C83.74,62.22,80,62.7,76.32,63.29Zm25-8.65c-.54-7.23-6.73-12.1-13.92-11.38a12.32,12.32,0,0,0-11,13.64c4.91.92,9.89.59,13.44-3,3.29-3.35,5.89-2.88,9.08-.52A20.7,20.7,0,0,0,101.29,54.64ZM105.71,102H135V96.87H105.71Zm29.34,5.92H105.78V113h29.27Zm-29.37,16h29.24v-5H105.68Zm-70.45-9.86c0-8.15.09-16.07-.12-24a1.28,1.28,0,0,0-.31-.76,2.87,2.87,0,0,0-4.53-.09,1.16,1.16,0,0,0-.29.68c-.21,8-.12,16.06-.12,24.14Zm18.19-4.66H41V114c5.59,1,8.54,4.26,8.72,10h3.71ZM21.21,124.15c6.93,0,13.69,0,20.46,0a19.38,19.38,0,0,0,2.24-.24c.24-2.87-1.2-4-3.69-4-5.21,0-10.42,0-15.64,0C22.26,119.92,20.93,121,21.21,124.15ZM88.75,96.07c1.6-4.13,2.87-7.4,4.25-10.94H84.66C86,88.59,87.15,91.81,88.75,96.07Z"/><path class="cls-1" d="M.06,25.61A25.54,25.54,0,0,1,25.42,0,25.73,25.73,0,0,1,51,25.45C51,39.26,39.11,51.08,25.38,51A25.72,25.72,0,0,1,.06,25.61Zm5.52-.32A20.17,20.17,0,0,0,25.46,45.43c10.76.06,20-9.23,20-20.06A20.18,20.18,0,0,0,25.72,5.52,20,20,0,0,0,5.58,25.29Z"/><path class="cls-1" d="M35,62.4a4,4,0,0,1-2.72,2.48c-.59.14-2.23-1.5-2.27-2.39"/><path class="cls-2" d="M105.71,102V96.87H135V102Z"/><path class="cls-2" d="M135.05,107.87V113H105.78v-5.08Z"/><path class="cls-2" d="M105.68,123.91v-5h29.24v5Z"/><path class="cls-2" d="M88.75,96.07c-1.6-4.26-2.8-7.48-4.09-10.94H93C91.62,88.67,90.35,91.94,88.75,96.07Z"/><rect class="cls-1" x="135.05" y="92.74" width="5.69" height="47.04" rx="2.84" ry="2.84"/><rect class="cls-1" x="22.69" y="9.71" width="5.69" height="17.89" rx="2.84" ry="2.84"/><rect class="cls-1" x="26.71" y="21" width="5.69" height="17.89" rx="2.84" ry="2.84" transform="translate(-12.41 26.93) rotate(-41.26)"/></svg>