<svg id="Layer_1" data-name="Layer 1" xmlns="http://www.w3.org/2000/svg" viewBox="0 0 288.06 372.06"><defs><style>.cls-1{fill:#1a233a;}.cls-2{fill:#ea952e;}</style></defs><title>007-crowns</title><path class="cls-1" d="M89,251c-5,3.06-9.58,5.85-14.15,8.62-6,3.64-10.74,3.69-15.29.2-4.38-3.37-5.64-8.29-3.76-14.86,6.78-23.72,13.5-47.46,20.41-71.14.8-2.72.35-4.12-1.9-5.84q-34-25.89-67.74-52C.74,111.46-1.28,105.64.79,99.52S8.09,90,15.33,90c28.25,0,56.49-.06,84.73.07,2.93,0,4-1,4.91-3.59Q117.29,49,129.81,11.64C132.34,4,137.29,0,144,0s11.68,4,14.22,11.65Q170.71,49,183.09,86.48c.86,2.62,2,3.6,4.91,3.58,28-.13,56-.08,84-.08,7.93,0,13.18,3.29,15.29,9.55s0,12-6.34,16.87q-33.69,25.95-67.43,51.81c-2.06,1.58-2.41,2.88-1.72,5.26q10.35,35.72,20.53,71.48c2.45,8.59-1.11,15.44-8.86,17.17-3.39.76-6.42-.2-9.28-1.93-4.79-2.9-9.57-5.84-14.36-8.75a3,3,0,0,0-.77-.1c-1.54,7.83-3.11,15.69-4.64,23.56-2.21,11.39-4.34,22.79-6.62,34.17-.44,2.19-.27,3,2.34,3,10.49-.16,21,0,31.49-.12A5.89,5.89,0,0,1,227,314.4c7.69,9.83,15.52,19.56,23.39,29.26a7.41,7.41,0,0,1,1.73,5.11c-.1,6.62-.2,13.25,0,19.86.11,2.87-.73,3.43-3.48,3.43q-82.86-.13-165.71-.07c-14.62,0-29.24-.06-43.86.06-2.4,0-3.16-.54-3.1-3,.19-6.87.13-13.75,0-20.62a6.89,6.89,0,0,1,1.75-4.72c7.77-9.62,15.54-19.24,23.15-29a6.56,6.56,0,0,1,5.95-2.77c10.37.16,20.75,0,31.12.1,2,0,2.9-.15,2.41-2.6C96.53,290.11,92.82,270.77,89,251Zm-21.07-1.6q36.39-22.2,72.77-44.45c2.37-1.46,4.06-1.72,6.63-.11,23.39,14.58,46.89,29,70.36,43.41.86.53,1.78,1,3.12,1.67-.31-1.31-.46-2-.66-2.73-7.35-26-14.66-52-22.13-78-.74-2.59-.3-4,1.81-5.56,14.42-10.94,28.74-22,43.1-33q15.59-12,31.17-24c1-.75,2.22-1.48,1.8-3-.47-1.73-2-1.57-3.38-1.56h-2.25q-45.74,0-91.47.05c-2.37,0-3.36-.64-4.12-3-4.58-14.23-9.39-28.38-14.12-42.56Q153.75,36.11,147,15.74c-.5-1.5-.72-3.44-2.8-3.53-2.35-.1-2.49,2-3.1,3.6,0,.12,0,.25-.09.37-9.19,27.52-18.43,55-27.5,82.59-.86,2.62-2,3.29-4.65,3.28q-45.73-.14-91.46-.06c-.88,0-1.76,0-2.63,0a2.31,2.31,0,0,0-2.48,1.27c-.57,1.28.29,2.11,1.2,2.84.68.55,1.37,1.08,2.07,1.61Q51.76,135.57,88,163.36c2.19,1.68,2.85,3,2,5.81q-7.17,24.18-14,48.48c-2.9,10.42-6.37,20.69-8.61,31.29a3.93,3.93,0,0,0-.45.39C67.29,249.72,67.6,249.6,67.91,249.37ZM144,360q46.31,0,92.61,0c1.1,0,3.24.74,3.21-.7-.1-3.71,1.49-7.65-1.37-11.13-5.78-7.05-11.49-14.16-17-21.39a6.39,6.39,0,0,0-6-2.8c-5.38.22-5.38.07-5.45,5.5-.12,10.4-7.56,18.48-17.63,18.52q-48.37.17-96.74,0c-7.23,0-12.51-3.78-15.84-10.17-1.8-3.44-1.89-7.19-1.82-11,0-.92.53-2.07-.55-2.75-1.72-1.08-8.89.44-10.27,2.15-5.08,6.33-10,12.81-15.3,18.94a14.9,14.9,0,0,0-4,11.1c.13,3.08.79,3.84,3.9,3.82C82.54,359.93,113.28,360,144,360ZM144,312a27.43,27.43,0,0,1,3.74,0c2.49.35,3.39-.62,3.77-3.12q5.81-38.64,11.88-77.24c.29-1.85-.07-2.89-1.79-3.89-5.16-3-10.22-6.19-15.26-9.41a3.52,3.52,0,0,0-4.39,0q-7.69,4.95-15.59,9.6a3,3,0,0,0-1.63,3.61c3.88,24.75,7.69,49.51,11.59,74.26C137.26,312,137.36,312,144,312Zm.29,12H131.52c-12.86,0-25.71,0-38.56.05-1,0-2.48-.94-3,1.14-1.54,6.75,1.51,10.8,8.32,10.8h91.35c6.57,0,8.18-1.84,8.44-8.48.12-3-.88-3.6-3.69-3.58C177.7,324.06,161,324,144.25,324ZM175,236.09c-.31,1.29-.64,2.33-.81,3.4q-5.26,34-10.49,68c-.7,4.48-.69,4.48,4,4.48a37.33,37.33,0,0,1,4.49,0c2.32.27,3.12-.56,3.56-2.94,3.55-19,7.3-37.93,11-56.89,1.55-8,1.53-8-5.44-12.27ZM113.25,236c-4,2.45-7.21,4.63-10.62,6.42-2.31,1.21-2.62,2.62-2.14,5,3.67,18.57,7.17,37.18,10.78,55.76,1.76,9,1.81,9,11.08,8.74a6.26,6.26,0,0,1,.75,0c1.55.19,2-.48,1.6-1.93-.24-1-.23-2-.38-3q-3.67-23.83-7.36-47.67C115.76,251.73,114.52,244,113.25,236Z"/><path class="cls-1" d="M67.91,249.37c-.31.23-.62.35-.87,0a3.93,3.93,0,0,1,.45-.39Z"/><path class="cls-2" d="M44.7,114.32c1.29-.68,2.67-.31,4-.31,22.74,0,45.48-.08,68.22,0,3.08,0,4.51-.77,5.51-3.86C129,90,135.74,69.93,142.47,49.82c.37-1.12.43-2.42,1.57-3.28,1.1.9,1.18,2.18,1.56,3.31,6.73,20.11,13.53,40.2,20.07,60.37,1,3.12,2.48,3.85,5.52,3.83,23-.12,46-.06,69-.06h4.54c-9.36,7.19-17.93,13.77-26.5,20.37-10.68,8.23-21.3,16.55-32.08,24.65-2.19,1.65-2.57,3.06-1.82,5.64,5.47,18.79,10.77,37.63,16.11,56.46.2.69.76,1.36,0,2.39q-11.91-7.27-23.84-14.58c-10-6.15-20-12.25-29.94-18.52-2-1.28-3.39-1.13-5.35.08q-25.77,16-51.67,31.8c-.68.42-1.25,1.25-2.6.78l8.67-30.45c2.67-9.36,5.24-18.74,8.07-28,.79-2.6.27-4-1.88-5.65q-27.72-21.09-55.27-42.41C45.9,115.94,44.89,115.54,44.7,114.32Z"/></svg>