<svg xmlns="http://www.w3.org/2000/svg" xmlns:xlink="http://www.w3.org/1999/xlink" viewBox="0 0 300.85 216.28"><defs><style>.cls-1{isolation:isolate;}.cls-2,.cls-5{fill:#fff;}.cls-2{opacity:0.7;}.cls-3,.cls-4{opacity:0.16;}.cls-20,.cls-21,.cls-28,.cls-29,.cls-3,.cls-4{mix-blend-mode:multiply;}.cls-3{fill:url(#White_Black_2);}.cls-4{fill:url(#White_Black_2-2);}.cls-6{fill:#f9cc89;}.cls-7{fill:#9ca6cf;opacity:0.22;}.cls-33,.cls-8{fill:#eb962b;}.cls-9{fill:#202a52;}.cls-10,.cls-12{opacity:0.35;}.cls-11,.cls-12{fill:#014c6b;}.cls-13{fill:#d8f0fa;}.cls-14{fill:#1a233a;}.cls-15{fill:#d28d36;}.cls-16{fill:#fcb216;}.cls-17{fill:#cf7f29;}.cls-18{fill:#f8cdae;}.cls-19{fill:#002b3b;}.cls-20,.cls-21,.cls-28,.cls-29{opacity:0.15;}.cls-20{fill:url(#linear-gradient);}.cls-21{fill:url(#linear-gradient-2);}.cls-22{fill:#26b1c4;}.cls-23{opacity:0.91;}.cls-24{fill:#de4962;}.cls-25{fill:#f3f2f1;}.cls-26{fill:#7585c2;}.cls-27{fill:#371a3b;}.cls-28{fill:url(#linear-gradient-3);}.cls-29{fill:url(#linear-gradient-4);}.cls-30{fill:#b6e0ee;}.cls-30,.cls-33{opacity:0.34;}.cls-31{opacity:0.5;mix-blend-mode:screen;}.cls-32{fill:#292f74;}.cls-34{fill:#cce6f0;opacity:0.4;}.cls-35{fill:#5fa5db;}</style><linearGradient id="White_Black_2" x1="103.73" y1="63.72" x2="76.29" y2="88.39" gradientUnits="userSpaceOnUse"><stop offset="0" stop-color="#fff"/><stop offset="1" stop-color="#231f20"/></linearGradient><linearGradient id="White_Black_2-2" x1="81.52" y1="58.57" x2="92.62" y2="58.57" xlink:href="#White_Black_2"/><linearGradient id="linear-gradient" x1="-5404.77" y1="95.22" x2="-5406.65" y2="87.63" gradientTransform="matrix(-1, 0, 0, 1, -5357.09, 0)" gradientUnits="userSpaceOnUse"><stop offset="0" stop-color="#fff"/><stop offset="1"/></linearGradient><linearGradient id="linear-gradient-2" x1="-5405.97" y1="84.09" x2="-5407.58" y2="79.49" xlink:href="#linear-gradient"/><linearGradient id="linear-gradient-3" x1="264.58" y1="112.05" x2="272.4" y2="112.05" gradientTransform="matrix(1, 0, 0, 1, 0, 0)" xlink:href="#linear-gradient"/><linearGradient id="linear-gradient-4" x1="258.19" y1="91" x2="265.87" y2="93.08" gradientTransform="matrix(1, 0, 0, 1, 0, 0)" xlink:href="#linear-gradient"/></defs><title>Untitled-2</title><g class="cls-1"><g id="Layer_1" data-name="Layer 1"><path class="cls-2" d="M284.2,163.6c-8.17,13.4-18.29,25.54-27.88,33.19C216.69,228.4,174,213.62,154.36,207,111,192.3,46.79,218,14.08,205.18c-19.89-7.78-17.77-28.66.48-60.36,7.89-13.71,18.79-29.43,32.23-47C85.9,46.73,152.37.08,179.94,0c55.92-.16,50.57,95.31,80.22,90.92C313.89,83,306,127.77,284.2,163.6Z"/><path class="cls-3" d="M110.82,67.91a3.16,3.16,0,0,1-2,1.36c-4.6.53-15.25-3.15-15.25-3.15L94,61.76C96.37,63.08,106.57,68.67,110.82,67.91Z"/><polygon class="cls-4" points="81.52 55.65 85.42 61.09 88.04 59.53 89.61 61.48 92.62 57.48 91.33 57.07 81.52 55.65"/><polygon class="cls-5" points="84.41 54.67 88.27 58.61 85.89 60.91 81.98 55.67 84.41 54.67"/><polygon class="cls-5" points="91.61 56.02 88.27 58.61 89.72 60.91 92.32 57.35 91.61 56.02"/><polygon class="cls-5" points="22.1 109.03 26.32 112.33 24.62 113.97 20.89 109.47 22.1 109.03"/><polygon class="cls-5" points="28.55 110.06 26.32 112.33 27.69 113.97 29.43 110.73 28.55 110.06"/><polygon class="cls-5" points="84.41 54.58 88.27 58.52 85.89 60.82 81.98 55.58 84.41 54.58"/><path class="cls-5" d="M143,44c.05.8-.16,1.46-.47,1.48s-.59-.61-.64-1.41.16-1.46.46-1.48S142.9,43.22,143,44Z"/><polygon class="cls-5" points="22.1 108.95 26.32 112.24 24.62 113.88 20.89 109.39 22.1 108.95"/><polygon class="cls-5" points="28.55 109.97 26.32 112.24 27.69 113.88 29.43 110.64 28.55 109.97"/><path class="cls-6" d="M61.75,46.06a3.45,3.45,0,1,1,3.46-3.45A3.45,3.45,0,0,1,61.75,46.06Zm0-5.93a2.49,2.49,0,1,0,2.49,2.48A2.48,2.48,0,0,0,61.75,40.13Z"/><ellipse class="cls-7" cx="149.89" cy="188.52" rx="82.96" ry="4.19"/><ellipse class="cls-7" cx="121.57" cy="199.57" rx="13.69" ry="1.88"/><ellipse class="cls-7" cx="152.25" cy="199.57" rx="13.69" ry="1.88"/><path class="cls-8" d="M121.32,74.35l-3,.13s-1.21.6-1.54,4.28-20.11.93-20.11.93-.6-5.34-.74-9.08,1.61-7,2.68-7.15,10.22-.6,15,1.47S121.32,74.35,121.32,74.35Z"/><path class="cls-9" d="M123.12,52.8a3,3,0,0,1-3.34,2.71c-2.1,0-6.58.6-7.55,2.5s-3.43,1.52-3.43,1.52a1.45,1.45,0,0,1-.91-1.78c.3-1.41-1.2-3.54-.43-5.68s3.1-5,5.68-3.78,3.54-1,6.78.1A4.76,4.76,0,0,1,123.12,52.8Z"/><path class="cls-5" d="M69.78,158c-1.06.25-1.27.45-1.52,1.52-.25-1.07-.45-1.27-1.52-1.52,1.07-.26,1.27-.46,1.52-1.53C68.51,157.57,68.72,157.77,69.78,158Z"/><g class="cls-10"><rect class="cls-11" x="104.78" y="106.26" width="5.47" height="21.54"/><rect class="cls-11" x="97.6" y="108.31" width="5.47" height="19.49"/><rect class="cls-11" x="90.42" y="110.36" width="5.47" height="17.44"/><rect class="cls-11" x="83.24" y="113.44" width="5.47" height="14.36"/><rect class="cls-11" x="111.88" y="113.44" width="5.47" height="14.36"/><rect class="cls-11" x="76.06" y="107.28" width="5.47" height="20.52"/></g><path class="cls-11" d="M88.41,86.27a1.06,1.06,0,0,1-2.11,0,1.06,1.06,0,1,1,2.11,0Z"/><path class="cls-11" d="M82.59,86.27a1.06,1.06,0,0,1-2.11,0,1.06,1.06,0,1,1,2.11,0Z"/><path class="cls-11" d="M76.77,86.27a1.06,1.06,0,1,1-1.06-1.06A1.06,1.06,0,0,1,76.77,86.27Z"/><path class="cls-12" d="M77.92,150.05h0a1.86,1.86,0,0,1-1.86-1.86h0a1.86,1.86,0,0,1,1.86-1.86h0a1.87,1.87,0,0,1,1.86,1.86h0A1.86,1.86,0,0,1,77.92,150.05Z"/><path class="cls-11" d="M111.3,150.05H85.1a1.86,1.86,0,0,1-1.86-1.86h0a1.86,1.86,0,0,1,1.86-1.86h26.2a1.86,1.86,0,0,1,1.86,1.86h0A1.86,1.86,0,0,1,111.3,150.05Z"/><path class="cls-12" d="M77.92,143.9h0A1.86,1.86,0,0,1,76.06,142h0a1.86,1.86,0,0,1,1.86-1.86h0A1.86,1.86,0,0,1,79.78,142h0A1.87,1.87,0,0,1,77.92,143.9Z"/><path class="cls-11" d="M111.3,143.9H85.1A1.86,1.86,0,0,1,83.24,142h0a1.86,1.86,0,0,1,1.86-1.86h26.2a1.86,1.86,0,0,1,1.86,1.86h0A1.86,1.86,0,0,1,111.3,143.9Z"/><path class="cls-12" d="M77.92,137.74h0a1.86,1.86,0,0,1-1.86-1.86h0A1.86,1.86,0,0,1,77.92,134h0a1.87,1.87,0,0,1,1.86,1.86h0A1.86,1.86,0,0,1,77.92,137.74Z"/><path class="cls-11" d="M111.3,137.74H85.1a1.86,1.86,0,0,1-1.86-1.86h0A1.86,1.86,0,0,1,85.1,134h26.2a1.86,1.86,0,0,1,1.86,1.86h0A1.86,1.86,0,0,1,111.3,137.74Z"/><path class="cls-11" d="M138.94,127.72H208s-1.83-27.58-11.47-27.58-8.71,16.15-14.13,15.14c-4-.74-4.24-5.42-7.88-5.42-5.14,0-6.87,13-14.39,5.06-6-6.4-7.81,8.88-12.58,6C140.82,116.78,138.94,127.72,138.94,127.72Z"/><path class="cls-11" d="M208.69,130.52h-4.12v-.91h-.3v.91h-3.52v-.91h-.3v.91h-3.52v-.91h-.3v.91h-3.54v-.91h-.3v.91h-3.57v-.91h-.29v.91H185.4v-.91h-.3v.91h-3.52v-.91h-.3v.91h-3.54v-.91h-.3v.91h-3.56v-.91h-.3v.91h-3.53v-.91h-.3v.91h-3.52v-.91h-.3v.91h-3.54v-.91h-.29v.91h-3.57v-.91h-.3v.91h-3.62v-.91h-.32v.91h-3.51v-.91h-.32v.91h-3.52v-.91h-.31v.91h-3.52v-.91h-.31v.91h-3.54v-.91h-.32v1.23h69.87v-.19A.12.12,0,0,0,208.69,130.52Z"/><path class="cls-12" d="M138.94,127.72s5.71-.11,8.41-4.52c3.26-5.31,6.65-2.17,8.9.15,3.18,3.27,6.43-9.36,10.8-7.83s4.75,9.78,10.27,7.75c4.7-1.72,6-4.37,10.27-2.51,5.55,2.42,7.32-7.26,12.2-1.49,4.7,5.57,5.31,8.2,8.24,8.45Z"/><path class="cls-11" d="M189.36,164a7,7,0,1,1-7.55-7,4.87,4.87,0,0,1,.54,0,7,7,0,0,1,7,7Z"/><path class="cls-12" d="M188.28,160.26,182.35,164l-.54-7a4.87,4.87,0,0,1,.54,0A7,7,0,0,1,188.28,160.26Z"/><path class="cls-11" d="M208,164a7,7,0,1,1-7.55-7,4.61,4.61,0,0,1,.53,0,7,7,0,0,1,5.93,3.27A6.92,6.92,0,0,1,208,164Z"/><path class="cls-12" d="M206.92,160.26,201,164,194.26,166a7,7,0,0,1,6.2-8.94,4.61,4.61,0,0,1,.53,0A7,7,0,0,1,206.92,160.26Z"/><path class="cls-11" d="M171.05,164a7,7,0,1,1-.4-2.31A6.8,6.8,0,0,1,171.05,164Z"/><path class="cls-12" d="M170.65,161.69,164,164l-5.62-4.21a7,7,0,0,1,12.23,1.9Z"/><path class="cls-11" d="M152.57,164a7,7,0,1,1-.39-2.31A6.79,6.79,0,0,1,152.57,164Z"/><path class="cls-12" d="M145.56,164l-1.73,6.8a7,7,0,0,1-3.13-1.75Z"/><path class="cls-11" d="M183,135.81H138.15a.67.67,0,0,1-.67-.66h0a.67.67,0,0,1,.67-.67H183a.67.67,0,0,1,.67.67h0A.67.67,0,0,1,183,135.81Z"/><rect class="cls-11" x="138.83" y="136.17" width="69.21" height="14.06" rx="2.85" ry="2.85"/><path class="cls-11" d="M186.82,140.24H141.93a.67.67,0,0,1-.67-.67h0a.67.67,0,0,1,.67-.67h44.89a.67.67,0,0,1,.67.67h0A.67.67,0,0,1,186.82,140.24Z"/><path class="cls-11" d="M204.25,143.87H166.38a.67.67,0,0,1-.67-.67h0a.67.67,0,0,1,.67-.67h37.87a.67.67,0,0,1,.67.67h0A.67.67,0,0,1,204.25,143.87Z"/><path class="cls-11" d="M204.25,140.24H190.74a.67.67,0,0,1-.67-.67h0a.67.67,0,0,1,.67-.67h13.51a.67.67,0,0,1,.67.67h0A.67.67,0,0,1,204.25,140.24Z"/><path class="cls-11" d="M162,143.87H141.87a.67.67,0,0,1-.67-.67h0a.67.67,0,0,1,.67-.67H162a.66.66,0,0,1,.66.67h0A.66.66,0,0,1,162,143.87Z"/><path class="cls-11" d="M193.28,147.58H157.42a.66.66,0,0,1-.66-.66h0a.67.67,0,0,1,.66-.67h35.86a.66.66,0,0,1,.66.67h0A.65.65,0,0,1,193.28,147.58Z"/><path class="cls-11" d="M152.8,147.58H141.87a.66.66,0,0,1-.67-.66h0a.67.67,0,0,1,.67-.67H152.8a.66.66,0,0,1,.66.67h0A.65.65,0,0,1,152.8,147.58Z"/><path class="cls-11" d="M204.25,147.58h-6.5a.66.66,0,0,1-.67-.66h0a.67.67,0,0,1,.67-.67h6.5a.67.67,0,0,1,.67.67h0A.66.66,0,0,1,204.25,147.58Z"/><rect class="cls-11" x="76.17" y="156.92" width="56.23" height="14.06" rx="2.85" ry="2.85"/><path class="cls-11" d="M115.05,161H78.82a.67.67,0,0,1-.67-.66h0a.67.67,0,0,1,.67-.67h36.23a.67.67,0,0,1,.66.67h0A.67.67,0,0,1,115.05,161Z"/><path class="cls-11" d="M129.21,164.67H105.89a.66.66,0,0,1-.67-.66h0a.67.67,0,0,1,.67-.67h23.32a.66.66,0,0,1,.66.67h0A.65.65,0,0,1,129.21,164.67Z"/><path class="cls-11" d="M129.21,161H118.47a.67.67,0,0,1-.66-.66h0a.67.67,0,0,1,.66-.67h10.74a.66.66,0,0,1,.66.67h0A.66.66,0,0,1,129.21,161Z"/><path class="cls-11" d="M102.29,164.67H78.77a.65.65,0,0,1-.66-.66h0a.66.66,0,0,1,.66-.67h23.52a.67.67,0,0,1,.67.67h0A.66.66,0,0,1,102.29,164.67Z"/><path class="cls-11" d="M87.4,168.39H78.77a.66.66,0,0,1-.66-.66h0a.66.66,0,0,1,.66-.67H87.4a.67.67,0,0,1,.67.67h0A.67.67,0,0,1,87.4,168.39Z"/><path class="cls-13" d="M222.83,85.77v95.74a3.08,3.08,0,0,1-3.08,3.08H74.59a3.07,3.07,0,0,1-3.08-3.08V85.77a3.07,3.07,0,0,1,3.08-3.08H219.91l.15,0,.16,0h.09l.1,0,.08,0h0l.11,0,.3.11a1.69,1.69,0,0,1,.27.13.41.41,0,0,1,.11.07l.11.06.11.08.09.07.11.08.09.09.26.26.06.07.12.16.06.1.06.09a.25.25,0,0,1,0,.07h0a.41.41,0,0,1,.07.11l.06.14,0,.08.06.13s0,.09,0,.14a2.34,2.34,0,0,1,.09.38.59.59,0,0,1,0,.13s0,0,0,0,0,.1,0,.14v.1S222.83,85.73,222.83,85.77Z"/><path class="cls-9" d="M74.59,187.84a6.34,6.34,0,0,1-6.33-6.33V85.77a6.34,6.34,0,0,1,6.33-6.33H220.11l.27,0,.36,0,.14,0,.17,0,.18,0,.14,0,.23.07.58.21a5.12,5.12,0,0,1,.58.28,1.71,1.71,0,0,1,.23.13,2.26,2.26,0,0,1,.26.16l.23.16.17.13.2.16.19.17a4.68,4.68,0,0,1,.53.56l0,0,1.08,1.86,0,.07c0,.08,0,.15.07.23l0,.06a5.36,5.36,0,0,1,.18.77l0,.18a1.09,1.09,0,0,1,0,.26s0,.09,0,.13,0,.2,0,.29,0,.14,0,.21v95.74a6.34,6.34,0,0,1-6.33,6.33Z"/><path class="cls-14" d="M222.83,85.77v95.74a3.08,3.08,0,0,1-3.08,3.08H74.59a3.07,3.07,0,0,1-3.08-3.08V85.77a3.07,3.07,0,0,1,3.08-3.08H219.91l.15,0,.16,0h.09l.1,0,.08,0h0l.11,0,.3.11a1.69,1.69,0,0,1,.27.13.41.41,0,0,1,.11.07l.11.06.11.08.09.07.11.08.09.09.26.26.06.07.12.16.06.1.06.09a.25.25,0,0,1,0,.07h0a.41.41,0,0,1,.07.11l.06.14,0,.08.06.13s0,.09,0,.14a2.34,2.34,0,0,1,.09.38.59.59,0,0,1,0,.13s0,0,0,0,0,.1,0,.14v.1S222.83,85.73,222.83,85.77Z"/><rect class="cls-5" x="75.92" y="94.03" width="142.26" height="86.07" rx="4.74" ry="4.74"/><rect class="cls-8" x="114.82" y="106.26" width="5.47" height="21.54"/><rect class="cls-14" x="107.64" y="108.31" width="5.47" height="19.49"/><rect class="cls-8" x="100.46" y="110.36" width="5.47" height="17.44"/><rect class="cls-14" x="93.28" y="113.44" width="5.47" height="14.36"/><rect class="cls-14" x="121.93" y="113.44" width="5.47" height="14.36"/><rect class="cls-8" x="86.1" y="107.28" width="5.47" height="20.52"/><path class="cls-8" d="M222.83,85.77v3.76H71.51V85.77a3.07,3.07,0,0,1,3.08-3.08H219.75A3.09,3.09,0,0,1,222.83,85.77Z"/><path class="cls-13" d="M93.25,86.27a1.05,1.05,0,1,1-1-1.06A1,1,0,0,1,93.25,86.27Z"/><path class="cls-13" d="M87.43,86.27a1.05,1.05,0,1,1-1.05-1.06A1,1,0,0,1,87.43,86.27Z"/><path class="cls-13" d="M81.61,86.27a1.05,1.05,0,1,1-1-1.06A1,1,0,0,1,81.61,86.27Z"/><path class="cls-14" d="M88,150.05h0a1.86,1.86,0,0,1-1.86-1.86h0A1.86,1.86,0,0,1,88,146.33h0a1.86,1.86,0,0,1,1.86,1.86h0A1.86,1.86,0,0,1,88,150.05Z"/><path class="cls-14" d="M121.34,150.05H95.14a1.86,1.86,0,0,1-1.86-1.86h0a1.86,1.86,0,0,1,1.86-1.86h26.2a1.86,1.86,0,0,1,1.86,1.86h0A1.86,1.86,0,0,1,121.34,150.05Z"/><path class="cls-14" d="M88,143.9h0A1.86,1.86,0,0,1,86.1,142h0A1.86,1.86,0,0,1,88,140.18h0A1.86,1.86,0,0,1,89.82,142h0A1.86,1.86,0,0,1,88,143.9Z"/><path class="cls-14" d="M121.34,143.9H95.14A1.86,1.86,0,0,1,93.28,142h0a1.86,1.86,0,0,1,1.86-1.86h26.2A1.86,1.86,0,0,1,123.2,142h0A1.86,1.86,0,0,1,121.34,143.9Z"/><path class="cls-14" d="M88,137.74h0a1.86,1.86,0,0,1-1.86-1.86h0A1.86,1.86,0,0,1,88,134h0a1.86,1.86,0,0,1,1.86,1.86h0A1.86,1.86,0,0,1,88,137.74Z"/><path class="cls-14" d="M121.34,137.74H95.14a1.86,1.86,0,0,1-1.86-1.86h0A1.86,1.86,0,0,1,95.14,134h26.2a1.86,1.86,0,0,1,1.86,1.86h0A1.86,1.86,0,0,1,121.34,137.74Z"/><rect class="cls-14" x="86.22" y="156.92" width="56.23" height="14.06" rx="2.85" ry="2.85"/><path class="cls-14" d="M125.09,161H88.86a.66.66,0,0,1-.66-.66h0a.66.66,0,0,1,.66-.67h36.23a.67.67,0,0,1,.66.67h0A.67.67,0,0,1,125.09,161Z"/><path class="cls-14" d="M139.25,164.67H115.93a.66.66,0,0,1-.67-.66h0a.67.67,0,0,1,.67-.67h23.32a.67.67,0,0,1,.67.67h0A.66.66,0,0,1,139.25,164.67Z"/><path class="cls-14" d="M139.25,161H128.52a.67.67,0,0,1-.67-.66h0a.67.67,0,0,1,.67-.67h10.73a.67.67,0,0,1,.67.67h0A.67.67,0,0,1,139.25,161Z"/><path class="cls-14" d="M112.34,164.67H88.81a.66.66,0,0,1-.66-.66h0a.67.67,0,0,1,.66-.67h23.53a.67.67,0,0,1,.66.67h0A.66.66,0,0,1,112.34,164.67Z"/><path class="cls-14" d="M97.44,168.39H88.81a.67.67,0,0,1-.66-.66h0a.67.67,0,0,1,.66-.67h8.63a.67.67,0,0,1,.67.67h0A.67.67,0,0,1,97.44,168.39Z"/><ellipse class="cls-15" cx="152.29" cy="165.35" rx="12.56" ry="12.54" transform="translate(-0.44 0.4) rotate(-0.15)"/><ellipse class="cls-16" cx="152.29" cy="165.35" rx="11.86" ry="11.84" transform="translate(-0.27 0.25) rotate(-0.1)"/><path class="cls-5" d="M161.71,167.89l-.36-.09a9.38,9.38,0,0,0-13.95-10.44l-.2-.31A9.74,9.74,0,0,1,162,165.32,10,10,0,0,1,161.71,167.89Z"/><path class="cls-5" d="M152.32,175.08a9.74,9.74,0,0,1-9.77-9.71,9.6,9.6,0,0,1,1.81-5.67l.3.21a9.22,9.22,0,0,0-1.74,5.46,9.38,9.38,0,0,0,17.33,4.94l.32.19A9.72,9.72,0,0,1,152.32,175.08Z"/><path class="cls-5" d="M153.15,172.15h-1.43v-1.54a6,6,0,0,1-2.64-.67l-.1,0v-2.51l.3.24a3.92,3.92,0,0,0,1.2.6,5.67,5.67,0,0,0,1.24.3v-2.3a5.58,5.58,0,0,1-2.28-1.37,2.92,2.92,0,0,1-.67-1.91,2.84,2.84,0,0,1,.86-2.07,3.53,3.53,0,0,1,2.07-1v-1.36h1.43v1.33a5.28,5.28,0,0,1,2.19.5l.1,0v2.39l-.28-.17a5.23,5.23,0,0,0-2-.69v2.4a5.87,5.87,0,0,1,2.23,1.31,2.89,2.89,0,0,1-.08,4,3.72,3.72,0,0,1-2.13.93Zm-1.06-.37h.69v-1.55l.16,0a3.49,3.49,0,0,0,2.09-.85,2.56,2.56,0,0,0,.06-3.45,5.54,5.54,0,0,0-2.21-1.25l-.12,0v-3.08l.21,0a5.78,5.78,0,0,1,2.08.62v-1.53a5.64,5.64,0,0,0-2.11-.41h-.18v-1.31h-.69v1.33l-.16,0a3.2,3.2,0,0,0-2,.88,2.48,2.48,0,0,0-.75,1.81,2.57,2.57,0,0,0,.58,1.67,5.63,5.63,0,0,0,2.25,1.31l.12,0v3h-.2a5.91,5.91,0,0,1-1.54-.34,5.71,5.71,0,0,1-1-.45v1.54a5.72,5.72,0,0,0,2.55.59h.19Zm.68-2.86v-2.69l.26.11c.76.33,1.15.77,1.15,1.32s-.21,1.07-1.19,1.23Zm.37-2.12v1.67a.77.77,0,0,0,.67-.8C153.81,167.33,153.59,167.05,153.14,166.8Zm-1.07-2.44-.26-.13c-.74-.36-1.12-.84-1.12-1.41a1.2,1.2,0,0,1,1.16-1.23l.22,0ZM151.7,162a.79.79,0,0,0-.64.82,1.11,1.11,0,0,0,.64.93Z"/><path class="cls-5" d="M159.46,164.2c-.79.19-.94.34-1.13,1.13-.18-.79-.34-.94-1.13-1.12.79-.19.94-.34,1.13-1.13C158.52,163.87,158.67,164,159.46,164.2Z"/><rect class="cls-15" x="139.83" y="193.12" width="24.84" height="6.27"/><rect class="cls-16" x="139.83" y="193.78" width="24.84" height="5.61"/><rect class="cls-15" x="162.14" y="194.69" width="0.78" height="3.8"/><rect class="cls-15" x="159.83" y="194.69" width="0.78" height="3.8"/><rect class="cls-15" x="157.52" y="194.69" width="0.78" height="3.8"/><rect class="cls-15" x="155.21" y="194.69" width="0.78" height="3.8"/><rect class="cls-15" x="152.9" y="194.69" width="0.78" height="3.8"/><rect class="cls-15" x="150.58" y="194.69" width="0.78" height="3.8"/><rect class="cls-15" x="148.27" y="194.69" width="0.78" height="3.8"/><rect class="cls-15" x="145.96" y="194.69" width="0.78" height="3.8"/><rect class="cls-15" x="143.65" y="194.69" width="0.78" height="3.8"/><rect class="cls-15" x="141.34" y="194.69" width="0.78" height="3.8"/><rect class="cls-15" x="140.86" y="186.85" width="24.84" height="6.27"/><rect class="cls-16" x="140.86" y="187.51" width="24.84" height="5.61"/><rect class="cls-15" x="163.17" y="188.42" width="0.78" height="3.8"/><rect class="cls-15" x="160.86" y="188.42" width="0.78" height="3.8"/><rect class="cls-15" x="158.55" y="188.42" width="0.78" height="3.8"/><rect class="cls-15" x="156.24" y="188.42" width="0.78" height="3.8"/><rect class="cls-15" x="153.93" y="188.42" width="0.78" height="3.8"/><rect class="cls-15" x="151.62" y="188.42" width="0.78" height="3.8"/><rect class="cls-15" x="149.31" y="188.42" width="0.78" height="3.8"/><rect class="cls-15" x="146.99" y="188.42" width="0.78" height="3.8"/><rect class="cls-15" x="144.68" y="188.42" width="0.78" height="3.8"/><rect class="cls-15" x="142.37" y="188.42" width="0.78" height="3.8"/><rect class="cls-15" x="138.16" y="180.7" width="24.84" height="6.27"/><rect class="cls-16" x="138.16" y="181.36" width="24.84" height="5.61"/><rect class="cls-15" x="160.47" y="182.27" width="0.78" height="3.8"/><rect class="cls-15" x="158.16" y="182.27" width="0.78" height="3.8"/><rect class="cls-15" x="155.85" y="182.27" width="0.78" height="3.8"/><rect class="cls-15" x="153.54" y="182.27" width="0.78" height="3.8"/><rect class="cls-15" x="151.23" y="182.27" width="0.78" height="3.8"/><rect class="cls-15" x="148.92" y="182.27" width="0.78" height="3.8"/><rect class="cls-15" x="146.61" y="182.27" width="0.78" height="3.8"/><rect class="cls-15" x="144.29" y="182.27" width="0.78" height="3.8"/><rect class="cls-15" x="141.98" y="182.27" width="0.78" height="3.8"/><rect class="cls-15" x="139.67" y="182.27" width="0.78" height="3.8"/><rect class="cls-15" x="109.55" y="193.7" width="23.76" height="6"/><rect class="cls-16" x="109.55" y="194.34" width="23.76" height="5.37"/><rect class="cls-15" x="130.89" y="195.2" width="0.74" height="3.63"/><rect class="cls-15" x="128.68" y="195.2" width="0.74" height="3.63"/><rect class="cls-15" x="126.47" y="195.2" width="0.74" height="3.63"/><rect class="cls-15" x="124.26" y="195.2" width="0.74" height="3.63"/><rect class="cls-15" x="122.05" y="195.2" width="0.74" height="3.63"/><rect class="cls-15" x="119.84" y="195.2" width="0.74" height="3.63"/><rect class="cls-15" x="117.63" y="195.2" width="0.74" height="3.63"/><rect class="cls-15" x="115.42" y="195.2" width="0.74" height="3.63"/><rect class="cls-15" x="113.21" y="195.2" width="0.74" height="3.63"/><rect class="cls-15" x="111" y="195.2" width="0.74" height="3.63"/><rect class="cls-15" x="110.54" y="187.7" width="23.76" height="6"/><rect class="cls-16" x="110.54" y="188.34" width="23.76" height="5.37"/><rect class="cls-15" x="131.88" y="189.2" width="0.74" height="3.63"/><rect class="cls-15" x="129.67" y="189.2" width="0.74" height="3.63"/><rect class="cls-15" x="127.46" y="189.2" width="0.74" height="3.63"/><rect class="cls-15" x="125.25" y="189.2" width="0.74" height="3.63"/><rect class="cls-15" x="123.04" y="189.2" width="0.74" height="3.63"/><rect class="cls-15" x="120.83" y="189.2" width="0.74" height="3.63"/><rect class="cls-15" x="118.61" y="189.2" width="0.74" height="3.63"/><rect class="cls-15" x="116.4" y="189.2" width="0.74" height="3.63"/><rect class="cls-15" x="114.19" y="189.2" width="0.74" height="3.63"/><rect class="cls-15" x="111.98" y="189.2" width="0.74" height="3.63"/><ellipse class="cls-7" cx="45.06" cy="198.03" rx="26.35" ry="4.19"/><ellipse class="cls-7" cx="258.03" cy="198.03" rx="19.67" ry="4.19"/><ellipse class="cls-7" cx="215.27" cy="199.57" rx="23.93" ry="2.65"/><path class="cls-14" d="M209.26,36.85c-.09,4-7.61,4-7.61,4H141.74c-4.69-1-3.23-4.44-.3-5.26,1.33-.38,3.58-1.06,3.38-2-.73-3.45-2.43-5.93,1.94-10,1.38-1.28,5.49-2.44,9.42-.38,3.24,1.7,5.32-4.85,12.34-8.09,5.28-2.43,12.49-1.09,14.39,7S189.29,24.92,190,24c2.19-2.66,8.7-1.24,9.71,2.5,1.91,7,3.92,5.92,5.61,6.35S209.3,34.75,209.26,36.85Z"/><rect class="cls-8" x="183.15" y="31.11" width="2.78" height="5.17"/><rect class="cls-8" x="176.97" y="29.11" width="2.78" height="7.16"/><rect class="cls-8" x="170.78" y="25.94" width="2.78" height="10.33"/><rect class="cls-8" x="164.6" y="28.03" width="2.78" height="8.24"/><rect class="cls-8" x="158.42" y="32.43" width="2.78" height="3.84"/><path class="cls-8" d="M48,94.8s-13.74.7-15.3,6.11c-.8,2.79,9.49,18.29,9.49,18.29s13.13-1.41,14.45-1.14,2.64-13.39,2.73-15.6a10.21,10.21,0,0,0-.32-2.54,5,5,0,0,0-3.82-3.67Z"/><path class="cls-17" d="M56,96.46s6.85.72,6,7a134.3,134.3,0,0,1-2.6,13.2s-5.11-4.9-5.29-6.26S56,96.46,56,96.46Z"/><path class="cls-18" d="M56.94,198.48c.61.23,8.45.09,11.71,0a.75.75,0,0,0,.5-1.29,7.61,7.61,0,0,0-4.7-1.91,2.64,2.64,0,0,1-2.11-1c-.54-.8-.69-3.76-.59-5.36,0-.35-4.87,0-4.89.73a28,28,0,0,1-.06,4.56c0,.16-.09.32-.14.48C56.05,196.61,56.17,198.18,56.94,198.48Z"/><path class="cls-9" d="M56.94,198.48c.66.25,9.8.07,12.43,0,.33,0,.46-.36.31-.66-.52-1.05-2-2.71-5.15-3a3.49,3.49,0,0,1-2.46-1.09c-1.1.06-2,.55-2,1.56,0,.59-1.86.75-3.31-1.07,0,.16-.09.32-.14.48C56.05,196.61,56.17,198.18,56.94,198.48Z"/><path class="cls-18" d="M15.71,189.79c.36.54,6.76,5.06,9.44,6.94a.75.75,0,0,0,1.16-.75,7.58,7.58,0,0,0-2.67-4.32,2.63,2.63,0,0,1-1.1-2.06c0-1,1.66-3.45,2.7-4.68.22-.26-4-2.84-4.39-2.3a28.18,28.18,0,0,1-2.74,3.64c-.13.11-.26.22-.39.31C16.09,187.75,15.27,189.09,15.71,189.79Z"/><path class="cls-9" d="M15.71,189.79c.39.59,7.87,5.84,10,7.34.28.2.59,0,.65-.34.2-1.16,0-3.38-2.38-5.47A3.52,3.52,0,0,1,22.66,189c-.93-.6-1.93-.72-2.5.1-.34.49-1.95-.48-2.05-2.82-.13.11-.26.22-.39.31C16.09,187.75,15.27,189.09,15.71,189.79Z"/><path class="cls-19" d="M40.27,82.93c.56,4.3,6,7.52,6,7.52a31.07,31.07,0,0,1,2-6c1-2.22,2.45-4.29,4.3-4.68,4.22-.91,3.17-4.72,1.63-5.39a15.14,15.14,0,0,0-9.69.25C41.86,75.76,42,78.88,42,78.88S39.71,78.63,40.27,82.93Z"/><path class="cls-18" d="M45.09,95.32s2.42,2.09,4.51,2a3.13,3.13,0,0,0,2.78-1.27l-.12-2.75-.11-2.54L45.64,87l0,0v1.46c0,.9,0,2,0,2.51C45.5,92,45.09,95.32,45.09,95.32Z"/><path class="cls-20" d="M45.55,88.16a2.68,2.68,0,0,0,.07.27c1,3.73,4.45,4.77,6.64,4.91l-.11-2.54L45.64,87l0,0A1.67,1.67,0,0,0,45.55,88.16Z"/><path class="cls-18" d="M43.65,86.11c.13,1.08,2,2.15,2,2.15,1.41,2.1,4.64,5,7.26,2.88,2.18-1.79,1.15-8.62.74-10.88-.08-.46-.14-.73-.14-.73a13.88,13.88,0,0,1-3.93.64c-2,0-3.48.55-3.38,2.76,0,0,0,0,0,0a.86.86,0,0,0,0,.16c.17,2.35.23,2.58-.09,2.61s-.67-.5-.79-.65C44.76,84.41,43.52,85,43.65,86.11Z"/><path class="cls-21" d="M46.17,82.93a2.64,2.64,0,0,1,2.3-2.26c1.53-.17,2.75.13,5.15-.41-.08-.46-.14-.73-.14-.73a13.88,13.88,0,0,1-3.93.64C47.57,80.17,46.07,80.72,46.17,82.93Z"/><path class="cls-9" d="M37.43,142.6s-1.4,16.91-2,19.39-15.82,22.34-15.82,22.34l3.72,2.95s20.17-18.77,22.19-22.34,7.29-28.23,7.29-28.23Z"/><path class="cls-9" d="M48.29,144.77s8.07,14.74,9,18-.78,28.54-.78,28.54h5.28s5.12-21.56,5.27-29.32-6.52-29.16-6.52-29.16l-12.25,5.6Z"/><path class="cls-22" d="M28.2,151.28,15.5,115.73a1.09,1.09,0,0,1,.76-1.33L60.5,98.33a1.09,1.09,0,0,1,1.42.54l12.69,35.55a1.08,1.08,0,0,1-.75,1.33L29.62,151.82A1.07,1.07,0,0,1,28.2,151.28Z"/><g class="cls-23"><path class="cls-5" d="M17.28,115.36l43-15.62a.31.31,0,0,1,.41.15L73,134.41a.3.3,0,0,1-.21.38l-43,15.62a.31.31,0,0,1-.41-.15L17.07,115.74A.32.32,0,0,1,17.28,115.36Z"/></g><path class="cls-22" d="M61.9,135.91l-10.72-30a.36.36,0,0,1,.21-.45l5.36-2a.36.36,0,0,1,.45.21l10.72,30a.36.36,0,0,1-.21.45l-5.36,1.94A.35.35,0,0,1,61.9,135.91Z"/><path class="cls-16" d="M49.71,139.61l-1.08-3a1.06,1.06,0,0,1,.63-1.36l3-1.09a1.05,1.05,0,0,1,1.35.64l1.08,3a1.06,1.06,0,0,1-.63,1.36l-3,1.1A1.05,1.05,0,0,1,49.71,139.61Z"/><path class="cls-16" d="M43.71,141.78l-1.08-3a1.07,1.07,0,0,1,.64-1.36l3-1.09a1,1,0,0,1,1.35.64l1.09,3a1.07,1.07,0,0,1-.64,1.36l-3,1.09A1,1,0,0,1,43.71,141.78Z"/><path class="cls-24" d="M31.6,146.18l-1.09-3a1.07,1.07,0,0,1,.64-1.36l9-3.28a1.05,1.05,0,0,1,1.35.64l1.09,3a1.07,1.07,0,0,1-.64,1.36l-9,3.27A1,1,0,0,1,31.6,146.18Z"/><path class="cls-22" d="M57,137.35l-1.29-3.62a.66.66,0,0,1,.4-.86h0a.66.66,0,0,1,.85.4l1.29,3.63a.67.67,0,0,1-.4.86h0A.67.67,0,0,1,57,137.35Z"/><path class="cls-22" d="M54.7,130.9l-1.3-3.62a.68.68,0,0,1,.41-.86h0a.67.67,0,0,1,.85.41L56,130.45a.67.67,0,0,1-.4.86h0A.67.67,0,0,1,54.7,130.9Z"/><path class="cls-22" d="M52.4,124.46l-1.3-3.63a.68.68,0,0,1,.4-.86h0a.68.68,0,0,1,.86.41L53.65,124a.68.68,0,0,1-.4.86h0A.65.65,0,0,1,52.4,124.46Z"/><path class="cls-22" d="M50.09,118l-1.29-3.62a.67.67,0,0,1,.4-.86h0a.65.65,0,0,1,.85.4l1.3,3.62a.68.68,0,0,1-.4.86h0A.67.67,0,0,1,50.09,118Z"/><path class="cls-22" d="M47.79,111.56l-1.29-3.62a.67.67,0,0,1,.4-.86h0a.66.66,0,0,1,.85.4l1.3,3.63a.68.68,0,0,1-.41.86h0A.67.67,0,0,1,47.79,111.56Z"/><path class="cls-22" d="M40.49,113.8l-1.08-3a1.07,1.07,0,0,1,.64-1.36l3-1.09a1.05,1.05,0,0,1,1.35.64l1.09,3a1.07,1.07,0,0,1-.64,1.36l-3,1.1A1.06,1.06,0,0,1,40.49,113.8Z"/><path class="cls-22" d="M42.82,120.32l-1.08-3a1.07,1.07,0,0,1,.63-1.36l3-1.09a1.05,1.05,0,0,1,1.35.64l1.09,3a1.08,1.08,0,0,1-.64,1.37l-3,1.09A1.05,1.05,0,0,1,42.82,120.32Z"/><path class="cls-22" d="M45.15,126.84l-1.08-3a1.06,1.06,0,0,1,.63-1.36l3-1.09a1.05,1.05,0,0,1,1.35.64l1.08,3a1.06,1.06,0,0,1-.63,1.36l-3,1.09A1.05,1.05,0,0,1,45.15,126.84Z"/><path class="cls-22" d="M47.48,133.36l-1.08-3A1.06,1.06,0,0,1,47,129l3-1.09a1.05,1.05,0,0,1,1.35.64l1.08,3a1.06,1.06,0,0,1-.63,1.36l-3,1.09A1.05,1.05,0,0,1,47.48,133.36Z"/><path class="cls-22" d="M34.5,116l-1.09-3a1.07,1.07,0,0,1,.64-1.36l3-1.09a1,1,0,0,1,1.35.64l1.08,3a1.07,1.07,0,0,1-.63,1.36l-3,1.09A1,1,0,0,1,34.5,116Z"/><path class="cls-22" d="M36.83,122.5l-1.09-3a1.07,1.07,0,0,1,.64-1.36l3-1.09a1.06,1.06,0,0,1,1.35.64l1.08,3a1.07,1.07,0,0,1-.64,1.36l-3,1.1A1.06,1.06,0,0,1,36.83,122.5Z"/><path class="cls-22" d="M39.16,129l-1.09-3a1.07,1.07,0,0,1,.64-1.36l3-1.09a1,1,0,0,1,1.34.64l1.09,3a1.06,1.06,0,0,1-.64,1.36l-3,1.1A1,1,0,0,1,39.16,129Z"/><path class="cls-22" d="M41.48,135.54l-1.08-3a1.07,1.07,0,0,1,.63-1.36l3-1.09a1.05,1.05,0,0,1,1.35.64l1.09,3a1.07,1.07,0,0,1-.64,1.36l-3,1.1A1.06,1.06,0,0,1,41.48,135.54Z"/><path class="cls-22" d="M28.4,118.19l-1.09-3a1.08,1.08,0,0,1,.64-1.37l3-1.09a1.05,1.05,0,0,1,1.35.64l1.08,3a1.07,1.07,0,0,1-.63,1.36l-3,1.09A1.05,1.05,0,0,1,28.4,118.19Z"/><path class="cls-22" d="M30.78,124.6l-1.09-3a1.07,1.07,0,0,1,.64-1.36l3-1.1a1.05,1.05,0,0,1,1.35.64l1.08,3a1.07,1.07,0,0,1-.63,1.36l-3,1.09A1.05,1.05,0,0,1,30.78,124.6Z"/><path class="cls-22" d="M33.11,131.12l-1.09-3a1.06,1.06,0,0,1,.64-1.36l3-1.1a1.06,1.06,0,0,1,1.35.64l1.08,3a1.07,1.07,0,0,1-.64,1.36l-3,1.09A1.05,1.05,0,0,1,33.11,131.12Z"/><path class="cls-22" d="M35.43,137.64l-1.08-3a1.07,1.07,0,0,1,.64-1.36l3-1.1a1.06,1.06,0,0,1,1.35.64l1.09,3a1.07,1.07,0,0,1-.64,1.36l-3,1.09A1.06,1.06,0,0,1,35.43,137.64Z"/><path class="cls-22" d="M22.38,120.38l-1.08-3a1.06,1.06,0,0,1,.63-1.36l3-1.09a1,1,0,0,1,1.35.64l1.08,3a1.06,1.06,0,0,1-.63,1.36l-3,1.1A1.06,1.06,0,0,1,22.38,120.38Z"/><path class="cls-22" d="M24.71,126.9l-1.08-3a1.06,1.06,0,0,1,.63-1.36l3-1.09a1.05,1.05,0,0,1,1.35.64l1.08,3a1.06,1.06,0,0,1-.63,1.36l-3,1.1A1.06,1.06,0,0,1,24.71,126.9Z"/><path class="cls-22" d="M27,133.42l-1.09-3a1.07,1.07,0,0,1,.64-1.36l3-1.09a1.05,1.05,0,0,1,1.35.64l1.08,3A1.06,1.06,0,0,1,31.4,133l-3,1.1A1.05,1.05,0,0,1,27,133.42Z"/><path class="cls-22" d="M29.37,139.94l-1.09-3a1.07,1.07,0,0,1,.64-1.36l3-1.09a1.06,1.06,0,0,1,1.35.64l1.08,3a1.06,1.06,0,0,1-.64,1.36l-3,1.1A1.05,1.05,0,0,1,29.37,139.94Z"/><path class="cls-5" d="M52.67,136.93l-.83.3.29.79a.14.14,0,0,1-.08.17h0a.14.14,0,0,1-.17-.08l-.28-.79-.83.3a.14.14,0,0,1-.17-.08v0a.12.12,0,0,1,.08-.16l.83-.3-.29-.8a.13.13,0,0,1,.08-.16h0a.13.13,0,0,1,.17.07l.28.8.82-.3a.13.13,0,0,1,.17.08h0A.13.13,0,0,1,52.67,136.93Z"/><path class="cls-5" d="M46,140.37h0a.14.14,0,0,1-.18-.08l-.65-1.83a.14.14,0,0,1,.08-.18h0a.13.13,0,0,1,.18.09l.65,1.82A.13.13,0,0,1,46,140.37Z"/><path class="cls-5" d="M37.33,143.53h0a.13.13,0,0,1-.17-.08l-.66-1.83a.16.16,0,0,1,.09-.18h0a.14.14,0,0,1,.18.08l.65,1.83A.15.15,0,0,1,37.33,143.53Z"/><path class="cls-5" d="M36.51,143.83h0a.14.14,0,0,1-.18-.08l-.65-1.83a.14.14,0,0,1,.08-.18h0a.14.14,0,0,1,.18.08l.65,1.83A.14.14,0,0,1,36.51,143.83Z"/><path class="cls-17" d="M32.73,100.91c1.69-3.78,6.62-4.57,7.61,6.08,1,10.4.39,14.84,2.33,18.09,1.76,3,8.82,16.22,8.82,16.22l-3.9,1.52s-10.66-11.7-13.3-17.25S31.25,104.22,32.73,100.91Z"/><path class="cls-18" d="M47.81,142.73l3.47-1.35s2.28.63,2.76,1.73S50.31,146.46,47.81,142.73Z"/><path class="cls-18" d="M70.72,136.89a2.86,2.86,0,0,0-2.78-.33c-1.69.62-.79,1.93,0,1.89S70.92,137,70.72,136.89Z"/><polygon class="cls-5" points="44.32 95.19 45.29 93.69 50.5 96.46 52.26 94.8 53.62 95.92 51.85 98.85 50.46 97.24 49.35 99.09 44.32 95.19"/><path class="cls-25" d="M113.64,64.93A22.34,22.34,0,0,1,125,70.47c4.48,4.14,7.28,7,7,8.22s-.6,2.47-7.55,2.34a56.71,56.71,0,0,1-9-.6l.27-3.28s6.94-.87,7.41-.87-5.54-1.93-7.21-2.8S113.64,64.93,113.64,64.93Z"/><path class="cls-18" d="M115.52,80.43h-4.66s-.65-.05-.7-.45,2.4-1.35,3.17-1.37,2.39.07,2.39.07Z"/><path class="cls-18" d="M119.78,55.51a14.35,14.35,0,0,1-4,5.71,3.23,3.23,0,0,1-5-1.14,18.35,18.35,0,0,1-.67-3.47s-.64-1.77,0-2.67,1.84-.6,1.8.47,1.31.16,1.94-.74,1.57-.67,2.81.3A11.13,11.13,0,0,0,119.78,55.51Z"/><path class="cls-18" d="M114.27,61.15l-1.5,3.45a2.34,2.34,0,0,1-2.34,1.4c-1.87,0-3.72-1.14-3.85-2.54l3.6-6.38Z"/><polygon class="cls-26" points="251.18 99.71 252.31 103.8 252.82 103.8 251.8 99.59 251.18 99.71"/><path class="cls-17" d="M259.81,95.89s-7.67,2.5-7.5,14,5.92,7.87,5.92,7.87Z"/><path class="cls-9" d="M254.17,79.94c-1.57,2.27-.27,5.08,2.38,5,2.25-.11,7.74,1.34,7.92,3.72s4,9.39,8.43,11.24,6.35-3.57,4.56-5.88,2.73-5.5-3.24-8c-5.73-2.43-4.85-8.52-9.64-9.14s-4.42,1.48-6.8,1.48S254.76,79.08,254.17,79.94Z"/><path class="cls-27" d="M249.88,185.74v10.93H248v-3s-1.4,2.85-2.28,3c-.56.09-2.78.06-4.6,0a.45.45,0,0,1-.22-.85c1.66-.95,4.09-1.9,4.62-4.69a54.07,54.07,0,0,0,.68-5.57Z"/><path class="cls-27" d="M271.55,185.47l1.06,10.73a.46.46,0,0,1-.46.51H267a.46.46,0,0,1-.45-.52c.08-.63,1.18-1.8,1.48-3,.66-2.63.26-8.1.26-8.1Z"/><path class="cls-9" d="M272,120.12s3.61,5.52,2.45,20.67-1.11,15.92-1.11,15.92l-.94,29.79s-2.7.64-4.24,0l-5.26-47.65s-6.55,15.68-8,19.14,0,12.64-4.75,28.8a9.86,9.86,0,0,1-4.62,0s-.26-28.47,1-33.19,8.93-29.29,10.24-32.09S272,120.12,272,120.12Z"/><path class="cls-8" d="M272.4,121.06a8.72,8.72,0,0,1-1.87,1.58,15.37,15.37,0,0,1-8.19,1.92,8.83,8.83,0,0,1-5.62-2.13s1-8.31,1.12-10.53-2.48-5.12-2.22-6.85a22.31,22.31,0,0,1,4.19-9.16c6.94-2.48,14.28.45,14.28.45A8.16,8.16,0,0,0,272,101a79.28,79.28,0,0,1-1.39,10.18C269.57,115,272.4,121.06,272.4,121.06Z"/><path class="cls-28" d="M272.4,121.06a8.72,8.72,0,0,1-1.87,1.58l-2.07.44s-6.42-10.33-2.74-12.21,5.43-6.07,6.16-9.84H272a79.28,79.28,0,0,1-1.39,10.18C269.57,115,272.4,121.06,272.4,121.06Z"/><polygon class="cls-9" points="264.58 114.56 254.82 114.56 247.53 101.92 257.29 101.92 264.58 114.56"/><path class="cls-18" d="M255.52,108.7l-2.38-1.48c-.62-.37-1.46-.89-1.52-.51s1,1,.89,1.15-1.73-.58-2.79-1.65-1.08,2.21,1.23,3.19a15.29,15.29,0,0,0,4.65,1.09Z"/><path class="cls-17" d="M274.09,96.34c-5-.79-4.95,17.9-6.62,17.8-.79,0-11.87-6.3-11.87-6.3l-1.73,2.72a36.65,36.65,0,0,0,7.61,6.27c3.4,2,7.56,3,9.3,2C274.16,116.86,277.36,96.85,274.09,96.34Z"/><path class="cls-18" d="M268.13,94.73c-1.13,2.62-5.67,3.25-5.93,1a33.33,33.33,0,0,1-.07-4c0-1.37.12-2.47.12-2.47s4.05-4.56,4.14-2.5A62.36,62.36,0,0,0,268.13,94.73Z"/><path class="cls-18" d="M256.55,84.89s2.27,8.25,6.2,8,3.54-5.41,3.64-6.15,1.68-1.81,1.15-2.91a.94.94,0,0,0-1.74-.14c-.3.49-.93,1.25-1.51-.59s-2.81.54-4.35,1.06A20.42,20.42,0,0,1,256.55,84.89Z"/><path class="cls-26" d="M251.84,99.71a.32.32,0,0,1-.33.33.33.33,0,0,1-.33-.33.33.33,0,0,1,.33-.33A.33.33,0,0,1,251.84,99.71Z"/><path class="cls-29" d="M262.1,92.83s2.57.21,3.27-1.44,1.27,2.68-3.27,2.68Z"/><path class="cls-30" d="M139,122a17,17,0,1,1,22.35-9A17,17,0,0,1,139,122Z"/><g class="cls-31"><path class="cls-5" d="M136.36,96.08a1,1,0,0,1,.28-.37,14,14,0,0,1,11-3.2,1,1,0,0,1-.28,2A12,12,0,0,0,138,97.26a1,1,0,0,1-1.44-.12A1,1,0,0,1,136.36,96.08Z"/></g><g class="cls-31"><path class="cls-5" d="M149.84,94a1,1,0,0,1,1.33-.54,14,14,0,0,1,7.39,18.35,1,1,0,1,1-1.88-.8,12,12,0,0,0-6.31-15.67A1,1,0,0,1,149.84,94Z"/></g><rect class="cls-26" x="114.22" y="77.64" width="2.18" height="31.57" transform="translate(246.45 23.95) rotate(113.07)"/><path class="cls-26" d="M128.48,99a18.33,18.33,0,1,1,9.68,24A18.36,18.36,0,0,1,128.48,99Zm31.85,13.56A16.29,16.29,0,1,0,139,121.21,16.3,16.3,0,0,0,160.33,112.6Z"/><rect class="cls-32" x="104.17" y="76.45" width="5.13" height="26.65" rx="0.29" ry="0.29" transform="translate(-17.68 152.79) rotate(-66.93)"/><path class="cls-18" d="M99.54,84.35a5.54,5.54,0,0,1,.5,2.42,4.87,4.87,0,0,0,0,2.41c.28.7-1.8.23-2.3-.27s-.57-2.29-.57-2.29Z"/><path class="cls-25" d="M101.68,64.45c.86,1.28-1.47,4.37-4.87,7s-7.37,5.08-7.3,5.68,10,7.25,10,7.25L97.2,86.62s-15-4-14.15-9.85C83.67,72.62,98.27,59.37,101.68,64.45Z"/><polygon class="cls-5" points="113.83 64.93 112.97 64.14 110.22 65.79 107.24 62.3 105.36 63.37 107.69 67.69 110.17 66.54 111.4 68.04 113.83 64.93"/><rect class="cls-33" x="167.24" y="59" width="69.88" height="101.05" rx="14.37" ry="14.37"/><polygon class="cls-34" points="53.52 112.44 58.48 107.28 59.4 109.86 54.47 115.1 53.52 112.44"/><polygon class="cls-34" points="60.05 130.46 65.01 125.3 65.93 127.88 61 133.12 60.05 130.46"/><polygon class="cls-34" points="60.96 114.24 62.99 119.93 58.29 125.81 56.2 119.93 60.96 114.24"/><path class="cls-5" d="M219.52,82.35A18.85,18.85,0,0,0,203.59,71c-.46,0-.93,0-1.4,0a18.84,18.84,0,1,0,17.33,11.43ZM207.44,99.61a11,11,0,0,1-5.25,1.32A11.15,11.15,0,0,1,191,89.77a11.16,11.16,0,0,1,11.16-11.16c.28,0,.55,0,.83,0a11.16,11.16,0,0,1,4.42,21Z"/><path class="cls-16" d="M219.52,82.35l-7.08,3A11.17,11.17,0,0,0,203,78.64l.57-7.67A18.85,18.85,0,0,1,219.52,82.35Z"/><path class="cls-14" d="M220.08,95.72a18.91,18.91,0,0,1-9,10.69l-3.63-6.8a11.12,11.12,0,0,0,5.33-6.32Z"/><path class="cls-14" d="M203.59,71,203,78.64c-.28,0-.55,0-.83,0a11.14,11.14,0,0,0-9.51,5.32l-6.57-4a18.83,18.83,0,0,1,16.08-9C202.66,70.92,203.13,70.93,203.59,71Z"/><rect class="cls-35" x="176.02" y="134.66" width="2.81" height="2.81" rx="0.79" ry="0.79"/><rect class="cls-22" x="176.02" y="128.51" width="2.81" height="2.81" rx="0.79" ry="0.79"/><rect class="cls-24" x="176.02" y="122.37" width="2.81" height="2.81" rx="0.79" ry="0.79"/><rect class="cls-5" x="184.16" y="122.37" width="43.92" height="2.81" rx="1.4" ry="1.4"/><rect class="cls-5" x="184.16" y="128.51" width="43.92" height="2.81" rx="1.4" ry="1.4"/><rect class="cls-5" x="184.16" y="134.66" width="43.92" height="2.81" rx="1.4" ry="1.4"/><path class="cls-8" d="M193.41,171.89v27.92h43.86V171.89Zm38.64,2.16h.34v.82h.94v-.82h.34v1.53h-1.62Zm-5.93,0h.34v.82h.94v-.82h.34v1.53h-1.62Zm-5.93,0h.34v.82h.94v-.82h.34v1.53h-1.62Zm-5.93,0h.34v.82h.94v-.82h.34v1.53h-1.62Zm-5.93,0h.34v.82h.93v-.82H210v1.53h-1.62Zm-5.94,0h.35v.82h.93v-.82H204v1.53h-1.63Zm-5.93,0h.35v.82h.93v-.82h.34v1.53h-1.62Z"/><path class="cls-5" d="M193.41,171.89v27.68H236.5V171.89Zm38.64,2.28h.34V175h.94v-.87h.34v1.62h-1.62Zm-5.93,0h.34V175h.94v-.87h.34v1.62h-1.62Zm-5.93,0h.34V175h.94v-.87h.34v1.62h-1.62Zm-5.93,0h.34V175h.94v-.87h.34v1.62h-1.62Zm-5.93,0h.34V175h.93v-.87H210v1.62h-1.62Zm-5.94,0h.35V175h.93v-.87H204v1.62h-1.63Zm-5.93,0h.35V175h.93v-.87h.34v1.62h-1.62Z"/><path class="cls-14" d="M193.41,171.89v6.18H236.5v-6.18Zm4.67,3.9h-1.62v-1.62h.35V175h.93v-.87h.34Zm5.94,0h-1.63v-1.62h.35V175h.93v-.87H204Zm5.93,0h-1.62v-1.62h.34V175h.93v-.87H210Zm5.93,0h-1.62v-1.62h.34V175h.94v-.87h.34Zm5.93,0h-1.62v-1.62h.34V175h.94v-.87h.34Zm5.93,0h-1.62v-1.62h.34V175h.94v-.87h.34Zm5.93,0h-1.62v-1.62h.34V175h.94v-.87h.34Z"/><rect class="cls-14" x="230.67" y="179.8" width="3.03" height="3.03"/><rect class="cls-14" x="224.94" y="179.8" width="3.03" height="3.03"/><rect class="cls-14" x="219.21" y="179.8" width="3.03" height="3.03"/><rect class="cls-14" x="213.48" y="179.8" width="3.03" height="3.03"/><rect class="cls-14" x="207.76" y="179.8" width="3.03" height="3.03"/><rect class="cls-14" x="202.03" y="179.8" width="3.03" height="3.03"/><rect class="cls-14" x="196.3" y="179.8" width="3.03" height="3.03"/><rect class="cls-14" x="230.67" y="184.75" width="3.03" height="3.03"/><rect class="cls-14" x="224.94" y="184.75" width="3.03" height="3.03"/><rect class="cls-14" x="219.21" y="184.75" width="3.03" height="3.03"/><rect class="cls-14" x="213.48" y="184.75" width="3.03" height="3.03"/><rect class="cls-14" x="207.76" y="184.75" width="3.03" height="3.03"/><rect class="cls-14" x="202.03" y="184.75" width="3.03" height="3.03"/><rect class="cls-14" x="196.3" y="184.75" width="3.03" height="3.03"/><rect class="cls-14" x="230.67" y="189.69" width="3.03" height="3.03"/><rect class="cls-14" x="224.94" y="189.69" width="3.03" height="3.03"/><rect class="cls-14" x="219.21" y="189.69" width="3.03" height="3.03"/><rect class="cls-14" x="213.48" y="189.69" width="3.03" height="3.03"/><rect class="cls-14" x="207.76" y="189.69" width="3.03" height="3.03"/><rect class="cls-14" x="202.03" y="189.69" width="3.03" height="3.03"/><rect class="cls-14" x="196.3" y="189.69" width="3.03" height="3.03"/><rect class="cls-14" x="230.67" y="194.63" width="3.03" height="3.03"/><rect class="cls-14" x="224.94" y="194.63" width="3.03" height="3.03"/><rect class="cls-14" x="219.21" y="194.63" width="3.03" height="3.03"/><rect class="cls-14" x="213.48" y="194.63" width="3.03" height="3.03"/><rect class="cls-14" x="207.76" y="194.63" width="3.03" height="3.03"/><rect class="cls-14" x="202.03" y="194.63" width="3.03" height="3.03"/><rect class="cls-14" x="196.3" y="194.63" width="3.03" height="3.03"/><rect class="cls-5" x="232.39" y="174.17" width="0.94" height="0.87"/><path class="cls-9" d="M233.33,169.21v5.36a.47.47,0,0,1-.47.47h0a.47.47,0,0,1-.47-.47v-5.36a.47.47,0,0,1,.47-.47h0A.47.47,0,0,1,233.33,169.21Z"/><rect class="cls-5" x="196.81" y="174.17" width="0.94" height="0.87"/><path class="cls-9" d="M197.74,169.21v5.36a.47.47,0,0,1-.47.47h0a.47.47,0,0,1-.46-.47v-5.36a.47.47,0,0,1,.46-.47h0A.47.47,0,0,1,197.74,169.21Z"/><rect class="cls-8" x="200.87" y="173.19" width="27.93" height="3.51"/></g></g></svg>