<svg xmlns="http://www.w3.org/2000/svg" xmlns:xlink="http://www.w3.org/1999/xlink" viewBox="0 0 300.85 216.28"><defs><style>.cls-1{isolation:isolate;}.cls-2{fill:#fff;opacity:0.7;}.cls-3{fill:#babfc3;}.cls-4{mix-blend-mode:screen;fill:url(#linear-gradient);}.cls-5{fill:#919398;}.cls-12,.cls-6{fill:#7f8988;}.cls-7{fill:#dbdfe1;}.cls-13,.cls-16,.cls-7{mix-blend-mode:multiply;}.cls-14,.cls-8{fill:#2d3f50;}.cls-15,.cls-9{fill:#f3f2f1;}.cls-10{fill:#1a233a;}.cls-11{fill:#f29120;}.cls-12,.cls-13,.cls-14,.cls-15{fill-rule:evenodd;}.cls-13,.cls-16{fill:#afafae;}.cls-17{fill:#91a1a2;}</style><linearGradient id="linear-gradient" x1="143.89" y1="173.5" x2="143.89" y2="172.99" gradientUnits="userSpaceOnUse"><stop offset="0" stop-color="#121212"/><stop offset="0.09" stop-color="#010101"/><stop offset="0.63" stop-color="#efeff0"/><stop offset="0.88" stop-color="#010101"/></linearGradient></defs><title>Untitled-2</title><g class="cls-1"><g id="Layer_1" data-name="Layer 1"><path class="cls-2" d="M284.2,163.6c-8.17,13.4-18.29,25.54-27.88,33.19C216.69,228.4,174,213.62,154.36,207,111,192.3,46.79,218,14.08,205.18c-19.89-7.78-17.77-28.66.48-60.36,7.89-13.71,18.79-29.43,32.23-47C85.9,46.73,152.37.08,179.94,0c55.92-.16,50.57,95.31,80.22,90.92C313.89,83,306,127.77,284.2,163.6Z"/><path class="cls-3" d="M168.57,169.25c-1.28-.28-4-.63-5.6-.93a1.3,1.3,0,0,1-1.2-1.19c-.63-2.72-1.82-12-1.82-12H127.83s-1.18,9.24-1.82,12a1.28,1.28,0,0,1-1.2,1.19c-1.63.3-4.31.65-5.6.93-.39.08-.48.37-.34.6a.58.58,0,0,0,.37.26c.42.11,13.27.17,25.75.16,11.75,0,23.16-.05,23.55-.16a.63.63,0,0,0,.37-.24C169.06,169.64,169,169.33,168.57,169.25Z"/><path class="cls-4" d="M168.91,173a.61.61,0,0,1-.37.29c-.39.13-11.8.2-23.55.2-12.48,0-25.33-.06-25.75-.2a.58.58,0,0,1-.37-.31Z"/><path class="cls-5" d="M118.87,173c0-.15.19.26.37.31.42.14,13.27.21,25.75.2,11.75,0,23.16-.07,23.55-.2a.61.61,0,0,0,.37-.29s0,.85-1.24.83H120A1.28,1.28,0,0,1,118.87,173Z"/><rect class="cls-6" x="118.16" y="169.27" width="50.97" height="5.14"/><polygon class="cls-7" points="160.46 158.68 127.37 158.68 127.95 154.3 159.8 154.3 160.46 158.68"/><rect class="cls-3" x="61.84" y="41.87" width="164.12" height="113.3" rx="3.94" ry="3.94"/><path class="cls-8" d="M222,41.87H65.78a4,4,0,0,0-3.94,3.94v93.84H226V45.81A4,4,0,0,0,222,41.87Z"/><rect class="cls-9" x="68.58" y="48.27" width="150.65" height="84.97"/><rect class="cls-10" x="83.13" y="70.24" width="121.3" height="32.8"/><rect class="cls-10" x="83.87" y="58.9" width="42.14" height="5.49"/><rect class="cls-11" x="132.3" y="58.9" width="72.02" height="5.49"/><rect class="cls-10" x="83.52" y="107.53" width="37.79" height="6.49"/><rect class="cls-10" x="83.52" y="115.84" width="37.79" height="0.86"/><rect class="cls-10" x="83.52" y="117.7" width="37.79" height="0.86"/><rect class="cls-10" x="83.52" y="119.57" width="37.79" height="0.86"/><rect class="cls-10" x="83.52" y="121.44" width="37.79" height="0.86"/><rect class="cls-10" x="83.52" y="123.31" width="37.79" height="0.86"/><rect class="cls-10" x="83.52" y="125.17" width="26.93" height="0.86"/><rect class="cls-10" x="125.16" y="117.7" width="37.79" height="0.86"/><rect class="cls-10" x="125.16" y="119.57" width="37.79" height="0.86"/><rect class="cls-10" x="125.16" y="115.89" width="37.79" height="0.86"/><rect class="cls-10" x="125.16" y="121.44" width="37.79" height="0.86"/><rect class="cls-10" x="125.16" y="123.31" width="37.79" height="0.86"/><rect class="cls-10" x="125.16" y="125.17" width="14.31" height="0.86"/><rect class="cls-10" x="125.05" y="107.53" width="37.79" height="6.49"/><rect class="cls-10" x="166.8" y="117.7" width="37.79" height="0.86"/><rect class="cls-10" x="166.8" y="119.57" width="37.79" height="0.86"/><rect class="cls-10" x="166.8" y="115.85" width="37.79" height="0.86"/><rect class="cls-10" x="166.8" y="121.44" width="37.79" height="0.86"/><rect class="cls-10" x="166.8" y="123.31" width="37.79" height="0.86"/><rect class="cls-10" x="166.8" y="125.17" width="37.87" height="0.86"/><rect class="cls-10" x="166.58" y="107.53" width="37.79" height="6.49"/><circle class="cls-6" cx="144.57" cy="146.1" r="4.15" transform="translate(-44.65 65.84) rotate(-22.32)"/><path class="cls-6" d="M46.76,133.36a3.94,3.94,0,0,1-3.86-4V87.84a4,4,0,0,1,3.86-4h58.55a4,4,0,0,1,3.87,4v41.5a4,4,0,0,1-3.87,4Z"/><path class="cls-8" d="M105.31,84.7H46.76a3.09,3.09,0,0,0-3,3.14v41.5a3.09,3.09,0,0,0,3,3.14h58.55a3.08,3.08,0,0,0,3-3.14V87.84A3.08,3.08,0,0,0,105.31,84.7Z"/><path class="cls-6" d="M47.19,109.2a.59.59,0,0,1-.58-.61.59.59,0,1,1,.58.61Z"/><rect class="cls-9" x="49.8" y="88.21" width="52.47" height="40.76"/><path class="cls-6" d="M105.13,110.36a1.77,1.77,0,1,1,1.71-1.77A1.73,1.73,0,0,1,105.13,110.36Z"/><rect class="cls-10" x="42.85" y="97.57" width="58.12" height="17.44"/><rect class="cls-10" x="43.21" y="91.55" width="20.19" height="2.92"/><rect class="cls-11" x="66.41" y="91.55" width="34.51" height="2.92"/><rect class="cls-10" x="43.04" y="117.4" width="18.11" height="3.45"/><rect class="cls-10" x="43.04" y="121.81" width="18.11" height="0.46"/><rect class="cls-10" x="43.04" y="122.8" width="18.11" height="0.46"/><rect class="cls-10" x="43.04" y="123.8" width="18.11" height="0.46"/><rect class="cls-10" x="43.04" y="124.79" width="18.11" height="0.46"/><rect class="cls-10" x="43.04" y="125.78" width="18.11" height="0.46"/><rect class="cls-10" x="43.04" y="126.77" width="12.9" height="0.46"/><rect class="cls-10" x="62.99" y="122.8" width="18.11" height="0.46"/><rect class="cls-10" x="62.99" y="123.8" width="18.11" height="0.46"/><rect class="cls-10" x="62.99" y="121.84" width="18.11" height="0.46"/><rect class="cls-10" x="62.99" y="124.79" width="18.11" height="0.46"/><rect class="cls-10" x="62.99" y="125.78" width="18.11" height="0.46"/><rect class="cls-10" x="62.99" y="126.77" width="6.86" height="0.46"/><rect class="cls-10" x="62.94" y="117.4" width="18.11" height="3.45"/><rect class="cls-10" x="82.95" y="122.8" width="18.11" height="0.46"/><rect class="cls-10" x="82.95" y="123.8" width="18.11" height="0.46"/><rect class="cls-10" x="82.95" y="121.82" width="18.11" height="0.46"/><rect class="cls-10" x="82.95" y="124.79" width="18.11" height="0.46"/><rect class="cls-10" x="82.95" y="125.78" width="18.11" height="0.46"/><rect class="cls-10" x="82.95" y="126.77" width="18.14" height="0.46"/><rect class="cls-10" x="82.84" y="117.4" width="18.11" height="3.45"/><path class="cls-12" d="M23.6,85.63h-.12a.2.2,0,0,0-.22.18v2.5a.2.2,0,0,0,.22.18h.12a.2.2,0,0,0,.22-.18v-2.5A.2.2,0,0,0,23.6,85.63Z"/><path class="cls-12" d="M48.29,76.64H43.76a.2.2,0,0,0-.18.22V77a.19.19,0,0,0,.18.21h4.53a.19.19,0,0,0,.17-.21v-.12A.2.2,0,0,0,48.29,76.64Z"/><path class="cls-12" d="M23.6,91.59h-.12a.2.2,0,0,0-.22.18v1.82a.2.2,0,0,0,.22.18h.12a.2.2,0,0,0,.22-.18V91.77A.2.2,0,0,0,23.6,91.59Z"/><path class="cls-12" d="M23.6,96.77h-.12a.2.2,0,0,0-.22.17v1.83a.2.2,0,0,0,.22.18h.12a.2.2,0,0,0,.22-.18V96.94A.2.2,0,0,0,23.6,96.77Z"/><g id="body"><path class="cls-13" d="M24.93,134.64S48.45,86.83,49.69,87a18.5,18.5,0,0,0,5-.11v47.77a10.15,10.15,0,0,1-.51,2.95s-2.76-.23-4.26-.23C49.91,137.37,24.93,136.14,24.93,134.64Z"/><path class="cls-12" d="M28.56,139.64a4.66,4.66,0,0,1-5-5V81.9a4.67,4.67,0,0,1,5-5H48.31a4.67,4.67,0,0,1,5,5v52.75a4.67,4.67,0,0,1-5,5Z"/><path class="cls-14" d="M24.19,81.9v52.74A4,4,0,0,0,28.56,139H48.31a4.06,4.06,0,0,0,4.38-4.37V81.91a4.06,4.06,0,0,0-4.38-4.38H28.56A4,4,0,0,0,24.19,81.9Z"/><circle class="cls-6" cx="38.49" cy="135.09" r="2.76" transform="translate(-29.9 12.4) rotate(-13.23)"/><polygon class="cls-15" points="25.38 85.54 25.38 131.01 51.49 131.01 51.49 85.54 25.38 85.54 25.38 85.54"/></g><path class="cls-6" d="M39,80.68a.54.54,0,1,1-.53-.53A.54.54,0,0,1,39,80.68Z"/><path class="cls-12" d="M41.18,82.49c0,.59-1.22.48-2.72.48s-2.71,0-2.72-.48S37,82,38.46,82,41.18,81.9,41.18,82.49Z"/><rect class="cls-10" x="27.49" y="92.39" width="22.23" height="7.44"/><rect class="cls-10" x="27.56" y="89.05" width="7.63" height="1.54"/><rect class="cls-11" x="36.33" y="89.05" width="13.05" height="1.54"/><rect class="cls-10" x="27.55" y="101.59" width="21.95" height="3.05"/><rect class="cls-10" x="27.55" y="105.5" width="21.95" height="0.62"/><rect class="cls-10" x="27.55" y="106.84" width="21.95" height="0.62"/><rect class="cls-10" x="27.55" y="108.19" width="21.95" height="0.62"/><rect class="cls-10" x="27.55" y="109.53" width="21.95" height="0.62"/><rect class="cls-10" x="27.55" y="110.87" width="21.95" height="0.62"/><rect class="cls-10" x="27.55" y="112.21" width="15.64" height="0.62"/><rect class="cls-10" x="27.55" y="114.44" width="21.95" height="3.05"/><rect class="cls-10" x="27.55" y="118.35" width="21.95" height="0.62"/><rect class="cls-10" x="27.55" y="119.69" width="21.95" height="0.62"/><rect class="cls-10" x="27.55" y="121.04" width="21.95" height="0.62"/><rect class="cls-10" x="27.55" y="122.38" width="21.95" height="0.62"/><rect class="cls-10" x="27.55" y="123.72" width="21.95" height="0.62"/><rect class="cls-10" x="27.55" y="125.06" width="15.64" height="0.62"/><rect class="cls-10" x="27.55" y="127.29" width="21.95" height="3.05"/><path class="cls-16" d="M171.48,110.75c-1.77,0-1.77,0-3.09,0l-.13-29.3c0-.82,1.45-1.49,3.22-1.49h90c1.77,0,3.22.67,3.22,1.49v27.82c0,.82-1.45,1.48-3.22,1.48Z"/><rect class="cls-8" x="171.5" y="74.37" width="95.15" height="65.78" rx="3.18" ry="3.18"/><rect class="cls-9" x="174.55" y="78.04" width="89.36" height="55.95"/><rect class="cls-10" x="180.6" y="93.39" width="78.45" height="21.36"/><rect class="cls-10" x="181.08" y="86.01" width="27.25" height="3.57"/><rect class="cls-11" x="212.4" y="86.01" width="46.57" height="3.57"/><rect class="cls-10" x="180.85" y="117.68" width="24.44" height="4.23"/><rect class="cls-10" x="180.85" y="123.09" width="24.44" height="0.56"/><rect class="cls-10" x="180.85" y="124.31" width="24.44" height="0.56"/><rect class="cls-10" x="180.85" y="125.52" width="24.44" height="0.56"/><rect class="cls-10" x="180.85" y="126.74" width="24.44" height="0.56"/><rect class="cls-10" x="180.85" y="127.96" width="24.44" height="0.56"/><rect class="cls-10" x="180.85" y="129.17" width="17.41" height="0.56"/><rect class="cls-10" x="207.78" y="124.31" width="24.44" height="0.56"/><rect class="cls-10" x="207.78" y="125.52" width="24.44" height="0.56"/><rect class="cls-10" x="207.78" y="123.13" width="24.44" height="0.56"/><rect class="cls-10" x="207.78" y="126.74" width="24.44" height="0.56"/><rect class="cls-10" x="207.78" y="127.96" width="24.44" height="0.56"/><rect class="cls-10" x="207.78" y="129.17" width="9.26" height="0.56"/><rect class="cls-10" x="207.71" y="117.68" width="24.44" height="4.23"/><rect class="cls-10" x="234.71" y="124.31" width="24.44" height="0.56"/><rect class="cls-10" x="234.71" y="125.52" width="24.44" height="0.56"/><rect class="cls-10" x="234.71" y="123.1" width="24.44" height="0.56"/><rect class="cls-10" x="234.71" y="126.74" width="24.44" height="0.56"/><rect class="cls-10" x="234.71" y="127.96" width="24.44" height="0.56"/><rect class="cls-10" x="234.71" y="129.17" width="24.49" height="0.56"/><rect class="cls-10" x="234.57" y="117.68" width="24.44" height="4.23"/><path class="cls-3" d="M219.07,138H160.3v2.32s2.6,1.56,3.9,1.56H274c1.29,0,3.89-1.56,3.89-1.56V138Z"/><path class="cls-6" d="M160.3,140.35s2.6,1.56,3.9,1.56H274c1.29,0,3.89-1.56,3.89-1.56Z"/><path class="cls-17" d="M226,139.52H212.16c-1.12,0-1.25-1.49-1.25-1.49h16.41S227.24,139.52,226,139.52Z"/><path class="cls-17" d="M257.74,139.16a.69.69,0,1,1-.69-.69A.69.69,0,0,1,257.74,139.16Z"/><circle class="cls-17" cx="259.44" cy="139.16" r="0.69"/><path class="cls-17" d="M262.52,139.16a.69.69,0,1,1-.69-.69A.69.69,0,0,1,262.52,139.16Z"/></g></g></svg>