<svg id="Layer_1" data-name="Layer 1" xmlns="http://www.w3.org/2000/svg" xmlns:xlink="http://www.w3.org/1999/xlink" viewBox="0 0 300.85 216.28"><defs><style>.cls-1,.cls-21{fill:#fff;}.cls-1{opacity:0.7;}.cls-2{fill:#dcdcdc;}.cls-3{fill:#d6d5d5;}.cls-4{fill:#b5b5b5;}.cls-5{opacity:0.43;}.cls-6{fill:url(#linear-gradient);}.cls-7{opacity:0.22;}.cls-8{fill:url(#linear-gradient-2);}.cls-9{fill:url(#linear-gradient-3);}.cls-10{fill:url(#linear-gradient-4);}.cls-11{fill:#1a233a;}.cls-12{fill:#eb962b;}.cls-13{fill:#d78128;}.cls-14{fill:#6c76b6;}.cls-15{fill:#555e91;}.cls-16{fill:#eaa582;}.cls-17{fill:#d6cfc5;}.cls-18{fill:#222538;}.cls-19{fill:#a37861;}.cls-20{fill:#be9540;}.cls-22{fill:#626583;}.cls-23{fill:#152b3d;}.cls-24{fill:#fdbc5d;}.cls-25{fill:#254480;}.cls-26{fill:#363b3d;}.cls-27{fill:#e15354;}.cls-28{fill:#304664;}.cls-29{fill:#1f2338;}.cls-30{fill:#326c89;}.cls-31{fill:#847e79;}.cls-32{fill:#f1ddd4;}.cls-33{fill:#4b709a;}.cls-34{fill:#ead6cf;}.cls-35{fill:#c5b7b0;}.cls-36{fill:#1e2c40;}.cls-37{fill:#81807f;}.cls-38{fill:#2a2c47;}.cls-39{fill:#c6c3cc;}.cls-40{fill:#1d2133;}.cls-41{fill:#323757;}.cls-42{fill:#eaa683;}.cls-43{fill:#c38971;}.cls-44{fill:#9c9aa3;}.cls-45{fill:#e6e2ed;}.cls-46{fill:#3b4167;}.cls-47{fill:#eedbd4;}.cls-48{fill:#d2c1ba;}.cls-49{fill:url(#linear-gradient-5);}.cls-50{fill:url(#linear-gradient-6);}.cls-51{fill:url(#linear-gradient-7);}.cls-52{fill:#f9a359;}.cls-53{fill:#f9a059;}.cls-54{fill:#828282;}.cls-55{fill:#dfcfc7;}.cls-56{fill:#1c1e30;}.cls-57{fill:#25263d;}.cls-58{fill:#292c45;}.cls-59{fill:#1f2236;}.cls-60{fill:#505687;}.cls-61{fill:#d2c1bb;}.cls-62{fill:#17202e;}.cls-63{fill:#377bbf;}.cls-64{fill:#6e6760;}.cls-65{fill:#8e8480;}.cls-66{fill:#706966;}.cls-67{fill:#e74749;}.cls-68{fill:#d29279;}.cls-69{fill:#141521;}.cls-70{fill:#9a643b;}.cls-71{fill:#93a03c;}.cls-72{fill:#815330;}.cls-73{fill:#c27b47;}</style><linearGradient id="linear-gradient" x1="87.39" y1="132.94" x2="244.69" y2="132.94" gradientUnits="userSpaceOnUse"><stop offset="0" stop-color="#fdbc5d"/><stop offset="1" stop-color="#ef3f5a"/></linearGradient><linearGradient id="linear-gradient-2" x1="87.39" y1="128.68" x2="244.78" y2="128.68" gradientUnits="userSpaceOnUse"><stop offset="0" stop-color="#54c6da"/><stop offset="1" stop-color="#5b71b6"/></linearGradient><linearGradient id="linear-gradient-3" x1="163.7" y1="78.81" x2="219.8" y2="78.81" gradientUnits="userSpaceOnUse"><stop offset="0" stop-color="#93cff2"/><stop offset="1" stop-color="#bde6f9"/></linearGradient><linearGradient id="linear-gradient-4" x1="162.76" y1="71.61" x2="218.68" y2="71.61" xlink:href="#linear-gradient-3"/><linearGradient id="linear-gradient-5" x1="75.31" y1="147.92" x2="75.31" y2="138.96" gradientUnits="userSpaceOnUse"><stop offset="0" stop-color="#f89b58"/><stop offset="1" stop-color="#ffce57"/></linearGradient><linearGradient id="linear-gradient-6" x1="-13690.27" y1="152.24" x2="-13685.51" y2="152.24" gradientTransform="matrix(-1, 0, 0, 1, -13613.53, 0)" xlink:href="#linear-gradient-5"/><linearGradient id="linear-gradient-7" x1="-13685.21" y1="132.12" x2="-13680.66" y2="132.12" gradientTransform="matrix(-1, 0, 0, 1, -13613.53, 0)" xlink:href="#linear-gradient-5"/></defs><title>Untitled-2</title><path class="cls-1" d="M284.2,163.6c-8.17,13.4-18.29,25.54-27.88,33.19C216.69,228.4,174,213.62,154.36,207,111,192.3,46.79,218,14.08,205.18c-19.89-7.78-17.77-28.66.48-60.36,7.89-13.71,18.79-29.43,32.23-47C85.9,46.73,152.37.08,179.94,0c55.92-.16,50.57,95.31,80.22,90.92C313.89,83,306,127.77,284.2,163.6Z"/><rect class="cls-2" x="126.44" y="105.02" width="0.55" height="58.03"/><rect class="cls-2" x="165.77" y="105.02" width="0.55" height="58.03"/><rect class="cls-2" x="205.09" y="105.02" width="0.55" height="58.03"/><rect class="cls-3" x="87.39" y="97.87" width="9.42" height="1.51"/><rect class="cls-3" x="87.39" y="100.67" width="13.36" height="1.51"/><rect class="cls-3" x="126.29" y="97.87" width="11.06" height="1.51"/><rect class="cls-3" x="126.29" y="100.67" width="7.07" height="1.51"/><rect class="cls-3" x="166.32" y="97.87" width="6.85" height="1.51"/><rect class="cls-3" x="166.32" y="100.67" width="7.99" height="1.51"/><rect class="cls-3" x="205.65" y="97.87" width="9.98" height="1.51"/><rect class="cls-3" x="205.65" y="100.67" width="7.99" height="1.51"/><rect class="cls-4" x="126.72" y="166.49" width="6.26" height="2.02"/><rect class="cls-4" x="166.32" y="166.49" width="6.26" height="2.02"/><rect class="cls-4" x="205.65" y="166.49" width="6.26" height="2.02"/><g class="cls-5"><path class="cls-6" d="M231.07,145.81c-12.27,0-22.93-5.3-34-10.83C183.3,128.16,169.11,121.1,150.2,123c-12.07,1.24-19.65,6.15-26.33,10.49-6.06,3.93-11.78,7.38-19.53,7.68-12.53.47-16.87-4.87-17-5.2v-3.42h0c0,.06,2.75,6,16.93,6,7,0,12.14-3.38,18.11-7.25,6.94-4.5,14.8-9.6,27.5-10.9,19.67-2,34.21,5.22,48.27,12.21,14.71,7.32,28.74,14.18,46.49,8.22v2.82A39.92,39.92,0,0,1,231.07,145.81Z"/></g><g class="cls-7"><path class="cls-8" d="M157.44,145.15c-9.05,0-16.23-6.09-23.26-12.05-5.33-4.52-10.86-9.14-17.25-11.42-19.48-7-29.45,5.75-29.54,5.86v-3.86c.11-.13,1.89-2.44,7-4.65,4.68-2,12.54-3.6,23.38.17,6.86,2.38,12.57,7.22,18.08,11.89,11.19,9.49,20.85,17.68,37.63,4.85,12.7-9.72,24.68-19,36.47-22.36,11.53-3.31,23.55-.89,34.8,10.36l-.09,3.51c-23.89-24-44.24-8.79-69.58,10.58C168.4,143.17,162.61,145.15,157.44,145.15Z"/></g><polygon class="cls-9" points="164.1 91.16 163.7 90.69 170.32 85.05 174.34 85.05 183.47 77.27 189.18 82.14 193.39 82.14 195.52 83.95 202.13 78.32 205.49 78.32 219.4 66.47 219.8 66.93 205.71 78.93 202.36 78.93 195.52 84.76 193.16 82.75 188.96 82.75 183.47 78.08 174.57 85.67 170.55 85.67 164.1 91.16"/><polygon class="cls-10" points="165.05 83.37 162.76 83.37 162.76 82.75 164.8 82.75 168.24 79.31 170.74 81.81 176.71 75.84 178.54 77.68 184.6 71.62 188.22 75.25 192.36 75.25 198.75 68.87 204.25 68.87 208.32 64.8 213.31 64.8 218.25 59.85 218.68 60.29 213.56 65.41 208.58 65.41 204.51 69.48 199 69.48 192.62 75.87 187.97 75.87 184.6 72.5 178.54 78.55 176.71 76.71 170.74 82.68 168.24 80.18 165.05 83.37"/><path class="cls-11" d="M226.19,84.77v0A73.84,73.84,0,0,0,185.3,37.61h0a72.67,72.67,0,0,0-10.91-3.88,73.51,73.51,0,0,0-28.21-2h0a73.43,73.43,0,0,0-17.91,4.58h0a73.8,73.8,0,1,0,65.15,131.86l3.1,4.3L211.05,162l-3.52-4.89a73.87,73.87,0,0,0,18.66-72.31Zm-54,67.43a50.19,50.19,0,0,1-35.31-94l1.44-.54a50.79,50.79,0,0,1,10.77-2.57A50.2,50.2,0,0,1,202.47,88c.38,1,.72,2.11,1,3.17A50.21,50.21,0,0,1,172.16,152.2Z"/><path class="cls-12" d="M240.73,80.58l-14.55,4.15-22.69,6.46c-.3-1.06-.64-2.12-1-3.17a50.09,50.09,0,0,0-26.78-28.9l9.6-21.51h0l1-2.26,5.16-11.57A89,89,0,0,1,240.73,80.58Z"/><path class="cls-13" d="M186.31,35.35l-1,2.26-9.61,21.51a50.16,50.16,0,0,0-26.63-4l-2.89-23.39-.31-2.45a76.29,76.29,0,0,1,40.45,6.06Z"/><path class="cls-12" d="M149.06,55.13a50.79,50.79,0,0,0-10.77,2.57l-1.44.54-8.63-21.92-2.61-6.64a80.43,80.43,0,0,1,19.67-5h0l.57,4.64.31,2.45Z"/><polygon class="cls-12" points="243.28 201.93 214.19 201.93 193.97 173.86 213.13 160.06 243.28 201.93"/><path class="cls-14" d="M139.48,19.56A21.88,21.88,0,0,0,137.83,17c-.59-.7-2.57-1.21-2.3-2.1s2.92-.5,3.65.37,3,1.17,3,1.53a5.8,5.8,0,0,1-1.25,2.7A2.52,2.52,0,0,1,139.48,19.56Z"/><path class="cls-15" d="M135,21.19a21.86,21.86,0,0,0-2.53-1.75c-.82-.4-2.84-.09-3-1s2.49-1.62,3.5-1.11,3.19-.1,3.4.2a5.69,5.69,0,0,1-.08,3C136.05,21,135,21.19,135,21.19Z"/><path class="cls-16" d="M138.81,24.72s.75-5.1.72-6c0-.26,1.53-.16,1.46.32-.16,1.06.55,5.16.43,5.91S138.75,25.19,138.81,24.72Z"/><path class="cls-16" d="M136.48,26.18s-1.4-4.95-1.72-5.77c-.15-.37,1.28-.93,1.47-.28.3,1,2.55,4.51,2.74,5.25S136.61,26.64,136.48,26.18Z"/><path class="cls-17" d="M137.45,29.62S136,24.56,135.72,24l2.36-1.47s1.1,3.24,1.25,4S137.45,29.62,137.45,29.62Z"/><path class="cls-18" d="M179.33,16.26a6.16,6.16,0,0,0-3.37,2.3c-1.09,1.73-2,3.72-4.07,4.62a3.37,3.37,0,0,0-1.9,3.59c.16.36,6.43,7.41,7.8,7.69s3.94.08,3.66-1.73-3-5.71-1.45-7.68a10.43,10.43,0,0,0,1.89-3.78Z"/><path class="cls-16" d="M178.93,24.69l-.18,0a1.34,1.34,0,0,0-.53.06,1.08,1.08,0,0,0-.21.11c-.55.32-1.83,1.19-2,1.21a14.83,14.83,0,0,1,0-3,7.15,7.15,0,0,0,.77-2C176.83,20.26,178.93,24.69,178.93,24.69Z"/><path class="cls-17" d="M162.86,27.82a7.93,7.93,0,0,0-5.45-1.21c-2.95.55-3.27,1.93-4.27,2s-4.39-.23-7.16.58-5.11.9-5.42.66,1.73-4.84,1.73-5.48l-3.44-.89s-1,4.09-1.36,5-1.2,2.84-.08,4.46,4.27.89,6.17,1.21,10.43.12,11.92,0,6.49-.32,6.49-.32Z"/><path class="cls-16" d="M183.47,18.7s.17,2.48-.39,3.23a3.39,3.39,0,0,1-.47.54,1.11,1.11,0,0,0-.31.46,8.3,8.3,0,0,1-.41,1.29c-.15.15-.58-.24-.73-.24s-1.67,1.3-2,1-2.56-2.5-2.38-4,.86-3.83,3.35-3.81S183.29,18.09,183.47,18.7Z"/><path class="cls-11" d="M176,30.54a11,11,0,0,1-2,2.4,2.13,2.13,0,0,1-1.24.6h-.34c-1.15,0-2,.21-3.58.29s-5.51-.15-5.63-.15-1.24.2-1.24.2c-.4-.49.67-6,.87-6.06a8.17,8.17,0,0,0,2.74.26c1.24-.2,1.73-.31,3.58-2.48s3.69-2.71,4.47-2.54a9.46,9.46,0,0,0,2.33,0S176,30.39,176,30.54Z"/><path class="cls-18" d="M182.43,20.48a5.26,5.26,0,0,0,.71,1.36s.89-.94.32-3.27-2.74-2.55-4.13-2.31c-1.74.29-3.49,6.17-3.4,6.74s2-3,3.74-2.75A6.2,6.2,0,0,0,182.43,20.48Z"/><path class="cls-19" d="M178.75,24.66a1.38,1.38,0,0,0-.53.07,1,1,0,0,0-.21.1,9.67,9.67,0,0,1-.78-2.15A14.28,14.28,0,0,0,178.75,24.66Z"/><path class="cls-20" d="M174,32.94a2.13,2.13,0,0,1-1.24.6h-.34L173,29Z"/><path class="cls-16" d="M183,40.85l-1.11,1a40.13,40.13,0,0,1-3.81-2.63c-.49-.41-3.71-3.11-4.15-3.72s-1-7-1-7.25,2.8-.44,3.11.23c0,0,.14,3.62.22,4.23a3.08,3.08,0,0,0,.71,1.66c.58.71,1.8,2.35,3,3.67C180.29,38.37,182.63,40.53,183,40.85Z"/><path class="cls-12" d="M176.31,28.57s.18-4.82-1.39-4.76c-2,.08-2.28,2.5-2,5.14C172.91,29,175.87,29,176.31,28.57Z"/><path class="cls-16" d="M182.46,40.38a.83.83,0,0,0,.36.3c.37.13.92-.11,1.19.37s-1,1.69-1.38,1.76-.91-.47-1.35-1.54S182.46,40.38,182.46,40.38Z"/><path class="cls-16" d="M183.89,40.9a15.42,15.42,0,0,1,1.34,1.15c.58.57,1.18,1.32,1,1.46s-.61-.45-1.23-1-.54-.3-.54-.3,0,0,.52.59,1.14,1.52,1,1.64-.12.09-.36-.13c.11.16.08.21,0,.26-.31.26-1.29-.64-1.68-1,.3.27.49.51.18.54s-1.67-1.28-2.19-1.72S183.89,40.9,183.89,40.9Z"/><path class="cls-2" d="M164,28.05a28.85,28.85,0,0,0-.27,5.65.92.92,0,0,0,.82,0,53,53,0,0,1,.45-5.61S164.82,28,164,28.05Z"/><rect class="cls-21" x="228.15" y="151.48" width="7.94" height="0.56" transform="translate(464.24 303.51) rotate(180)"/><rect class="cls-21" x="228.15" y="152.53" width="7.94" height="2.34" transform="translate(464.24 307.39) rotate(180)"/><rect class="cls-21" x="224.42" y="155.65" width="4.68" height="0.35" transform="translate(453.53 311.66) rotate(180)"/><rect class="cls-21" x="224.42" y="156.16" width="4.68" height="0.95" transform="translate(453.53 313.26) rotate(180)"/><rect class="cls-21" x="237.4" y="148.48" width="0.35" height="6.56" transform="translate(475.14 303.51) rotate(180)"/><polygon class="cls-22" points="131.09 164.65 161.47 164.65 151.89 194.06 152.79 194.35 162.76 163.71 130.4 163.71 120.52 194.06 121.42 194.35 131.09 164.65"/><polygon class="cls-22" points="141.43 194.06 131.85 164.65 162.23 164.65 171.9 194.35 172.8 194.06 162.91 163.71 130.55 163.71 140.53 194.35 141.43 194.06"/><rect class="cls-22" x="128.26" y="172.97" width="37.19" height="0.94"/><rect class="cls-22" x="124.43" y="183.19" width="44.49" height="0.94"/><path class="cls-16" d="M146.31,97.54s.76-1.33-.44-4.88a3.59,3.59,0,0,0-6.47-.92c-1.27,2.2-.84,3.57,1,6.05S145.53,98.68,146.31,97.54Z"/><path class="cls-16" d="M137,158.65s-.2,1.46-.22,1.68-2.22-.13-2.22-.13l-.18-1.74A12.73,12.73,0,0,1,137,158.65Z"/><path class="cls-23" d="M136.77,160.14a6.12,6.12,0,0,0,1.36,1.27c.67.38,1.73.53,2.12.93s1.05,1.52-1.74,1.49-4.13.18-4.43-.3.44-3.48.44-3.48A7.62,7.62,0,0,0,136.77,160.14Z"/><path class="cls-16" d="M152.12,158.65s-.2,1.46-.22,1.68-2.21-.13-2.21-.13l-.18-1.74A12.64,12.64,0,0,1,152.12,158.65Z"/><path class="cls-23" d="M151.92,160.14a6.27,6.27,0,0,0,1.37,1.27c.67.38,3.14.69,3.53,1.09s.76,1.44-3.15,1.33c-2.79-.07-4.13.18-4.43-.3s.43-3.48.43-3.48A11.63,11.63,0,0,0,151.92,160.14Z"/><path class="cls-12" d="M137.71,122.33a21.5,21.5,0,0,0-1,6.49c.15,3-.58,6.3-.88,9.43-.33,3.5-1.69,11.79-1.73,13.66s.21,7.85.21,7.85l2.71.07s2.29-14.49,2.88-16,3.52-12,3.62-13.19S137.71,122.33,137.71,122.33Z"/><path class="cls-12" d="M149,122s1.65,9.22,1.84,11.06.33,8.9.43,10.05.66,15,1.18,16.75h-3s-3.11-10.1-3.11-14.88-2.06-10.39-3.39-13.54-4.38-3.23-5.19-9.08C137.71,122.33,147.87,120.11,149,122Z"/><path class="cls-16" d="M145.21,98.48a2.63,2.63,0,0,0,0,1.7c.34.71-4.37.29-4.37.29a5,5,0,0,0-.4-2.68C139.82,96.59,145.21,98.48,145.21,98.48Z"/><path class="cls-24" d="M137.49,123.09s1.69,1.74,11.64-.27L149,122l-11.31.42Z"/><path class="cls-16" d="M145.92,100.41s1.74.18,2.24.28,3.84-.6,4.53-.67a14.15,14.15,0,0,0,3.71-2.32,48.38,48.38,0,0,0,1.87-5.42c.09-.93,1.64-.45,1.51.19-.25,1.18-.57,4.07-.74,4.91a13.32,13.32,0,0,1-1,3.2,20.33,20.33,0,0,1-5.5,3.11A21.66,21.66,0,0,0,148,105.8H135.33s-5-7.07-5.05-8.14,3.45-8.14,4.16-9,1.74.29,1.74.29-2.13,6.24-2.42,7.13,2.48,4.79,3.24,4.8,2.7-.24,3.56-.27a6.12,6.12,0,0,0,1.78-.42Z"/><path class="cls-25" d="M151.4,105.13a4.15,4.15,0,0,0-1.7,2.81,37.08,37.08,0,0,1-1,5.54c-.28,1,.25,7.92.32,8.41s-9.84,1.68-11.36.5c0,0-.43-6.49-.6-8.34a47.6,47.6,0,0,0-1.32-6.92c-.28-.61-3.72-5.44-3.87-6.07,0,0,1.78-2.84,3.06-2.88,0,0,2,2.38,2.69,2.49a37.41,37.41,0,0,0,4.72-.65s.45.61,2.8-.1l3.26.37c.55.07,4.39-.48,4.39-.48s1.54,2.6,1.27,3.91Z"/><path class="cls-16" d="M158.18,92.83s.35-1.65-.07-2.12c-.24-.27-.81-1-.86-1.08s-.67-.46-.67-.63.6-.38,1.12.1.85.59,1.06.54a6.55,6.55,0,0,0,.54-2.22c0-.43.19-1.57.46-1.49s.26.57.26.57.31-.86.52-.69.19.59.19.59.39-.49.49-.13a1.14,1.14,0,0,1,0,.66s.41-.22.43.33a8.15,8.15,0,0,1-.4,2.73,20.35,20.35,0,0,0-1.49,2.67C159.63,93.25,158.18,92.83,158.18,92.83Z"/><path class="cls-16" d="M135.83,89.94a10.66,10.66,0,0,1,1.58-2.16,6.63,6.63,0,0,0,1.47-.64c.5-.35,1.16-.65,1.12-.77s-.62-.07-1.25.2-.9.14-1,0a3.66,3.66,0,0,1,.52-1.38c.19-.24,1.54-1.59,1.32-1.79s-1.1.54-1.25.69c0,0,.7-1.46.43-1.53S138,83,138,83s.06-1.26-1.29.78c0,0,.28-.68-.13-.45s-.82,1.49-1,2.13a9.66,9.66,0,0,1-1.22,3.16C133.94,89.12,135.83,89.94,135.83,89.94Z"/><path class="cls-26" d="M140.44,97.79a5.27,5.27,0,0,0,1.95-.4c1.32-.46,1.42-2.78,1.71-2.5a.84.84,0,0,0,1.36-.16s-.65-.85-.35-1.26a3.18,3.18,0,0,1,.79-.71s-.93-4.49-5.18-2.45C135.75,92.71,140.44,97.79,140.44,97.79Z"/><path class="cls-25" d="M145.21,100.18l-.15-.65a35.34,35.34,0,0,0-4.18.16l-.16.78A5.79,5.79,0,0,0,145.21,100.18Z"/><path class="cls-16" d="M144.54,94.32c-.24-.41-1.15-.68-1.26.47-.08.9,1.63,1.88,1.64,1A2.46,2.46,0,0,0,144.54,94.32Z"/><path class="cls-27" d="M158.25,92.46a2.68,2.68,0,0,1,1.45.45,1,1,0,0,1-.08.48,6,6,0,0,0-1.5-.46S158.13,92.57,158.25,92.46Z"/><path class="cls-26" d="M159.4,92.7a.42.42,0,1,1-.55-.22A.42.42,0,0,1,159.4,92.7Z"/><path class="cls-16" d="M224.4,133.26a20.45,20.45,0,0,0-2-.89c-.95-.36-2.19-.68-2.28-.44s.9.5,1.82.93.62.45.62.45.06,0-1-.26-2.26-.5-2.34-.3-.09.28.28.44c-.23-.05-.28,0-.31.11-.15.51,1.39,1.14,2,1.39-.47-.19-.84-.28-.73.09s2.34,1.22,3.1,1.58S224.4,133.26,224.4,133.26Z"/><path class="cls-28" d="M237.61,124.8c-.76-.19-1.65.49-2.42,2.58a13.81,13.81,0,0,0-1,4.25c0,.65-.09,4-.61,4.26s-4.66-1.08-4.94-1.16c-.57-.16-4.21-1.54-4.21-1.54l-.94,3.27s10.9,4.47,11.68,4.29,1.44-.68,1.95-2.68,2.05-6.63,2.07-7S241,125.64,237.61,124.8Z"/><path class="cls-29" d="M233.77,187.25a6.28,6.28,0,0,1-2.63,1.66c-1.33.29-2.26.66-2.27,1.45s3.82,1.3,5.34.51c2.27-1.19,2.5-.83,2.75-1.42s-.3-2.18-.28-2.37S233.77,187.25,233.77,187.25Z"/><path class="cls-30" d="M233.92,186.6s-.17.64-.15.65,3,.35,2.91-.17-.18-.87-.18-.87Z"/><path class="cls-29" d="M248.55,187.61a4.63,4.63,0,0,1-2.25,1.65c-1.27.3-2.09.88-2.15,1.65s3,1.77,5.14.42c1.41-.88,1.93-.83,2.22-1.4s-.15-2.13-.12-2.31S248.55,187.61,248.55,187.61Z"/><path class="cls-30" d="M248.59,187s-.06.65,0,.66,2.85.52,2.84,0a4.28,4.28,0,0,0-.18-.91Z"/><path class="cls-31" d="M236.91,148s-1.37,10-1.93,13.35c-.66,3.95-.88,7.21-1.06,9.25-.23,2.57-.54,15.71-.7,16.46s4,.36,4,.36,2.18-17.13,2.87-19.87c.64-2.54,2.5-13.54,3.08-12.85s2.36,13.16,2.79,15.17,1.59,17.82,1.59,17.82,3.93.62,4.72,0c0,0-.62-14.1-.89-17.87-.11-1.43.9-17.18-1.52-23.53C248.57,142.89,236.91,148,236.91,148Z"/><path class="cls-12" d="M241,124a23.67,23.67,0,0,0-4.07,1.14c-.47.4-1.3,4.39-1.35,5.49a43.53,43.53,0,0,0,.91,7.47c.47,1.73.48,9.19.18,11.58a48.65,48.65,0,0,0,14.2.5s-1-7.26-.69-9.62c.37-3,1.25-10,1.25-10s0-3.93-.55-4.56c-1.19-1.35-5.78-2-5.78-2Z"/><path class="cls-28" d="M246.4,131.3c.17,3.59,1.32,4.47,2.45,4.19a2.44,2.44,0,0,0,1-.56,3.09,3.09,0,0,0,1-1.54c.5-2,.5-7.52-2-8.23C248.81,125.16,246.07,124.27,246.4,131.3Z"/><path class="cls-32" d="M235.53,132.93s2-.34,2.15,2.61,1.4,8.4,3.48,10.58l-8.17.31c-2.07-2.18-3.09-7.39-3.25-10.33-.14-2.71-2.15-2.61-2.15-2.61Z"/><path class="cls-28" d="M240.29,126.19l.15.09a2.15,2.15,0,0,0,.72.19,1.67,1.67,0,0,0,.32,0h.2c1.92-.19,3.83-2.39,3.83-2.39-3.86-.59-5.52.13-5.52.13S239.38,125.57,240.29,126.19Z"/><path class="cls-16" d="M241.12,112.88s-4.57-.92-3.4,4.78,2.28,6.12,5,4.87,2.38-4.91,2.48-6.71S242.57,112.9,241.12,112.88Z"/><path class="cls-16" d="M240.37,124.8s.9.59,4.32-.91a11.79,11.79,0,0,1,.18-4.25c.51-2.14-4.19,2.64-4.19,2.64a1,1,0,0,1,0,.56c0,.09,0,.17,0,.27s-.06.32-.1.5l0,.14C240.35,124.48,240.37,124.16,240.37,124.8Z"/><path class="cls-26" d="M245,118.76s-.23-1.54-.89-1.58-.84.9-.84.9l-.52,0s.21-1.62-.45-1.88-4.25.62-4.79.17-.28-3.45.67-3.91,3.46-1.72,5.42-.46c0,0,1.51-.21,1.76,1A16.7,16.7,0,0,1,245,118.76Z"/><path class="cls-16" d="M243.33,116.65c.11-.54,1.2-.65,1.21.17s-.68,2.2-1.07,2S243.18,117.39,243.33,116.65Z"/><path class="cls-33" d="M244.68,123.25a10.94,10.94,0,0,1-3.54,1.31l.93,1.5,3-2Z"/><path class="cls-33" d="M240.55,123.75a1.47,1.47,0,0,0,.59.81l-.89,1.23,0-1.63Z"/><path class="cls-21" d="M241.14,124.56l-.7,1s.44.56,1.39.13Z"/><path class="cls-21" d="M240.44,126.28a2.15,2.15,0,0,0,.72.19,1.67,1.67,0,0,0,.32,0l-.11-.91h-.64A2.89,2.89,0,0,0,240.44,126.28Z"/><path class="cls-19" d="M240.56,123.69c2,.1,3.32-2,3.36-2.06a5.16,5.16,0,0,1-3.24,1.48C240.65,123.26,240.6,123.51,240.56,123.69Z"/><path class="cls-34" d="M235.53,132.93s-2.43.23-1.91,3.62l-7.22.39a2.68,2.68,0,0,1,1.19-3.45Z"/><rect class="cls-35" x="227.09" y="135.27" width="5.64" height="0.29" transform="translate(466.76 258.29) rotate(176.92)"/><rect class="cls-35" x="227.57" y="133.97" width="5.64" height="0.29" transform="translate(467.66 255.67) rotate(176.92)"/><rect class="cls-35" x="230.59" y="136.87" width="5.64" height="0.29" transform="translate(-7.02 12.74) rotate(-3.08)"/><rect class="cls-35" x="231.3" y="138.84" width="5.64" height="0.29" transform="translate(-7.13 12.78) rotate(-3.08)"/><rect class="cls-35" x="232.01" y="140.81" width="5.64" height="0.29" transform="translate(-7.23 12.82) rotate(-3.08)"/><rect class="cls-35" x="232.71" y="142.78" width="5.64" height="0.29" transform="translate(-7.34 12.86) rotate(-3.08)"/><rect class="cls-35" x="233.42" y="144.75" width="5.64" height="0.29" transform="translate(-7.44 12.9) rotate(-3.08)"/><path class="cls-16" d="M241.78,139.27a.93.93,0,0,1-.58.07c-.47-.13-.87-.78-1.48-.44s-.1,2.57.21,2.9,1.27.14,2.46-.72S241.78,139.27,241.78,139.27Z"/><path class="cls-16" d="M239.94,138.81a20.3,20.3,0,0,0-2.18.31c-1,.2-2.22.59-2.17.84s1-.05,2-.18.76.06.76.06.05-.05-.94.28-2.18.77-2.14,1,.07.29.47.22c-.22.09-.23.17-.2.26.14.51,1.78.24,2.43.13-.5.08-.86.2-.57.46s2.63-.21,3.46-.3S239.94,138.81,239.94,138.81Z"/><path class="cls-28" d="M248,125.23c-.75.24-1.14,1.29-.69,3.47a14.16,14.16,0,0,0,1.38,4.15c.32.56,2.06,3.47,1.74,3.93s-4.52,1.56-4.81,1.64c-.57.16-4.38.92-4.38.92l.93,3.27s11.62-2,12.19-2.55.86-1.33.23-3.31-1.78-6.71-2-7.07S251.35,124.13,248,125.23Z"/><path class="cls-36" d="M247.42,129.17a22.36,22.36,0,0,0,1.43,6.32,2.44,2.44,0,0,0,1-.56s-1.34-2.42-1.46-2.7S247.56,129.82,247.42,129.17Z"/><path class="cls-29" d="M93.55,186a11.51,11.51,0,0,1-1,1.56c-.39.45-1.89,1.24-1.89,2.56s2.52,1,3.51,1,1.07-.81,1.48-1.62.84-.67.92-1.32a7.74,7.74,0,0,0-.4-2.15Z"/><path class="cls-37" d="M96.14,185.6a4.16,4.16,0,0,1,.09.63s-2.8.51-2.79,0a2.61,2.61,0,0,1,.26-.87Z"/><path class="cls-16" d="M121.65,133.12a22.06,22.06,0,0,1,3.14-.49c.22.13.23.29,0,.36l-2.81.68s3.54-.13,3.74-.06.17.35,0,.4-3.66.39-3.66.39,3.3-.12,3.46,0a.24.24,0,0,1-.15.42l-3.32.32a12.76,12.76,0,0,1,2.48.24c0,.11.1.38-.52.34s-2.1,0-2.1,0Z"/><path class="cls-29" d="M108.64,185.82a5.91,5.91,0,0,0,2.46,1.65c1.24.29,2.11.65,2.12,1.43s-3.57,1.3-5,.51c-2.11-1.17-2.33-.82-2.56-1.41s.28-2.16.26-2.35S108.64,185.82,108.64,185.82Z"/><path class="cls-37" d="M108.51,185.17a4.67,4.67,0,0,1,.13.65s-2.79.35-2.71-.17.17-.86.17-.86Z"/><path class="cls-38" d="M106,147s1,9.78,1.53,13.12c.61,3.92.82,7.15,1,9.18.22,2.55.26,15.08.41,15.83s-3.34.2-3.34.2-1.71-16.38-2.35-19.09c-.6-2.53-2.81-13.41-3.35-12.72s-1.22,12.7-1.62,14.69-1.63,17.6-1.63,17.6-2.77.55-3.51-.07c0,0-.34-13.45-.08-17.19.1-1.42-1.67-17.07.59-23.37C94.83,141.8,106,147,106,147Z"/><path class="cls-39" d="M88.73,148.34a8,8,0,0,0,2.41.38c.71-.13.35-8.86.38-10.67a45.9,45.9,0,0,1,.83-5.36h0a36.36,36.36,0,0,1,1.2,6.26c0,2-.26,9.71-.26,9.71l3,.29,8.61.21,1.8-.21s-.22-3.29-.3-4.85c0-1-.24-2.78-.19-4.51a16,16,0,0,1,.15-2.61c0-3.47.23-6.91.23-6.91.12-1.58.2-3,.25-4.42-.38-.2-.84-.44-1.21-.61-1.13-.54-2.7-1.26-3.71-1.73-.59-.27-1.17-.47-1.17-.47s-4-.38-4.37-.36a8.81,8.81,0,0,0-1.27.43,44,44,0,0,0-4.64,2c-.64.46-2,11.43-2.07,12.2C88.29,138.48,88.73,148.34,88.73,148.34Z"/><path class="cls-40" d="M106.44,147.59a70.64,70.64,0,0,1-11.09,0v1.7s7.78,1.13,11.35-.32Z"/><path class="cls-41" d="M101.4,123.11a32.53,32.53,0,0,1,1.68,7.31c.28,1.94.79,5.2,1.17,8.54h0c.29,2.62,1,5.32,1.18,7.33s.88,8.22.88,8.22l1.62-1c.23-.21.55-.49.46-.79a89.31,89.31,0,0,1-1.8-10.32h0c0-.2,0-.4-.07-.59v0c-.1-.83-.18-1.62-.23-2.35a7.34,7.34,0,0,1,.07-1.63c.23-3.71.34-7.63.34-7.63.12-1.6.18-3.1.23-4.5a9.31,9.31,0,0,0-1.25-.7S102.07,123.31,101.4,123.11Z"/><path class="cls-39" d="M101.09,124.29s.11,1.54-1.2,1.58a3.41,3.41,0,0,1-2.34-1.22l2.17.56,1.32-1.12Z"/><path class="cls-16" d="M118.37,134.37s.95-.27,1.08-.84a3.72,3.72,0,0,1,.72-1.22c.2-.23.55-1.16.82-.93s-.51,1.56-.62,1.87,1.2-.23,1.51-.14.92,2.37,0,2.64a8.53,8.53,0,0,1-2.24,0,6.13,6.13,0,0,1-.68.22Z"/><path class="cls-42" d="M99.33,112.44s3,.51,2.49,5.21-3.16,4.28-3.33,4.27-2.67.06-2.8-5.68C95.69,116.24,95.65,112,99.33,112.44Z"/><path class="cls-42" d="M100.64,120.56s0,1.94.08,2.35-2.41,1.76-4,.24a16.56,16.56,0,0,0,.23-2.86C96.83,119.55,100.64,120.56,100.64,120.56Z"/><path class="cls-42" d="M101.83,116.55s.33-.34.45,0a6,6,0,0,1-.49,2s-.06.14-.14.06A17,17,0,0,1,101.83,116.55Z"/><path class="cls-42" d="M95.73,116.19s-.32-.36-.45,0a5.75,5.75,0,0,0,.4,2s.11.17.19.09A17.66,17.66,0,0,0,95.73,116.19Z"/><path class="cls-26" d="M102.07,115.92c-.1.64-.2,1.12-.2,1.12l-.44.57a10.92,10.92,0,0,0,0-1.46c0-.07,0-.21-.08-.35a4.34,4.34,0,0,0-.14-.59,6.37,6.37,0,0,0-4.81.15s0,.19,0,.41,0,.53-.15.58-.12,1.47-.12,1.47l-.35-.4s-.1-.73-.2-1.57h0c0-.19,0-.39-.07-.59A4,4,0,0,1,96.62,112a5.37,5.37,0,0,1,3.9,0,2.42,2.42,0,0,1,.62.26A5.18,5.18,0,0,1,102.07,115.92Z"/><path class="cls-43" d="M97.13,121.29a1.9,1.9,0,0,0,1.59.64,2.15,2.15,0,0,0,1.6-.6,2,2,0,0,1-1.6,1.09A2,2,0,0,1,97.13,121.29Z"/><path class="cls-44" d="M100.84,124.38l-1.12.83a11.62,11.62,0,0,0,1-2.79Z"/><polygon class="cls-45" points="100.68 122.42 101.44 123.13 102.24 125.52 100.84 124.38 100.68 122.42"/><path class="cls-41" d="M119.63,136.58s-6.61,1.74-8.22,1.34c-.75-.18-1.73-1.21-2.67-2.42-.3-.4-.61-.82-.89-1.24h0c-1.15-1.65-2-3.24-2-3.24s-3.39-4-.67-5.74a3.06,3.06,0,0,1,1.8.36,18.45,18.45,0,0,1,2.3,3.76c.24.52,2.82,5.33,3,5.44s2.38-.29,3.54-.38a18.34,18.34,0,0,0,3.49-.65Z"/><path class="cls-42" d="M100.53,123.13a12.36,12.36,0,0,1-.81,2.08s-1.18-1-1.55-1.4S100.53,123.13,100.53,123.13Z"/><path class="cls-44" d="M98.49,124.06l1.23,1.15a5.64,5.64,0,0,1-1.73-.34Z"/><path class="cls-45" d="M96.86,121.94a11.44,11.44,0,0,0,1.63,2.12l-1.09,1.81-1.75-3.18Z"/><path class="cls-41" d="M91.64,138.13c-.12,1.69.59,11-.12,11.14a16.59,16.59,0,0,1-3.33-.44s-.32-10.06-.22-11.11c.08-.77,1.3-12.27,1.94-12.74.38-.26,3.13-1.24,4.49-1.77l1.25-.52a32.46,32.46,0,0,1,3,10.77,64.31,64.31,0,0,1-.5,6.75c-.27,2.56-.56,4.56-.78,6.71-.42,4.23-.72,7.59-.72,7.59l-4.21-1.87c-.68-.34-1.62-1.74-1.36-2.46,1-2.72,2.19-7.38,2.2-9.77,0,0-.47-5.85-.85-7.13A36.27,36.27,0,0,0,91.64,138.13Z"/><rect class="cls-46" x="99.45" y="147.7" width="2.79" height="2.07"/><polygon class="cls-34" points="93.2 158.64 84.03 158.64 86.18 152.53 95.35 152.53 93.2 158.64"/><polygon class="cls-47" points="93.2 158.64 84.03 158.64 86.18 152.53 95.35 152.53 93.2 158.64"/><polygon class="cls-48" points="86.18 164.74 95.35 164.74 93.2 158.64 84.03 158.64 86.18 164.74"/><polygon class="cls-47" points="93.2 170.85 84.03 170.85 86.18 164.74 95.35 164.74 93.2 170.85"/><polygon class="cls-48" points="86.18 176.95 95.35 176.95 93.2 170.85 84.03 170.85 86.18 176.95"/><rect class="cls-35" x="86.72" y="153.55" width="5.23" height="0.23"/><rect class="cls-35" x="86.41" y="154.37" width="5.23" height="0.23"/><rect class="cls-35" x="86.07" y="155.19" width="4.23" height="0.23"/><rect class="cls-35" x="86.72" y="165.72" width="5.23" height="0.23"/><rect class="cls-35" x="86.41" y="166.54" width="2.61" height="0.23"/><path class="cls-16" d="M91,149.39l.14.41c.15.46.63,1,.33,1.59s-2.51.23-2.85-.06-.2-1.23.58-2.44S91,149.39,91,149.39Z"/><path class="cls-16" d="M91.53,151.17a20,20,0,0,1-.18,2.14c-.15,1-.46,2.2-.71,2.16s0-1,.07-2-.1-.74-.1-.74,0,0-.22.93-.65,2.17-.86,2.15-.28-.05-.24-.45c-.07.22-.14.23-.24.21-.5-.11-.32-1.73-.25-2.37-.06.49-.15.85-.42.58s.07-2.58.12-3.4S91.53,151.17,91.53,151.17Z"/><path class="cls-41" d="M91.75,142.84l0,7.41a12.79,12.79,0,0,1-3.52-.81L88.05,139Z"/><path class="cls-49" d="M79.91,139.44,74.76,151l-.14.31a1.31,1.31,0,0,1-.57-.06l.11-.25,5.1-11.48-7.42-8-1.12-.25.12-.53,1.28.28Z"/><path class="cls-50" d="M72,153.27h4.77a1.82,1.82,0,0,0-.06-.29,2.33,2.33,0,0,0-2.51-1.76c-1.86,0-2.16,1.2-2.2,1.76A2.2,2.2,0,0,0,72,153.27Z"/><path class="cls-51" d="M67.13,129l.33.91,2,5.53a3.42,3.42,0,0,0,2.08-4.36A3.42,3.42,0,0,0,67.13,129Z"/><path class="cls-52" d="M74.88,151v.26l-.26.05a1.31,1.31,0,0,1-.57-.06h0V151h.86Z"/><path class="cls-53" d="M72,153.27h4.77a1.82,1.82,0,0,0-.06-.29H72A2.2,2.2,0,0,0,72,153.27Z"/><path class="cls-52" d="M67.13,129l.33.91a15.41,15.41,0,0,1,3.76,4A3.41,3.41,0,0,0,67.13,129Z"/><path class="cls-16" d="M51.07,138.78l1-1.21a3,3,0,0,1,1.25-.41,3.1,3.1,0,0,1,1.52.11.55.55,0,0,1,.2.42,1.2,1.2,0,0,1-.1.57.72.72,0,0,1,0,.66.64.64,0,0,1-.08.66.55.55,0,0,1,0,.55,4.41,4.41,0,0,0-.7.26,7.76,7.76,0,0,1-2.34.39S50.74,140.45,51.07,138.78Z"/><polygon class="cls-54" points="27.13 171.16 22.4 190.86 21.36 190.86 25.37 171.11 27.13 171.16"/><polygon class="cls-54" points="32.29 171.16 27.56 190.86 26.52 190.86 30.53 171.11 32.29 171.16"/><polygon class="cls-54" points="40.63 171.16 45.35 190.86 46.4 190.86 42.39 171.11 40.63 171.16"/><path class="cls-55" d="M45.1,171.35H24.73s-1.41,0-2.36-4.24c-1.07-4.73-3.23-20.52-3.23-20.52s.57-1.47,9.52-1.28l16,20.8A28.51,28.51,0,0,1,45.1,171.35Z"/><path class="cls-16" d="M45.73,151.64a3.55,3.55,0,0,1,1.81-.27c.78.18,2.61.86,3.51,1s1.75.63,1.74.93-6.95.54-7-.14S45.73,151.64,45.73,151.64Z"/><path class="cls-16" d="M51.07,138.78s-1.36.89-1.39,1.16a7.12,7.12,0,0,0,.27,1.84l2-1Z"/><path class="cls-38" d="M51,187.51s1.74,1,2.54,1.42,3.86.51,4.16.79.19,1.21-.32,1.31a24.58,24.58,0,0,1-5.49.12c-1.25-.29-3.58.19-4.1,0s-.17-3,0-3.59S51,187.51,51,187.51Z"/><path class="cls-56" d="M51,186.33l0,1.18a8.65,8.65,0,0,1-3.18.07l.06-1.29Z"/><path class="cls-41" d="M55.13,187.51s1.74,1,2.53,1.42,3.87.51,4.17.79.19,1.21-.32,1.31a24.6,24.6,0,0,1-5.49.12c-1.25-.29-3.58.19-4.1,0s-.18-3,0-3.59S55.13,187.51,55.13,187.51Z"/><path class="cls-56" d="M55.1,186.33l0,1.18a8.69,8.69,0,0,1-3.19.07l.06-1.29Z"/><polygon class="cls-57" points="41.37 158.91 38.71 158.44 40.48 153.99 41.37 158.91"/><path class="cls-58" d="M33.41,159.82s13.34,2.83,15.43,3.72,3.33,1.25,3.48,1.69,3.41,21.6,3.41,21.6H51.31s-3.44-16-3.85-17-16.92-1-18.12-2.24a7.27,7.27,0,0,1-.94-7.41C29.71,157.26,33.41,159.82,33.41,159.82Z"/><path class="cls-58" d="M40.17,158.33s15.3,4.31,16.55,6.27-5.1,22.23-5.1,22.23H47.25s4.22-19,3.7-19.78-23.59,0-19.29-6.84S40.17,158.33,40.17,158.33Z"/><path class="cls-41" d="M38.58,137.07c.57-.3,2.49.35,3.06,1.24a36.72,36.72,0,0,0,3.81,4.59L51,138.23,52.12,141l-6.59,5.56a1.44,1.44,0,0,1-1.92-.07c-1.73-1.68-5.3-5.22-5.58-6.1C37.67,139.23,37.48,137.64,38.58,137.07Z"/><path class="cls-42" d="M36.7,125.17s2.65.44,2.68,5-1.68,4.92-4.27,4.27c-1.56-.4-3-2.61-2.45-6.49A3,3,0,0,1,36.7,125.17Z"/><path class="cls-34" d="M37.05,135.92s3.65,1.33,4.2,2.16.19,8.33-.12,11-1.17,8.46-1,9.24l-8.51,1.88s-2.74-10-2.81-11.53-2.09-9-1.12-9.58,5.15-2.95,5.15-2.95Z"/><polygon class="cls-59" points="31.66 160.21 31.24 158.67 40.19 156.93 40.17 158.33 31.66 160.21"/><polygon class="cls-60" points="36.11 157.64 38.23 157.2 38.23 158.88 36.11 159.37 36.11 157.64"/><path class="cls-41" d="M35.16,153.27c0,.44,0,.89-.08,1.34h0c-.3,4.94-.76,10.11-.76,10.11-.62.52-8.5-1.31-8.5-1.31a15.82,15.82,0,0,0,1.9-5c1-3.65.21-7.15-.77-13.08s-.16-5.9-.16-5.9l6.09-3.31a93.87,93.87,0,0,1,2.4,10.18A57.61,57.61,0,0,1,35.16,153.27Z"/><path class="cls-41" d="M37.1,135.93a52.19,52.19,0,0,1,2.53,9.26c.77,4.76.73,13.39,1.56,13.6s.58.07.58.07-.16-5.21-.23-6.94c-.17-3.86.55-12.55.21-13.43S39,136.28,37.1,135.93Z"/><path class="cls-42" d="M37,135.21a2,2,0,0,0,.09.71s-.47,1.82-4.17.23a10.25,10.25,0,0,0,0-5l4.17,2.58s-.06.42-.08.89A5.86,5.86,0,0,0,37,135.21Z"/><path class="cls-61" d="M33,135.43a10.05,10.05,0,0,0,2.92.84l-.71,1.52-2.36-1.64Z"/><path class="cls-61" d="M36,136.27s1-.34,1-.84l.13.5-.41,1.6Z"/><path class="cls-62" d="M39.06,127.78a3.92,3.92,0,0,0,.21-2.77c-.54-1.17-2-.68-2.59-.54s-1.86-1.29-4,.45-1.51,3.56-.55,5.73S33.19,133,33.19,133a10.17,10.17,0,0,1,.26-2.59c.31-.46,1.43-.7,1.43-.7s-.85-1.16,0-1.6S37.42,128.46,39.06,127.78Z"/><path class="cls-42" d="M33.78,129.24c-.11-.33-.67-.71-1-.09a1.54,1.54,0,0,0,.85,1.72C34.08,130.87,34,130,33.78,129.24Z"/><path class="cls-63" d="M36,136.27l.54.92s-.25.28-1.05.16Z"/><path class="cls-63" d="M36.37,137.27s2.19,6.42,2.2,11a59.72,59.72,0,0,1-.34,7.29l-.48.9-.7-.83s.49-13.25-1.45-18.25C35.6,137.37,36.29,137,36.37,137.27Z"/><path class="cls-41" d="M27.47,139.1c1.59-.66,3.25,1.56,4.14,3.77s2.57,6.24,2.57,6.24L46,151l.17,2.25H32.38s-5.26-9.41-5.62-10.58S26.32,139.56,27.47,139.1Z"/><rect class="cls-55" x="41.98" y="153.27" width="38.97" height="1.34"/><rect class="cls-64" x="64.82" y="129.77" width="0.94" height="20.81"/><path class="cls-65" d="M67.12,153.27h7v-.42h-7a1,1,0,0,1-.78-.26.69.69,0,0,1-.16-.49v0h0V143h-.42v9.06a1.09,1.09,0,0,0,.25.8A1.41,1.41,0,0,0,67.12,153.27Z"/><path class="cls-64" d="M57.06,152.53H65a0,0,0,0,1,0,0v0a.75.75,0,0,1-.75.75H57.06a0,0,0,0,1,0,0v-.75a0,0,0,0,1,0,0Z" transform="translate(122.02 305.8) rotate(180)"/><rect class="cls-66" x="76.9" y="154.61" width="1.11" height="36.47" transform="translate(154.91 345.7) rotate(180)"/><rect class="cls-66" x="44.93" y="154.61" width="1.11" height="36.47" transform="translate(90.96 345.7) rotate(180)"/><path class="cls-59" d="M35.16,153.27c0,.44,0,.89-.08,1.34h0a5.84,5.84,0,0,1-2.83-.38c-1.29-.59-2.19-5-2.25-5.27.13.26,2.2,4.31,2.7,4.31Z"/><path class="cls-19" d="M37,134.62a5.86,5.86,0,0,0,0,.59c-2.94,0-3-1.63-3-1.63C34.43,134.8,37,134.62,37,134.62Z"/><rect class="cls-67" x="52.31" y="136.9" width="4.46" height="0.38" transform="translate(-79.91 76.33) rotate(-43.99)"/><polygon class="cls-16" points="56.02 135.41 56.62 135.09 56.28 135.68 56.02 135.41"/><path class="cls-68" d="M54.64,137.29s-1.52.33-1.52.6a.44.44,0,0,0,.16.37l-.58.44a.44.44,0,0,0,.34.65s-.28.47.3.5c0,0-.06.39.2.46a4.82,4.82,0,0,0,1.24-.18s.23-.16.09-.55a.65.65,0,0,0,.08-.66.69.69,0,0,0,0-.66s.31-.65-.14-1Z"/><path class="cls-16" d="M52.08,137.56a4.72,4.72,0,0,1,1.46.76.34.34,0,0,1,.14.37c0,.15-.3.27-.74.16a3.36,3.36,0,0,0-1.07,0S51.45,138.55,52.08,137.56Z"/><path class="cls-69" d="M53.36,171.54s-.94-5.84-1-6.07-1-1.09-5.55-2.58c0,0,5.06,1,6.39,1.84C54.23,165.4,53.36,171.54,53.36,171.54Z"/><path class="cls-70" d="M72.4,153.27c.5-.21,1.31-2.57,1.69-3.79l.23-.72H69.75a13.69,13.69,0,0,0,1.35,4.51Z"/><path class="cls-71" d="M72.77,147.36c0-.17.73-.85,1.1-1.3s-.15-1.3-.15-1.3a2.48,2.48,0,0,0-1.35,2.6S72.77,147.52,72.77,147.36Z"/><path class="cls-71" d="M71.84,147.43H72s.14-3.32-1.07-3.77-1.21-1.35-1.21-1.35-.37,1.24.22,1.88,1.27,1.41,1.16,2S71.84,147.43,71.84,147.43Z"/><path class="cls-72" d="M74.09,149.48l.23-.72H69.75a13.69,13.69,0,0,0,1.35,4.51h.3A3.54,3.54,0,0,1,74.09,149.48Z"/><polygon class="cls-73" points="74.31 147.36 69.72 147.36 69.45 148.76 74.5 148.76 74.31 147.36"/></svg>