<svg id="Layer_1" data-name="Layer 1" xmlns="http://www.w3.org/2000/svg" viewBox="0 0 205.61 372.15"><defs><style>.cls-1{fill:#1a233a;}.cls-2{fill:#ea952e;}</style></defs><title>007-crowns</title><path class="cls-1" d="M68.64,324.09c-9.17-11-14-22.94-13.8-36.62A52.28,52.28,0,0,1,73,247.86c2.53-2.24,2.21-3.53.78-6-10.24-17.71-20.28-35.53-30.5-53.23-1.23-2.12-1.42-3.5.18-5.56,6.36-8.19,12.53-16.51,18.67-24.86A4.57,4.57,0,0,1,66.47,156c3.74.17,7.49.05,11.3.05.24-1.54-1-2.23-1.69-3.12Q38.73,104.84,1.29,56.82c-1.54-2-1.82-3.12-.17-5.29Q19.74,27.1,38,2.39A5.41,5.41,0,0,1,43,0q59.81.09,119.62,0a5.73,5.73,0,0,1,5.24,2.65Q186,27.16,204.47,51.5c1.62,2.13,1.45,3.29-.12,5.3q-37.48,48-74.8,96.1c-.67.86-1.33,1.73-2.43,3.16,4.51,0,8.44.09,12.35,0a4,4,0,0,1,3.75,1.84c6.4,8.63,12.77,17.28,19.35,25.76,1.58,2,.67,3.3-.27,4.95q-15.53,27.1-31,54.23c-.95,1.65-1.33,2.62.47,4.25,22.93,20.78,25.41,50.93,6.38,75.56-.22.28-.4.6-1,1.45,1.61,0,2.9,0,4.18,0,9.1.32,18.28-.94,27.31.68a29.6,29.6,0,0,1,24.09,28.18c.16,5.63,0,11.26.1,16.88,0,1.8-.49,2.54-2.3,2.27a10.72,10.72,0,0,0-1.5,0q-86.25,0-172.5.08c-3.11,0-4-.71-3.81-3.84.48-6.72-.59-13.5.72-20.19a29.81,29.81,0,0,1,28.29-24C50.47,323.93,59.19,324.09,68.64,324.09ZM56.52,186c-.71,1.46.56,2.31,1.12,3.3q6.86,12.19,13.86,24.31c.64,1.11.88,2.62,2.51,3.21l21.25-30.69h15.09L132,217.37c6-10.48,11.63-20.39,17.25-30.32.13-.24-.11-.68-.17-1-4-5.41-8-10.8-11.94-16.26a4.1,4.1,0,0,0-3.82-1.72q-30.53.06-61,0a4.07,4.07,0,0,0-3.8,1.72C64.56,175.23,60.52,180.61,56.52,186ZM80.19,54c-1.4,1.22-.44,2.5-.09,3.76Q87.54,84.57,95,111.41c2.47,8.93,5,17.85,7.59,27.31a8.33,8.33,0,0,0,.88-1.37Q114.63,97.2,125.77,57c.29-1,.86-2.17-.36-3.06q-10.68-17.31-21.34-34.61c-.95-1.56-1.58-1.55-2.53,0Q90.91,36.69,80.19,54Zm110.52.08c0-1.56-1.23-2.38-2-3.43q-11.47-15.43-23.1-30.78c-.71-.95-1.14-2.23-2.76-2.68L140.2,54c-1.73,1.47-2.16,3.58-2.72,5.6q-12.07,43.34-24.06,86.7c-.87,3.16-2.15,6.26-2.35,9.72,1.66-.29,2.1-1.62,2.82-2.54q36.92-47.38,73.74-94.84C188.75,57.17,190.3,56,190.71,54.05Zm-175.81,0c-.12.88.56,1.34,1,1.91q38,48.9,76.06,97.77c.65.83,1,2.05,2.58,2.23a9.08,9.08,0,0,0-.13-1.78Q81,106,67.59,57.78A8,8,0,0,0,65.41,54l-23-37.4C33,29.22,23.94,41.27,14.94,53.34,14.82,53.5,14.91,53.81,14.9,54.05Zm87.71,306h5.62c23.12,0,46.24,0,69.36.07,2.6,0,3.29-.58,3.28-3.24-.06-13.72-7-20.82-20.69-20.82H45.07c-13.18,0-20.19,7.17-20.34,20.42,0,2.93.71,3.66,3.64,3.64C53.12,360,77.86,360.06,102.61,360.06Zm0-36c4.5,0,9-.09,13.48,0a7.36,7.36,0,0,0,5.1-1.74,51.12,51.12,0,0,0,8.37-8,42,42,0,0,0-3-55.94c-2.25-2.27-3.28-2.08-4.62.72a89.24,89.24,0,0,1-5,8.76c-6.78,10.87-21.42,10.92-28.21.08a96.11,96.11,0,0,1-5.32-9.43c-1.28-2.68-2.27-2.05-4-.42-17.31,16.72-16.61,45.28,1.45,61.35,3.6,3.2,7.27,5.31,12.33,4.65C96.29,323.74,99.45,324.06,102.57,324.06Zm.5-126.93c-1.13.11-1.33,1-1.73,1.52-6.68,9.49-13.3,19-20,28.49a2.89,2.89,0,0,0-.09,3.66c5.75,9.92,11.38,19.91,17.11,29.84,2.53,4.38,6.38,4.41,8.88.09,5.74-9.93,11.38-19.92,17.1-29.85.75-1.29,1-2.26,0-3.67-6.79-9.56-13.48-19.2-20.21-28.8A15,15,0,0,0,103.07,197.13ZM54.34,12.24c-.38,1.37.82,2.2,1.42,3.17C60.33,22.84,65,30.23,69.62,37.62c3.19,5.11,3.19,5.11,6.43-.08l15.81-25.3Zm59.39-.05c6.19,9.91,12.07,19.29,17.89,28.71,1.17,1.89,1.77,1,2.52-.26,2.63-4.24,5.27-8.46,7.91-12.7l9.83-15.75Z"/><path class="cls-2" d="M110.35,186.15H95.26L56.52,186c4-5.41,8-10.79,12-16.26a4.07,4.07,0,0,1,3.8-1.72q30.52.06,61,0a4.1,4.1,0,0,1,3.82,1.72c3.92,5.46,7.95,10.85,11.94,16.26Z"/><path class="cls-2" d="M65.41,54l-50.51.08c0-.24-.08-.55,0-.71,9-12.07,18-24.12,27.46-36.77Z"/><path class="cls-2" d="M190.71,54.05,140.2,54l22.64-36.81c1.62.45,2,1.73,2.76,2.68q11.61,15.35,23.1,30.78C189.48,51.67,190.76,52.49,190.71,54.05Z"/><path class="cls-2" d="M125.41,54H80.19q10.68-17.3,21.35-34.61c.95-1.55,1.58-1.56,2.53,0Q114.71,36.69,125.41,54Z"/><path class="cls-2" d="M54.34,12.24H91.86L76.05,37.54c-3.24,5.19-3.24,5.19-6.43.08C65,30.23,60.33,22.84,55.76,15.41,55.16,14.44,54,13.61,54.34,12.24Z"/><path class="cls-2" d="M113.73,12.19h38.15l-9.83,15.75c-2.64,4.24-5.28,8.46-7.91,12.7-.75,1.22-1.35,2.15-2.52.26C125.8,31.48,119.92,22.1,113.73,12.19Z"/></svg>