<svg id="Layer_1" data-name="Layer 1" xmlns="http://www.w3.org/2000/svg" viewBox="0 0 372.12 372.12"><defs><style>.cls-1{fill:#1a233a;}.cls-2{fill:#ea952e;}</style></defs><title>007-crowns</title><path class="cls-1" d="M204.07,132c11,0,22,.16,33,.06,2.45,0,3.13.63,3.06,3.07-.19,5.87.11,11.76-.14,17.62-.12,2.84.69,3.45,3.47,3.44,29.62-.11,59.24,0,88.86-.15,3.14,0,3.86.75,3.83,3.85-.17,17.62,0,35.24-.16,52.87,0,2.83.7,3.49,3.47,3.43,9.87-.18,19.75,0,29.62-.13,2.49,0,3,.68,3,3.09q-.11,75,0,150c0,2.48-.67,3.05-3.08,3q-183-.09-366,0c-2.42,0-3.08-.57-3.08-3q.12-75,0-150C0,216.69.56,216,3,216c10,.15,20,0,30,.12,2.42,0,3.09-.58,3.08-3-.11-17.87,0-35.75-.13-53.62,0-2.78.62-3.47,3.44-3.46,29.62.12,59.24,0,88.86.15,3.1,0,4-.67,3.85-3.83-.29-5.86,0-11.74-.13-17.61,0-2.12.55-2.7,2.68-2.69,11.11.07,22.24,0,33.36-.07Zm-60,66.13c0,16.87.07,33.74-.08,50.61,0,2.81.67,3.47,3.46,3.45q38.63-.18,77.24,0c2.81,0,3.46-.66,3.45-3.45q-.16-50.62,0-101.24c0-2.81-.66-3.46-3.46-3.45q-38.61.18-77.24,0c-2.81,0-3.47.66-3.45,3.46C144.13,164.33,144.06,181.2,144.06,198.08Zm-12,12.15c0-13,0-26,0-39,0-2.17-.14-3.25-2.89-3.23q-39.18.18-78.37,0c-2.37,0-2.84.65-2.84,2.91q.14,39.18,0,78.37c0,2.37.65,2.84,2.91,2.83q39.18-.12,78.36,0c2.38,0,2.86-.65,2.84-2.91C132,236.23,132.06,223.23,132.06,210.23Zm192-.16c0-13-.07-26,.06-39,0-2.45-.62-3.07-3.07-3.07q-39,.15-78,0c-2.44,0-3.07.62-3.06,3.07q.13,39,0,78c0,2.44.62,3.07,3.06,3.06q39-.13,78,0c2.45,0,3.09-.62,3.07-3.06C324,236.07,324.06,223.07,324.06,210.07Zm-138,54q-67.31,0-134.61-.07c-2.79,0-3.6.61-3.47,3.45.26,5.61.28,11.25,0,16.86-.16,3.14.72,3.85,3.83,3.84q88.68-.16,177.37-.08c30.49,0,61,0,91.49.07,2.78,0,3.59-.61,3.46-3.44-.25-5.62-.28-11.26,0-16.87.16-3.13-.72-3.85-3.84-3.84Q253.19,264.17,186.06,264.07Zm-.38,60q67.5,0,135,.07c2.79,0,3.59-.61,3.46-3.44-.25-5.62-.28-11.26,0-16.87.16-3.14-.73-3.84-3.84-3.84q-89.05.17-178.11.08c-30.25,0-60.5,0-90.75-.07-2.78,0-3.58.62-3.46,3.45.25,5.61.28,11.25,0,16.86-.16,3.14.72,3.85,3.83,3.84Q118.76,324,185.68,324.07Zm.54,12h-10.5q-62.06,0-124.12-.07c-3,0-3.74.78-3.61,3.67a159.12,159.12,0,0,1,0,16.49c-.21,3.38.85,4,4.06,4q134.06-.15,268.11-.08a9.38,9.38,0,0,1,1.5,0c2,.33,2.5-.55,2.46-2.47-.12-6-.23-12,0-18,.13-3-.83-3.61-3.68-3.6Q253.33,336.15,186.22,336.07Zm-174.16-42c0,21,0,42-.06,63,0,2.43.58,3.15,3.05,3.07,6.12-.18,12.25-.15,18.37,0,2.12.05,2.69-.56,2.68-2.68q-.09-63.36,0-126.73c0-2.1-.53-2.74-2.66-2.69-6,.15-12,.22-18,0-2.81-.12-3.47.64-3.46,3.45C12.12,252.32,12.06,273.19,12.06,294.07Zm348,.38c0-21.12,0-42.24.05-63.37,0-2.43-.58-3.15-3.05-3.07-6.12.19-12.25.15-18.37,0-2.12-.05-2.68.56-2.68,2.68q.09,63.38,0,126.74c0,2.1.54,2.73,2.67,2.68,6-.14,12-.22,18,0,2.82.11,3.48-.65,3.46-3.46C360,336,360.06,315.2,360.06,294.45Z"/><path class="cls-2" d="M204.07,132h-36c0-8,0-16,0-24,0-1.65.06-3.06-2-3.89C151.06,98,140.91,87,135,72q-1.39-6-2.8-11.94l-.24-36v-12a60.65,60.65,0,0,0,0-7.86C131.55.58,133.12,0,136.38,0c12.87.17,25.74.07,38.62.07,20.24,0,40.49.07,60.74-.07,3.25,0,4.82.58,4.38,4.22a60.66,60.66,0,0,0,0,7.86v12q-.12,18-.25,36-1.4,6-2.8,11.93c-5,12.77-13.22,22.76-25.31,29.44a2.85,2.85,0,0,1-.65.37c-7.07,1.31-7.58,6.24-7.17,12.16S204.07,126,204.07,132Z"/><path class="cls-1" d="M132.21,60.07Q133.6,66,135,72c-4.85-.05-9.71.41-14.54-.53a30,30,0,0,1,4.77-59.38c2.24-.06,4.48,0,6.73,0v12c-2.37,0-4.74-.07-7.09.06a18,18,0,0,0-3.79,35.24C124.76,60.43,128.5,59.93,132.21,60.07Z"/><path class="cls-1" d="M240.15,24.06v-12c5,0,9.94-.16,14.81,1.37,13.66,4.29,22.77,18.12,20.93,32-2,14.91-14,26.09-28.69,26.56-3.36.11-6.73,0-10.1,0q1.41-6,2.8-11.93c2.36,0,4.73.07,7.09,0a18,18,0,0,0-.12-35.93C244.63,24,242.39,24.07,240.15,24.06Z"/><path class="cls-1" d="M308.57,77.17l-1.4-.67c-6.56-3.28-13.09-6.61-19.69-9.8-1.73-.84-2-1.53-1.14-3.35,4.06-8.7,4-8.74,12.41-4.52,4.56,2.28,9.07,4.65,13.68,6.83,1.71.81,2.28,1.51,1.18,3.32-1.29,2.12-2.23,4.44-3.4,6.64C309.86,76.28,309.82,77.48,308.57,77.17Z"/><path class="cls-1" d="M314.22,16.78c.27,1.21-.86,1.29-1.55,1.65-6.77,3.41-13.58,6.73-20.3,10.23-1.6.83-2,.24-2.75-1-4.8-8.61-4.83-8.6,3.88-13,4.45-2.22,8.95-4.34,13.32-6.7,1.8-1,2.75-1,3.61,1.06C311.54,11.64,312.93,14.16,314.22,16.78Z"/><path class="cls-1" d="M86.29,19.58c-1.5,3-3,6-4.52,9-.69,1.33-1.55.27-2.18,0C72.78,25.18,66,21.74,59.21,18.42c-1.49-.73-1.88-1.48-.9-2.83a3.47,3.47,0,0,0,.18-.33c1.43-2.75,2.25-6.73,4.49-7.83,1.68-.82,5.2,2,7.86,3.33q6.85,3.38,13.63,6.87C85.25,18,86.57,18.1,86.29,19.58Z"/><path class="cls-1" d="M80.65,55.07a.9.9,0,0,1,1.16.61,9.33,9.33,0,0,0,.52,1c4.79,8.58,4.79,8.58-3.94,13-4.55,2.27-9.13,4.5-13.64,6.85-1.5.78-2.2.69-3.09-1-4.69-8.64-4.75-8.61,4-13l13-6.48Z"/><path class="cls-1" d="M72.39,48.07c-3.37,0-6.75-.11-10.12,0-1.87.09-2.2-.6-2.26-2.33-.34-9.71-.39-9.71,9.09-9.71,4.12,0,8.25.13,12.37,0,2.19-.09,2.62.67,2.64,2.72.1,9.33.17,9.33-9.1,9.33Z"/><path class="cls-1" d="M300.11,36.07c3.13,0,6.26.15,9.37,0,2.22-.14,2.61.7,2.63,2.73.09,9.32.16,9.32-9.11,9.32-4.12,0-8.25-.13-12.37,0-2.21.1-2.6-.7-2.62-2.73-.1-9.32-.16-9.32,9.11-9.32Z"/><path class="cls-1" d="M186.21,192.07c5.85,0,5.85,0,5.85,5.78,0,6.22,0,6.22-6.16,6.22-5.84,0-5.84,0-5.84-5.78C180.06,192.07,180.06,192.07,186.21,192.07Z"/><path class="cls-1" d="M84.06,198.08c0,6,0,6-6,6s-6,0-6-6,0-6,6-6S84.06,192.07,84.06,198.08Z"/><path class="cls-1" d="M108.06,198.23c0,5.84,0,5.84-5.78,5.84-6.22,0-6.22,0-6.22-6.15,0-5.85,0-5.85,5.78-5.85C108.06,192.07,108.06,192.07,108.06,198.23Z"/><path class="cls-1" d="M264.06,198.29c0,5.78,0,5.78-5.85,5.78-6.15,0-6.15,0-6.15-6.22,0-5.78,0-5.78,5.84-5.78C264.06,192.07,264.06,192.07,264.06,198.29Z"/><path class="cls-1" d="M282.4,204.07c-6.34,0-6.34,0-6.34-6.4,0-5.6,0-5.6,5.65-5.6,6.35,0,6.35,0,6.35,6.41C288.06,204.07,288.06,204.07,282.4,204.07Z"/><path class="cls-1" d="M306.16,192.07c5.9,0,5.9,0,5.9,5.73,0,6.27,0,6.27-6.11,6.27-5.89,0-5.89,0-5.89-5.73C300.06,192.07,300.06,192.07,306.16,192.07Z"/></svg>