<svg id="Layer_1" data-name="Layer 1" xmlns="http://www.w3.org/2000/svg" viewBox="0 0 203.97 371.92"><defs><style>.cls-1{fill:#1a233a;}.cls-2{fill:#ea952e;}</style></defs><title>007-crowns</title><path class="cls-1" d="M9.79.07H60.26C66.51.07,72.76.2,79,0c2.5-.08,3.61.58,4.43,3.09C89,20.27,94.79,37.38,100.52,54.51c.38,1.14.79,2.26,1.47,4.18.69-1.82,1.14-2.9,1.51-4q8.64-25.87,17.25-51.76c.5-1.5.66-2.92,3-2.91,23.36.1,46.73.06,70.1.06.51,1.28-.25,2.26-.57,3.23q-21.06,63.27-42.24,126.51c-.74,2.23-1,3.39,1.72,4.79,6.08,3.18,9.19,8.65,9.24,15.59.08,11.5.09,23,0,34.49a5.55,5.55,0,0,0,2.4,5c26.74,21.49,40.14,49.4,39.57,83.74-.79,47.6-38,90-85,97.24-55.49,8.55-106.2-26.05-116.79-81.1-7.62-39.65,5.47-72.78,36.27-98.79,2.65-2.24,3.8-4.26,3.73-7.73-.25-10.87-.12-21.74-.08-32.61,0-7.12,3.21-12.57,9.4-15.9,2.37-1.27,2.35-2.37,1.64-4.5Q32,66.91,11,3.81C10.59,2.65,10.23,1.47,9.79.07Zm92.17,180a90,90,0,1,0,90.06,90A90.14,90.14,0,0,0,102,180.08Zm-51.77-168c2.62,6.24,6.94,10.69,11.17,15.23C74.87,41.82,80.2,59,77.71,78.6c-2,16.22,2.1,30.36,13.4,42.29,4.39,4.63,9.5,9.09,11.38,15.15,2.43,7.83,7.4,9.06,14.23,8a4.31,4.31,0,0,0,.79-.32c-.33-1-.67-2.1-1-3.15q-7.59-22.86-15.2-45.72Q88,55,74.71,15.12c-.47-1.4-.44-3.16-2.92-3.1C64.72,12.19,57.65,12.08,50.19,12.08Zm-23.62.2c.31,1.07.59,2.12.94,3.16Q33.63,33.88,39.77,52.3q13.57,40.76,27.1,81.52c1.84,5.56,5,9.66,11.09,10.12,4.92.38,9.9.08,15.25.08-2.61-6.34-7.1-10.81-11.37-15.47C68.64,114.18,63.3,97.26,65.76,77.92,67.84,61.46,63.7,47,52.07,35c-4.43-4.59-9.42-9.13-11.3-15.2C38.35,12,33.45,11,26.57,12.28ZM130,142.81c4.38-1.7,5.94-5.3,7.23-9.15q17.6-52.8,35.2-105.6c1.74-5.23,3.43-10.49,5.22-16-3.37,0-6.24.06-9.1,0-1.27,0-2.12.23-2.57,1.54-3.24,9.33-9.76,16.34-16.17,23.56-9.58,10.78-13.89,23.59-11.92,38,2.48,18.19-1.14,34.69-12.4,49.34a2.89,2.89,0,0,0-.68,3.05C126.57,132.57,128.23,137.64,130,142.81Zm20,37.25c0-10.33,0-20.17,0-30a6.1,6.1,0,0,0-.65-2.5c-1.56-3.21-3.27-3.37-5.54-.62a23.61,23.61,0,0,1-18.87,9.13q-22.87.09-45.74,0c-7.56,0-13.71-3.11-18.69-8.77-.85-1-1-3.25-3.18-2.37a5.17,5.17,0,0,0-3.19,4.32,41.54,41.54,0,0,0-.09,4.87c0,8.53,0,17.06,0,26a101.86,101.86,0,0,1,96-.06Zm-30.3-68c5-10.1,8.23-19.69,6.63-30.25-3.24-21.49,2.12-40.23,17.4-55.95a74.79,74.79,0,0,0,6.06-7.11c1.45-1.93,2.94-3.93,3.39-6.66-6.71,0-13.19.11-19.67-.06-2.36-.06-3.43.59-4.2,3C122.71,35.19,116,55.36,109.2,75.53a6.54,6.54,0,0,0-.28,4.36C112.46,90.38,116,100.88,119.71,112.05Z"/><path class="cls-1" d="M102.18,192.07A78,78,0,1,1,24,269.73,78.13,78.13,0,0,1,102.18,192.07Zm-3.86,143.8h7.42a43.82,43.82,0,0,0,10.34-1.34c17.32-4.11,31.23-13.19,40.89-28.37a11.76,11.76,0,0,0,2.78-4.6q16.81-31.49,0-63A11.93,11.93,0,0,0,157,234c-12.15-18.41-29.36-28.09-51.25-29.71H98.32c-2,.18-4,.23-5.93.56C73.1,208,57.78,217.44,47.06,234a11.82,11.82,0,0,0-2.76,4.59q-16.81,31.5,0,63a11.93,11.93,0,0,0,2.77,4.6C59.25,324.53,76.43,334.26,98.32,335.87Z"/><path class="cls-2" d="M47.07,306.17a11.93,11.93,0,0,1-2.77-4.6Q52.63,286.78,61,272a3.52,3.52,0,0,0,0-3.84q-8.37-14.76-16.66-29.58A11.82,11.82,0,0,1,47.06,234q16.26,0,32.52.09c1.23,0,2.42.15,3.2-1.29,5.14-9.52,10.35-19,15.54-28.51h7.43c5.18,9.5,10.4,19,15.54,28.5.77,1.44,1.95,1.3,3.18,1.3q16.26,0,32.52-.09a11.93,11.93,0,0,1,2.77,4.6c-5.55,9.86-11.07,19.73-16.65,29.58a3.48,3.48,0,0,0,0,3.83q8.35,14.76,16.64,29.57a11.76,11.76,0,0,1-2.78,4.6l-32.5-.08c-1.23,0-2.41-.14-3.19,1.3-5.14,9.52-10.35,19-15.54,28.49H98.32c-5.19-9.5-10.4-19-15.54-28.5-.78-1.44-2-1.3-3.2-1.29Zm54.93-.1a36,36,0,1,0-36-36A36.1,36.1,0,0,0,102,306.07Z"/><path class="cls-1" d="M102,306.07a36,36,0,1,1,36-36A36.13,36.13,0,0,1,102,306.07Zm0-60a24,24,0,1,0,24,24.06A24.07,24.07,0,0,0,102,246.08Z"/><path class="cls-2" d="M102,246.08a24,24,0,1,1-24,24.11A24.05,24.05,0,0,1,102,246.08Z"/></svg>