<svg id="Layer_1" data-name="Layer 1" xmlns="http://www.w3.org/2000/svg" viewBox="0 0 372.2 372.17"><defs><style>.cls-1{fill:#1a233a;}.cls-2{fill:#ea952e;}</style></defs><title>007-crowns</title><path class="cls-1" d="M200.69,351.34c10.77,4.16,20.78,8,31.65,8.66,1.56.1,1.84.72,1.79,2.05-.08,1.87,0,3.75,0,5.63,0,4.81,0,4.83-5,4.22-13.89-1.73-26.8-6.67-39.45-12.31a8.2,8.2,0,0,0-7.38.09c-12.21,5.41-24.62,10.27-38,12-1.11.15-2.24.19-3.35.38-2.2.38-3.15-.25-2.94-2.71.25-2.85-.93-6.4.38-8.44s5.23-1.06,8-1.6A132.42,132.42,0,0,0,171,351.53c-.34-.39-.52-.79-.82-.93C152.55,342.35,135.48,333,117,326.78c-1.06-.36-2.14-.68-3.19-1.06-5.43-1.94-9.94-1.45-15.14,2.13-18.87,13-43.73,10.5-60.18-5.39-5.12-4.95-10-10.11-15.17-15-1.42-1.36-1.38-2.1,0-3.47a59.54,59.54,0,0,1,14-11c-.36-1.41-1.57-1.35-2.38-1.76a44,44,0,0,1-22.81-26.47c-2.21-6.62-4.35-13.26-6.7-19.83-.84-2.36-.6-3.57,2.07-4.09A9.09,9.09,0,0,0,12.06,239c-9.24-9.63-12.51-21.27-12-34.32.28-7.36.14-14.75,0-22.12,0-2.28.52-3,2.88-3a63.68,63.68,0,0,1,15.83,1.91c-1-10.54,2.66-19.56,7.75-28.22,4-6.78,7.88-13.6,11.39-20.62,1.61-3.23,2.85-2.94,5.5-1.31,18.44,11.31,25.54,28.16,20.51,49.22a8.43,8.43,0,0,0,0,1.48A52.44,52.44,0,0,1,82,179.72c-7-11.59-3.19-23.47-2-35C83.78,109.24,89.3,74,94.67,38.65c.6-3.95,1.41-7.87,1.84-11.83.24-2.19,1-2.82,3.21-2.79,9.13.15,18.25,0,27.38.07A47.31,47.31,0,0,0,161,10.71c15.23-14.33,35.13-14.27,50.34.11a46.78,46.78,0,0,0,33.19,13.27c9.25,0,18.5.08,27.75-.05,2.29,0,3.14.55,3.47,2.92,2.78,19.9,5.75,39.78,8.59,59.68,3.21,22.49,6.24,45,8.73,67.6.39,3.6.52,7.23,1,10.82.7,5.42-1.36,9.95-4.91,14.49,6.83.11,13,.39,19.43,2.69-1.53-6.1-2.42-11.84-1.8-17.7,1.69-15.9,10.43-26.83,24.08-34.36,1.49-.82,1.92-.1,2.52,1,5.5,10.06,11.17,20,16.49,30.19,3.18,6.09,4,12.8,3.66,20.09a60.3,60.3,0,0,1,16.26-1.81c1.35,0,2.41,0,2.35,1.91-.34,11.36.68,22.74-.58,34.08-1,9.1-5.29,16.74-11.37,23.41a3,3,0,0,0,.42.37c2.13,1.38,5.94.64,6.59,3.15.53,2-1.25,4.67-2,7-1.77,5.32-3.49,10.66-5.35,16-4.39,12.53-12.76,21.44-25.42,27A65.68,65.68,0,0,1,349,304c1.2,1.23,1.45,1.88.07,3.21-5.68,5.46-11,11.27-16.84,16.57a47.45,47.45,0,0,1-58.83,4c-4.8-3.35-9-4-14.42-2.29-14.58,4.55-28.22,11.21-41.89,17.85ZM288.28,181c-3.81,3.48-7,6.69-10.47,9.54-21,17.13-44.08,31-67.89,43.65-16,8.48-32.71,8.05-49,.09a430.45,430.45,0,0,1-43.43-24.19c-11.37-7.29-22.43-15-31.46-25.22-.48-.54-.67-1.69-2-1.3,0,9.24.06,18.48-.05,27.72a10.31,10.31,0,0,0,1.09,5c2.53,5,6.13,9.8,6.83,15.29,1.11,8.68,6.17,14.31,12.18,19.65a43.1,43.1,0,0,1,3.42,3.47c11,12.23,14.95,26.45,12,42.64-1,5.67-3.5,10.78-6.12,15.93A137.8,137.8,0,0,1,133.15,320c17,7.12,33.35,15.71,50,23.61a6.07,6.07,0,0,0,5.9,0c9-4.5,18.13-8.88,27.23-13.24,13.15-6.28,26.23-12.76,40.41-16.47,2.95-.77,1.56-1.87.83-3.27-10.17-19.48-6.91-41.53,8.47-57.3,3.41-3.49,6.9-6.88,10.33-10.35.77-.78,1.84-1.4,1.94-2.66.76-9.09,5.24-16.81,9.16-24.72a6.06,6.06,0,0,0,.87-2.82C288.27,202.41,288.28,192,288.28,181ZM122.82,36.1c-5,0-8.43.32-11.76-.08s-4.08,1.17-4.49,4C103,65.16,99.2,90.21,95.7,115.31c-2.31,16.57-4.46,33.17-5.58,49.89a13.56,13.56,0,0,0,3.1,9.69c4.6,5.86,10.3,10.53,16.22,14.94,17.28,12.84,36.08,23.16,55.2,32.92,14.57,7.44,29.06,7.09,43.27-.95,8.9-5,17.75-10.17,26.42-15.57,14.95-9.3,29.8-18.75,42.68-30.94,4.07-3.85,5.45-8,4.83-13.66-2.16-19.61-4.66-39.18-7.34-58.73-2.93-21.27-6.08-42.51-9-63.78-.35-2.52-1.35-3.18-3.8-3.08-5.25.21-10.5,0-15.75.07-16.8.24-31.2-5.47-43.4-17-9.68-9.19-23.24-9-33,.15a63.32,63.32,0,0,1-15.54,11A62.15,62.15,0,0,1,122.82,36.1ZM281.57,254.63c-3.53,3.74-7.42,7.05-10.52,11.14a36.77,36.77,0,0,0-2.34,40.48c1.25,2.09,2.13,2.58,3.91.49,2.27-2.65,4.95-4.94,7.23-7.58C290.61,286.64,291.41,267.34,281.57,254.63Zm-179.75,54c6.12-8.7,7.78-18.2,5.89-28.46-1.93-10.45-8.84-17.6-16.12-24.54-1.48-1.42-1.85,0-2.38.82a36,36,0,0,0-5.46,20.63C84.12,290.75,91.94,300.13,101.82,308.61Zm-40.29-9.32a38.73,38.73,0,0,0-20.46,5.32c-1.76,1-2,1.76-.41,3.2,2.42,2.16,4.55,4.64,7,6.75,11.54,9.92,24.48,12.17,38.65,6.6,7.7-3,7.54-3.05,2-8.92C80.5,304.1,71.33,299.28,61.53,299.29Zm249.65,0c-.88.08-2.75.17-4.6.41-11.26,1.48-19.07,8.54-26.44,16.35-1.61,1.7,0,2.11.92,2.65a36.46,36.46,0,0,0,22.9,5.22c12-1.14,20.47-8.35,28.22-16.75,1.42-1.55-.06-1.91-.87-2.41A36.91,36.91,0,0,0,311.18,299.29Zm48.92-95.85c0-2.62-.18-5.26,0-7.86.26-2.87-.68-3.43-3.28-2.47-10.62,3.92-17.51,11.19-20,22.3-1.54,6.77-.38,13.69-.78,20.53-.16,2.64.54,3.25,3.09,2.35,9.55-3.38,16.06-9.74,19.43-19.29C360.37,213.94,360.15,208.68,360.1,203.44ZM36.19,238.64c-.52-7.85.9-15.75-.89-23.48-2.57-11.08-9.53-18.38-20.24-22.06-.86-.29-3-1.88-2.91.88.16,7.59-.86,15.25.81,22.76C15.42,227.83,25.9,237.75,36.19,238.64Zm7.69-91.88c-3.46,6.32-6.83,12.42-10.13,18.55-3,5.6-3.59,11.64-2.8,17.82.28,2.17.38,4.64,2.08,6.27a63.49,63.49,0,0,1,8.33,9.38c3.33-6.12,6.67-11.65,9.45-17.45C56.43,169.63,53.52,155.1,43.88,146.76Zm286.81,51.8c2.27-2.54,4.08-5.12,6.42-7.05a11.64,11.64,0,0,0,4.11-8.06c.73-5.65.58-11.3-2-16.48-3.42-6.77-7.13-13.4-10.74-20.11-9.35,6.87-12.72,22-7.3,33.83C323.92,186.75,327.41,192.48,330.69,198.56ZM27,249.83c-7.27-.11-7.28-.11-5.59,4.86,1.08,3.17,2,6.39,3.35,9.48a32,32,0,0,0,30.52,19.47c2.42-.09,3.08-.64,2.14-3-1.55-3.93-2.54-8.1-4.33-11.9C47.54,256.84,38,250.69,27,249.83ZM318.38,283.6A32,32,0,0,0,348,262.81c1.27-3.37,2.18-6.88,3.5-10.23.87-2.22.26-2.72-2-2.82a31.91,31.91,0,0,0-30.48,18.93c-1.51,3.4-2.62,7-3.83,10.5C313.72,283.62,313.76,283.63,318.38,283.6ZM75.53,224.22c-9.63,8-14.35,17.76-13.31,29.84.9,10.55,6.13,19.91,9.17,29.89,0,.09.41.07.69.11a5.59,5.59,0,0,0,.09-1.07c-1.63-13.33,1.13-25.56,9.28-36.39.86-1.14.7-2.3.65-3.55C81.84,236.21,79,230.31,75.53,224.22Zm221.08.34c-4.19,6.78-6.05,12.08-6.5,18.43-.09,1.24-.26,2.42.59,3.56,8.43,11.26,11.22,23.92,9.05,37.77,1.46,0,1.5-1.07,1.76-1.83,2.4-6.92,4.89-13.82,7.11-20.8C313,247.94,307.85,232.17,296.61,224.56ZM50.17,246.06c1.64-10.72,5.25-20.7,13.65-27,7.6-5.68,9.38-12.21,8.3-20.64a11.09,11.09,0,0,1,0-3c.45-3.13-1-3.17-3.36-2.3-10.62,3.92-17.65,11.2-19.88,22.36-1.86,9.36-.43,18.92-.77,28.38C48.07,245.19,49,245.54,50.17,246.06ZM322,246c2-.44,2.1-1.71,2.09-3.2-.05-7.48.12-15-.09-22.46A30.1,30.1,0,0,0,303.09,193c-1.94-.57-3.2-.82-3,2.07.25,4.85.1,9.72.06,14.59a3.88,3.88,0,0,0,1.83,3.72C313.37,221.2,319.83,232.16,322,246Z"/><path class="cls-2" d="M185.8,216.12a30.83,30.83,0,0,1-14.22-3.32c-20.43-10.54-40.52-21.59-58.94-35.51-7.58-5.73-11.75-11.7-9.94-21.88,2.63-14.83,3.84-29.9,5.87-44.84,2.48-18.28,5-36.55,7.86-54.77,1.44-9.3-.9-7.78,8.4-7.64,20.33.32,38-6,52.73-20.13,5.38-5.17,11.44-5.38,16.7-.32,15.48,14.91,34,21.35,55.24,20.3,4.24-.21,5.31,1.14,5.85,5.24C259,81.17,263.1,109,266.92,136.94c1.21,8.77,2,17.59,3.07,26.37.29,2.33-1.25,3.38-2.62,4.6-12.81,11.46-27.21,20.69-41.83,29.58-7.68,4.66-15.46,9.17-23.2,13.74A33.18,33.18,0,0,1,185.8,216.12Zm-32.91-120c-1.5,0-3,0-4.5,0-4,.16-8.88-1.55-11.66.64s-3.14,7.1-4.92,10.64c-1.2,2.4-.38,3.44,1.59,4.71,7.88,5,15.57,10.39,23.52,15.32,2.64,1.64,2.72,3,1.52,5.56-3.71,8-7,16.26-10.7,24.29-1.17,2.55-.8,4,1.52,5.4a58,58,0,0,1,7.2,5.37c1.75,1.5,2.94,1.35,4.69-.13,7.33-6.22,14.88-12.18,22.19-18.43,2.16-1.84,3.52-1.75,5.61.07,5.85,5.07,11.92,9.89,17.89,14.82,6.54,5.38,6.53,5.39,13.47.22a34.13,34.13,0,0,1,3.33-2.43c2-1.11,1.9-2.38,1-4.29-3.82-8.52-7.39-17.17-11.26-25.67-1-2.2-.5-3.18,1.36-4.37,8.08-5.2,16-10.61,24.14-15.75,2.14-1.36,2.53-2.53,1.42-4.78a73.86,73.86,0,0,1-3.46-8.67c-.66-2-1.7-2.62-3.81-2.58-9,.13-18-.07-27,.13-2.8.06-3.86-.82-4.44-3.52-1-4.62-2.44-9.15-3.75-13.7-1.2-4.19-1.24-9.84-4-12.14-3-2.47-8.62-.41-13.07-.77-2.4-.19-3.18.81-3.74,2.94-2.11,8.08-4.49,16.09-6.57,24.17-.56,2.2-1.37,3.09-3.74,3C162.14,96,157.51,96.08,152.89,96.09Z"/><path class="cls-1" d="M152.89,96.09c4.62,0,9.25-.14,13.86,0,2.37.1,3.18-.79,3.74-3,2.08-8.08,4.46-16.09,6.57-24.17.56-2.13,1.34-3.13,3.74-2.94,4.45.36,10.08-1.7,13.07.77,2.79,2.3,2.83,8,4,12.14,1.31,4.55,2.76,9.08,3.75,13.7.58,2.7,1.64,3.58,4.44,3.52,9-.2,18,0,27-.13,2.11,0,3.15.62,3.81,2.58a73.86,73.86,0,0,0,3.46,8.67c1.11,2.25.72,3.42-1.42,4.78-8.11,5.14-16.06,10.55-24.14,15.75-1.86,1.19-2.36,2.17-1.36,4.37,3.87,8.5,7.44,17.15,11.26,25.67.86,1.91.91,3.18-1,4.29a34.13,34.13,0,0,0-3.33,2.43c-6.94,5.17-6.93,5.16-13.47-.22-6-4.93-12-9.75-17.89-14.82-2.09-1.82-3.45-1.91-5.61-.07-7.31,6.25-14.86,12.21-22.19,18.43-1.75,1.48-2.94,1.63-4.69.13a58,58,0,0,0-7.2-5.37c-2.32-1.45-2.69-2.85-1.52-5.4,3.7-8,7-16.26,10.7-24.29,1.2-2.6,1.12-3.92-1.52-5.56-7.95-4.93-15.64-10.28-23.52-15.32-2-1.27-2.79-2.31-1.59-4.71,1.78-3.54,2.19-8.48,4.92-10.64s7.69-.48,11.66-.64C149.89,96,151.39,96.09,152.89,96.09Zm53.81,52.56.58-.6c-3-6.83-5.86-13.7-9-20.46-.9-2-.68-2.94,1.2-4.14,6.86-4.32,13.59-8.84,20.33-13.34.69-.47,2-.54,1.8-2H199.14c-5.61,0-5.59,0-7.08-5.35-1.85-6.61-3.73-13.2-5.59-19.8a228.41,228.41,0,0,0-7,22.65c-.51,2-1.38,2.54-3.32,2.52-7.74-.09-15.48-.05-23.22,0-.82,0-1.94-.64-2.59.68,6.91,4.55,13.68,9.25,20.72,13.5,3.16,1.91,3.77,3.56,2.12,6.93-3.05,6.2-5.6,12.64-8.36,19a147,147,0,0,0,17.24-13.33c2.93-2.64,4.87-2.93,7.94-.1C195.33,139.7,201.12,144.07,206.7,148.65Z"/><path class="cls-2" d="M206.7,148.65c-5.58-4.58-11.37-9-16.66-13.84-3.07-2.83-5-2.54-7.94.1a147,147,0,0,1-17.24,13.33c2.76-6.35,5.31-12.79,8.36-19,1.65-3.37,1-5-2.12-6.93-7-4.25-13.81-8.95-20.72-13.5.65-1.32,1.77-.67,2.59-.68,7.74-.07,15.48-.11,23.22,0,1.94,0,2.81-.51,3.32-2.52a228.41,228.41,0,0,1,7-22.65c1.86,6.6,3.74,13.19,5.59,19.8,1.49,5.35,1.47,5.35,7.08,5.35h22.51c.2,1.47-1.11,1.54-1.8,2-6.74,4.5-13.47,9-20.33,13.34-1.88,1.2-2.1,2.16-1.2,4.14,3.1,6.76,6,13.63,9,20.46Z"/></svg>