<svg id="Layer_1" data-name="Layer 1" xmlns="http://www.w3.org/2000/svg" viewBox="0 0 111.94 87.63"><defs><style>.cls-1{fill:#b52c7f;}.cls-2{fill:#e5b9c4;}.cls-3{fill:#dd94b3;}.cls-4{fill:#3da496;}</style></defs><title>Untitled-2</title><path class="cls-1" d="M36.65,63.15l-.24-.23-.28-.19a.6.6,0,0,0-.23-.1.44.44,0,0,0-.22-.05.57.57,0,0,0-.38.15A10.76,10.76,0,0,0,34,64.08a2,2,0,0,0-.17.23,2.28,2.28,0,0,0-.24.53c0,.1-.06.19-.08.29a.64.64,0,0,0,0,.37,1.67,1.67,0,0,0,.17.26c.18.22.41.06.54-.1s.41-.58.62-.87c.08-.12.21-.33.29-.31a.3.3,0,0,1,.11,0,.52.52,0,0,1,.18.15l.08.09a2.1,2.1,0,0,1,.24.56,2.25,2.25,0,0,1-.38,2l-1.13,1.48c-.18.21-.3.46,0,.67a.32.32,0,0,0,.45,0,1.09,1.09,0,0,0,.18-.19c.29-.36.59-.74.89-1.1s.58-.74.85-1.13a4.06,4.06,0,0,0,.77-2A2.64,2.64,0,0,0,36.65,63.15ZM88,62.45a2.2,2.2,0,0,0-.49-1.1c-.8-.94-1.24-1-2-.27-.15.14-.29.29-.43.43a4.22,4.22,0,0,0-.67,1,3.31,3.31,0,0,0-.21.58.62.62,0,0,0,0,.19.5.5,0,0,0,.26.47c.29.16.46,0,.6-.22s.4-.56.57-.84.32-.31.48-.15a.17.17,0,0,1,.06.08,2.34,2.34,0,0,1,.31.66,2.44,2.44,0,0,1-.59,2.36c-.32.38-.63.77-.94,1.15-.17.19-.24.43,0,.62s.41,0,.58-.13a2.08,2.08,0,0,0,.21-.21c.56-.7,1.15-1.38,1.65-2.13a4.18,4.18,0,0,0,.74-2.1A2.58,2.58,0,0,0,88,62.45ZM29.36,82.14c-.65-.66-1.32-1.33-2-2a3,3,0,0,0-.37-.26,2.5,2.5,0,0,0-.28.22c-.61.58-1.22,1.17-1.81,1.79a.58.58,0,0,0,0,.54c.67.72,1.37,1.38,2.06,2.07a.41.41,0,0,0,.52.11.49.49,0,0,0,.18-.14l1.67-1.67C29.54,82.6,29.6,82.38,29.36,82.14Zm-3-18L26.23,64a.27.27,0,0,0-.1-.09c-.27-.2-.59-.41-.92-.22l-.54.36-.24.22a2.3,2.3,0,0,0-.73,1.39,1.15,1.15,0,0,1-.15.32c-.09-.09-.21-.14-.26-.25a3.45,3.45,0,0,0-1.24-1.41,2,2,0,0,0-.35-.16h-.2a2.89,2.89,0,0,0-1.07.88l-.19.24a.94.94,0,0,0-.18.39.41.41,0,0,0,.1.32.33.33,0,0,0,.29,0,1,1,0,0,0,.17-.1l.16-.12a.36.36,0,0,1,.14-.1.31.31,0,0,1,.4.1h0a8.79,8.79,0,0,1,.6.74A5.6,5.6,0,0,1,22.75,69a.72.72,0,0,0,.19.38l.1.08h0a.6.6,0,0,0,.44-.14h0c.2-.24.38-.47.55-.71a5.75,5.75,0,0,0,.42-.76,3.49,3.49,0,0,0,.25-.73.32.32,0,0,0,0-.16,4.14,4.14,0,0,0,0-1.41.27.27,0,0,1,0-.12.31.31,0,0,1,.05-.1.09.09,0,0,1,0,0s0-.05,0-.05h0a.11.11,0,0,1,.12,0,.44.44,0,0,1,.19.1,3.45,3.45,0,0,1,.25.41l.06.1a2.09,2.09,0,0,0,.14.17l.09,0a.22.22,0,0,0,.21,0,.3.3,0,0,0,.1-.07l.18-.18.15-.14.24-.26C27,65,27,64.84,26.32,64.09Zm80.32-6a.64.64,0,0,0-.11-.16l-2-2c-.26-.25-.4-.25-.64,0h0c-.43.47-.87.93-1.32,1.39l-.08.09c-.21.18-.39.15-.6-.08s-.37-.37-.56-.54-.37-.37-.54-.57a1.9,1.9,0,0,0-.18-.2c-.38-.4-.47-.34-1,.2l-.4.42c-.42.42-.85.8-1.27,1.22l-.11.11c-.23.24-.18.36.12.66.64.61,1.26,1.24,1.9,1.87a1,1,0,0,0,.18.18c.16.09.29.06.48-.15l1.25-1.31c.38-.4.49-.39.88,0s.86.89,1.28,1.34c.18.19.32.21.52,0l2-2a1.77,1.77,0,0,0,.21-.32A1.74,1.74,0,0,1,106.64,58.13Zm-43,26c-.42-.42-.83-.84-1.24-1.27-.21-.2-.42-.42-.62-.63h0c-.32-.35-.46-.35-.78,0l-1.36,1.4a.33.33,0,0,1-.54,0l-1.37-1.44a.94.94,0,0,0-.1-.1.44.44,0,0,0-.17-.12.29.29,0,0,0-.26,0l-.08.07s-.06.07-.1.1c-.65.66-1.32,1.3-2,2-.07.08-.12.2-.2.31a.25.25,0,0,1,0,.07,2.71,2.71,0,0,0,.17.25c.65.65,1.31,1.3,2,2,.29.3.46.3.74,0s.44-.48.65-.72.45-.48.67-.72a.35.35,0,0,1,.55,0c.43.44.86.88,1.28,1.34l.13.14a.53.53,0,0,0,.12.1c.23.17.39.08.68-.22.59-.63,1.2-1.24,1.82-1.84C63.89,84.51,63.89,84.35,63.63,84.1ZM45.14,77.17V64.76c0-.8,0-1.6,0-2.4,0-.38-.18-.56-.5-.48a.37.37,0,0,0-.16.07l-.41.23c-.13.09-.28.17-.4.26l-.26.19a1.08,1.08,0,0,0-.41.85c0,1.83,0,3.65,0,5.48h.08c0,2.11,0,4.21,0,6.33,0,1.1,0,2.19.08,3.28,0,.45.27.72.56.54a5.21,5.21,0,0,0,1.31-1C45.22,77.91,45.11,77.48,45.14,77.17Zm-23.91,1.9a.75.75,0,0,0-.42-.1.78.78,0,0,0-.27.09l-.36.14a7.36,7.36,0,0,1-1.08.39,4,4,0,0,1-2.68-.09,3.92,3.92,0,0,1-2.27-2.88,18.77,18.77,0,0,1-.39-3.43c0-1.07,0-2.13,0-3.2,0-1.28,0-2.55,0-3.84,0-2.5,0-5,0-7.49a.78.78,0,0,0,0-.21.71.71,0,0,0-.05-.22.5.5,0,0,0-.05-.13L13.54,58a.31.31,0,0,0-.43,0,7.81,7.81,0,0,0-.77.59l-.22.23h0a1.46,1.46,0,0,0-.26.4,2.25,2.25,0,0,0-.08.24.85.85,0,0,0,0,.22c0,1.23,0,2.45,0,3.69s0,2.45,0,3.67c0,2.7-.12,5.42.08,8.13,0,.39.06.79.1,1.19a9,9,0,0,0,.4,1.87,4.43,4.43,0,0,0,.36.87,3.85,3.85,0,0,0,.57.79,2.5,2.5,0,0,0,.32.33,3.81,3.81,0,0,0,2.86,1.28,5.8,5.8,0,0,0,1-.12A6.63,6.63,0,0,0,18.89,81l.47-.19a8.68,8.68,0,0,0,.9-.48,1.2,1.2,0,0,0,.26-.18,7.39,7.39,0,0,0,.7-.67A.39.39,0,0,0,21.23,79.07Zm9.27-1.72c0-.07-.11-.13-.15-.21l-1.73-2.52a1.41,1.41,0,0,1,.1-1.69c.16-.26.34-.51.5-.77a.38.38,0,0,0,0-.33.47.47,0,0,0-.22-.12h-.1a1.21,1.21,0,0,0-.44.18c-.27.16-.52.33-.77.51A3.76,3.76,0,0,0,26.26,74a1,1,0,0,0-.07.21,1.8,1.8,0,0,0-.1.4,1.76,1.76,0,0,0,.3,1.19.67.67,0,0,1,.06.4s-.07.06-.15.08h-.09c-.82,0-1.64,0-2.46-.06l-.2,0a.2.2,0,0,1-.13-.06.83.83,0,0,1,0-.38,1.8,1.8,0,0,0,.1-.7,1.36,1.36,0,0,0-.17-.41,1.14,1.14,0,0,0-.26-.35,1.61,1.61,0,0,0-.75-.47c-.75-.2-1.5-.4-2.26-.54a3.57,3.57,0,0,1-1.1-.39h0a2.74,2.74,0,0,1-.43-.3h0a3.15,3.15,0,0,1-.36-.37,3,3,0,0,1-.53-.92,3.36,3.36,0,0,1-.13-.5,3.19,3.19,0,0,1-.08-.62,2.91,2.91,0,0,1,0-.52.47.47,0,0,1,0-.17,2.92,2.92,0,0,1,.62-1.39,1.42,1.42,0,0,1,.12-.13.08.08,0,0,0,0,0s0,0,0,0,0-.05,0-.07a2.88,2.88,0,0,0,0-.42,3.62,3.62,0,0,0-.57,0c-.1,0-.18.12-.27.18a3.62,3.62,0,0,0-1,.91,4,4,0,0,0-.54.8,4.55,4.55,0,0,0-.32.78,4.08,4.08,0,0,0-.15,1.43,3,3,0,0,0,.11.57,2.72,2.72,0,0,0,.13.37,4.3,4.3,0,0,0,.7,1.13,7,7,0,0,0,.63.56s0,0,0,0a5.06,5.06,0,0,0,.77.4l.43.14c.84.23,1.7.41,2.53.64a1.42,1.42,0,0,1,.61.39.24.24,0,0,1,.06.08.81.81,0,0,1,.07.22.22.22,0,0,0,0,.12l-.18.06a.58.58,0,0,1-.18,0H18.45a4,4,0,0,1-.69,0c-.56-.09-.87-.55-1.22-1a.52.52,0,0,0-.77-.13c-.33.23-.67.47-1,.73s-.36.39-.16.65a5.12,5.12,0,0,0,.69.77,2.78,2.78,0,0,0,.43.31.48.48,0,0,0,.18.08,1.63,1.63,0,0,0,.19.09,2.17,2.17,0,0,0,.74.11c.91,0,1.83,0,2.75,0v-.06h3.47c1.35,0,2.71,0,4.07,0,.58,0,1.15,0,1.74.05.41,0,.84,0,1.24,0a.6.6,0,0,0,.45-.14C30.64,77.71,30.55,77.5,30.5,77.35Zm47.23-1.93c-1.25-1.85-2.67-3.57-4-5.36-.23-.3-.47-.62-.68-.94s-.42-.64-.62-1a1.59,1.59,0,0,1,.21-1.67.58.58,0,0,1,.14-.13.33.33,0,0,1,.14-.12l.18-.14.18-.16.16-.19.16-.18a.39.39,0,0,0,0-.51.55.55,0,0,0-.25-.13h0a.76.76,0,0,0-.26,0,.6.6,0,0,0-.19.06,10.89,10.89,0,0,0-1.14.55,6.64,6.64,0,0,0-2.19,1.79,2.7,2.7,0,0,0-.23,3.29c.45.65.92,1.27,1.4,1.9,1,1.39,2.15,2.74,3.17,4.15l.35.5a2.31,2.31,0,0,1-.06,3.23,1.45,1.45,0,0,1-.21.22l-.59.52c-.51.44-1,.85-1.57,1.24-.18.15-.36.27-.53.4-.32.24-.67.47-1,.71s-.85.59-1.28.88l-2.51,1.69-.3.21c-.49.32-1,.65-1.46,1h0a2.11,2.11,0,0,0,1.72.3h0c.8-.53,1.6-1.06,2.38-1.61l.85-.59c1.61-1.14,3.23-2.3,4.84-3.46a12.5,12.5,0,0,0,2.93-2.69C78.42,77.86,78.69,76.81,77.73,75.42ZM41,77.66c-.11-.2-.23-.38-.34-.58a3.52,3.52,0,0,1-.17-.39,1.06,1.06,0,0,1-.09-.35.43.43,0,0,1,0-.11,1.42,1.42,0,0,1,0-.3q0-.53,0-1.05c0-.65,0-1.31,0-2,0-1.06,0-2.11,0-3.17s0-2.11,0-3.17c0-1.26,0-2.52,0-3.79a3.74,3.74,0,0,0,0-.67.34.34,0,0,0-.06-.15.3.3,0,0,0-.09-.13.33.33,0,0,0-.25-.1.48.48,0,0,0-.26.07,8.87,8.87,0,0,0-1.12.77,1.15,1.15,0,0,0-.25.37,2.39,2.39,0,0,0-.14.43,4.38,4.38,0,0,0,0,.8q0,5.72,0,11.43a2,2,0,0,1,0,.22s0,.06,0,.09-.14,0-.19-.06a.34.34,0,0,1-.15-.06c-.81-.63-1.65-1.23-2.41-1.9a11.18,11.18,0,0,1-3.85-6.26,8.16,8.16,0,0,1,.14-3.41,8.69,8.69,0,0,1,1.12-2.55,10.23,10.23,0,0,1,1.81-2.16c.24-.22.47-.41.73-.61.51-.38,1.05-.72,1.57-1.09.2-.13.37-.36.19-.56l-.05,0a.75.75,0,0,0-.4,0c-.06,0-.1,0-.13,0-.92.56-1.86,1.11-2.72,1.75a12.52,12.52,0,0,0-3.41,4,8.85,8.85,0,0,0-1.15,4.08,8.24,8.24,0,0,0,.6,3.21,7.67,7.67,0,0,0,.34.78,13.31,13.31,0,0,0,.86,1.46l.5.67a14.57,14.57,0,0,0,3.16,3l.06.06s.05,0,.06.07a.17.17,0,0,1,0,.2l0,.06a.47.47,0,0,1-.18.12,2.47,2.47,0,0,0-.86.6,2,2,0,0,0-.22.27,2.89,2.89,0,0,0-.38.91,2,2,0,0,0-.05.24,2,2,0,0,0,0,.48,4.14,4.14,0,0,0,0,.61,2.57,2.57,0,0,0,.15.5,2,2,0,0,0,.53-.23,6.16,6.16,0,0,1,2.15-1.26,9.33,9.33,0,0,1,2.5-.45c.84,0,1.67,0,2.49-.08a1.87,1.87,0,0,0,.44-.11A4.33,4.33,0,0,1,41,77.66ZM15.28,84a.49.49,0,0,0-.14-.22,8.28,8.28,0,0,0-3-2c-.64-.21-1.3-.4-1.95-.58s-1.29-.37-1.93-.59A17.15,17.15,0,0,1,5.55,79.6a3.14,3.14,0,0,1-1.78-2.75,5.69,5.69,0,0,1,.7-3,5.84,5.84,0,0,1,.45-.76,3.28,3.28,0,0,1,.31-.45,28.87,28.87,0,0,1,2.48-2.83c1-1.07,2.16-2.06,3.22-3.09a1.51,1.51,0,0,0,.27-.52l-.12-.07L10.83,66l-.13,0c-.24,0-.48-.08-.7-.11a4.69,4.69,0,0,1-.61-.12H9.31a.63.63,0,0,0-.51.09l-.11.09c-.17.17-.36.33-.55.5l-.53.51a.68.68,0,0,1-.82.16c-.92-.34-1.88-.59-2.81-.92a8.72,8.72,0,0,1-1.38-.57A2.65,2.65,0,0,1,1.88,65h0a.68.68,0,0,1-.27-.48,1,1,0,0,1,.13-.43c.26-.48.47-1,.71-1.51a1.72,1.72,0,0,1,.24-.33,1,1,0,0,0,.16.14.44.44,0,0,1,.09.11s0,0,.05,0c.08.17.17.33.26.49a8.27,8.27,0,0,0,.64.88,5.08,5.08,0,0,0,2.24,1.47,1,1,0,0,0,.52.05A.72.72,0,0,0,7,65.19H7A17.33,17.33,0,0,0,8.24,63.7.42.42,0,0,0,8,63a5.27,5.27,0,0,1-.57-.14,5.06,5.06,0,0,1-2.4-2.17,5.72,5.72,0,0,1-.68-2.13c0-.36-.32-.51-.59-.39a.42.42,0,0,0-.16.14h0l-.16.17-.16.18a4.34,4.34,0,0,0-.64.72c0,.08-.12.16-.16.24a.8.8,0,0,0-.08.16c-.2.37-.38.76-.56,1.15s-.37.78-.54,1.17C1,62.74.74,63.38.46,64h0l-.18.41-.06.13c-.33.94-.61,2.84,2,3.84h0l.25.09.19.07L3,68.7l1.67.56c.36.13.4.29.15.58A15.24,15.24,0,0,0,1.38,75.7a3.75,3.75,0,0,0,1.19,3.86,6,6,0,0,0,.79.56,7.67,7.67,0,0,0,1.16.54c.48.19,1,.34,1.48.51l4,1.3c.72.24,1.43.47,2.13.74.9.35,1.8.73,2.69,1.09a1.11,1.11,0,0,0,.25,0,.32.32,0,0,0,.14,0h.1s.05-.06.06-.1S15.33,84.12,15.28,84ZM68.55,65.11a1.25,1.25,0,0,0-.31-.22,4.35,4.35,0,0,1-.6-.43,5.18,5.18,0,0,1-1.33-1.67,8.32,8.32,0,0,1-.79-2.64,7.31,7.31,0,0,1,.07-2.47,1.5,1.5,0,0,0,0-.3.45.45,0,0,0,0-.19.92.92,0,0,0,0-.09s0,0,0-.06A.27.27,0,0,0,65.4,57a.54.54,0,0,0-.63,0l-.38.18a9.26,9.26,0,0,0-1.11.62A2.52,2.52,0,0,0,63,58a10.23,10.23,0,0,0-.86.72c-1.07,1-2,2.13-3,3.19-.4.43-.8.86-1.18,1.29l-.43.45a1.6,1.6,0,0,1-.26.26l-.54.5c-.09.08-.17.18-.26.27a1.82,1.82,0,0,0-.19,2.45,13.68,13.68,0,0,0,3.52,3.22,20.84,20.84,0,0,1,2.35,1.83,5.55,5.55,0,0,1,.42.42,8.24,8.24,0,0,1,.78.9A3.18,3.18,0,0,1,63,78a1.41,1.41,0,0,1-.56.28,8.12,8.12,0,0,1-3.33.06,6.19,6.19,0,0,1-4.77-3.43c-.31-.6-.52-.69-1.13-.38l-.17.07a7.54,7.54,0,0,0-1.15.64,6.44,6.44,0,0,0-1,.87.44.44,0,0,0-.09.61,12.86,12.86,0,0,0,.76,1.16,7.66,7.66,0,0,0,.63.74l.33.33A8.91,8.91,0,0,0,58.29,81c.5-.1,1.26-.2,2-.38l.33-.07a5.59,5.59,0,0,0,.9-.3,8.42,8.42,0,0,0,.86-.4c.27-.14.55-.31.82-.48s.52-.35.78-.55.58-.43.85-.65.56-.47.82-.7a9,9,0,0,0,1.39-1.67,4.22,4.22,0,0,0-.24-4.32c-.21-.29-.43-.56-.65-.82a4.17,4.17,0,0,0-.36-.37A14.44,14.44,0,0,0,64.24,69c-1.15-.9-2.33-1.75-3.47-2.66-.13-.12-.27-.23-.39-.35a4.8,4.8,0,0,1-.67-.82c-.09-.16-.16-.32-.24-.5a.76.76,0,0,1,.11-.86l2.09-2.2a.41.41,0,0,1,.25-.11s0,0,0,0,.07,0,.09.09a1.55,1.55,0,0,0,0,.15v0c0,.29,0,.57.05.83h0a7.49,7.49,0,0,0,1.19,2.87,8.2,8.2,0,0,0,.7.84,6.11,6.11,0,0,0,.53.47,5.38,5.38,0,0,0,.92.56.67.67,0,0,0,.44,0,7,7,0,0,0,2.43-1.54C68.67,65.51,68.75,65.32,68.55,65.11ZM39,80.28l-.87.31h-.07a2.43,2.43,0,0,1-.37-.16l-.32-.23a.13.13,0,0,1,0-.07V80h0s0,0,0,0a.14.14,0,0,1,.15-.06l1.1.2a2.32,2.32,0,0,1-.21-.38,2.26,2.26,0,0,0-.47-.51c-.11-.11-.29-.31-.36-.28a1.16,1.16,0,0,0-.44.39c-.14.19-.22.44-.35.64s-.21.55.1.77.35.29.08.64a.9.9,0,0,0-.08.36.7.7,0,0,0,.32,0,10.9,10.9,0,0,0,1.1-.5,5.85,5.85,0,0,0,.7-.53,1.39,1.39,0,0,0,.15-.22C39.1,80.41,39.07,80.28,39,80.28Z"/><path class="cls-1" d="M111.92,71.59a.67.67,0,0,0-.06-.35c-.44-.57-.84-1.17-1.32-1.69-1-1-2-2-3-3a9.13,9.13,0,0,1-2.26-3.06.9.9,0,0,1,.07-1c.15-.17.25-.35.07-.57a.57.57,0,0,0-.67-.14,4,4,0,0,0-.47.22,5.32,5.32,0,0,0-2.42,2.08,1.63,1.63,0,0,1-.23.29,13.31,13.31,0,0,0-2.56,3.23,7.61,7.61,0,0,0-1.24,4.44,4.6,4.6,0,0,0,1,2.63,5.64,5.64,0,0,0,3.28,1.92,7.7,7.7,0,0,0,4.87-.58c.54-.24,1-.58,1.58-.87a1.42,1.42,0,0,1,.41-.08,1.07,1.07,0,0,1,.06.35,11.88,11.88,0,0,1-.27,1.32c0,.14-.3.26-.48.29a3.64,3.64,0,0,1-.74,0h-5.38a31.53,31.53,0,0,1-6-.3A5.09,5.09,0,0,1,95,76.51c-.92-.46-1.81-1-2.72-1.48L90,73.79c-.25-.14-.28-.28-.06-.52.82-.93,1.65-1.85,2.42-2.83a13.75,13.75,0,0,0,2.06-4,16.32,16.32,0,0,0,.6-2.31,11.1,11.1,0,0,0,.11-3.59A12.75,12.75,0,0,0,93.61,56a14,14,0,0,0-3.13-3.81.82.82,0,0,0-1-.13,8.5,8.5,0,0,0-2.1,1.36c-.54.48-.54.6,0,1.09a12.52,12.52,0,0,1,4,6.75,12.1,12.1,0,0,1-.06,5.55,14.51,14.51,0,0,1-2.9,5.72.36.36,0,0,1-.58,0c-.07-.08-.17-.13-.25-.21-1.48-1.12-3-2.19-4.39-3.36a20.32,20.32,0,0,1-4.18-4.87,16,16,0,0,1-1.86-4.2,13.94,13.94,0,0,1-.43-4.41,14.67,14.67,0,0,1,.89-4.09,16,16,0,0,1,1.91-3.54A17.46,17.46,0,0,1,83.16,44c.54-.4,1.12-.72,1.66-1.11A9.58,9.58,0,0,0,86,42c.19-.18.08-.33-.18-.33s-.74,0-1.1,0-.58,0-.69.32a.6.6,0,0,1-.25.22,23.7,23.7,0,0,0-4.39,3.37,21.35,21.35,0,0,0-4.54,6.12,14.06,14.06,0,0,0-1.26,3.68,15.18,15.18,0,0,0-.23,3.92A14,14,0,0,0,74.16,63,19.27,19.27,0,0,0,77,67.86a25.91,25.91,0,0,0,4.43,4.39c1.26,1,2.6,1.83,3.89,2.75.2.14.23.35,0,.48a26.53,26.53,0,0,1-2.78,1.59,9.37,9.37,0,0,0-2.22,1.43c-.21.2-.48.54-.44.74.09.4.54.33.89.33,4,0,7.94,0,11.91,0,2.94,0,5.88,0,8.81-.06,1.28,0,2.55,0,3.82,0a2.56,2.56,0,0,1,1.94.65.54.54,0,0,0,.49.13,6.35,6.35,0,0,0,2.48-1.63c.52-.69,1-1.44,1.45-2.17a1.43,1.43,0,0,0,.28-.68C112,74.41,111.94,73,111.92,71.59Zm-3.65,2.15a1.47,1.47,0,0,1-1.09.55c-.32,0-.67,0-1,0a5.29,5.29,0,0,1-2.83-.72,3.89,3.89,0,0,1-2-3.72,8.53,8.53,0,0,1,.81-3.13c.13-.27.28-.29.44,0a24.58,24.58,0,0,0,3.44,3.7,13.78,13.78,0,0,1,2.32,2.67A.45.45,0,0,1,108.27,73.74Zm-19,3.47-2.62,0a.17.17,0,0,1-.1-.32l1-.72a.17.17,0,0,1,.17,0l1.62.67A.18.18,0,0,1,89.22,77.21Z"/><path class="cls-2" d="M76.7,29h0a2.53,2.53,0,0,1,0,.28v.13c0,.1,0,.21,0,.32h0l0,.3-.06.41a.77.77,0,0,1,0,.15c0,.11,0,.21,0,.32h0a1.88,1.88,0,0,1-.06.31c0,.06,0,.13,0,.2s0,.14-.05.21l-.06.23a1.6,1.6,0,0,0-.05.21,2,2,0,0,0-.07.23,3,3,0,0,1-.1.32l0,.11-.15.43-.06.17-.13.34-.09.24-.1.24c-.06.16-.13.32-.2.48a.61.61,0,0,0,0,.12.93.93,0,0,0-.05.1l0,.09h0l-.3.64-.32.61-.31.55,0,.08c0,.09-.12.26-.25.49a.47.47,0,0,1-.05.1l-.07.12h0a3.58,3.58,0,0,1-.18.32c-.19.35-.44.78-.73,1.25-.54.84-1.22,1.86-2.06,3l-.07.08c-.54.71-1.16,1.46-1.84,2.21a30.27,30.27,0,0,1-3,2.87l0,0q-.77.65-1.59,1.23l-.64.55,0,0c-.36.26-.74.53-1.12.78A12.3,12.3,0,0,0,64.65,47h0a11.34,11.34,0,0,0,.84-2,12.11,12.11,0,0,0,.6-3.78v-.17h0a13.48,13.48,0,0,0-.29-2.62l0-.14c-.09-.39-.19-.78-.31-1.16l0-.06-.06-.17h0a15.68,15.68,0,0,0-2.8-4.44l-.09-.1-.07-.06c-.48-.44-.91-.79-1.3-1.09-.16-.12-.31-.24-.48-.35l-.07,0a8.61,8.61,0,0,0-1.12-.61l-.13-.06h0a2.63,2.63,0,0,0-.35-.15l-.36-.13h0l-.66-.14h0c-.5-.09-1-.16-1.43-.2l-.74-.06h-.19a12.21,12.21,0,0,0-3.05.26,9.2,9.2,0,0,0-1.1.29l-.44.15h0c-.27.1-.51.2-.73.3h0a7.15,7.15,0,0,0-1,.54s0,0,0,0c-.19.14-.39.26-.57.4s-.55.47-.8.72h0a8.14,8.14,0,0,0-2,3.18h0a5.76,5.76,0,0,0-.18.59,0,0,0,0,0,0,0,8.67,8.67,0,0,0-.27,1.81v0a9.3,9.3,0,0,0,.32,3.11s0,.09,0,.14.12.37.19.55c0,0,0,0,0,0a8.93,8.93,0,0,0,1,1.78,7.62,7.62,0,0,0,.78.91,6.72,6.72,0,0,0,1,.8c.21.13.41.25.63.36h0a4.94,4.94,0,0,0,.57.26l0,0a7.69,7.69,0,0,0,1.57.41l.41,0h0l.61,0h.19A6.8,6.8,0,0,0,54.49,46,6,6,0,0,0,56,45.32h0a6.86,6.86,0,0,0,.64-.46h0c.12-.1.25-.21.36-.32a5.42,5.42,0,0,0,.84-.81h0l.22-.27h0v0l0-.06.15-.23c0-.05,0-.1.08-.14l0,0a1.4,1.4,0,0,0,.09-.17l0,0v0a4.41,4.41,0,0,0,.37-2.82h0s0-.07,0-.11,0-.11,0-.17a5.73,5.73,0,0,0-.39-1.35h0l-.1-.22-.11-.26h0c-.09-.18-.19-.35-.34-.4h0a.36.36,0,0,0-.25,0h0a.36.36,0,0,0-.22.19.36.36,0,0,0,0,.18,2.44,2.44,0,0,0,.14.53,5,5,0,0,1,.15.75,4.33,4.33,0,0,1,0,.72,1.27,1.27,0,0,1,0,.2c0,.06,0,.11,0,.17h0a4.34,4.34,0,0,1-.46,1.52l0,.1a4.51,4.51,0,0,1-.46.68,3.69,3.69,0,0,1-.38.41s0,0,0,0a3.88,3.88,0,0,1-1.37.82,5,5,0,0,1-3.2.07l-.12,0a4.74,4.74,0,0,1-1.27-.64h0l0,0a4.21,4.21,0,0,1-1.12-1.22l0-.06a0,0,0,0,1,0,0q-.11-.19-.21-.42a8,8,0,0,1-.39-1.2l0-.15a6,6,0,0,1-.14-1.62,2.44,2.44,0,0,1,0-.27h0c0-.13,0-.25.05-.38h0l0-.21a5.8,5.8,0,0,1,.28-.95c.05-.14.11-.27.17-.4a6,6,0,0,1,.46-.77h0a6,6,0,0,1,2.07-1.82,6.14,6.14,0,0,1,.63-.31l.09,0a7.41,7.41,0,0,1,.79-.28l.15,0a8.07,8.07,0,0,1,2-.31,7.06,7.06,0,0,1,.8,0h0l.69.08h0l.18.06a6.75,6.75,0,0,1,1.58.56A7.94,7.94,0,0,1,61,35.15v0a9.59,9.59,0,0,1,2,3.24c.07.19.13.38.19.57v0a11.69,11.69,0,0,1,.5,2.17A11.15,11.15,0,0,1,63.58,45a12.23,12.23,0,0,1-.72,2.3c-.14.33-.3.67-.47,1h0c-.11.22-.24.44-.36.65v0a.11.11,0,0,0,0,0s0,.07-.08.11a8.77,8.77,0,0,1-1.22,1.4c-.15.14-.3.28-.48.43l-.1.09,0,0-.06.05a12.72,12.72,0,0,1-1.15.82,13.11,13.11,0,0,1-1.5.81l-.23.11-.11.05h0a21.87,21.87,0,0,1-2.91.91h0l-.09,0h-.07c-.18-.05-.71-.18-1.5-.44L52,53.27h0l-.57-.2L51.22,53l-.13,0-.26-.1-.41-.16a34.21,34.21,0,0,1-3.26-1.55L46.87,51l-.06,0c-.29-.16-.59-.33-.88-.51h0l-.2-.13h0A28.75,28.75,0,0,1,40.28,46c-.52-.53-1-1.09-1.53-1.68l-.47-.57v0c-.18-.22-.34-.44-.51-.67h0l-.11-.15h0a2.65,2.65,0,0,1-.22-.23l0-.06c-.23-.29-.57-.76-.91-1.24l-.55-.8,0-.05-.18-.27-.16-.22a2.12,2.12,0,0,1-.12-.2l-.19-.28L34.86,39l0,0c-.13-.21-.26-.41-.38-.62a1.74,1.74,0,0,1-.11-.18A21.47,21.47,0,0,1,33,35.68l-.1-.22-.09-.22s0,0,0,0-.09-.24-.13-.37a2.69,2.69,0,0,1-.16-.29v0l-.15-.29,0,0-.07-.16,0-.06v0s0-.11-.07-.17l0-.09-.09-.21a1.07,1.07,0,0,0-.07-.19v-.05a1.07,1.07,0,0,1-.07-.19c0-.07-.05-.14-.07-.21v0h0c0-.12-.08-.24-.11-.36s-.07-.25-.1-.37-.05-.22-.08-.33h0a1.6,1.6,0,0,1-.05-.21s0,0,0-.05l0-.15a2.93,2.93,0,0,1-.05-.29l0-.17a.36.36,0,0,1,0-.1s0-.06,0-.09,0-.06,0-.1,0-.17,0-.27,0-.24-.05-.36l0-.3a2.45,2.45,0,0,1,0-.27h0v0c0-.19,0-.39,0-.58h0a12.16,12.16,0,0,1,1-4.4h0a10.46,10.46,0,0,1,2.34-3.05,13.32,13.32,0,0,1,5-2.66,18.21,18.21,0,0,1,1.94-.31,17.25,17.25,0,0,1,3.73,0h0A13.33,13.33,0,0,1,51,20.7l0,0a13,13,0,0,1,2.76,2.68l.13.17.16-.21a12.91,12.91,0,0,1,1.87-2,13.42,13.42,0,0,1,8.61-3.24,15.54,15.54,0,0,1,6.24,1.46h0a13.58,13.58,0,0,1,3.95,3.06A9.18,9.18,0,0,1,76,24.82a0,0,0,0,1,0,0A11.93,11.93,0,0,1,76.7,29Z"/><path class="cls-3" d="M73.6,37.12c-.07-.15-.15-.3-.23-.46l-.16-.29-.15-.29-.12-.21h0c-.05-.1-.11-.2-.17-.3l-.12-.19c-.07-.12-.14-.24-.22-.35l-.22-.35-.14-.2h0l-.27-.39-.23-.31-.19-.26-.16-.2L70.94,33c-.31-.38-.63-.75-1-1.1l-.11-.13-.27-.27a3.44,3.44,0,0,0-.27-.27L69.05,31l-.27-.26-.29-.25-.25-.21a.23.23,0,0,0-.07-.07L67.91,30l-.29-.24-.33-.26-.24-.18-.16-.11,0,0h0l-.3-.22-.37-.25-.28-.18-.3-.19L65.15,28l-.34-.2-.34-.19-.22-.11-.19-.1-.43-.22-.33-.15-.39-.18-.79-.33-.4-.15-.39-.14-.12,0-.12-.05-.25-.08L60.49,26l-.42-.12-.37-.1-.24-.06h0a1.05,1.05,0,0,0-.24-.06l-.39-.09-.43-.09-.22,0-.14,0-.29-.05-.6-.09-.4,0H56.6l-.22,0H56l-.22,0h-.22l-.22,0H53.78c-.24,0-.5,0-.74,0H52.9a21.9,21.9,0,0,0-5.47,1.05l-.33.11-.32.11-.43.17-.42.17-.06,0,0,0-.51.22-.1.05-.18.08,0,0-.19.09-.05,0-.13.06-.28.14a1.29,1.29,0,0,0-.16.09l0,0L44,27.6l-.08,0-.07,0-.29.17c-.28.15-.55.32-.82.48l-.26.17-.31.2-.38.27,0,0a2.83,2.83,0,0,0-.28.2l0,0-.18.13-.32.24c-.25.19-.49.39-.73.6-.41.34-.81.7-1.19,1.08-.12.13-.25.25-.38.38l-.35.38c-.08.09-.17.18-.25.28l-.12.13c-.19.21-.36.42-.54.64l-.18.23c-.08.09-.15.19-.23.29s-.17.22-.25.34h0l-.12.16-.22.31v0c-.18.26-.36.52-.52.79h0l-.15.24-.1.17-.12.2-.16.28-.07.13-.13.24a0,0,0,0,1,0,0c0,.08-.09.16-.12.24-.15.27-.28.55-.42.83l-.24.55v0a1.74,1.74,0,0,0,.11.18c.12.21.25.41.38.62l0,0,.38.58.19.28a2.12,2.12,0,0,0,.12.2l.16.22.18.27,0,.05.55.8c.34.48.68,1,.91,1.24l0,.06a17.5,17.5,0,0,1,.81-2.54A17.29,17.29,0,0,1,48.44,30.4h0a16.59,16.59,0,0,1,2.91-.76l1-.14.73-.06h0c.35,0,.71,0,1.06,0s.85,0,1.26.05h.19l.74.08a16.41,16.41,0,0,1,1.88.34h0q.48.12,1,.27h0l.32.1h0a17.31,17.31,0,0,1,8.33,5.94v0a17,17,0,0,1,2.12,3.62A15.37,15.37,0,0,1,70.83,42s0,0,0,0c.84-1.1,1.52-2.12,2.06-3,.29-.47.54-.9.73-1.25a3.58,3.58,0,0,0,.18-.32h0C73.74,37.41,73.68,37.27,73.6,37.12Z"/><path class="cls-3" d="M62,49a.62.62,0,0,1-.08.12,9.24,9.24,0,0,1-1.22,1.4c-.15.14-.3.28-.48.43l-.1.08a1.33,1.33,0,0,0,0-.2h0a10.6,10.6,0,0,0,.06-1.14,1.93,1.93,0,0,0,0-.24,11.93,11.93,0,0,0-.25-2.25,12.69,12.69,0,0,0-.47-1.66A11.24,11.24,0,0,0,59,44.43c-.06-.14-.13-.27-.2-.4h0c-.15-.42-.3-.78-.42-1.07,0,0,0,0,0,0l.13-.23h0A13.91,13.91,0,0,1,62,49Z"/><path class="cls-4" d="M54.49,10.18a6.85,6.85,0,0,0,0-1.74,12.6,12.6,0,0,1,.74-5.31,5,5,0,0,1,3.13-3,4.16,4.16,0,0,1,5.12,3,6.54,6.54,0,0,1-.43,4.32,12.54,12.54,0,0,1-6.62,7.49,3,3,0,0,1-.49.2c-.2.06-.44.13-.56-.1s0-.43.28-.56a18.14,18.14,0,0,0,1.89-1.13,10.94,10.94,0,0,0,4.12-7.94,4.16,4.16,0,0,0-.33-2.59,1.33,1.33,0,0,0-1.64-.7c-2,.5-2.78,2.05-3.14,3.88a22.24,22.24,0,0,0-.31,5.47c0,.34.17.78-.13,1s-.64-.12-.93-.32c-.09-.06-.25-.17-.3-.14-1,.62-1-.38-1.14-.82a51.91,51.91,0,0,0-2.22-4.93A6,6,0,0,0,45.39,3.2a4.46,4.46,0,0,0-3.58,3.39A4.36,4.36,0,0,0,44.53,11a12.75,12.75,0,0,0,6.91,1.08c.84-.09,1.41.33,1.44,1.06a1.24,1.24,0,0,1-1.25,1.32c-2.85-.26-5.73-.44-8.27-2A8.82,8.82,0,0,1,40,9a4.68,4.68,0,0,1,.84-5.27c2.34-2.69,5.55-3,8.46-.89,2.31,1.64,3.53,4,4.6,6.48C54.06,9.61,54.05,10,54.49,10.18Z"/><path class="cls-4" d="M50,16.6c-.17.32-.47.24-.75.15a39.44,39.44,0,0,0-9.88-1.54,8.61,8.61,0,0,0-6,2.16,14.93,14.93,0,0,0-1.54,1.54c-.22.23-.43.46-.65.68h0a2.15,2.15,0,0,1-1.3.36,2.21,2.21,0,0,1-1-.3,1,1,0,0,1-.35-.71,3.79,3.79,0,0,1,1.25-3.25c.34-.35.7-.67,1.07-1C33,12.83,35.59,13,37.75,13a39.12,39.12,0,0,1,11.49,2.66,1.55,1.55,0,0,1,.48.28C49.94,16.07,50.2,16.28,50,16.6Z"/><path class="cls-4" d="M64.77,11.5a10.26,10.26,0,0,1,4.17.5,6.05,6.05,0,0,1,3.28,2.91c.12.2.21.41,0,.61a.73.73,0,0,1-.86.16c-1.05-.31-2.1-.61-3.14-.94a10.23,10.23,0,0,0-9.07,1.08,10.86,10.86,0,0,1-2.06.89c-.19.07-.45.14-.56-.14s.06-.36.22-.47c2-1.33,3.75-3,5.93-4.09A8.84,8.84,0,0,1,64.77,11.5Z"/><circle class="cls-4" cx="53.54" cy="17.69" r="2.05"/><path class="cls-1" d="M19.62,76.86l-.15,1.08s10.41,0,10.41,0-.37-.88-.37-.88l-1.14-.18L25.19,77l-.52.14-.38.07"/></svg>