<svg id="Layer_1" data-name="Layer 1" xmlns="http://www.w3.org/2000/svg" viewBox="0 0 125.43 93.55"><defs><style>.cls-1{fill:#2c8186;}.cls-2{fill:#c2c1c3;}.cls-3{fill:#a38b6f;}.cls-4{fill:#929290;}.cls-5{fill:#dceaeb;}.cls-6{fill:#fff;}</style></defs><title>Untitled-2</title><path class="cls-1" d="M46.78,46.73c0-6.85-.06-13.7,0-20.55a13,13,0,0,1,4.43-9.71,1.52,1.52,0,0,1,.88-.47,4,4,0,0,1-.24,1.42c-.73,3.54,1,4.94,3.21,5.94A19.43,19.43,0,0,0,64.17,25a18.44,18.44,0,0,0,7.93-2.32Q78.9,19,85.66,15.2L97.8,8.43A7.82,7.82,0,0,1,100,7.59a3.56,3.56,0,0,1,4.36,3.08,22.79,22.79,0,0,1,.18,5c-.13,2.73-.1,5.47-.06,8.21.12,8.93.14,17.85.14,26.78,0,3.13,0,6.27-.2,9.4-.08,1.45-.07,2.9-.29,4.35a11.75,11.75,0,0,1-3.09,6,14.88,14.88,0,0,1-2.74,2.39,1.77,1.77,0,0,1-.75.41,2.37,2.37,0,0,1,.15-1.08A12,12,0,0,0,98,69.87c0-5.46,0-10.92,0-16.37a11.63,11.63,0,0,0-1.41-6.13,6.18,6.18,0,0,0-7.67-2.9,14.48,14.48,0,0,0-5.15,3.05A1.21,1.21,0,0,1,83,48c0-1.1,0-2.17,0-3.24a8.37,8.37,0,0,0-.35-2.49,4,4,0,0,0-6-2.49,8.28,8.28,0,0,0-4.21,6.46,14.18,14.18,0,0,0-.15,2.25q0,16.41,0,32.82a6.79,6.79,0,0,0,1.45,4.83c.26.3,0,.36-.2.45a15.5,15.5,0,0,1-4.14,1.37,30.14,30.14,0,0,1-4.66.44,23.68,23.68,0,0,1-10.24-2,5.08,5.08,0,0,1-1.72-.91c-.23-.53-.78-.68-1.19-1a11.39,11.39,0,0,1-4.48-7.11,35.09,35.09,0,0,1-.28-4.81v-.14c0-.24,0-.48,0-.73q0-11.75,0-23.5C46.81,47.73,47,47.23,46.78,46.73Zm9.95-15.38c.23-.12.44.2.72,0-.23-.36-.65-.33-1-.5s-.61-.14-.45-.5.42-.06.63,0c.38.11.78.36,1.14-.23a2.07,2.07,0,0,1-1.28-.24c-.47-.17-.79,0-.89.47s-.2.78.45.67a.2.2,0,0,1,.24.17c-.15.21-.38-.09-.54.07a3.77,3.77,0,0,1-.71,2.35.68.68,0,0,1-.62.14,7.48,7.48,0,0,1-1.78-.69,4.14,4.14,0,0,1,1.53-.66c.38,0,.41-.23.34-.54a2.73,2.73,0,0,0-4-1.5c-.27.2-.42.34-.11.66a3.48,3.48,0,0,1,.61,1.16c.12.27.05.39-.24.32a1.38,1.38,0,0,0-1.23.34c-.12.1-.34.22-.13.42a.28.28,0,0,0,.45-.07.94.94,0,0,1,1.2-.22l2.73,1c1.19.45,1.72.23,2.22-1,.17-.39.23-.89.51-1.12S56.71,31.54,56.73,31.35Zm38.42-8L95,23.21a1.78,1.78,0,0,0-.17-1.52A2.54,2.54,0,0,0,92.64,21c-.29.09-.32.26-.19.5a2.4,2.4,0,0,1,.33,1.4A10.68,10.68,0,0,0,92.66,25a.45.45,0,0,1-.3.47c-.29.15-.57.33-.88.46-.61.27-.94.08-1-.59s0-1.45,0-2.18c0-.34,0-.67.31-.88.09-.06.19-.16.08-.27s-.21,0-.3,0l-1,.56c-.4.23-.4.24,0,.5a.3.3,0,0,1,.11.29,15.32,15.32,0,0,1-.09,2.71,2,2,0,0,1-1.13,1.55c-.51.23-.82.06-.89-.5-.05-.37,0-.75,0-1.12a1.24,1.24,0,0,0-.7-1.13,2.76,2.76,0,0,0-2.5.7c-.08.12-.12.25,0,.36s.2,0,.29,0a3.57,3.57,0,0,1,.45-.27c.89-.43,1.49-.09,1.57.88a2.88,2.88,0,0,1,0,.72,3,3,0,0,1-2,2.46c-.27.1-.48.23-.34.51s.4.05.56,0a4.6,4.6,0,0,0,1.67-1.39c.31-.45.55-.86,1.21-.51.24.12.56,0,.83-.16A3.79,3.79,0,0,0,89.85,27c.1-.13.15-.38.37-.31.81.25,1.41-.23,2-.57.39-.21.61-.29.85.22a2.18,2.18,0,0,0,2.07,1.19c.71,0,.8-.14.51-.79a2.14,2.14,0,0,1,.93-3,3.52,3.52,0,0,0,1.92-3c0-1.43,0-2.87.06-4.3,0-.39-.12-.81.27-1.11a.18.18,0,0,0,0-.24c-.08-.09-.17,0-.24,0-.42.23-.85.46-1.26.72-.14.09-.23.29,0,.32s.31.31.31.53c0,1.48,0,3,0,4.44a2.68,2.68,0,0,1-.34,1.27,3.81,3.81,0,0,1-1.56,1.28C95.42,23.85,95.47,23.11,95.15,23.34ZM80.81,27.67a2.49,2.49,0,0,0-1.2.47c-.19.12-.89.27-.07.56.12,0,.11.18.11.28a12.93,12.93,0,0,1-.12,2.78,2.11,2.11,0,0,1-.8,1.26.81.81,0,0,1-.86.19c-.29-.15-.32-.46-.33-.75,0-.53,0-1.06,0-1.59s-.2-1.08.38-1.44a.16.16,0,0,0,0-.24c-.08-.07-.16,0-.24,0-.35.18-.7.37-1,.57s-.41.24-.06.54c.12.11.09.24.09.37,0,.75,0,1.5,0,2.25a2.16,2.16,0,0,1-1.09,1.86c-.56.32-1,.12-1-.52,0-.37,0-.75,0-1.12A1.19,1.19,0,0,0,73,32a4.88,4.88,0,0,0-3.62,4.25,1.31,1.31,0,0,0,1.8,1.38,4.31,4.31,0,0,0,2.41-1.75c.28-.37.45-.73,1-.4.31.18.7,0,1-.17a4.08,4.08,0,0,0,1.27-1.14c.12-.14.17-.37.44-.33,1.16.2,1.85-.52,2.51-1.29.13-.15.17-.37.49-.35a3,3,0,0,0,3.06-2.44,11.17,11.17,0,0,0,.16-2.38c0-.49-.1-1,.36-1.44a4.07,4.07,0,0,0-1.68.79c-.06,0-.07.2,0,.2.61,0,.37.49.38.79a17.39,17.39,0,0,1,0,1.91,2.21,2.21,0,0,1-1,1.8c-.6.38-1,.18-1.09-.53s0-1.5,0-2.25A1.23,1.23,0,0,1,80.81,27.67ZM101.11,21c-.33-.1-.54-.21-.53-.61,0-1.83,0-3.66,0-5.49a3.09,3.09,0,0,1,.07-.52c0-.21.57-.25.31-.52s-.47.13-.7.24-.51.27-.75.42-.31.24-.07.34.24.43.24.67c0,1.79,0,3.57,0,5.36,0,.29,0,.58-.25.78-.09.06-.16.16-.06.28a.21.21,0,0,0,.25,0c.42-.24.84-.47,1.26-.72C101,21.24,101,21.15,101.11,21ZM61.53,35.27c.08.5-.36.63-.5.95a.81.81,0,0,0,.93-.44,3.35,3.35,0,0,0,.47-2.65,1.77,1.77,0,0,0-1.92-1.08A1.73,1.73,0,0,0,59,33.59a1.68,1.68,0,0,0,1.19,1.71A1.78,1.78,0,0,0,61.53,35.27Zm-3.86-.17a9.69,9.69,0,0,1,1.86-4.52,2.28,2.28,0,0,0-.85-.39,44.53,44.53,0,0,1-1.92,4.58A1.53,1.53,0,0,0,57.67,35.1Zm5.2,1.07A1.27,1.27,0,0,0,64,34.85c0-.75,0-1.5,0-2.25,0-.2.37-.36.12-.5a2,2,0,0,0-.84,0c-.13,0-.16.1-.12.23A4.9,4.9,0,0,1,62.87,36.17ZM73.12,30.9c0-.35-.29-.64-.5-.45-.47.43-1.1.51-1.57.9a.69.69,0,0,0-.25.65c0,.25.27.48.44.33.48-.44,1.14-.53,1.62-.94A1.66,1.66,0,0,0,73.12,30.9Zm17.54-9.71c0-.29-.11-.5-.35-.49a.87.87,0,0,0-.83.8c0,.26.06.53.36.5C90.31,22,90.53,21.58,90.66,21.19Z"/><path class="cls-2" d="M46.79,72.6a35.09,35.09,0,0,0,.28,4.81,11.39,11.39,0,0,0,4.48,7.11c.41.31,1,.46,1.19,1a.24.24,0,0,1-.3,0c-3.82-1.23-7.54-2.73-11.31-4.13-2.5-.93-5-1.84-7.53-2.78s-4.87-1.9-7.33-2.78S21.17,74,18.62,73c-2.83-1-5.65-2.1-8.49-3.1-1.11-.4-2.25-.74-3.33-1.24a22.9,22.9,0,0,1-4.93-2.45C-.1,64.67-.77,62.1,1.13,60A15.35,15.35,0,0,1,5.56,56.7c3.62-2,7.14-4.08,10.7-6.13a99.78,99.78,0,0,1,11.73-6,13.36,13.36,0,0,1,6.45-1.11,23.39,23.39,0,0,1,5.28,1.09c1.54.52,3.07,1.09,4.63,1.53a12,12,0,0,0,2.43.67c.24.5,0,1,0,1.5q0,11.76,0,23.5c0,.25,0,.49,0,.73l-.12,0V59.07c0-.31.09-.64-.45-.68a45.1,45.1,0,0,0-7.07,0,36.15,36.15,0,0,0-7.21,1.53c-.47.14-.56.38-.48.83.71,3.85,3.06,6.47,6.34,8.32a41.83,41.83,0,0,0,6.73,2.74,8.78,8.78,0,0,0,2.14.67Z"/><path class="cls-1" d="M90.69,76.31a3.41,3.41,0,0,1-1-2.87c-.06-1.39,0-2.78,0-4.17,0-3.43,0-6.85,0-10.28A10.41,10.41,0,0,0,89,55.41c-.47-1.24-1.14-1.57-2.38-1.12a8.1,8.1,0,0,0-4.13,3.76,15.33,15.33,0,0,0-1.93,8.28c0,3.89,0,7.77,0,11.66a9.08,9.08,0,0,1-.76,3.88A5,5,0,0,1,77,84.62a1.42,1.42,0,0,1-2.06-1,6.79,6.79,0,0,1-.29-2.1q0-16.74,0-33.48a7.52,7.52,0,0,1,1.44-4.8,4.42,4.42,0,0,1,2.17-1.56,1.44,1.44,0,0,1,1.9.86,5.9,5.9,0,0,1,.39,2.53c0,3.32,0,6.63,0,9.95v.74c.27,0,.26-.23.33-.37a18.33,18.33,0,0,1,5.82-7.18A12.05,12.05,0,0,1,88.93,47c2.91-1.2,5.32,0,6.14,3a16.61,16.61,0,0,1,.43,4.27q0,7.73,0,15.45a7.61,7.61,0,0,1-1.64,5.13,4.38,4.38,0,0,1-2.37,1.49c-.31.07-.55-.07-.82-.06Z"/><path class="cls-3" d="M82.28,0c1.83,0,2.88,1.19,3.14,3.39a1.88,1.88,0,0,1-1.1,2.26c-8.39,4.66-16.73,9.42-25.08,14.16a20.45,20.45,0,0,1-2.89,1.61,1.85,1.85,0,0,1-2.78-1.22c-.79-2-.57-5.3,2.22-6.7,3.28-1.63,6.42-3.51,9.64-5.25,3.87-2.09,7.66-4.31,11.5-6.44A17.2,17.2,0,0,1,81,.15,5.22,5.22,0,0,1,82.28,0Z"/><path class="cls-4" d="M93.57,86.58a2.09,2.09,0,0,1,2.34-2.31,2.28,2.28,0,0,1,2.23,2.49,2.46,2.46,0,0,1-2.51,2.48A2.5,2.5,0,0,1,93.57,86.58Z"/><path class="cls-4" d="M106,76.71a2.34,2.34,0,1,1-2.8-2.85,2.3,2.3,0,0,1,2.71,1.53l.11.38a.19.19,0,0,0,0,.27v.4A.22.22,0,0,0,106,76.71Z"/><path class="cls-4" d="M90.67,88.75c-.08,1.39-.84,2-2.26,2.13-.75.05-1.66-1.13-1.71-2.06a2,2,0,0,1,2-2.14C90,86.62,90.55,87.64,90.67,88.75Z"/><path class="cls-4" d="M103.28,81.71a1.94,1.94,0,0,1,2-2,2,2,0,0,1,2,2,2.11,2.11,0,0,1-2.17,2.14A2.09,2.09,0,0,1,103.28,81.71Z"/><path class="cls-4" d="M106.6,90a2.17,2.17,0,0,1-1.88,2.19A2.22,2.22,0,0,1,102.64,90a2,2,0,0,1,2-2.1A2,2,0,0,1,106.6,90Z"/><path class="cls-4" d="M95.75,77.87a1.92,1.92,0,0,1,1.93-2.08,2.08,2.08,0,0,1,2,2A2.17,2.17,0,0,1,97.51,80,2,2,0,0,1,95.75,77.87Z"/><path class="cls-4" d="M108.7,79.68a1.79,1.79,0,0,1,1.89-2,1.9,1.9,0,0,1,2,2.07c0,1.44-.85,2-2.18,2.13C109.53,82,108.69,80.81,108.7,79.68Z"/><path class="cls-4" d="M113.26,71.55a1.94,1.94,0,0,1,2-2.11,2.07,2.07,0,0,1,1.94,2.1,2,2,0,0,1-2,2A1.76,1.76,0,0,1,113.26,71.55Z"/><path class="cls-4" d="M90.68,76.3a2.44,2.44,0,0,1,1.22,2.18,2.25,2.25,0,0,1-1.85,2,2,2,0,0,1-1.66-.93,2.07,2.07,0,0,1-.14-2.25,1.84,1.84,0,0,1,1.91-1c.17,0,.35,0,.53,0Z"/><path class="cls-4" d="M91.62,83.63a2,2,0,0,1-1.76,2,2,2,0,0,1-1.81-1.9,2,2,0,0,1,1.82-1.91A1.77,1.77,0,0,1,91.62,83.63Z"/><path class="cls-4" d="M83.28,76.17A1.7,1.7,0,1,1,85,78,1.79,1.79,0,0,1,83.28,76.17Z"/><path class="cls-4" d="M113.4,86a1.82,1.82,0,0,1-1.68,1.84A1.78,1.78,0,0,1,110,86a1.65,1.65,0,0,1,1.72-1.73A1.58,1.58,0,0,1,113.4,86Z"/><path class="cls-4" d="M95,91.5a1.67,1.67,0,0,1-1.73,1.76,1.7,1.7,0,0,1-1.61-1.8,1.67,1.67,0,1,1,3.34,0Z"/><path class="cls-4" d="M97.64,91.15c.53-1.13,1.29-1.47,2.24-1.08a1.77,1.77,0,0,1,.58,2.76,1.54,1.54,0,0,1-1.55.67,1.57,1.57,0,0,1-1.27-1.36c0-.24,0-.48-.07-.72A.2.2,0,0,0,97.64,91.15Z"/><path class="cls-4" d="M83.51,81.22a1.65,1.65,0,0,1,1.68-1.72,1.71,1.71,0,0,1,1.6,1.77c-.07,1-.51,1.68-2,1.76C84.12,83.07,83.51,82.18,83.51,81.22Z"/><path class="cls-4" d="M117.67,64.64a1.43,1.43,0,0,1,1.51,1.53,1.52,1.52,0,1,1-3,0A1.45,1.45,0,0,1,117.67,64.64Z"/><path class="cls-4" d="M118.38,77a1.45,1.45,0,1,1-2.87.08A1.49,1.49,0,0,1,117,75.65,1.4,1.4,0,0,1,118.38,77Z"/><path class="cls-4" d="M116.81,82.2a1.47,1.47,0,0,1-1.32,1.52A1.7,1.7,0,0,1,114,82.13a1.48,1.48,0,0,1,1.5-1.43A1.32,1.32,0,0,1,116.81,82.2Z"/><path class="cls-4" d="M99.73,86.58a1.24,1.24,0,0,1,1.32-1.37,1.51,1.51,0,0,1,1.3,1.34A1.56,1.56,0,0,1,100.9,88,1.28,1.28,0,0,1,99.73,86.58Z"/><path class="cls-4" d="M101.57,82.3a1.31,1.31,0,0,1-1.39,1.41,1.48,1.48,0,0,1-1.25-1.39A1.43,1.43,0,0,1,100.22,81,1.3,1.3,0,0,1,101.57,82.3Z"/><path class="cls-4" d="M108.72,71.48a1.41,1.41,0,0,1,1.39-1.37,1.36,1.36,0,0,1-.16,2.72A1.33,1.33,0,0,1,108.72,71.48Z"/><path class="cls-4" d="M96,81.73a1.49,1.49,0,0,1-1.38,1.34,1.56,1.56,0,0,1-1.25-1.41,1.43,1.43,0,0,1,1.41-1.35A1.28,1.28,0,0,1,96,81.73Z"/><path class="cls-4" d="M110.07,75.17a1.38,1.38,0,0,1-1.42,1.39c-.54,0-1.12-.7-1.12-1.4a1.24,1.24,0,0,1,1.34-1.35A1.28,1.28,0,0,1,110.07,75.17Z"/><path class="cls-4" d="M107.05,84.82a1.32,1.32,0,0,1,1.25,1.34,1.57,1.57,0,0,1-1.24,1.26,1.51,1.51,0,0,1-1.23-1.29A1.34,1.34,0,0,1,107.05,84.82Z"/><path class="cls-4" d="M122.36,64.24a1.19,1.19,0,0,1,1.18,1.22,1.51,1.51,0,0,1-1.22,1.29,1.49,1.49,0,0,1-1.25-1.32A1.25,1.25,0,0,1,122.36,64.24Z"/><path class="cls-4" d="M124.26,58.54a1.09,1.09,0,0,1,1.17,1.21A1.27,1.27,0,0,1,124.08,61c-.44,0-1-.74-1-1.3A1.23,1.23,0,0,1,124.26,58.54Z"/><path class="cls-4" d="M118.8,69.47a1.19,1.19,0,0,1,1.12-1.21,1.31,1.31,0,0,1,1.25,1.26A1.22,1.22,0,0,1,120,70.73,1.29,1.29,0,0,1,118.8,69.47Z"/><path class="cls-4" d="M120,72.59a1.25,1.25,0,0,1,1.21,1.16,1.3,1.3,0,0,1-1.39,1.32c-.46,0-.87-.54-.89-1.21S119.24,72.61,120,72.59Z"/><path class="cls-4" d="M113.76,75.67a1,1,0,0,1-.79,1.09c-.33.08-.79-.51-.8-.92a1,1,0,0,1,.82-.9A1,1,0,0,1,113.76,75.67Z"/><path class="cls-4" d="M121.85,61.33a.71.71,0,0,1,.65.77.9.9,0,0,1-.77.91c-.34.09-.82-.51-.81-.93S121.23,61.32,121.85,61.33Z"/><path class="cls-5" d="M106.06,76a.19.19,0,0,1,0-.27C106.18,75.84,106.24,75.92,106.06,76Z"/><path class="cls-5" d="M106,76.71a.22.22,0,0,1,.06-.27C106.25,76.57,106.17,76.65,106,76.71Z"/><path class="cls-5" d="M97.64,91.15a.2.2,0,0,1-.07.27C97.4,91.28,97.49,91.21,97.64,91.15Z"/><path class="cls-5" d="M95.15,23.34c.32-.23.27.51.67.24a3.81,3.81,0,0,0,1.56-1.28A2.68,2.68,0,0,0,97.72,21c0-1.48,0-3,0-4.44,0-.22.08-.49-.31-.53s-.17-.23,0-.32c.41-.26.84-.49,1.26-.72.07,0,.16-.09.24,0a.18.18,0,0,1,0,.24c-.39.3-.26.72-.27,1.11,0,1.43,0,2.87-.06,4.3a3.52,3.52,0,0,1-1.92,3,2.14,2.14,0,0,0-.93,3c.29.65.2.81-.51.79a2.18,2.18,0,0,1-2.07-1.19c-.24-.51-.46-.43-.85-.22-.63.34-1.23.82-2,.57-.22-.07-.27.18-.37.31a3.79,3.79,0,0,1-1.37,1.21c-.27.14-.59.28-.83.16-.66-.35-.9.06-1.21.51a4.6,4.6,0,0,1-1.67,1.39c-.16.08-.4.34-.56,0s.07-.41.34-.51a3,3,0,0,0,2-2.46,2.88,2.88,0,0,0,0-.72c-.08-1-.68-1.31-1.57-.88a3.57,3.57,0,0,0-.45.27c-.09.05-.2.13-.29,0s-.06-.24,0-.36a2.76,2.76,0,0,1,2.5-.7,1.24,1.24,0,0,1,.7,1.13c0,.37,0,.75,0,1.12.07.56.38.73.89.5a2,2,0,0,0,1.13-1.55,15.32,15.32,0,0,0,.09-2.71.3.3,0,0,0-.11-.29c-.37-.26-.37-.27,0-.5l1-.56c.09-.05.2-.13.3,0s0,.21-.08.27c-.35.21-.31.54-.31.88,0,.73,0,1.46,0,2.18s.36.86,1,.59c.31-.13.59-.31.88-.46a.45.45,0,0,0,.3-.47,10.68,10.68,0,0,1,.12-2.11,2.4,2.4,0,0,0-.33-1.4c-.13-.24-.1-.41.19-.5a2.54,2.54,0,0,1,2.19.68A1.78,1.78,0,0,1,95,23.21,6.6,6.6,0,0,1,93.85,25a.58.58,0,0,0-.2.46,2,2,0,0,0,1.65,1.48A3.67,3.67,0,0,1,95.15,23.34Zm-2.23-1.85a4.74,4.74,0,0,1,.51,3,2.08,2.08,0,0,0,.75-2.2A1.26,1.26,0,0,0,92.92,21.49Z"/><path class="cls-5" d="M80.81,27.67a1.23,1.23,0,0,0-.33,1c0,.75,0,1.51,0,2.25s.49.91,1.09.53a2.21,2.21,0,0,0,1-1.8,17.39,17.39,0,0,0,0-1.91c0-.3.23-.76-.38-.79-.11,0-.1-.16,0-.2A4.07,4.07,0,0,1,83.88,26c-.46.43-.35.95-.36,1.44a11.17,11.17,0,0,1-.16,2.38,3,3,0,0,1-3.06,2.44c-.32,0-.36.2-.49.35-.66.77-1.35,1.49-2.51,1.29-.27,0-.32.19-.44.33a4.08,4.08,0,0,1-1.27,1.14c-.31.17-.7.35-1,.17-.57-.33-.74,0-1,.4a4.31,4.31,0,0,1-2.41,1.75,1.31,1.31,0,0,1-1.8-1.38A4.88,4.88,0,0,1,73,32a1.19,1.19,0,0,1,1.51,1.15c0,.37,0,.75,0,1.12.07.64.46.84,1,.52a2.16,2.16,0,0,0,1.09-1.86c0-.75,0-1.5,0-2.25,0-.13,0-.26-.09-.37-.35-.3-.35-.31.06-.54s.69-.39,1-.57c.08-.05.16-.09.24,0a.16.16,0,0,1,0,.24c-.58.36-.36.94-.38,1.44s0,1.06,0,1.59c0,.29,0,.6.33.75a.81.81,0,0,0,.86-.19,2.11,2.11,0,0,0,.8-1.26A12.93,12.93,0,0,0,79.65,29c0-.1,0-.24-.11-.28-.82-.29-.12-.44.07-.56A2.49,2.49,0,0,1,80.81,27.67Zm-7.24,6.55c0-1.29-.49-1.75-1.36-1.43A3.19,3.19,0,0,0,70.31,36c.13.94.69,1.25,1.55.83A3,3,0,0,0,73.57,34.22Z"/><path class="cls-5" d="M56.73,31.35c0,.19.14.34-.14.57s-.34.73-.51,1.12c-.5,1.19-1,1.41-2.22,1l-2.73-1a.94.94,0,0,0-1.2.22.28.28,0,0,1-.45.07c-.21-.2,0-.32.13-.42a1.38,1.38,0,0,1,1.23-.34c.29.07.36-.05.24-.32a3.48,3.48,0,0,0-.61-1.16c-.31-.32-.16-.46.11-.66a2.73,2.73,0,0,1,4,1.5c.07.31,0,.49-.34.54a4.14,4.14,0,0,0-1.53.66,7.48,7.48,0,0,0,1.78.69.68.68,0,0,0,.62-.14,3.77,3.77,0,0,0,.71-2.35c.16-.16.39.14.54-.07h0c.07.24.21.28.41.13Zm-4.65-.91c-.84,0-1.07.37-.76,1.13.11.29.2.59.29.88.15.48.42.58.84.3a4.72,4.72,0,0,1,1.09-.62c.36-.11.34-.34.23-.62A1.86,1.86,0,0,0,52.08,30.44Z"/><path class="cls-5" d="M101.11,21c-.1.12-.14.21-.21.24-.42.25-.84.48-1.26.72a.21.21,0,0,1-.25,0c-.1-.12,0-.22.06-.28.28-.2.25-.49.25-.78,0-1.79,0-3.57,0-5.36,0-.24.12-.52-.24-.67s0-.26.07-.34.49-.29.75-.42.51-.43.7-.24-.27.31-.31.52a3.09,3.09,0,0,0-.07.52c0,1.83,0,3.66,0,5.49C100.57,20.82,100.78,20.93,101.11,21Z"/><path class="cls-5" d="M61.53,35.27a1.78,1.78,0,0,1-1.32,0A1.68,1.68,0,0,1,59,33.59a1.73,1.73,0,0,1,1.49-1.54,1.77,1.77,0,0,1,1.92,1.08A3.35,3.35,0,0,1,62,35.78a.81.81,0,0,1-.93.44C61.17,35.9,61.61,35.77,61.53,35.27Zm-1.83-1.5A1.15,1.15,0,0,0,60.87,35c.57,0,1-.6,1-1.34a1.16,1.16,0,0,0-1.11-1.24C60.14,32.43,59.69,33,59.7,33.77Z"/><path class="cls-5" d="M57.67,35.1a1.53,1.53,0,0,1-.91-.33,44.53,44.53,0,0,0,1.92-4.58,2.28,2.28,0,0,1,.85.39A9.69,9.69,0,0,0,57.67,35.1Z"/><path class="cls-5" d="M62.87,36.17a4.9,4.9,0,0,0,.28-3.88c0-.13,0-.23.12-.23a2,2,0,0,1,.84,0c.25.14-.12.3-.12.5,0,.75,0,1.5,0,2.25A1.27,1.27,0,0,1,62.87,36.17Z"/><path class="cls-5" d="M73.12,30.9a1.66,1.66,0,0,1-.26.49c-.48.41-1.14.5-1.62.94-.17.15-.41-.08-.44-.33a.69.69,0,0,1,.25-.65c.47-.39,1.1-.47,1.57-.9C72.83,30.26,73.09,30.55,73.12,30.9Z"/><path class="cls-5" d="M56.34,31.22a.2.2,0,0,0-.24-.17c-.65.11-.53-.32-.45-.67s.42-.64.89-.47a2.07,2.07,0,0,0,1.28.24c-.36.59-.76.34-1.14.23-.21-.07-.49-.32-.63,0s.24.37.45.5.72.14,1,.5c-.28.18-.49-.14-.72,0h0c-.09-.19-.23-.2-.41-.13Z"/><path class="cls-5" d="M90.66,21.19c-.13.39-.35.76-.82.81-.3,0-.41-.24-.36-.5a.87.87,0,0,1,.83-.8C90.55,20.69,90.68,20.9,90.66,21.19Z"/><path class="cls-6" d="M46.66,72.46a.24.24,0,0,0,.12,0v.14Z"/><path class="cls-1" d="M95.15,23.34a3.67,3.67,0,0,0,.15,3.57,2,2,0,0,1-1.65-1.48.58.58,0,0,1,.2-.46A6.6,6.6,0,0,0,95,23.21Z"/><path class="cls-1" d="M92.92,21.49a1.26,1.26,0,0,1,1.26.84,2.08,2.08,0,0,1-.75,2.2A4.74,4.74,0,0,0,92.92,21.49Z"/><path class="cls-1" d="M73.57,34.22a3,3,0,0,1-1.71,2.58c-.86.42-1.42.11-1.55-.83a3.19,3.19,0,0,1,1.9-3.18C73.08,32.47,73.58,32.93,73.57,34.22Z"/><path class="cls-1" d="M52.08,30.44a1.86,1.86,0,0,1,1.69,1.07c.11.28.13.51-.23.62a4.72,4.72,0,0,0-1.09.62c-.42.28-.69.18-.84-.3-.09-.29-.18-.59-.29-.88C51,30.81,51.24,30.46,52.08,30.44Z"/><path class="cls-1" d="M56.33,31.22c.18-.07.32-.06.41.13C56.54,31.5,56.4,31.46,56.33,31.22Z"/><path class="cls-1" d="M59.7,33.77c0-.78.44-1.34,1.07-1.34a1.16,1.16,0,0,1,1.11,1.24c0,.74-.44,1.32-1,1.34A1.15,1.15,0,0,1,59.7,33.77Z"/></svg>