<svg id="Layer_1" data-name="Layer 1" xmlns="http://www.w3.org/2000/svg" xmlns:xlink="http://www.w3.org/1999/xlink" viewBox="0 0 96.23 96.31"><defs><style>.cls-1{fill:url(#linear-gradient);}.cls-2{fill:url(#linear-gradient-2);}.cls-3{fill:url(#linear-gradient-3);}</style><linearGradient id="linear-gradient" y1="48.16" x2="96.23" y2="48.16" gradientUnits="userSpaceOnUse"><stop offset="0" stop-color="#eb9822"/><stop offset="0.29" stop-color="#db8725"/><stop offset="0.7" stop-color="#cc7628"/><stop offset="1" stop-color="#c67029"/></linearGradient><linearGradient id="linear-gradient-2" x1="6.65" y1="52.92" x2="80.56" y2="52.92" xlink:href="#linear-gradient"/><linearGradient id="linear-gradient-3" x1="42.77" y1="29.13" x2="89.59" y2="29.13" xlink:href="#linear-gradient"/></defs><title>Untitled-2</title><path class="cls-1" d="M48.12,96.31a11.09,11.09,0,0,1-7.74-3.11L3.43,57.71a11.21,11.21,0,0,1-.31-15.83l37-38.47A11.08,11.08,0,0,1,48,0h.14A10.1,10.1,0,0,1,55.6,3.29L92.48,38.71a10.57,10.57,0,0,1,3.74,7.58,11,11,0,0,1-3,8.12l-37,38.48a11.17,11.17,0,0,1-7.85,3.42ZM48,2.9a8.2,8.2,0,0,0-5.87,2.52l-37,38.47a8.31,8.31,0,0,0,.23,11.73l37,35.49a8.31,8.31,0,0,0,11.72-.24l37-38.47a8.06,8.06,0,0,0,2.25-6,7.73,7.73,0,0,0-2.79-5.57l-37-35.56A7.29,7.29,0,0,0,48.14,2.9Z"/><text></text><path class="cls-2" d="M38,67.32l7.62,7.24a1.21,1.21,0,1,0,1.65-1.74l-5.59-5.31c-2.52-2.39-2.92-6.07-.88-8.22a4.94,4.94,0,0,1,3.95-1.48,6.88,6.88,0,0,1,4.32,1.93L54.64,65a1.21,1.21,0,1,0,1.64-1.74L50.69,58c-2.52-2.4-2.92-6.08-.88-8.23a4.94,4.94,0,0,1,3.95-1.48,6.88,6.88,0,0,1,4.32,1.93l5.59,5.31a1.21,1.21,0,1,0,1.64-1.74l-5.59-5.31c-2.52-2.39-2.92-6.07-.88-8.22a4.94,4.94,0,0,1,3.95-1.48,6.88,6.88,0,0,1,4.32,1.93L78.37,51.4A6.55,6.55,0,0,1,80.5,57a4.79,4.79,0,0,1-1.26,2.65L52.15,88.17a4.68,4.68,0,0,1-.46.43h0c-.13.1-.26.2-.4.29a6.15,6.15,0,0,1-7.36-1.18L8.83,54.44C6.31,52.05,5.91,48.36,8,46.22a4.91,4.91,0,0,1,4-1.48,6.92,6.92,0,0,1,4.32,1.92l7,6.68a1.21,1.21,0,1,0,1.64-1.74l-7-6.67c-2.52-2.4-2.92-6.08-.88-8.23a4.94,4.94,0,0,1,3.95-1.48,6.88,6.88,0,0,1,4.32,1.93l7,6.67a1.21,1.21,0,1,0,1.64-1.74l-7-6.67C24.37,33,24,29.33,26,27.19A4.92,4.92,0,0,1,30,25.71a6.9,6.9,0,0,1,4.32,1.92l7,6.68A1.21,1.21,0,1,0,43,32.57l-7-6.67C33.4,23.5,33,19.82,35,17.67s5.74-2,8.27.45l12.62,12c2.52,2.39,2.92,6.07.88,8.23L37.1,59.09C35.07,61.24,35.46,64.93,38,67.32Z"/><path class="cls-3" d="M87.41,41.88,52.34,8.6A6.8,6.8,0,0,0,47.7,6.66a4.94,4.94,0,0,0-3.63,1.49C42,10.3,42.42,14,45,16.38L80,49.66a6.82,6.82,0,0,0,4.64,1.94,4.94,4.94,0,0,0,3.64-1.49C90.32,48,89.93,44.27,87.41,41.88Zm-35.16-29-3.52,3.56a1.26,1.26,0,0,1-.9.37,1.19,1.19,0,0,1-.9-.36,1.28,1.28,0,0,1,0-1.81l.19-.18-1.64-1.63a1.25,1.25,0,0,1-.38-.9,1.27,1.27,0,0,1,.37-.9l2.24-2.26a1.27,1.27,0,0,1,.9-.38,1.28,1.28,0,0,1,.91,2.18L48.16,11.9l.74.73,1.53-1.56a1.28,1.28,0,0,1,1.82,1.79Z"/></svg>