<svg id="Layer_1" data-name="Layer 1" xmlns="http://www.w3.org/2000/svg" viewBox="0 0 76.06 76.06"><defs><style>.cls-1{fill:#1d9cd6;}.cls-2{fill:#fff;}.cls-3{fill:#84ba41;}.cls-4{fill:#282a2e;}</style></defs><title>Untitled-2</title><path class="cls-1" d="M8.23,28.45l.12.17Z"/><path class="cls-1" d="M8.37,35.84l.17.15Z"/><circle class="cls-2" cx="38.03" cy="38.03" r="38.03"/><path class="cls-1" d="M33,27.89l0-.13a.34.34,0,0,1,.08.09A.14.14,0,0,1,33,27.89Z"/><polygon class="cls-3" points="61.63 29.68 61.66 29.71 61.63 29.74 61.58 29.71 61.63 29.68"/><rect class="cls-1" x="7.59" y="27.26" width="25.34" height="8.09"/><rect class="cls-3" x="7.35" y="38.71" width="25.34" height="8.09"/><path class="cls-4" d="M67.76,31.33l-.09.52A3,3,0,0,1,65,34.35a5.2,5.2,0,0,1-2.53-.29c-.09,0-.17,0-.25,0a8,8,0,0,1-1.55.15H52.28c-.1,0-.14,0-.12-.12.07-.38.12-.77.17-1.15,0-.08,0-.12.13-.12h2.88a1.09,1.09,0,0,1,.58.12V31a2.78,2.78,0,0,0-.21-1.18A1.23,1.23,0,0,0,54.48,29H52.87c-.08,0-.11,0-.1-.1L53,27.64c0-.07,0-.09.11-.09h1.68a3,3,0,0,1,1.92.6,2.87,2.87,0,0,1,1,1.67A5.35,5.35,0,0,1,57.83,31v1.77c0,.09,0,.11.11.11h3.29a.15.15,0,0,0,.15-.09,1,1,0,0,0,.08-.42V29.47a1.76,1.76,0,0,1,.37-1.12,1.73,1.73,0,0,1,.82-.56,4.31,4.31,0,0,1,1.28-.28s.07,0,.09,0h.71a.55.55,0,0,0,.25,0,3.07,3.07,0,0,1,2.69,2.55l.09.54Zm-4.48-.17h0v1.41c0,.07,0,.1.1.12a6,6,0,0,0,1.11.1,1.21,1.21,0,0,0,1.27-.88,3.24,3.24,0,0,0,0-2,1.07,1.07,0,0,0-.82-.77,2.24,2.24,0,0,0-.58,0,2.74,2.74,0,0,0-1.12.23s-.08,0,0,.1a.71.71,0,0,1,.07.35Z"/><path class="cls-4" d="M53.59,46.74a7.37,7.37,0,0,0-.79-.16l-1-.18a1.26,1.26,0,0,0-.51.07,5.65,5.65,0,0,1-1.74.1,2.06,2.06,0,0,1-1.45-.72,1.52,1.52,0,0,1-.35-.86,2.09,2.09,0,0,1,.22-1.3,1.9,1.9,0,0,1,1.17-.83,5.74,5.74,0,0,1,1.6-.18h1c.07,0,.1,0,.09-.09s0-.32,0-.47a.77.77,0,0,0-.73-.66,4.91,4.91,0,0,0-1.48.11,10.37,10.37,0,0,0-1.32.37c-.07,0-.09,0-.11-.06-.05-.4-.11-.8-.17-1.2,0-.06,0-.09.06-.11a14.29,14.29,0,0,1,1.95-.5,5,5,0,0,1,2.31.11,1.82,1.82,0,0,1,1.3,1.67,4.18,4.18,0,0,1,0,.5v4.39Zm-2.47-2.92h-.63A1.07,1.07,0,0,0,50,44a.75.75,0,0,0-.37.8.68.68,0,0,0,.52.57,1.34,1.34,0,0,0,.49.05,7.46,7.46,0,0,0,1.14-.24c.06,0,.07,0,.07-.09V43.9c0-.07,0-.09-.09-.08Z"/><path class="cls-4" d="M44.49,35c-1.43,0-2.85,0-4.28,0A2.71,2.71,0,0,1,38,34a2.74,2.74,0,0,1-.56-1.39,8,8,0,0,1,0-2.39,2.91,2.91,0,0,1,1.39-2.13,3,3,0,0,1,1.51-.4c.81,0,1.63,0,2.45,0,.06,0,.08,0,.07.08-.07.41-.12.81-.18,1.21,0,.08,0,.1-.12.1H41a1.4,1.4,0,0,0-1.47,1.12,3.59,3.59,0,0,0-.11.72,12.89,12.89,0,0,0,0,1.39,1.38,1.38,0,0,0,1.15,1.34,1.81,1.81,0,0,0,.4,0h3.93l3.38,0a1.46,1.46,0,0,0,.54-.09.88.88,0,0,0,.54-1,.85.85,0,0,0-.84-.71H46.58a2.91,2.91,0,0,1-1.2-.22,1.73,1.73,0,0,1-1.05-1.38,2.46,2.46,0,0,1,.1-1.29,2,2,0,0,1,1.3-1.16,4.46,4.46,0,0,1,1.54-.22h4.1c.09,0,.13,0,.11.11-.07.39-.12.78-.18,1.17,0,.08,0,.12-.13.12H47.25a1.67,1.67,0,0,0-.63.1.63.63,0,0,0-.45.54.82.82,0,0,0,.89,1h1.78a3,3,0,0,1,1,.15,2,2,0,0,1,1.38,1.84,2.89,2.89,0,0,1-.13,1.09,1.82,1.82,0,0,1-1.31,1.18,5.06,5.06,0,0,1-1.5.18H44.49Z"/><path class="cls-4" d="M37.41,43.82V41.44a2,2,0,0,1,0-.35.83.83,0,0,1,.47-.63A4.16,4.16,0,0,1,39,40.13,6.45,6.45,0,0,1,40.8,40a2.47,2.47,0,0,1,1.33.43s.07,0,.1,0a4.8,4.8,0,0,1,2.3-.43,2.82,2.82,0,0,1,.91.17,1.77,1.77,0,0,1,1.22,1.49,4.62,4.62,0,0,1,.05.65q0,2,0,4.08c0,.1,0,.13-.12.12H44.93c-.09,0-.12,0-.12-.11V42.49a1.23,1.23,0,0,0,0-.33.72.72,0,0,0-.8-.59,2.23,2.23,0,0,0-1,.22s-.07,0,0,.09a.9.9,0,0,1,.09.43v4.13c0,.08,0,.09-.1.09H41.23c-.1,0-.11,0-.11-.11V42.53a1.75,1.75,0,0,0,0-.4.66.66,0,0,0-.58-.55,2.37,2.37,0,0,0-1.12.15s-.05,0-.05.07a.21.21,0,0,1,0,.08c0,1.51,0,3,0,4.53,0,.1,0,.12-.13.12H37.53c-.11,0-.12,0-.12-.14Z"/><path class="cls-4" d="M60.78,41.32v3.9c0,.11,0,.21,0,.32a.82.82,0,0,1-.5.64,4,4,0,0,1-1,.3,6.71,6.71,0,0,1-1.79.09,2.76,2.76,0,0,1-2.31-1.31,3.27,3.27,0,0,1-.44-1.46,4.93,4.93,0,0,1,.16-1.91,2.44,2.44,0,0,1,2.2-1.83,3.89,3.89,0,0,1,1.66.18c.13,0,.14,0,.14-.1,0-.86,0-1.71,0-2.57,0-.09,0-.14.12-.15.57-.09,1.13-.2,1.7-.3.09,0,.11,0,.11.1C60.78,38.59,60.78,40,60.78,41.32Zm-1.91,2c0-.53,0-1.06,0-1.6a.1.1,0,0,0-.09-.12,4.05,4.05,0,0,0-.77-.16,1.16,1.16,0,0,0-1.31.85,3.68,3.68,0,0,0-.11,1.36,2.14,2.14,0,0,0,.2.78,1.19,1.19,0,0,0,1,.7,3.47,3.47,0,0,0,1-.08c.11,0,.14-.05.14-.16C58.86,44.42,58.87,43.89,58.87,43.37Z"/><path class="cls-4" d="M62.27,42c0-.32-.09-.64-.14-.95,0-.12,0-.24-.05-.36s0-.07.06-.09A12.44,12.44,0,0,1,64.48,40a4.59,4.59,0,0,1,2,.18,1.83,1.83,0,0,1,1.25,1.7c0,.43,0,.86,0,1.28v3.41c0,.14,0,.14-.14.11l-1.73-.31a.91.91,0,0,0-.36.06,6.63,6.63,0,0,1-1.6.15,3.09,3.09,0,0,1-1-.22,1.71,1.71,0,0,1-1.07-1.7,1.75,1.75,0,0,1,.6-1.41,2.29,2.29,0,0,1,1-.45,6.22,6.22,0,0,1,1.42-.14h.94c.11,0,.13,0,.12-.13a2.43,2.43,0,0,0,0-.47.78.78,0,0,0-.72-.62,5.16,5.16,0,0,0-1.36.08,8.93,8.93,0,0,0-1.43.4Zm2.94,1.85h-.63A1.11,1.11,0,0,0,64,44a.71.71,0,0,0-.32.72.65.65,0,0,0,.48.61,1.51,1.51,0,0,0,.52.06,6.64,6.64,0,0,0,1.16-.24c.06,0,.07,0,.07-.1V43.9c0-.07,0-.09-.09-.08Z"/></svg>