<svg xmlns="http://www.w3.org/2000/svg" viewBox="0 0 17.73 38.17"><defs><style>.cls-1{fill:#f5911e;fill-rule:evenodd;}</style></defs><title>social-7</title><g id="Layer_2" data-name="Layer 2"><g id="Layer_1-2" data-name="Layer 1"><path class="cls-1" d="M3.91,19.23V37.69a.48.48,0,0,0,.48.48h6.85a.48.48,0,0,0,.48-.48V18.93h5a.48.48,0,0,0,.48-.44l.48-5.65a.48.48,0,0,0-.48-.52H11.72v-4a1.7,1.7,0,0,1,1.7-1.7h3.83a.47.47,0,0,0,.48-.48V.48A.48.48,0,0,0,17.25,0H10.78A6.87,6.87,0,0,0,3.91,6.87v5.45H.48A.49.49,0,0,0,0,12.8v5.65a.48.48,0,0,0,.48.48H3.91Z"/></g></g></svg>