<svg xmlns="http://www.w3.org/2000/svg" viewBox="0 0 37.11 30.57"><defs><style>.cls-1,.cls-2{fill:#f5911e;}.cls-2{fill-rule:evenodd;}</style></defs><title>soicial -6</title><g id="Layer_2" data-name="Layer 2"><g id="Layer_1-2" data-name="Layer 1"><path class="cls-1" d="M37,3.66a14.88,14.88,0,0,1-3.75,1.07c.61-.1,1.5-1.19,1.85-1.63A7,7,0,0,0,36.32.82c0-.06.06-.14,0-.19a.2.2,0,0,0-.2,0,19.19,19.19,0,0,1-4.45,1.7.31.31,0,0,1-.31-.08,3,3,0,0,0-.39-.4A7.69,7.69,0,0,0,28.81.55,7.37,7.37,0,0,0,25.5,0,8,8,0,0,0,22.36.9,8.17,8.17,0,0,0,19.83,3a7.65,7.65,0,0,0-1.51,3,8.2,8.2,0,0,0-.08,3.2c0,.17,0,.2-.16.17C12,8.46,6.9,6.28,2.78,1.59c-.18-.21-.27-.21-.42,0-1.8,2.7-.93,7,1.32,9.17.3.28.61.57.94.83a8,8,0,0,1-2.95-.83c-.18-.11-.27,0-.28.15a4.42,4.42,0,0,0,.05.88,7.85,7.85,0,0,0,4.83,6.26,5.55,5.55,0,0,0,1,.3,8.89,8.89,0,0,1-2.89.08c-.21,0-.3.07-.21.27,1.27,3.48,4,4.51,6.08,5.1.28.05.55.05.83.11,0,0,0,0-.05,0-.68,1-3,1.82-4.16,2.2A14.87,14.87,0,0,1,.54,27c-.34-.05-.41-.05-.5,0s0,.14.1.23c.43.28.87.53,1.31.78a20.75,20.75,0,0,0,4.22,1.68c7.58,2.1,16.12.56,21.81-5.1,4.47-4.44,6-10.56,6-16.7,0-.24.28-.37.45-.5a14.67,14.67,0,0,0,3-3.08.92.92,0,0,0,.18-.59v0C37.11,3.57,37.12,3.6,37,3.66Z"/><path class="cls-2" d="M11,30.43Z"/><path class="cls-2" d="M11,30.43s-.61,0,0,0Z"/><path class="cls-2" d="M12.27,30.47c0-.07.66,0,0,0C12.27,30.43,12.35,30.47,12.27,30.47Z"/><path class="cls-2" d="M25.4.05a.15.15,0,0,1-.16,0Z"/></g></g></svg>