<svg id="Layer_1" data-name="Layer 1" xmlns="http://www.w3.org/2000/svg" viewBox="0 0 119.71 119.71"><defs><style>.cls-1{fill:#f29120;}.cls-2{fill:#fff;}</style></defs><title>Untitled-2</title><circle class="cls-1" cx="59.85" cy="59.85" r="59.85"/><path class="cls-2" d="M60.92,31.34c-.35-.5-.6-.94-.93-1.32-2.11-2.45-4.9-3-7.3-1.42s-3.09,4.45-1.44,7.49a35,35,0,0,1,2.48,4.52,4.82,4.82,0,0,1,.07,3.52c-4,7.18-8.21,14.23-12.25,21.37a3.24,3.24,0,0,1-3.38,1.88c-2.83-.12-5.76-.4-8.49.16a6.88,6.88,0,0,0-4.48,3.32,5.9,5.9,0,0,0,1,5.2c1.07,1.2,3.38,1.77,5.16,1.79,12.08.15,24.16.08,36.24.07.76,0,1.53-.11,2.71-.21-1.92-3.36-3.57-6.47-5.48-9.42-.4-.62-1.72-.87-2.63-.91-2.9-.11-5.82,0-9.22,0,.71-1.36,1.17-2.34,1.7-3.26C60,54.76,65.41,45.47,70.74,36.13c1.62-2.84,1.26-5.36-.91-7.12a4.91,4.91,0,0,0-6.44-.24A18.58,18.58,0,0,0,60.92,31.34Zm27,46.73c1.35-.06,2.23-.12,3.1-.14,4.09-.11,6.36-2,6.31-5.38s-2.42-5.72-6.44-5.09c-7.25,1.15-11.39-1.71-14.12-8.28C75,54.89,72.14,51,69.62,46.67c-1.94,3.35-3.71,6.2-5.22,9.18a3.62,3.62,0,0,0,0,3Q73,73.91,81.72,88.89c1.81,3.1,4.7,3.91,7.5,2.37s3.4-4.48,1.73-7.66C90,81.85,89,80.13,87.88,78.07ZM44.25,82.18c-4.11,0-7.45-.05-10.79,0a3.09,3.09,0,0,0-2,.92A5.55,5.55,0,0,0,32,90.81,5.3,5.3,0,0,0,39.55,90C41.19,87.7,42.46,85.17,44.25,82.18Z"/><path class="cls-2" d="M60.92,31.34a18.58,18.58,0,0,1,2.47-2.57,4.91,4.91,0,0,1,6.44.24c2.17,1.76,2.53,4.28.91,7.12C65.41,45.47,60,54.76,54.65,64.08c-.53.92-1,1.9-1.7,3.26,3.4,0,6.32-.07,9.22,0,.91,0,2.23.29,2.63.91,1.91,2.95,3.56,6.06,5.48,9.42-1.18.1-2,.21-2.71.21-12.08,0-24.16.08-36.24-.07-1.78,0-4.09-.59-5.16-1.79a5.9,5.9,0,0,1-1-5.2,6.88,6.88,0,0,1,4.48-3.32c2.73-.56,5.66-.28,8.49-.16a3.24,3.24,0,0,0,3.38-1.88c4-7.14,8.26-14.19,12.25-21.37a4.82,4.82,0,0,0-.07-3.52,35,35,0,0,0-2.48-4.52c-1.65-3-1.1-5.83,1.44-7.49s5.19-1,7.3,1.42C60.32,30.4,60.57,30.84,60.92,31.34Z"/><path class="cls-2" d="M87.88,78.07C89,80.13,90,81.85,91,83.6c1.67,3.18,1,6.16-1.73,7.66s-5.69.73-7.5-2.37q-8.75-15-17.3-30.07a3.62,3.62,0,0,1,0-3c1.51-3,3.28-5.83,5.22-9.18C72.14,51,75,54.89,76.73,59.18c2.73,6.57,6.87,9.43,14.12,8.28,4-.63,6.4,1.77,6.44,5.09S95.07,77.82,91,77.93C90.11,78,89.23,78,87.88,78.07Z"/><path class="cls-2" d="M44.25,82.18c-1.79,3-3.06,5.52-4.7,7.77a5.3,5.3,0,0,1-7.58.86,5.55,5.55,0,0,1-.55-7.67,3.09,3.09,0,0,1,2-.92C36.8,82.13,40.14,82.18,44.25,82.18Z"/></svg>