<svg id="Layer_1" data-name="Layer 1" xmlns="http://www.w3.org/2000/svg" viewBox="0 0 119.71 119.71"><defs><style>.cls-1{fill:#f29120;}.cls-2{fill:#fff;}</style></defs><title>Untitled-2</title><circle class="cls-1" cx="59.85" cy="59.85" r="59.85"/><path class="cls-2" d="M39.26,88.54c0-21.16,0-42,0-63.09l32,32Z"/><path class="cls-2" d="M74.25,53.32,43,22.27c2.19-1.15,4.14-.59,6.06.53L75,37.91l9.48,5.54Z"/><path class="cls-2" d="M42.7,91.37,74.36,60.26l10.09,10L70.29,78.58Q59.7,84.75,49.1,90.92A6.4,6.4,0,0,1,42.7,91.37Z"/><path class="cls-2" d="M88.71,67.84,77.82,56.92l11-11c3.14,1.85,6.66,3.73,10,5.92A6,6,0,0,1,98.67,62C95.39,64.08,91.93,66,88.71,67.84Z"/></svg>