<svg id="Layer_1" data-name="Layer 1" xmlns="http://www.w3.org/2000/svg" viewBox="0 0 119.71 119.71"><defs><style>.cls-1{fill:#f29120;}.cls-2{fill:#fff;}</style></defs><title>Untitled-2</title><circle class="cls-1" cx="59.85" cy="59.85" r="59.85"/><path class="cls-2" d="M91.88,59.89a32,32,0,1,1-32.1-32.07A32.17,32.17,0,0,1,91.88,59.89ZM52.45,67.36H67.19v-15H52.45Zm19.5.12c4.55,0,8.94,0,13.34,0,.41,0,1-.69,1.18-1.16a27.18,27.18,0,0,0,0-12.9c-.23-1-.75-1.17-1.64-1.16-3.39,0-6.78,0-10.18,0H72ZM47.75,52.23c-4.51,0-8.91,0-13.3.05a1.69,1.69,0,0,0-1.19,1.13,62.42,62.42,0,0,0-.56,9.73c.3,4.36.55,4.34,4.95,4.34h10.1Zm5.4-4.69H66.38c-.12-3.68-2.22-10.39-4-13.09s-3.22-2.69-4.95,0C54.87,38.4,54,42.87,53.15,47.54Zm0,24.61A30.06,30.06,0,0,0,54,76.44a72.58,72.58,0,0,0,3.7,9.19c1.14,2.19,2.63,2.21,4,.34,3-4.06,3.89-8.88,4.79-13.82ZM52.05,33.74c-5.81.65-16.58,9.72-16.19,13.78H48.12C49.49,42.73,50.79,38.18,52.05,33.74Zm15.56-.18L71.53,47.5H84.32A27.53,27.53,0,0,0,67.61,33.56ZM35.35,72.12a27.37,27.37,0,0,0,16.72,14c-1.3-4.65-2.59-9.26-3.92-14Zm32.22,14a27.87,27.87,0,0,0,16.76-14H71.55C70.2,76.89,68.9,81.48,67.57,86.16Z"/></svg>